<?xml version="1.0" standalone="no"?>
<!DOCTYPE svg PUBLIC "-//W3C//DTD SVG 1.1//EN" "http://www.w3.org/Graphics/SVG/1.1/DTD/svg11.dtd" >
<svg xmlns="http://www.w3.org/2000/svg" xmlns:xlink="http://www.w3.org/1999/xlink" version="1.1">
<metadata>
Created by FontForge 20170731 at Mon Feb  6 00:57:53 2023
 By Aleksey,,,
Generated in 2010 by FontLab Studio. Copyright info pending.
</metadata>
<defs>
<font id="Brown-Bold" horiz-adv-x="1208" >
  <font-face 
    font-family="Brown"
    font-weight="700"
    font-stretch="normal"
    units-per-em="2048"
    panose-1="0 0 0 0 0 0 0 0 0 0"
    ascent="1638"
    descent="-410"
    x-height="993"
    cap-height="1434"
    bbox="-215 -512 2877 2376"
    underline-thickness="204"
    underline-position="-409"
    unicode-range="U+0020-FB04"
  />
<missing-glyph horiz-adv-x="1167" 
d="M154 0v1434h860v-1434h-860zM399 1198v-962h369v962h-369z" />
    <glyph glyph-name="uniFB00" unicode="ff" horiz-adv-x="1699" 
d="M1628 1456l-41 -227q-38 10 -80 10q-101 0 -149 -57q-37 -47 -37 -158v-31h307v-225h-307v-768h-266v768h-492v-768h-266v768h-256v225h256v41q0 221 106 324q120 117 310 117q82 0 157 -19l-41 -227q-38 10 -79 10q-102 0 -150 -57q-37 -47 -37 -158v-31h492v41
q0 221 106 324q120 117 309 117q83 0 158 -19z" />
    <glyph glyph-name="fi" unicode="fi" horiz-adv-x="1474" 
d="M870 1456l-41 -227q-38 10 -79 10q-102 0 -150 -57q-37 -47 -37 -158v-31h758v-993h-266v768h-492v-768h-266v768h-256v225h256v41q0 221 106 324q120 117 310 117q82 0 157 -19zM1014 1346q0 72 51 121t123 49t123 -49t51 -121t-51 -121t-123 -49t-123 49t-51 121z" />
    <glyph glyph-name="fl" unicode="fl" horiz-adv-x="1474" 
d="M870 1456l-41 -227q-38 10 -79 10q-102 0 -150 -57q-37 -47 -37 -158v-31h492v461h266v-1454h-266v768h-492v-768h-266v768h-256v225h256v41q0 221 106 324q120 117 310 117q82 0 157 -19z" />
    <glyph glyph-name="uniFB03" unicode="ffi" horiz-adv-x="2232" 
d="M1628 1456l-41 -227q-38 10 -80 10q-101 0 -149 -57q-37 -47 -37 -158v-31h758v-993h-267v768h-491v-768h-266v768h-492v-768h-266v768h-256v225h256v41q0 221 106 324q120 117 310 117q82 0 157 -19l-41 -227q-38 10 -79 10q-102 0 -150 -57q-37 -47 -37 -158v-31h492
v41q0 221 106 324q120 117 309 117q83 0 158 -19zM1772 1346q0 72 51 121t123 49t123 -49t51 -121t-51 -121t-123 -49t-123 49t-51 121z" />
    <glyph glyph-name="uniFB04" unicode="ffl" horiz-adv-x="2232" 
d="M1628 1456l-41 -227q-38 10 -80 10q-101 0 -149 -57q-37 -47 -37 -158v-31h491v461h267v-1454h-267v768h-491v-768h-266v768h-492v-768h-266v768h-256v225h256v41q0 221 106 324q120 117 310 117q82 0 157 -19l-41 -227q-38 10 -79 10q-102 0 -150 -57q-37 -47 -37 -158
v-31h492v41q0 221 106 324q120 117 309 117q83 0 158 -19z" />
    <glyph glyph-name=".notdef" horiz-adv-x="1167" 
d="M154 0v1434h860v-1434h-860zM399 1198v-962h369v962h-369z" />
    <glyph glyph-name=".null" horiz-adv-x="0" 
 />
    <glyph glyph-name="nonmarkingreturn" horiz-adv-x="682" 
 />
    <glyph glyph-name="space" unicode=" " horiz-adv-x="552" 
 />
    <glyph glyph-name="exclam" unicode="!" horiz-adv-x="768" 
d="M516 993l-41 -522h-184l-41 522v441h266v-441zM205 158q0 75 51.5 127.5t126.5 52.5t127.5 -52.5t52.5 -127.5t-52.5 -126.5t-127.5 -51.5t-126.5 51.5t-51.5 126.5z" />
    <glyph glyph-name="quotedbl" unicode="&#x22;" horiz-adv-x="983" 
d="M410 1434l-41 -523h-185l-41 523h267zM840 1434l-41 -523h-185l-41 523h267z" />
    <glyph glyph-name="numbersign" unicode="#" horiz-adv-x="1501" 
d="M651 829l-61 -225h258l61 225h-258zM193 1055h286l101 379h233l-100 -379h258l100 379h234l-101 -379h226v-226h-285l-64 -225h226l8 -225h-293l-100 -379h-234l100 379h-258l-100 -379h-233l100 379h-225v225h284l62 225h-225v226z" />
    <glyph glyph-name="dollar" unicode="$" horiz-adv-x="1095" 
d="M20 195l181 188q64 -71 153.5 -114.5t184.5 -43.5q92 0 150.5 51.5t58.5 129.5q0 52 -28 92t-79.5 68t-105.5 49.5t-125.5 51.5t-120.5 58q-203 119 -203 326q0 143 90 243.5t230 139.5v235h245v-221q174 -19 324 -129l-144 -205q-44 41 -111.5 67.5t-135.5 26.5
q-41 0 -79 -9t-70.5 -26.5t-52.5 -48.5t-20 -71q0 -41 28.5 -74.5t75 -55.5t106 -47.5t121.5 -49.5t121.5 -61.5t106 -82.5t75 -115t28.5 -157q0 -158 -106.5 -272t-266.5 -146v-228h-245v230q-212 41 -386 201z" />
    <glyph glyph-name="percent" unicode="%" horiz-adv-x="1976" 
d="M635 1075q0 65 -39.5 109.5t-103.5 44.5t-104 -44.5t-40 -109.5t40 -109t104 -44t103.5 44t39.5 109zM102 1075q0 158 112.5 268.5t277.5 110.5t277 -110.5t112 -268.5t-112 -268.5t-277 -110.5t-277.5 110.5t-112.5 268.5zM1628 358q0 65 -39.5 109.5t-103.5 44.5
t-104 -44.5t-40 -109.5t40 -109t104 -44t103.5 44t39.5 109zM1096 358q0 158 112 268.5t277 110.5t277 -110.5t112 -268.5t-112 -268t-277 -110t-277 110t-112 268zM686 0h-227l837 1434h228z" />
    <glyph glyph-name="ampersand" unicode="&#x26;" horiz-adv-x="1351" 
d="M954 864l248 60q43 -150 43 -287q0 -218 -88 -367l236 -270h-332l-76 86q-157 -106 -397 -106q-102 0 -198.5 33.5t-172 93t-121 149t-45.5 193.5q0 247 256 419q-112 147 -112 275q0 130 102.5 220.5t241.5 90.5q149 0 246.5 -95.5t97.5 -240.5q0 -97 -51 -173
t-138 -144l275 -316q20 75 20 154q0 103 -35 225zM317 449q0 -93 77.5 -158.5t205.5 -65.5q126 0 215 56l-342 395q-156 -86 -156 -227zM616 1120q0 36 -21.5 62t-55.5 26q-33 0 -55.5 -26t-22.5 -62q0 -59 69 -135q86 75 86 135z" />
    <glyph glyph-name="quotesingle" unicode="'" horiz-adv-x="552" 
d="M410 1434l-41 -523h-185l-41 523h267z" />
    <glyph glyph-name="parenleft" unicode="(" horiz-adv-x="931" 
d="M532 512q0 -219 63.5 -427t180.5 -376l-198 -139q-141 201 -216 442t-75 500t75 500t216 442l198 -139q-117 -168 -180.5 -376t-63.5 -427z" />
    <glyph glyph-name="parenright" unicode=")" horiz-adv-x="931" 
d="M399 512q0 220 -63 428t-180 375l198 139q141 -201 216 -442t75 -500t-75 -500t-216 -442l-198 139q117 167 180 375t63 428z" />
    <glyph glyph-name="asterisk" unicode="*" horiz-adv-x="1056" 
d="M354 553l-180 131l174 240l-282 92l69 211l281 -90v297h225v-297l281 92l69 -213l-282 -92l174 -240l-181 -131l-174 240z" />
    <glyph glyph-name="plus" unicode="+" horiz-adv-x="1126" 
d="M92 686h359v358h225v-358h358v-225h-358v-359h-225v359h-359v225z" />
    <glyph glyph-name="comma" unicode="," horiz-adv-x="768" 
d="M256 317h287l-246 -604h-195z" />
    <glyph glyph-name="hyphen" unicode="-" horiz-adv-x="962" 
d="M143 645h676v-225h-676v225z" />
    <glyph glyph-name="period" unicode="." horiz-adv-x="768" 
d="M225 158q0 75 51.5 127.5t126.5 52.5t128 -52.5t53 -127.5t-53 -126.5t-128 -51.5t-126.5 51.5t-51.5 126.5z" />
    <glyph glyph-name="slash" unicode="/" horiz-adv-x="931" 
d="M256 0h-246l666 1434h246z" />
    <glyph glyph-name="zero" unicode="0" horiz-adv-x="1228" 
d="M840 717q0 105 -12.5 191t-38 155t-70.5 107t-105 38t-104.5 -38t-70.5 -107t-38 -155t-12 -191t12 -191.5t38 -155.5t70.5 -107t104.5 -38q80 0 132 68.5t73 175t21 248.5zM113 717q0 159 27.5 288.5t85 232t156.5 159.5t232 57q107 0 192.5 -38t143 -104t95.5 -160
t54.5 -201.5t16.5 -233.5t-16.5 -233.5t-54.5 -201.5t-95.5 -160t-143 -104t-192.5 -38q-133 0 -232 57t-156.5 159.5t-85 232t-27.5 288.5z" />
    <glyph glyph-name="one" unicode="1" horiz-adv-x="870" 
d="M113 967v262l348 205h194v-1434h-276v1114z" />
    <glyph glyph-name="two" unicode="2" horiz-adv-x="1116" 
d="M346 1047l-254 75q46 148 170.5 240t282.5 92q123 0 227.5 -56t168 -158t63.5 -228q0 -118 -49 -215t-136 -197l-305 -354h500v-246h-932v164l504 571q79 89 110 155t31 126q0 77 -53 134.5t-133 57.5q-70 0 -121.5 -43.5t-73.5 -117.5z" />
    <glyph glyph-name="three" unicode="3" horiz-adv-x="1173" 
d="M51 203l199 166q46 -65 116.5 -104.5t149.5 -39.5q105 0 186.5 74t81.5 186t-81 187.5t-201 75.5q-92 0 -172 -41v163l268 318h-479v246h870v-164l-260 -320q151 -58 241.5 -181.5t90.5 -283.5q0 -148 -72 -264t-193.5 -178.5t-269.5 -62.5q-133 0 -256.5 58t-218.5 165z
" />
    <glyph glyph-name="four" unicode="4" horiz-adv-x="1259" 
d="M788 1434h195v-861h236v-245h-236v-328h-276v328h-666v164zM438 573h269v336z" />
    <glyph glyph-name="five" unicode="5" horiz-adv-x="1157" 
d="M82 164l188 176q48 -52 112.5 -83.5t133.5 -31.5q100 0 172 66q80 73 80 184q0 120 -88 195q-66 57 -174 57q-118 0 -211 -78l-172 25l92 760h758v-246h-533l-22 -225q48 10 110 10q201 0 334 -109q85 -68 133.5 -171t48.5 -218q0 -139 -71.5 -253t-192.5 -178t-264 -64
q-250 0 -434 184z" />
    <glyph glyph-name="six" unicode="6" 
d="M571 1434h306l-271 -457h19q135 0 249.5 -63t183 -177t68.5 -254q0 -137 -69 -253t-186.5 -183t-254.5 -67q-101 0 -195 35t-167.5 97t-117.5 155t-44 202q0 96 36.5 188.5t104.5 206.5zM444 696q-86 -117 -86 -227q0 -101 74.5 -172.5t179.5 -71.5q104 0 173 73t69 177
q0 106 -71.5 181t-184.5 75q-80 0 -154 -35z" />
    <glyph glyph-name="seven" unicode="7" horiz-adv-x="1095" 
d="M92 1188v246h942v-164l-616 -1270h-293l580 1188h-613z" />
    <glyph glyph-name="eight" unicode="8" horiz-adv-x="1228" 
d="M614 911q63 0 103.5 42.5t40.5 105.5t-40.5 106t-103.5 43t-103 -43t-40 -106t40 -105.5t103 -42.5zM614 225q101 0 168.5 63t67.5 156t-67.5 157.5t-168.5 64.5q-100 0 -167.5 -64.5t-67.5 -157.5t67 -156t168 -63zM614 -20q-215 0 -363.5 134.5t-148.5 329.5
q0 227 207 363q-114 103 -114 252q0 166 119.5 280.5t299.5 114.5t300 -114.5t120 -280.5q0 -149 -114 -252q206 -135 206 -363q0 -195 -148.5 -329.5t-363.5 -134.5z" />
    <glyph glyph-name="nine" unicode="9" 
d="M637 0h-305l270 457h-18q-135 0 -250 62.5t-183.5 176.5t-68.5 254q0 137 69 253.5t186.5 183.5t254.5 67q101 0 195 -35t167.5 -97t117.5 -155t44 -202q0 -96 -36.5 -189.5t-104.5 -206.5zM764 737q86 117 86 228q0 101 -74.5 172t-179.5 71q-104 0 -173 -73t-69 -177
q0 -106 71.5 -181t184.5 -75q80 0 154 35z" />
    <glyph glyph-name="colon" unicode=":" horiz-adv-x="768" 
d="M225 838q0 75 51.5 125.5t126.5 50.5t128 -50.5t53 -125.5q0 -74 -52.5 -124t-128.5 -50q-75 0 -126.5 49.5t-51.5 124.5zM225 154q0 75 51.5 125.5t126.5 50.5t128 -50.5t53 -125.5q0 -74 -52.5 -124t-128.5 -50q-75 0 -126.5 49.5t-51.5 124.5z" />
    <glyph glyph-name="semicolon" unicode=";" horiz-adv-x="768" 
d="M256 317h287l-246 -604h-195zM215 838q0 75 51.5 125.5t126.5 50.5t127.5 -50.5t52.5 -125.5q0 -74 -52 -124t-128 -50q-75 0 -126.5 49.5t-51.5 124.5z" />
    <glyph glyph-name="less" unicode="&#x3c;" horiz-adv-x="1126" 
d="M489 573l545 -237v-244l-942 410v143l942 410v-244z" />
    <glyph glyph-name="equal" unicode="=" horiz-adv-x="1126" 
d="M92 471h942v-225h-942v225zM92 901h942v-225h-942v225z" />
    <glyph glyph-name="greater" unicode="&#x3e;" horiz-adv-x="1126" 
d="M92 336l545 237l-545 238v244l942 -410v-143l-942 -410v244z" />
    <glyph glyph-name="question" unicode="?" horiz-adv-x="1024" 
d="M330 154q0 75 51.5 125.5t126.5 50.5t127.5 -50.5t52.5 -125.5q0 -74 -52 -124t-128 -50q-75 0 -126.5 49.5t-51.5 124.5zM381 1083l-258 68q29 129 137 216t268 87q174 0 294 -106t120 -263q0 -71 -24.5 -131.5t-60.5 -100t-79 -76.5t-79 -62.5t-60.5 -55t-24.5 -57.5
q0 -39 35 -74l-207 -143q-94 110 -94 223q0 62 24.5 115.5t60.5 88.5t79 70.5t79 62.5t60.5 62.5t24.5 73.5q0 57 -41 92t-107 35q-63 0 -102.5 -38t-44.5 -87z" />
    <glyph glyph-name="at" unicode="@" horiz-adv-x="2048" 
d="M782 512q0 -99 66.5 -167.5t169.5 -68.5q58 0 108.5 22t77.5 56q-4 54 -4 90v230q-29 32 -78 53t-104 21q-103 0 -169.5 -68.5t-66.5 -167.5zM1526 72q-70 0 -133.5 29t-108.5 79q-118 -108 -280 -108q-58 0 -119.5 17.5t-120 54t-105 87.5t-74.5 124t-28 157
q0 101 40 186.5t103.5 139.5t138 84t146.5 30q126 0 223 -63v43h217v-494q0 -76 21 -114q28 -48 86 -48q44 0 74.5 27.5t45.5 74t21 91.5t6 94q0 178 -91 323t-238.5 223.5t-317.5 78.5q-135 0 -258 -53t-211.5 -143t-141 -215.5t-52.5 -264.5q0 -137 52 -262.5t139.5 -216
t209 -144t254.5 -53.5q238 0 406 133l126 -186q-230 -172 -518 -172q-185 0 -351 71t-285 191.5t-189 287t-70 351.5q0 183 69 349.5t186.5 287.5t282.5 192.5t349 71.5q172 0 332 -64.5t279.5 -175.5t191.5 -270.5t72 -339.5q0 -101 -23 -188.5t-68 -156t-119 -107.5
t-169 -39z" />
    <glyph glyph-name="A" unicode="A" horiz-adv-x="1423" 
d="M289 0h-289l614 1434h195l614 -1434h-288l-136 317h-575zM711 987l-183 -424h365z" />
    <glyph glyph-name="B" unicode="B" horiz-adv-x="1280" 
d="M164 1434h487q115 0 190 -25.5t132 -75.5q62 -54 97.5 -129t35.5 -160q0 -67 -27 -133.5t-65 -105.5q96 -48 155.5 -148t59.5 -219q0 -89 -35 -169t-96 -140q-129 -129 -375 -129h-559v1434zM440 1188v-307h195q105 0 153 51q41 44 41 102q0 59 -41 103q-48 51 -153 51
h-195zM440 246h277q127 0 184 63q51 54 51 131t-51 131q-57 64 -184 64h-277v-389z" />
    <glyph glyph-name="C" unicode="C" horiz-adv-x="1464" 
d="M815 1208q-133 0 -243 -65.5t-172 -178.5t-62 -247q0 -209 141 -350.5t348 -141.5q131 0 234 55t172 144l190 -170q-99 -126 -255 -200t-347 -74q-164 0 -306.5 57.5t-241.5 156.5t-155.5 234.5t-56.5 288.5t56 288.5t154.5 234.5t240 156.5t305.5 57.5q156 0 290 -54
t234 -151l-178 -188q-147 147 -348 147z" />
    <glyph glyph-name="D" unicode="D" horiz-adv-x="1454" 
d="M1116 717q0 182 -104 311q-128 160 -367 160h-205v-942h205q239 0 367 160q104 129 104 311zM164 1434h450q309 0 494 -136q133 -99 209 -251.5t76 -329.5t-76 -330t-209 -252q-184 -135 -494 -135h-450v1434z" />
    <glyph glyph-name="E" unicode="E" horiz-adv-x="1126" 
d="M1024 1188h-584v-297h441v-246h-441v-399h604v-246h-880v1434h860v-246z" />
    <glyph glyph-name="F" unicode="F" horiz-adv-x="1064" 
d="M1024 1188h-584v-297h441v-246h-441v-645h-276v1434h860v-246z" />
    <glyph glyph-name="G" unicode="G" horiz-adv-x="1546" 
d="M815 1208q-133 0 -243 -65.5t-172 -178.5t-62 -247q0 -209 141 -350.5t348 -141.5q182 0 320 111v309h-369v246h645v-637q-99 -126 -255 -200t-347 -74q-164 0 -306.5 57.5t-241.5 156.5t-155.5 234.5t-56.5 288.5t56 288.5t154.5 234.5t240 156.5t305.5 57.5
q156 0 290 -54t234 -151l-178 -188q-147 147 -348 147z" />
    <glyph glyph-name="H" unicode="H" horiz-adv-x="1597" 
d="M1157 0v645h-717v-645h-276v1434h276v-543h717v543h277v-1434h-277z" />
    <glyph glyph-name="I" unicode="I" horiz-adv-x="604" 
d="M164 0v1434h276v-1434h-276z" />
    <glyph glyph-name="J" unicode="J" horiz-adv-x="1024" 
d="M870 1434v-983q0 -171 -45 -254q-55 -102 -160 -159.5t-231 -57.5q-139 0 -246 67.5t-157 183.5l237 119q21 -52 62.5 -88.5t105.5 -36.5q80 0 125 58q33 45 33 137v1014h276z" />
    <glyph glyph-name="K" unicode="K" horiz-adv-x="1423" 
d="M1069 0l-629 705v-705h-276v1434h276v-574l543 574h365l-631 -656l706 -778h-354z" />
    <glyph glyph-name="L" unicode="L" horiz-adv-x="1095" 
d="M164 0v1434h276v-1188h604v-246h-880z" />
    <glyph glyph-name="M" unicode="M" horiz-adv-x="1761" 
d="M358 1434l523 -859l522 859h194v-1434h-276v799l-344 -563h-193l-344 563v-799h-276v1434h194z" />
    <glyph glyph-name="N" unicode="N" horiz-adv-x="1597" 
d="M164 0v1434h194l799 -934v934h277v-1434h-195l-799 934v-934h-276z" />
    <glyph glyph-name="O" unicode="O" horiz-adv-x="1617" 
d="M338 717q0 -134 61 -246.5t169.5 -179t240.5 -66.5t240.5 66.5t169.5 179t61 246.5t-61 246.5t-169.5 178.5t-240.5 66t-240.5 -66t-169.5 -178.5t-61 -246.5zM61 717q0 152 55.5 287t152.5 234.5t237.5 157.5t302.5 58t302.5 -58t237.5 -157.5t152 -234.5t55 -287
t-55 -287t-152 -234.5t-237.5 -157.5t-302.5 -58t-302.5 58t-237.5 157.5t-152.5 234.5t-55.5 287z" />
    <glyph glyph-name="P" unicode="P" horiz-adv-x="1228" 
d="M702 584h-262v-584h-276v1434h538q134 0 222.5 -32t150.5 -97q54 -55 83.5 -133.5t29.5 -163.5t-29.5 -163.5t-83.5 -133.5q-121 -127 -373 -127zM440 829h250q119 0 174 58q47 50 47 121q0 72 -47 122q-55 58 -174 58h-250v-359z" />
    <glyph glyph-name="Q" unicode="Q" horiz-adv-x="1638" 
d="M61 717q0 152 55.5 287t152.5 234.5t237.5 157.5t302.5 58t302.5 -58t237.5 -157.5t152 -234.5t55 -287q0 -260 -151 -457l233 -260h-313l-90 102q-186 -122 -426 -122q-162 0 -302.5 58t-237.5 157.5t-152.5 234.5t-55.5 287zM338 717q0 -134 61 -246.5t169.5 -179
t240.5 -66.5q139 0 252 74l-311 352l174 152l295 -332q61 113 61 246q0 134 -61 246.5t-169.5 178.5t-240.5 66t-240.5 -66t-169.5 -178.5t-61 -246.5z" />
    <glyph glyph-name="R" unicode="R" horiz-adv-x="1372" 
d="M541 635h-101v-635h-276v1434h522q196 0 313 -107q60 -57 93.5 -132.5t33.5 -160.5t-33.5 -160.5t-93.5 -132.5q-61 -58 -143 -84l537 -657h-342zM440 881h230q99 0 139 43q41 44 41 108q0 67 -41 111q-42 45 -139 45h-230v-307z" />
    <glyph glyph-name="S" unicode="S" horiz-adv-x="1095" 
d="M20 195l181 188q64 -71 153.5 -114.5t184.5 -43.5q92 0 150.5 51.5t58.5 129.5q0 52 -28 92t-79.5 68t-105.5 49.5t-125.5 51.5t-120.5 58q-203 119 -203 326q0 93 40.5 170.5t107 127.5t151 77.5t174.5 27.5q234 0 416 -135l-144 -205q-44 41 -111.5 67.5t-135.5 26.5
q-41 0 -79 -9t-70.5 -26.5t-52.5 -48.5t-20 -71q0 -41 28.5 -74.5t75 -55.5t106 -47.5t121.5 -49.5t121.5 -61.5t106 -82.5t75 -115t28.5 -157q0 -123 -67.5 -223t-178 -153.5t-239.5 -53.5q-285 0 -519 215z" />
    <glyph glyph-name="T" unicode="T" horiz-adv-x="1136" 
d="M51 1434h1034v-246h-378v-1188h-277v1188h-379v246z" />
    <glyph glyph-name="U" unicode="U" horiz-adv-x="1536" 
d="M768 -20q-124 0 -236 37.5t-194 109.5q-184 164 -184 477v830h276v-850q0 -179 94 -267q95 -92 244 -92t244 92q94 88 94 267v850h276v-830q0 -313 -184 -477q-82 -72 -194 -109.5t-236 -37.5z" />
    <glyph glyph-name="V" unicode="V" horiz-adv-x="1394" 
d="M600 0l-580 1434h285l391 -979l394 979h284l-579 -1434h-195z" />
    <glyph glyph-name="W" unicode="W" horiz-adv-x="2017" 
d="M496 0l-476 1434h279l297 -895l315 895h195l315 -895l297 895h279l-475 -1434h-195l-319 907l-318 -907h-194z" />
    <glyph glyph-name="X" unicode="X" horiz-adv-x="1392" 
d="M1300 1434l-436 -670l498 -764h-318l-348 545l-348 -545h-317l495 764l-434 670h318l286 -453l287 453h317z" />
    <glyph glyph-name="Y" unicode="Y" horiz-adv-x="1280" 
d="M1270 1434l-492 -785v-649h-276v649l-492 785h316l315 -504l313 504h316z" />
    <glyph glyph-name="Z" unicode="Z" horiz-adv-x="1259" 
d="M82 0v164l696 1024h-635v246h1004v-164l-698 -1024h739v-246h-1106z" />
    <glyph glyph-name="bracketleft" unicode="[" horiz-adv-x="931" 
d="M287 -410v1844h563v-236h-318v-1372h318v-236h-563z" />
    <glyph glyph-name="backslash" unicode="\" horiz-adv-x="931" 
d="M10 1434h246l666 -1434h-246z" />
    <glyph glyph-name="bracketright" unicode="]" horiz-adv-x="931" 
d="M645 1434v-1844h-563v236h317v1372h-317v236h563z" />
    <glyph glyph-name="asciicircum" unicode="^" horiz-adv-x="1064" 
d="M61 717l379 717h185l379 -717h-254l-218 411l-217 -411h-254z" />
    <glyph glyph-name="underscore" unicode="_" horiz-adv-x="1064" 
d="M31 0h1003v-225h-1003v225z" />
    <glyph glyph-name="grave" unicode="`" horiz-adv-x="716" 
d="M143 1475h287l143 -328h-184z" />
    <glyph glyph-name="a" unicode="a" horiz-adv-x="1259" 
d="M840 348v297q-42 57 -106.5 90t-139.5 33q-113 0 -184.5 -80.5t-71.5 -191.5q0 -117 74.5 -194t187.5 -77q74 0 137.5 33.5t102.5 89.5zM1106 993v-993h-256v80q-117 -100 -277 -100q-109 0 -208 45t-166 122q-127 147 -127 349q0 219 142 368.5t345 149.5
q166 0 291 -101v80h256z" />
    <glyph glyph-name="b" unicode="b" horiz-adv-x="1259" 
d="M420 645v-297q39 -57 102 -90t137 -33q113 0 188 77t75 194q0 111 -71.5 191.5t-184.5 80.5q-75 0 -139.5 -33t-106.5 -90zM410 0h-256v1454h266v-532q118 92 280 92q133 0 245 -68t177.5 -187t65.5 -263q0 -202 -127 -349q-67 -77 -166.5 -122t-208.5 -45
q-159 0 -276 100v-80z" />
    <glyph glyph-name="c" unicode="c" horiz-adv-x="1105" 
d="M850 356l205 -153q-167 -223 -451 -223q-228 0 -380 149.5t-152 366.5q0 143 69.5 261.5t192.5 187.5t272 69q126 0 236.5 -54t181.5 -145l-188 -166q-41 55 -100.5 87t-129.5 32q-115 0 -191.5 -78.5t-76.5 -193.5q0 -118 76.5 -194.5t197.5 -76.5q76 0 139 38t99 93z
" />
    <glyph glyph-name="d" unicode="d" horiz-adv-x="1259" 
d="M840 348v297q-42 57 -106.5 90t-139.5 33q-113 0 -184.5 -80.5t-71.5 -191.5q0 -117 74.5 -194t187.5 -77q74 0 137.5 33.5t102.5 89.5zM1106 0h-256v80q-117 -100 -277 -100q-109 0 -208 45t-166 122q-127 147 -127 349q0 219 142 368.5t345 149.5q163 0 281 -92v532
h266v-1454z" />
    <glyph glyph-name="e" unicode="e" horiz-adv-x="1095" 
d="M848 309l151 -151q-71 -85 -180 -131.5t-227 -46.5q-226 0 -373 143t-147 373q0 103 34.5 197t96 165.5t153 113.5t199.5 42q134 0 242 -69.5t167.5 -185.5t59.5 -253q0 -42 -6 -76h-688q10 -104 86 -169.5t182 -65.5q77 0 142.5 34t107.5 80zM342 625h410
q-6 69 -62 121.5t-135 52.5q-81 0 -142.5 -52t-70.5 -122z" />
    <glyph glyph-name="f" unicode="f" horiz-adv-x="942" 
d="M870 1456l-41 -227q-38 10 -79 10q-102 0 -150 -57q-37 -47 -37 -158v-31h307v-225h-307v-768h-266v768h-256v225h256v41q0 221 106 324q120 117 310 117q82 0 157 -19z" />
    <glyph glyph-name="g" unicode="g" horiz-adv-x="1259" 
d="M1106 993v-938q0 -240 -90 -368q-68 -94 -183.5 -146.5t-257.5 -52.5t-271.5 58t-205.5 147l168 174q25 -27 49 -47.5t62.5 -44.5t89 -37.5t108.5 -13.5q136 0 203 79q32 35 47 88.5t15 145.5v33q-118 -90 -267 -90q-109 0 -209 45t-167 122q-125 144 -125 349
q0 219 142 368.5t345 149.5q166 0 291 -101v80h256zM840 348v297q-42 57 -106.5 90t-139.5 33q-113 0 -184.5 -80.5t-71.5 -191.5q0 -117 74.5 -194t187.5 -77q74 0 137.5 33.5t102.5 89.5z" />
    <glyph glyph-name="h" unicode="h" horiz-adv-x="1269" 
d="M420 645v-645h-266v1454h266v-532q119 92 270 92q101 0 191.5 -42.5t152.5 -117.5q52 -61 77.5 -143t25.5 -205v-506h-267v526q0 128 -59 187q-55 55 -149 55q-77 0 -142.5 -38.5t-99.5 -84.5z" />
    <glyph glyph-name="i" unicode="i" horiz-adv-x="573" 
d="M420 993v-993h-266v993h266zM113 1346q0 72 51 121t123 49t123 -49t51 -121t-51 -121t-123 -49t-123 49t-51 121z" />
    <glyph glyph-name="j" unicode="j" horiz-adv-x="655" 
d="M-41 -498l41 242q30 -10 70 -10q85 0 127 45q39 42 39 170v1044h266v-1044q0 -112 -17 -185t-55 -129q-104 -147 -338 -147q-65 0 -133 14zM195 1346q0 72 51 121t123 49t123 -49t51 -121t-51 -121t-123 -49t-123 49t-51 121z" />
    <glyph glyph-name="k" unicode="k" horiz-adv-x="1218" 
d="M1137 993l-486 -446l547 -547h-358l-420 430v-430h-266v1454h266v-782l342 321h375z" />
    <glyph glyph-name="l" unicode="l" horiz-adv-x="573" 
d="M420 1454v-1454h-266v1454h266z" />
    <glyph glyph-name="m" unicode="m" horiz-adv-x="1945" 
d="M420 0h-266v993h256v-80q113 101 268 101q99 0 186.5 -42t147.5 -114q65 69 156.5 112.5t195.5 43.5q102 0 195 -43t153 -117q100 -124 100 -328v-526h-266v537q0 115 -49 170q-56 61 -149 61q-77 0 -142 -41.5t-98 -89.5q8 -66 8 -111v-526h-266v537q0 115 -49 170
q-56 61 -150 61q-75 0 -134.5 -38t-96.5 -85v-645z" />
    <glyph glyph-name="n" unicode="n" horiz-adv-x="1269" 
d="M420 0h-266v993h256v-80q126 101 280 101q101 0 191.5 -42.5t152.5 -117.5q52 -61 77.5 -143t25.5 -205v-506h-267v526q0 128 -59 187q-55 55 -149 55q-77 0 -142.5 -38.5t-99.5 -84.5v-645z" />
    <glyph glyph-name="o" unicode="o" horiz-adv-x="1200" 
d="M72 496q0 142 68.5 260.5t190 188t269.5 69.5t269.5 -69.5t190 -188t68.5 -260.5t-68.5 -260t-190 -187t-269.5 -69t-269.5 69t-190 187t-68.5 260zM338 496q0 -115 73.5 -193t188.5 -78t188.5 78t73.5 193t-73.5 193.5t-188.5 78.5t-188.5 -78.5t-73.5 -193.5z" />
    <glyph glyph-name="p" unicode="p" horiz-adv-x="1259" 
d="M154 -492v1485h256v-80q125 101 290 101q133 0 245 -68t177.5 -187t65.5 -263q0 -205 -125 -349q-67 -77 -167.5 -122t-209.5 -45q-148 0 -266 90v-562h-266zM420 645v-297q39 -57 102 -90t137 -33q113 0 188 77t75 194q0 111 -71.5 191.5t-184.5 80.5q-75 0 -139.5 -33
t-106.5 -90z" />
    <glyph glyph-name="q" unicode="q" horiz-adv-x="1259" 
d="M1106 993v-1485h-266v562q-118 -90 -267 -90q-109 0 -209 45t-167 122q-125 144 -125 349q0 219 142 368.5t345 149.5q166 0 291 -101v80h256zM840 348v297q-42 57 -106.5 90t-139.5 33q-113 0 -184.5 -80.5t-71.5 -191.5q0 -117 74.5 -194t187.5 -77q74 0 137.5 33.5
t102.5 89.5z" />
    <glyph glyph-name="r" unicode="r" horiz-adv-x="839" 
d="M788 1006l-30 -248q-30 10 -96 10q-80 0 -146 -45t-96 -98v-625h-266v993h256v-100q45 56 121.5 88.5t166.5 32.5q32 0 90 -8z" />
    <glyph glyph-name="s" unicode="s" horiz-adv-x="942" 
d="M55 113l129 190q51 -46 124.5 -72t148.5 -26q54 0 90.5 23.5t36.5 60.5q0 27 -20.5 48t-54.5 35t-77.5 30.5t-88.5 31t-88.5 39t-77.5 54t-54.5 75.5t-20.5 103q0 137 113.5 223t267.5 86q93 0 188.5 -30t147.5 -71l-125 -192q-92 67 -190 67q-58 0 -96.5 -21t-38.5 -58
q0 -26 26.5 -45.5t69 -34.5t94 -31.5t102.5 -41t93.5 -57.5t69 -87.5t26.5 -124.5q0 -92 -55.5 -163t-144.5 -107.5t-195 -36.5q-104 0 -208.5 34.5t-191.5 98.5z" />
    <glyph glyph-name="t" unicode="t" horiz-adv-x="1013" 
d="M860 225l41 -225q-58 -20 -166 -20q-236 0 -344 143q-74 99 -74 297v348h-276v225h276v277h267v-277h327v-225h-327v-379q0 -87 32 -125q43 -49 136 -49q63 0 108 10z" />
    <glyph glyph-name="u" unicode="u" horiz-adv-x="1249" 
d="M829 993h267v-993h-256v80q-111 -100 -269 -100q-101 0 -189.5 42.5t-148.5 116.5q-100 124 -100 328v526h266v-536q0 -114 50 -170q56 -62 149 -62q75 0 134.5 38t96.5 85v645z" />
    <glyph glyph-name="v" unicode="v" horiz-adv-x="1138" 
d="M297 993l272 -606l273 606h276l-456 -993h-185l-457 993h277z" />
    <glyph glyph-name="w" unicode="w" horiz-adv-x="1744" 
d="M872 578l-249 -578h-185l-418 993h269l241 -579l250 579h185l247 -579l244 579h268l-417 -993h-185z" />
    <glyph glyph-name="x" unicode="x" horiz-adv-x="1118" 
d="M362 993l197 -282l197 282h305l-334 -463l381 -530h-315l-234 336l-233 -336h-316l381 530l-334 463h305z" />
    <glyph glyph-name="y" unicode="y" horiz-adv-x="1173" 
d="M469 -492h-279l275 592l-445 893h293l291 -596l268 596h281z" />
    <glyph glyph-name="z" unicode="z" horiz-adv-x="1085" 
d="M942 993v-164l-481 -604h522v-225h-881v164l476 604h-435v225h799z" />
    <glyph glyph-name="braceleft" unicode="{" horiz-adv-x="931" 
d="M383 512q34 -12 55.5 -25t45.5 -39t36 -70t12 -106q0 -56 -10 -157t-10 -150q0 -139 156 -139h80v-236h-62q-201 0 -310.5 93t-109.5 274q0 61 10.5 171t10.5 163q0 139 -185 139v164q185 0 185 139q0 53 -10.5 163t-10.5 171q0 181 109.5 274t310.5 93h62v-236h-80
q-156 0 -156 -139q0 -49 10 -150t10 -157q0 -62 -12 -106t-36 -70t-45.5 -39t-55.5 -25z" />
    <glyph glyph-name="bar" unicode="|" horiz-adv-x="491" 
d="M369 1434v-1844h-246v1844h246z" />
    <glyph glyph-name="braceright" unicode="}" horiz-adv-x="931" 
d="M549 512q-34 12 -55.5 25t-46 39t-36.5 70t-12 106q0 56 10.5 157t10.5 150q0 139 -156 139h-80v236h62q201 0 310.5 -93t109.5 -274q0 -61 -10.5 -171t-10.5 -163q0 -139 184 -139v-164q-184 0 -184 -139q0 -53 10.5 -163t10.5 -171q0 -181 -109.5 -274t-310.5 -93h-62
v236h80q156 0 156 139q0 49 -10.5 150t-10.5 157q0 62 12 106t36.5 70t46 39t55.5 25z" />
    <glyph glyph-name="asciitilde" unicode="~" horiz-adv-x="1167" 
d="M260 385l-219 55q14 66 41 124t68.5 105.5t102 75t132.5 27.5q67 0 129.5 -27t101.5 -59t82.5 -59t75.5 -27q50 0 85 45.5t48 116.5l219 -55q-14 -66 -41 -124t-68.5 -105.5t-102 -75t-132.5 -27.5q-67 0 -129.5 27t-101.5 59t-82.5 59t-75.5 27q-50 0 -85 -45.5
t-48 -116.5z" />
    <glyph glyph-name="exclamdown" unicode="&#xa1;" horiz-adv-x="768" 
d="M475 471l41 -522v-441h-266v441l41 522h184zM205 840q0 75 51.5 124.5t126.5 49.5q76 0 128 -50t52 -124q0 -75 -52.5 -125.5t-127.5 -50.5t-126.5 50.5t-51.5 125.5z" />
    <glyph glyph-name="cent" unicode="&#xa2;" horiz-adv-x="1105" 
d="M338 496q0 -118 76.5 -194.5t197.5 -76.5q76 0 139 38t99 93l205 -153q-135 -180 -344 -215v-224h-246v234q-175 41 -284 179t-109 319q0 180 109 317t284 182v234h246v-225q194 -38 313 -189l-188 -166q-41 55 -100.5 87t-129.5 32q-115 0 -191.5 -78.5t-76.5 -193.5z
" />
    <glyph glyph-name="sterling" unicode="&#xa3;" horiz-adv-x="1085" 
d="M500 829h276v-225h-198q8 -58 8 -96q0 -142 -82 -262h561v-246h-1014v164q126 41 197 131.5t71 210.5q0 52 -10 98h-227v225h135q-41 97 -41 211q0 171 128 292.5t306 121.5q150 0 254 -75t152 -203l-232 -91q-20 53 -64 88t-102 35q-74 0 -125 -48t-51 -120
q0 -76 58 -211z" />
    <glyph glyph-name="currency" unicode="&#xa4;" horiz-adv-x="1249" 
d="M193 719q0 113 53 205l-164 163l174 175l164 -164q92 53 205 53q114 0 206 -53l162 164l174 -175l-161 -163q51 -94 51 -205q0 -113 -51 -207l161 -162l-174 -174l-162 162q-94 -51 -206 -51q-111 0 -205 51l-164 -162l-174 174l164 162q-53 92 -53 207zM459 719
q0 -69 48.5 -117.5t117.5 -48.5t117.5 48.5t48.5 117.5t-48.5 117.5t-117.5 48.5t-117.5 -48.5t-48.5 -117.5z" />
    <glyph glyph-name="yen" unicode="&#xa5;" horiz-adv-x="1280" 
d="M106 440v226h386l-66 102h-320v225h179l-275 441h316l315 -504l313 504h316l-277 -441h181v-225h-322l-64 -102h386v-226h-396v-440h-276v440h-396z" />
    <glyph glyph-name="brokenbar" unicode="&#xa6;" horiz-adv-x="573" 
d="M410 389v-799h-246v799h246zM410 1434v-799h-246v799h246z" />
    <glyph glyph-name="section" unicode="&#xa7;" horiz-adv-x="1173" 
d="M1102 440q0 -180 -144 -307q62 -89 62 -201q0 -93 -40.5 -170.5t-107 -127.5t-151 -77.5t-174.5 -27.5q-234 0 -416 135l143 205q44 -41 111.5 -67.5t136.5 -26.5q56 0 104 15t82.5 51.5t34.5 88.5q0 41 -29 74t-76 54t-107.5 45.5t-123 46t-123 57t-107.5 78t-76 109
t-29 149.5q0 181 143 305q-61 83 -61 203q0 93 40.5 170.5t107 127.5t151 77.5t174.5 27.5q233 0 415 -135l-143 -205q-44 41 -111.5 67.5t-136.5 26.5q-56 0 -104 -15t-82.5 -51.5t-34.5 -88.5q0 -46 37 -81.5t96.5 -60.5t131 -50t143 -59t131 -78t96.5 -117t37 -167z
M825 436q0 38 -18 68.5t-45 50t-70 38t-82.5 31t-93.5 31t-92 35.5q-76 -51 -76 -143q0 -38 17.5 -69t45 -50.5t70.5 -38t82.5 -31t93.5 -31.5t93 -36q75 53 75 145z" />
    <glyph glyph-name="dieresis" unicode="&#xa8;" horiz-adv-x="1044" 
d="M143 1315q0 67 48 113.5t116 46.5t116 -46.5t48 -113.5t-48 -113.5t-116 -46.5t-116 46.5t-48 113.5zM573 1315q0 67 48 113.5t116 46.5t116 -46.5t48 -113.5t-48 -113.5t-116 -46.5t-116 46.5t-48 113.5z" />
    <glyph glyph-name="copyright" unicode="&#xa9;" horiz-adv-x="1720" 
d="M143 717q0 145 57 278t153 229t229 153t278 57t278 -57t229 -153t153 -229t57 -278t-57 -278t-153 -229t-229 -153t-278 -57t-278 57t-229 153t-153 229t-57 278zM287 717q0 -156 76.5 -288t208.5 -209t288 -77t288 77t209 209t77 288t-77 288t-209 208.5t-288 76.5
q-117 0 -223 -45.5t-182.5 -122t-122 -182.5t-45.5 -223zM1063 545l104 -125q-46 -47 -121.5 -80t-156.5 -33q-180 0 -303 118t-123 292q0 177 120 294t296 117q161 0 258 -94l-101 -121q-72 52 -155 52q-99 0 -169.5 -73t-70.5 -175q0 -103 71.5 -174.5t174.5 -71.5
q102 0 176 74z" />
    <glyph glyph-name="ordfeminine" unicode="&#xaa;" horiz-adv-x="851" 
d="M760 1442v-631h-182v45q-69 -57 -175 -57q-66 0 -127.5 29t-103.5 77q-80 93 -80 221q0 138 90 233t219 95q105 0 177 -57v45h182zM575 1036v178q-53 76 -143 76q-68 0 -112 -48.5t-44 -115.5q0 -69 45.5 -116t112.5 -47q91 0 141 73z" />
    <glyph glyph-name="guillemotleft" unicode="&#xab;" horiz-adv-x="1349" 
d="M401 895h293l-319 -389l319 -389h-293l-258 317v144zM975 895h293l-320 -389l320 -389h-293l-258 317v144z" />
    <glyph glyph-name="logicalnot" unicode="&#xac;" horiz-adv-x="1126" 
d="M1034 901v-655h-225v430h-717v225h942z" />
    <glyph glyph-name="registered" unicode="&#xae;" horiz-adv-x="1720" 
d="M143 717q0 145 57 278t153 229t229 153t278 57t278 -57t229 -153t153 -229t57 -278t-57 -278t-153 -229t-229 -153t-278 -57t-278 57t-229 153t-153 229t-57 278zM809 657h-47v-331h-178v784h278q130 0 197 -61q78 -68 78 -177q0 -119 -101 -180q-15 -11 -49 -22
l236 -344h-195zM762 803h106q56 0 76 26q14 17 14 43q0 29 -14 46q-24 28 -76 28h-106v-143zM287 717q0 -156 76.5 -288t208.5 -209t288 -77t288 77t209 209t77 288t-77 288t-209 208.5t-288 76.5q-117 0 -223 -45.5t-182.5 -122t-122 -182.5t-45.5 -223z" />
    <glyph glyph-name="macron" unicode="&#xaf;" horiz-adv-x="942" 
d="M143 1413h656v-205h-656v205z" />
    <glyph glyph-name="degree" unicode="&#xb0;" horiz-adv-x="880" 
d="M92 1106q0 145 101.5 246.5t246.5 101.5t246.5 -101.5t101.5 -246.5t-101.5 -246.5t-246.5 -101.5t-246.5 101.5t-101.5 246.5zM297 1106q0 -60 41.5 -101.5t101.5 -41.5t102 41.5t42 101.5t-42 101.5t-102 41.5t-101.5 -41.5t-41.5 -101.5z" />
    <glyph glyph-name="plusminus" unicode="&#xb1;" horiz-adv-x="1126" 
d="M451 602h-359v225h359v258h225v-258h358v-225h-358v-258h-225v258zM92 287h942v-226h-942v226z" />
    <glyph glyph-name="twosuperior" unicode="&#xb2;" horiz-adv-x="649" 
d="M256 1217l-184 53q23 84 93.5 134t162.5 50q102 0 173.5 -65t71.5 -166q0 -97 -86 -203l-120 -150h221v-174h-527v103l269 325q43 54 43 88q0 24 -14.5 41t-39.5 17q-46 0 -63 -53z" />
    <glyph glyph-name="threesuperior" unicode="&#xb3;" horiz-adv-x="606" 
d="M160 1016v102l119 152h-234v164h471v-103l-123 -174q70 -29 111 -89t41 -132q0 -114 -87 -187t-208 -73q-150 0 -250 100l121 123q44 -55 123 -55q40 0 70 25.5t30 66.5t-30.5 68.5t-73.5 27.5q-40 0 -80 -16z" />
    <glyph glyph-name="acute" unicode="&#xb4;" horiz-adv-x="716" 
d="M287 1475h286l-245 -328h-185z" />
    <glyph glyph-name="mu" unicode="&#xb5;" horiz-adv-x="1269" 
d="M850 993h266v-993h-256v80q-111 -100 -268 -100q-99 0 -172 45v-517h-266v1485h266v-536q0 -115 49 -170q56 -62 149 -62q75 0 135 38t97 85v645z" />
    <glyph glyph-name="paragraph" unicode="&#xb6;" horiz-adv-x="1484" 
d="M492 778v430q-83 -8 -139 -69t-56 -146t56 -146t139 -69zM559 1434h834v-226h-205v-1618h-246v1618h-205v-1618h-245v963q-183 0 -312 128.5t-129 311.5q0 119 61 221t162 160q52 31 117 45.5t168 14.5z" />
    <glyph glyph-name="periodcentered" unicode="&#xb7;" horiz-adv-x="768" 
d="M205 496q0 75 51.5 127.5t126.5 52.5t127.5 -52.5t52.5 -127.5t-52.5 -127t-127.5 -52t-126.5 52t-51.5 127z" />
    <glyph glyph-name="cedilla" unicode="&#xb8;" horiz-adv-x="634" 
d="M164 -307l133 327h195l-62 -327h-266z" />
    <glyph glyph-name="onesuperior" unicode="&#xb9;" horiz-adv-x="532" 
d="M61 1108v199l246 127h123v-738h-205v496z" />
    <glyph glyph-name="ordmasculine" unicode="&#xba;" horiz-adv-x="851" 
d="M575 1126q0 71 -40 117.5t-109 46.5t-109.5 -46.5t-40.5 -117.5t40.5 -117t109.5 -46t109 46t40 117zM92 1126q0 138 92.5 233t241.5 95t241.5 -95t92.5 -233t-92.5 -232.5t-241.5 -94.5t-241.5 94.5t-92.5 232.5z" />
    <glyph glyph-name="guillemotright" unicode="&#xbb;" horiz-adv-x="1349" 
d="M655 895h293l258 -317v-144l-258 -317h-293l320 389zM82 895h293l258 -317v-144l-258 -317h-293l319 389z" />
    <glyph glyph-name="onequarter" unicode="&#xbc;" horiz-adv-x="1484" 
d="M432 0h-227l837 1434h228zM133 1108v199l246 127h123v-738h-205v496zM1227 737v-440h135v-154h-135v-143h-174v143h-326v103l377 491h123zM961 297h92v119z" />
    <glyph glyph-name="onehalf" unicode="&#xbd;" horiz-adv-x="1488" 
d="M432 0h-227l837 1434h228zM133 1108v199l246 127h123v-738h-205v496zM1096 520l-185 53q23 84 93.5 134.5t162.5 50.5q102 0 174 -65.5t72 -166.5q0 -96 -86 -202l-121 -150h221v-174h-526v102l268 326q43 54 43 88q0 24 -14 40.5t-39 16.5q-46 0 -63 -53z" />
    <glyph glyph-name="threequarters" unicode="&#xbe;" horiz-adv-x="1511" 
d="M160 1016v102l119 152h-234v164h471v-103l-123 -174q70 -29 111 -89t41 -132q0 -114 -87 -187t-208 -73q-150 0 -250 100l121 123q44 -55 123 -55q40 0 70 25.5t30 66.5t-30.5 68.5t-73.5 27.5q-40 0 -80 -16zM403 0h-227l838 1434h227zM1198 737v-440h135v-154h-135
v-143h-174v143h-326v103l377 491h123zM932 297h92v119z" />
    <glyph glyph-name="questiondown" unicode="&#xbf;" horiz-adv-x="1024" 
d="M694 840q0 -75 -51.5 -125.5t-126.5 -50.5t-127.5 50.5t-52.5 125.5q0 74 52 124t128 50q75 0 126.5 -49.5t51.5 -124.5zM643 -141l258 -68q-29 -129 -137 -216t-268 -87q-174 0 -294 106t-120 263q0 71 24.5 131.5t60.5 100t79 76.5t79 62.5t60.5 55t24.5 57.5
q0 39 -35 74l207 143q94 -110 94 -223q0 -62 -24.5 -115.5t-60.5 -88.5t-79 -70.5t-79 -62.5t-60.5 -62.5t-24.5 -73.5q0 -57 41 -92t107 -35q63 0 102.5 38t44.5 87z" />
    <glyph glyph-name="Agrave" unicode="&#xc0;" horiz-adv-x="1423" 
d="M373 1884h286l144 -328h-185zM289 0h-289l614 1434h195l614 -1434h-288l-136 317h-575zM711 987l-183 -424h365z" />
    <glyph glyph-name="Aacute" unicode="&#xc1;" horiz-adv-x="1423" 
d="M762 1884h287l-246 -328h-185zM289 0h-289l614 1434h195l614 -1434h-288l-136 317h-575zM711 987l-183 -424h365z" />
    <glyph glyph-name="Acircumflex" unicode="&#xc2;" horiz-adv-x="1423" 
d="M567 1884h287l205 -328h-185l-163 185l-164 -185h-185zM289 0h-289l614 1434h195l614 -1434h-288l-136 317h-575zM711 987l-183 -424h365z" />
    <glyph glyph-name="Atilde" unicode="&#xc3;" horiz-adv-x="1423" 
d="M289 0h-289l614 1434h195l614 -1434h-288l-136 317h-575zM711 987l-183 -424h365zM936 1884l164 -33q0 -116 -61 -195t-167 -79q-52 0 -110 25.5t-108.5 51t-86.5 25.5q-35 0 -56 -28.5t-26 -73.5l-163 33q0 116 60.5 195t166.5 79q52 0 110 -25.5t108.5 -51t86.5 -25.5
q35 0 56 28.5t26 73.5z" />
    <glyph glyph-name="Adieresis" unicode="&#xc4;" horiz-adv-x="1423" 
d="M334 1724q0 67 48 113.5t116 46.5t116 -46.5t48 -113.5t-48 -113t-116 -46t-116 46t-48 113zM764 1724q0 67 48 113.5t116 46.5t116 -46.5t48 -113.5t-48 -113t-116 -46t-116 46t-48 113zM289 0h-289l614 1434h195l614 -1434h-288l-136 317h-575zM711 987l-183 -424h365z
" />
    <glyph glyph-name="Aring" unicode="&#xc5;" horiz-adv-x="1423" 
d="M485 1741q0 94 66 159.5t160 65.5t159.5 -65.5t65.5 -159.5t-65.5 -159.5t-159.5 -65.5t-160 65.5t-66 159.5zM649 1741q0 -26 18 -44t44 -18t43.5 18t17.5 44t-17.5 43.5t-43.5 17.5t-44 -17.5t-18 -43.5zM289 0h-289l614 1434h195l614 -1434h-288l-136 317h-575z
M711 987l-183 -424h365z" />
    <glyph glyph-name="AE" unicode="&#xc6;" horiz-adv-x="1966" 
d="M1864 1188h-584v-297h461v-246h-461v-399h604v-246h-880v317h-525l-190 -317h-309l862 1434h1022v-246zM627 563h377v627z" />
    <glyph glyph-name="Ccedilla" unicode="&#xc7;" horiz-adv-x="1464" 
d="M569 -307l121 297q-281 41 -455 244t-174 483q0 153 56 288.5t154.5 234.5t240 156.5t305.5 57.5q156 0 290 -54t234 -151l-178 -188q-147 147 -348 147q-133 0 -243 -65.5t-172 -178.5t-62 -247q0 -209 141 -350.5t348 -141.5q131 0 234 55t172 144l190 -170
q-91 -114 -228.5 -186t-305.5 -84l-53 -291h-267z" />
    <glyph glyph-name="Egrave" unicode="&#xc8;" horiz-adv-x="1126" 
d="M1024 1188h-584v-297h441v-246h-441v-399h604v-246h-880v1434h860v-246zM281 1884h286l144 -328h-185z" />
    <glyph glyph-name="Eacute" unicode="&#xc9;" horiz-adv-x="1126" 
d="M1024 1188h-584v-297h441v-246h-441v-399h604v-246h-880v1434h860v-246zM635 1884h287l-246 -328h-184z" />
    <glyph glyph-name="Ecircumflex" unicode="&#xca;" horiz-adv-x="1126" 
d="M1024 1188h-584v-297h441v-246h-441v-399h604v-246h-880v1434h860v-246zM461 1884h287l204 -328h-184l-164 185l-164 -185h-184z" />
    <glyph glyph-name="Edieresis" unicode="&#xcb;" horiz-adv-x="1126" 
d="M1024 1188h-584v-297h441v-246h-441v-399h604v-246h-880v1434h860v-246zM217 1724q0 67 48 113.5t116 46.5t116 -46.5t48 -113.5t-48 -113t-116 -46t-116 46t-48 113zM647 1724q0 67 48 113.5t116 46.5t116 -46.5t48 -113.5t-48 -113t-116 -46t-116 46t-48 113z" />
    <glyph glyph-name="Igrave" unicode="&#xcc;" horiz-adv-x="604" 
d="M164 0v1434h276v-1434h-276zM-31 1884h287l143 -328h-184z" />
    <glyph glyph-name="Iacute" unicode="&#xcd;" horiz-adv-x="604" 
d="M164 0v1434h276v-1434h-276zM348 1884h287l-246 -328h-184z" />
    <glyph glyph-name="Icircumflex" unicode="&#xce;" horiz-adv-x="604" 
d="M164 0v1434h276v-1434h-276zM158 1884h286l205 -328h-184l-164 185l-164 -185h-184z" />
    <glyph glyph-name="Idieresis" unicode="&#xcf;" horiz-adv-x="604" 
d="M164 0v1434h276v-1434h-276zM-78 1724q0 67 48 113.5t116 46.5t116 -46.5t48 -113.5t-48 -113t-116 -46t-116 46t-48 113zM352 1724q0 67 48 113.5t116 46.5t116 -46.5t48 -113.5t-48 -113t-116 -46t-116 46t-48 113z" />
    <glyph glyph-name="Eth" unicode="&#xd0;" horiz-adv-x="1495" 
d="M0 645v246h205v543h450q309 0 494 -136q133 -99 209 -251.5t76 -329.5t-76 -330t-209 -252q-184 -135 -494 -135h-450v645h-205zM1157 717q0 182 -104 311q-128 160 -367 160h-205v-297h410v-246h-410v-399h205q239 0 367 160q104 129 104 311z" />
    <glyph glyph-name="Ntilde" unicode="&#xd1;" horiz-adv-x="1597" 
d="M164 0v1434h194l799 -934v934h277v-1434h-195l-799 934v-934h-276zM1014 1884l164 -33q0 -116 -61 -195t-167 -79q-52 0 -110 25.5t-108.5 51t-86.5 25.5q-35 0 -56 -28.5t-26 -73.5l-164 33q0 116 61 195t167 79q52 0 110 -25.5t108.5 -51t86.5 -25.5q35 0 56 28.5
t26 73.5z" />
    <glyph glyph-name="Ograve" unicode="&#xd2;" horiz-adv-x="1617" 
d="M338 717q0 -134 61 -246.5t169.5 -179t240.5 -66.5t240.5 66.5t169.5 179t61 246.5t-61 246.5t-169.5 178.5t-240.5 66t-240.5 -66t-169.5 -178.5t-61 -246.5zM61 717q0 152 55.5 287t152.5 234.5t237.5 157.5t302.5 58t302.5 -58t237.5 -157.5t152 -234.5t55 -287
t-55 -287t-152 -234.5t-237.5 -157.5t-302.5 -58t-302.5 58t-237.5 157.5t-152.5 234.5t-55.5 287zM471 1884h287l143 -328h-184z" />
    <glyph glyph-name="Oacute" unicode="&#xd3;" horiz-adv-x="1617" 
d="M338 717q0 -134 61 -246.5t169.5 -179t240.5 -66.5t240.5 66.5t169.5 179t61 246.5t-61 246.5t-169.5 178.5t-240.5 66t-240.5 -66t-169.5 -178.5t-61 -246.5zM61 717q0 152 55.5 287t152.5 234.5t237.5 157.5t302.5 58t302.5 -58t237.5 -157.5t152 -234.5t55 -287
t-55 -287t-152 -234.5t-237.5 -157.5t-302.5 -58t-302.5 58t-237.5 157.5t-152.5 234.5t-55.5 287zM860 1884h287l-246 -328h-184z" />
    <glyph glyph-name="Ocircumflex" unicode="&#xd4;" horiz-adv-x="1617" 
d="M338 717q0 -134 61 -246.5t169.5 -179t240.5 -66.5t240.5 66.5t169.5 179t61 246.5t-61 246.5t-169.5 178.5t-240.5 66t-240.5 -66t-169.5 -178.5t-61 -246.5zM61 717q0 152 55.5 287t152.5 234.5t237.5 157.5t302.5 58t302.5 -58t237.5 -157.5t152 -234.5t55 -287
t-55 -287t-152 -234.5t-237.5 -157.5t-302.5 -58t-302.5 58t-237.5 157.5t-152.5 234.5t-55.5 287zM666 1884h286l205 -328h-184l-164 185l-164 -185h-184z" />
    <glyph glyph-name="Otilde" unicode="&#xd5;" horiz-adv-x="1617" 
d="M338 717q0 -134 61 -246.5t169.5 -179t240.5 -66.5t240.5 66.5t169.5 179t61 246.5t-61 246.5t-169.5 178.5t-240.5 66t-240.5 -66t-169.5 -178.5t-61 -246.5zM61 717q0 152 55.5 287t152.5 234.5t237.5 157.5t302.5 58t302.5 -58t237.5 -157.5t152 -234.5t55 -287
t-55 -287t-152 -234.5t-237.5 -157.5t-302.5 -58t-302.5 58t-237.5 157.5t-152.5 234.5t-55.5 287zM1034 1884l164 -33q0 -116 -60.5 -195t-166.5 -79q-52 0 -110 25.5t-108.5 51t-86.5 25.5q-35 0 -56 -28.5t-26 -73.5l-164 33q0 116 60.5 195t166.5 79q52 0 110 -25.5
t108.5 -51t86.5 -25.5q35 0 56 28.5t26 73.5z" />
    <glyph glyph-name="Odieresis" unicode="&#xd6;" horiz-adv-x="1617" 
d="M338 717q0 -134 61 -246.5t169.5 -179t240.5 -66.5t240.5 66.5t169.5 179t61 246.5t-61 246.5t-169.5 178.5t-240.5 66t-240.5 -66t-169.5 -178.5t-61 -246.5zM61 717q0 152 55.5 287t152.5 234.5t237.5 157.5t302.5 58t302.5 -58t237.5 -157.5t152 -234.5t55 -287
t-55 -287t-152 -234.5t-237.5 -157.5t-302.5 -58t-302.5 58t-237.5 157.5t-152.5 234.5t-55.5 287zM430 1724q0 67 48 113.5t116 46.5t116 -46.5t48 -113.5t-48 -113t-116 -46t-116 46t-48 113zM860 1724q0 67 48 113.5t116 46.5t116 -46.5t48 -113.5t-48 -113t-116 -46
t-116 46t-48 113z" />
    <glyph glyph-name="multiply" unicode="&#xd7;" horiz-adv-x="1085" 
d="M246 1030l297 -297l297 297l159 -160l-297 -297l297 -297l-159 -159l-297 297l-297 -297l-160 159l297 297l-297 297z" />
    <glyph glyph-name="Oslash" unicode="&#xd8;" horiz-adv-x="1617" 
d="M61 717q0 152 55.5 287t152.5 234.5t237.5 157.5t302.5 58q203 0 377 -94l76 94h335l-213 -256q172 -204 172 -481q0 -152 -55 -287t-152 -234.5t-237.5 -157.5t-302.5 -58q-205 0 -379 94l-78 -94h-334l215 253q-83 97 -127.5 221.5t-44.5 262.5zM1280 717
q0 144 -76 270l-604 -713q96 -49 209 -49q132 0 240.5 66.5t169.5 179t61 246.5zM338 717q0 -148 74 -271l604 713q-96 49 -207 49q-132 0 -240.5 -66t-169.5 -178.5t-61 -246.5z" />
    <glyph glyph-name="Ugrave" unicode="&#xd9;" horiz-adv-x="1536" 
d="M432 1884h287l143 -328h-184zM768 -20q-124 0 -236 37.5t-194 109.5q-184 164 -184 477v830h276v-850q0 -179 94 -267q95 -92 244 -92t244 92q94 88 94 267v850h276v-830q0 -313 -184 -477q-82 -72 -194 -109.5t-236 -37.5z" />
    <glyph glyph-name="Uacute" unicode="&#xda;" horiz-adv-x="1536" 
d="M819 1884h287l-246 -328h-184zM768 -20q-124 0 -236 37.5t-194 109.5q-184 164 -184 477v830h276v-850q0 -179 94 -267q95 -92 244 -92t244 92q94 88 94 267v850h276v-830q0 -313 -184 -477q-82 -72 -194 -109.5t-236 -37.5z" />
    <glyph glyph-name="Ucircumflex" unicode="&#xdb;" horiz-adv-x="1536" 
d="M625 1884h286l205 -328h-184l-164 185l-164 -185h-184zM768 -20q-124 0 -236 37.5t-194 109.5q-184 164 -184 477v830h276v-850q0 -179 94 -267q95 -92 244 -92t244 92q94 88 94 267v850h276v-830q0 -313 -184 -477q-82 -72 -194 -109.5t-236 -37.5z" />
    <glyph glyph-name="Udieresis" unicode="&#xdc;" horiz-adv-x="1536" 
d="M768 -20q-124 0 -236 37.5t-194 109.5q-184 164 -184 477v830h276v-850q0 -179 94 -267q95 -92 244 -92t244 92q94 88 94 267v850h276v-830q0 -313 -184 -477q-82 -72 -194 -109.5t-236 -37.5zM389 1724q0 67 48 113.5t116 46.5t116 -46.5t48 -113.5t-48 -113t-116 -46
t-116 46t-48 113zM819 1724q0 67 48 113.5t116 46.5t116 -46.5t48 -113.5t-48 -113t-116 -46t-116 46t-48 113z" />
    <glyph glyph-name="Yacute" unicode="&#xdd;" horiz-adv-x="1280" 
d="M1270 1434l-492 -785v-649h-276v649l-492 785h316l315 -504l313 504h316zM690 1884h287l-246 -328h-184z" />
    <glyph glyph-name="Thorn" unicode="&#xde;" horiz-adv-x="1228" 
d="M164 0v1434h276v-287h262q133 0 221.5 -33.5t151.5 -99.5q54 -56 83.5 -132t29.5 -161t-29.5 -161t-83.5 -132q-125 -131 -373 -131h-262v-297h-276zM440 543h250q120 0 174 57q47 50 47 121q0 73 -47 123q-54 57 -174 57h-250v-358z" />
    <glyph glyph-name="germandbls" unicode="&#xdf;" horiz-adv-x="1239" 
d="M575 905q86 0 134 45q55 52 55 127q0 71 -49.5 121.5t-122.5 50.5q-82 0 -131 -59q-41 -47 -41 -154v-1036h-266v1034q0 52 6 96q17 117 80 199q60 77 151 121.5t199 44.5q186 0 313 -122.5t127 -297.5q0 -138 -88 -239q102 -57 163.5 -163.5t61.5 -228.5
q0 -194 -134 -329t-328 -135q-127 0 -228 55l115 211q54 -21 96 -21q94 0 153.5 61.5t59.5 151.5q0 108 -80 172q-63 49 -178 49h-68v246z" />
    <glyph glyph-name="agrave" unicode="&#xe0;" horiz-adv-x="1259" 
d="M389 1475h287l143 -328h-184zM840 348v297q-42 57 -106.5 90t-139.5 33q-113 0 -184.5 -80.5t-71.5 -191.5q0 -117 74.5 -194t187.5 -77q74 0 137.5 33.5t102.5 89.5zM1106 993v-993h-256v80q-117 -100 -277 -100q-109 0 -208 45t-166 122q-127 147 -127 349
q0 219 142 368.5t345 149.5q166 0 291 -101v80h256z" />
    <glyph glyph-name="aacute" unicode="&#xe1;" horiz-adv-x="1259" 
d="M676 1475h287l-246 -328h-185zM840 348v297q-42 57 -106.5 90t-139.5 33q-113 0 -184.5 -80.5t-71.5 -191.5q0 -117 74.5 -194t187.5 -77q74 0 137.5 33.5t102.5 89.5zM1106 993v-993h-256v80q-117 -100 -277 -100q-109 0 -208 45t-166 122q-127 147 -127 349
q0 219 142 368.5t345 149.5q166 0 291 -101v80h256z" />
    <glyph glyph-name="acircumflex" unicode="&#xe2;" horiz-adv-x="1259" 
d="M502 1475h286l205 -328h-184l-164 184l-164 -184h-184zM840 348v297q-42 57 -106.5 90t-139.5 33q-113 0 -184.5 -80.5t-71.5 -191.5q0 -117 74.5 -194t187.5 -77q74 0 137.5 33.5t102.5 89.5zM1106 993v-993h-256v80q-117 -100 -277 -100q-109 0 -208 45t-166 122
q-127 147 -127 349q0 219 142 368.5t345 149.5q166 0 291 -101v80h256z" />
    <glyph glyph-name="atilde" unicode="&#xe3;" horiz-adv-x="1259" 
d="M881 1475l163 -33q0 -116 -60.5 -195.5t-166.5 -79.5q-41 0 -87 16t-79 35.5t-71.5 35.5t-67.5 16q-35 0 -56 -29t-26 -74l-164 33q0 116 61 195.5t167 79.5q41 0 87 -16t79 -35.5t71.5 -35.5t67.5 -16q35 0 56 29t26 74zM840 348v297q-42 57 -106.5 90t-139.5 33
q-113 0 -184.5 -80.5t-71.5 -191.5q0 -117 74.5 -194t187.5 -77q74 0 137.5 33.5t102.5 89.5zM1106 993v-993h-256v80q-117 -100 -277 -100q-109 0 -208 45t-166 122q-127 147 -127 349q0 219 142 368.5t345 149.5q166 0 291 -101v80h256z" />
    <glyph glyph-name="adieresis" unicode="&#xe4;" horiz-adv-x="1259" 
d="M266 1315q0 67 48 113.5t116 46.5t116 -46.5t48 -113.5t-48 -113.5t-116 -46.5t-116 46.5t-48 113.5zM696 1315q0 67 48 113.5t116 46.5t116 -46.5t48 -113.5t-48 -113.5t-116 -46.5t-116 46.5t-48 113.5zM840 348v297q-42 57 -106.5 90t-139.5 33q-113 0 -184.5 -80.5
t-71.5 -191.5q0 -117 74.5 -194t187.5 -77q74 0 137.5 33.5t102.5 89.5zM1106 993v-993h-256v80q-117 -100 -277 -100q-109 0 -208 45t-166 122q-127 147 -127 349q0 219 142 368.5t345 149.5q166 0 291 -101v80h256z" />
    <glyph glyph-name="aring" unicode="&#xe5;" horiz-adv-x="1259" 
d="M440 1331q0 94 66 159.5t160 65.5t159.5 -65.5t65.5 -159.5t-65.5 -159.5t-159.5 -65.5t-160 65.5t-66 159.5zM604 1331q0 -26 18 -43.5t44 -17.5t43.5 17.5t17.5 43.5t-17.5 44t-43.5 18t-44 -18t-18 -44zM840 348v297q-42 57 -106.5 90t-139.5 33q-113 0 -184.5 -80.5
t-71.5 -191.5q0 -117 74.5 -194t187.5 -77q74 0 137.5 33.5t102.5 89.5zM1106 993v-993h-256v80q-117 -100 -277 -100q-109 0 -208 45t-166 122q-127 147 -127 349q0 219 142 368.5t345 149.5q166 0 291 -101v80h256z" />
    <glyph glyph-name="ae" unicode="&#xe6;" horiz-adv-x="1886" 
d="M1638 309l152 -151q-71 -85 -180.5 -131.5t-227.5 -46.5q-76 0 -158.5 28t-138.5 72v-80h-235v80q-117 -100 -277 -100q-109 0 -208 45t-166 122q-127 147 -127 349q0 219 142 368.5t345 149.5q166 0 291 -101v80h235v-80q46 44 113 72.5t141 28.5q129 0 238.5 -68
t173.5 -185t64 -255q0 -36 -7 -76h-708q10 -103 90.5 -169t187.5 -66q78 0 148.5 34.5t111.5 79.5zM840 348v297q-42 57 -106.5 90t-139.5 33q-113 0 -184.5 -80.5t-71.5 -191.5q0 -117 74.5 -194t187.5 -77q74 0 137.5 33.5t102.5 89.5zM1112 625h430q-10 73 -72 123.5
t-139 50.5q-78 0 -140 -48t-79 -126z" />
    <glyph glyph-name="ccedilla" unicode="&#xe7;" horiz-adv-x="1105" 
d="M338 496q0 -118 76.5 -194.5t197.5 -76.5q76 0 139 38t99 93l205 -153q-142 -188 -353 -215l-55 -295h-266l119 297q-189 32 -308.5 173.5t-119.5 332.5q0 143 69.5 261.5t192.5 187.5t272 69q126 0 236.5 -54t181.5 -145l-188 -166q-41 55 -100.5 87t-129.5 32
q-115 0 -191.5 -78.5t-76.5 -193.5z" />
    <glyph glyph-name="egrave" unicode="&#xe8;" horiz-adv-x="1095" 
d="M240 1475h286l144 -328h-185zM848 309l151 -151q-71 -85 -180 -131.5t-227 -46.5q-226 0 -373 143t-147 373q0 103 34.5 197t96 165.5t153 113.5t199.5 42q134 0 242 -69.5t167.5 -185.5t59.5 -253q0 -42 -6 -76h-688q10 -104 86 -169.5t182 -65.5q77 0 142.5 34
t107.5 80zM342 625h410q-6 69 -62 121.5t-135 52.5q-81 0 -142.5 -52t-70.5 -122z" />
    <glyph glyph-name="eacute" unicode="&#xe9;" horiz-adv-x="1095" 
d="M608 1475h287l-246 -328h-184zM848 309l151 -151q-71 -85 -180 -131.5t-227 -46.5q-226 0 -373 143t-147 373q0 103 34.5 197t96 165.5t153 113.5t199.5 42q134 0 242 -69.5t167.5 -185.5t59.5 -253q0 -42 -6 -76h-688q10 -104 86 -169.5t182 -65.5q77 0 142.5 34
t107.5 80zM342 625h410q-6 69 -62 121.5t-135 52.5q-81 0 -142.5 -52t-70.5 -122z" />
    <glyph glyph-name="ecircumflex" unicode="&#xea;" horiz-adv-x="1095" 
d="M424 1475h287l204 -328h-184l-164 184l-164 -184h-184zM848 309l151 -151q-71 -85 -180 -131.5t-227 -46.5q-226 0 -373 143t-147 373q0 103 34.5 197t96 165.5t153 113.5t199.5 42q134 0 242 -69.5t167.5 -185.5t59.5 -253q0 -42 -6 -76h-688q10 -104 86 -169.5
t182 -65.5q77 0 142.5 34t107.5 80zM342 625h410q-6 69 -62 121.5t-135 52.5q-81 0 -142.5 -52t-70.5 -122z" />
    <glyph glyph-name="edieresis" unicode="&#xeb;" horiz-adv-x="1095" 
d="M188 1315q0 67 48 113.5t116 46.5t116 -46.5t48 -113.5t-48 -113.5t-116 -46.5t-116 46.5t-48 113.5zM618 1315q0 67 48 113.5t116 46.5t116 -46.5t48 -113.5t-48 -113.5t-116 -46.5t-116 46.5t-48 113.5zM848 309l151 -151q-71 -85 -180 -131.5t-227 -46.5
q-226 0 -373 143t-147 373q0 103 34.5 197t96 165.5t153 113.5t199.5 42q134 0 242 -69.5t167.5 -185.5t59.5 -253q0 -42 -6 -76h-688q10 -104 86 -169.5t182 -65.5q77 0 142.5 34t107.5 80zM342 625h410q-6 69 -62 121.5t-135 52.5q-81 0 -142.5 -52t-70.5 -122z" />
    <glyph glyph-name="igrave" unicode="&#xec;" horiz-adv-x="573" 
d="M420 993v-993h-266v993h266zM-31 1475h287l143 -328h-184z" />
    <glyph glyph-name="iacute" unicode="&#xed;" horiz-adv-x="573" 
d="M420 993v-993h-266v993h266zM317 1475h287l-246 -328h-184z" />
    <glyph glyph-name="icircumflex" unicode="&#xee;" horiz-adv-x="573" 
d="M420 993v-993h-266v993h266zM143 1475h287l205 -328h-184l-164 184l-164 -184h-184z" />
    <glyph glyph-name="idieresis" unicode="&#xef;" horiz-adv-x="573" 
d="M420 993v-993h-266v993h266zM-90 1315q0 67 48 113.5t116 46.5t116 -46.5t48 -113.5t-48 -113.5t-116 -46.5t-116 46.5t-48 113.5zM340 1315q0 67 48 113.5t116 46.5t116 -46.5t48 -113.5t-48 -113.5t-116 -46.5t-116 46.5t-48 113.5z" />
    <glyph glyph-name="eth" unicode="&#xf0;" horiz-adv-x="1200" 
d="M193 1180l184 104l-119 170h309l31 -43l184 105l101 -181l-164 -94l227 -313q182 -250 182 -432q0 -105 -40 -200.5t-109.5 -164.5t-167 -110t-207.5 -41q-149 0 -271.5 68.5t-191.5 186.5t-69 261q0 137 63 253t178.5 187t259.5 76l-75 104l-203 -115zM866 496
q0 119 -75 211l-19 22q-58 39 -151 39q-126 0 -204.5 -76t-78.5 -196q0 -115 75 -193t191 -78q113 0 187.5 79.5t74.5 191.5z" />
    <glyph glyph-name="ntilde" unicode="&#xf1;" horiz-adv-x="1269" 
d="M420 0h-266v993h256v-80q126 101 280 101q101 0 191.5 -42.5t152.5 -117.5q52 -61 77.5 -143t25.5 -205v-506h-267v526q0 128 -59 187q-55 55 -149 55q-77 0 -142.5 -38.5t-99.5 -84.5v-645zM860 1475l164 -33q0 -116 -60.5 -195.5t-166.5 -79.5q-41 0 -87 16t-79 35.5
t-71.5 35.5t-67.5 16q-35 0 -56 -29t-26 -74l-164 33q0 116 60.5 195.5t166.5 79.5q41 0 87 -16t79 -35.5t71.5 -35.5t67.5 -16q35 0 56 29t26 74z" />
    <glyph glyph-name="ograve" unicode="&#xf2;" horiz-adv-x="1200" 
d="M72 496q0 142 68.5 260.5t190 188t269.5 69.5t269.5 -69.5t190 -188t68.5 -260.5t-68.5 -260t-190 -187t-269.5 -69t-269.5 69t-190 187t-68.5 260zM338 496q0 -115 73.5 -193t188.5 -78t188.5 78t73.5 193t-73.5 193.5t-188.5 78.5t-188.5 -78.5t-73.5 -193.5zM262 1475
h287l143 -328h-184z" />
    <glyph glyph-name="oacute" unicode="&#xf3;" horiz-adv-x="1200" 
d="M72 496q0 142 68.5 260.5t190 188t269.5 69.5t269.5 -69.5t190 -188t68.5 -260.5t-68.5 -260t-190 -187t-269.5 -69t-269.5 69t-190 187t-68.5 260zM338 496q0 -115 73.5 -193t188.5 -78t188.5 78t73.5 193t-73.5 193.5t-188.5 78.5t-188.5 -78.5t-73.5 -193.5zM651 1475
h287l-246 -328h-184z" />
    <glyph glyph-name="ocircumflex" unicode="&#xf4;" horiz-adv-x="1200" 
d="M72 496q0 142 68.5 260.5t190 188t269.5 69.5t269.5 -69.5t190 -188t68.5 -260.5t-68.5 -260t-190 -187t-269.5 -69t-269.5 69t-190 187t-68.5 260zM338 496q0 -115 73.5 -193t188.5 -78t188.5 78t73.5 193t-73.5 193.5t-188.5 78.5t-188.5 -78.5t-73.5 -193.5zM457 1475
h286l205 -328h-184l-164 184l-164 -184h-184z" />
    <glyph glyph-name="otilde" unicode="&#xf5;" horiz-adv-x="1200" 
d="M72 496q0 142 68.5 260.5t190 188t269.5 69.5t269.5 -69.5t190 -188t68.5 -260.5t-68.5 -260t-190 -187t-269.5 -69t-269.5 69t-190 187t-68.5 260zM338 496q0 -115 73.5 -193t188.5 -78t188.5 78t73.5 193t-73.5 193.5t-188.5 78.5t-188.5 -78.5t-73.5 -193.5zM825 1475
l164 -33q0 -116 -60.5 -195.5t-166.5 -79.5q-41 0 -87 16t-79 35.5t-71.5 35.5t-67.5 16q-35 0 -56 -29t-26 -74l-164 33q0 116 60.5 195.5t166.5 79.5q41 0 87 -16t79 -35.5t71.5 -35.5t67.5 -16q35 0 56 29t26 74z" />
    <glyph glyph-name="odieresis" unicode="&#xf6;" horiz-adv-x="1200" 
d="M72 496q0 142 68.5 260.5t190 188t269.5 69.5t269.5 -69.5t190 -188t68.5 -260.5t-68.5 -260t-190 -187t-269.5 -69t-269.5 69t-190 187t-68.5 260zM338 496q0 -115 73.5 -193t188.5 -78t188.5 78t73.5 193t-73.5 193.5t-188.5 78.5t-188.5 -78.5t-73.5 -193.5zM221 1315
q0 67 48 113.5t116 46.5t116 -46.5t48 -113.5t-48 -113.5t-116 -46.5t-116 46.5t-48 113.5zM651 1315q0 67 48 113.5t116 46.5t116 -46.5t48 -113.5t-48 -113.5t-116 -46.5t-116 46.5t-48 113.5z" />
    <glyph glyph-name="divide" unicode="&#xf7;" horiz-adv-x="1126" 
d="M92 686h942v-225h-942v225zM410 936q0 63 45 106t108 43t108.5 -43t45.5 -106t-45.5 -106.5t-108.5 -43.5t-108 43.5t-45 106.5zM410 211q0 63 45 106t108 43t108.5 -43t45.5 -106t-45.5 -106.5t-108.5 -43.5t-108 43.5t-45 106.5z" />
    <glyph glyph-name="oslash" unicode="&#xf8;" horiz-adv-x="1200" 
d="M895 1014h293l-168 -201q108 -140 108 -317q0 -142 -68.5 -260t-190 -187t-269.5 -69q-137 0 -248 57l-47 -57h-293l166 200q-106 134 -106 316q0 142 68.5 260.5t190 188t269.5 69.5q132 0 248 -58zM862 496q0 54 -18 104l-309 -369q30 -6 65 -6q115 0 188.5 78
t73.5 193zM338 496q0 -56 18 -103l308 367q-27 8 -64 8q-115 0 -188.5 -78.5t-73.5 -193.5z" />
    <glyph glyph-name="ugrave" unicode="&#xf9;" horiz-adv-x="1249" 
d="M287 1475h286l144 -328h-185zM829 993h267v-993h-256v80q-111 -100 -269 -100q-101 0 -189.5 42.5t-148.5 116.5q-100 124 -100 328v526h266v-536q0 -114 50 -170q56 -62 149 -62q75 0 134.5 38t96.5 85v645z" />
    <glyph glyph-name="uacute" unicode="&#xfa;" horiz-adv-x="1249" 
d="M676 1475h287l-246 -328h-185zM829 993h267v-993h-256v80q-111 -100 -269 -100q-101 0 -189.5 42.5t-148.5 116.5q-100 124 -100 328v526h266v-536q0 -114 50 -170q56 -62 149 -62q75 0 134.5 38t96.5 85v645z" />
    <glyph glyph-name="ucircumflex" unicode="&#xfb;" horiz-adv-x="1249" 
d="M471 1475h287l205 -328h-185l-164 184l-163 -184h-185zM829 993h267v-993h-256v80q-111 -100 -269 -100q-101 0 -189.5 42.5t-148.5 116.5q-100 124 -100 328v526h266v-536q0 -114 50 -170q56 -62 149 -62q75 0 134.5 38t96.5 85v645z" />
    <glyph glyph-name="udieresis" unicode="&#xfc;" horiz-adv-x="1249" 
d="M236 1315q0 67 47.5 113.5t115.5 46.5t116 -46.5t48 -113.5t-48 -113.5t-116 -46.5t-115.5 46.5t-47.5 113.5zM666 1315q0 67 47.5 113.5t115.5 46.5t116 -46.5t48 -113.5t-48 -113.5t-116 -46.5t-115.5 46.5t-47.5 113.5zM829 993h267v-993h-256v80q-111 -100 -269 -100
q-101 0 -189.5 42.5t-148.5 116.5q-100 124 -100 328v526h266v-536q0 -114 50 -170q56 -62 149 -62q75 0 134.5 38t96.5 85v645z" />
    <glyph glyph-name="yacute" unicode="&#xfd;" horiz-adv-x="1173" 
d="M655 1475h287l-246 -328h-184zM469 -492h-279l275 592l-445 893h293l291 -596l268 596h281z" />
    <glyph glyph-name="thorn" unicode="&#xfe;" horiz-adv-x="1259" 
d="M154 1454h266v-532q118 92 280 92q133 0 245 -68t177.5 -187t65.5 -263q0 -205 -125 -349q-67 -77 -167.5 -122t-209.5 -45q-148 0 -266 90v-562h-266v1946zM420 645v-297q39 -57 102 -90t137 -33q113 0 188 77t75 194q0 111 -71.5 191.5t-184.5 80.5q-75 0 -139.5 -33
t-106.5 -90z" />
    <glyph glyph-name="ydieresis" unicode="&#xff;" horiz-adv-x="1173" 
d="M215 1315q0 67 48 113.5t116 46.5t116 -46.5t48 -113.5t-48 -113.5t-116 -46.5t-116 46.5t-48 113.5zM645 1315q0 67 48 113.5t116 46.5t116 -46.5t48 -113.5t-48 -113.5t-116 -46.5t-116 46.5t-48 113.5zM469 -492h-279l275 592l-445 893h293l291 -596l268 596h281z" />
    <glyph glyph-name="Amacron" unicode="&#x100;" horiz-adv-x="1423" 
d="M383 1823h655v-205h-655v205zM289 0h-289l614 1434h195l614 -1434h-288l-136 317h-575zM711 987l-183 -424h365z" />
    <glyph glyph-name="amacron" unicode="&#x101;" horiz-adv-x="1259" 
d="M322 1413h655v-205h-655v205zM840 348v297q-42 57 -106.5 90t-139.5 33q-113 0 -184.5 -80.5t-71.5 -191.5q0 -117 74.5 -194t187.5 -77q74 0 137.5 33.5t102.5 89.5zM1106 993v-993h-256v80q-117 -100 -277 -100q-109 0 -208 45t-166 122q-127 147 -127 349
q0 219 142 368.5t345 149.5q166 0 291 -101v80h256z" />
    <glyph glyph-name="Abreve" unicode="&#x102;" horiz-adv-x="1423" 
d="M803 1884h215q0 -128 -90 -217.5t-217 -89.5q-128 0 -218 90t-90 217h215q0 -38 27.5 -65t65.5 -27t65 27t27 65zM289 0h-289l614 1434h195l614 -1434h-288l-136 317h-575zM711 987l-183 -424h365z" />
    <glyph glyph-name="abreve" unicode="&#x103;" horiz-adv-x="1259" 
d="M741 1475h215q0 -128 -90 -218t-217 -90t-217 90t-90 218h215q0 -38 27 -65.5t65 -27.5t65 27.5t27 65.5zM840 348v297q-42 57 -106.5 90t-139.5 33q-113 0 -184.5 -80.5t-71.5 -191.5q0 -117 74.5 -194t187.5 -77q74 0 137.5 33.5t102.5 89.5zM1106 993v-993h-256v80
q-117 -100 -277 -100q-109 0 -208 45t-166 122q-127 147 -127 349q0 219 142 368.5t345 149.5q166 0 291 -101v80h256z" />
    <glyph glyph-name="Aogonek" unicode="&#x104;" horiz-adv-x="1423" 
d="M289 0h-289l614 1434h195l614 -1434q-53 -76 -53 -129q0 -37 23 -61.5t59 -24.5q27 0 51 8l31 -223q-42 -21 -133 -21q-125 0 -201 70.5t-76 175.5q0 72 33 152l-158 370h-575zM711 987l-183 -424h365z" />
    <glyph glyph-name="aogonek" unicode="&#x105;" horiz-adv-x="1259" 
d="M1106 993v-993q-53 -76 -53 -129q0 -37 23 -61.5t59 -24.5q27 0 51 8l31 -223q-42 -21 -134 -21q-125 0 -200.5 70.5t-75.5 175.5q0 83 43 191v94q-117 -100 -277 -100q-109 0 -208 45t-166 122q-127 147 -127 349q0 219 142 368.5t345 149.5q166 0 291 -101v80h256z
M840 348v297q-42 57 -106.5 90t-139.5 33q-113 0 -184.5 -80.5t-71.5 -191.5q0 -117 74.5 -194t187.5 -77q74 0 137.5 33.5t102.5 89.5z" />
    <glyph glyph-name="Cacute" unicode="&#x106;" horiz-adv-x="1464" 
d="M815 1208q-133 0 -243 -65.5t-172 -178.5t-62 -247q0 -209 141 -350.5t348 -141.5q131 0 234 55t172 144l190 -170q-99 -126 -255 -200t-347 -74q-164 0 -306.5 57.5t-241.5 156.5t-155.5 234.5t-56.5 288.5t56 288.5t154.5 234.5t240 156.5t305.5 57.5q156 0 290 -54
t234 -151l-178 -188q-147 147 -348 147zM823 1884h287l-246 -328h-184z" />
    <glyph glyph-name="cacute" unicode="&#x107;" horiz-adv-x="1105" 
d="M850 356l205 -153q-167 -223 -451 -223q-228 0 -380 149.5t-152 366.5q0 143 69.5 261.5t192.5 187.5t272 69q126 0 236.5 -54t181.5 -145l-188 -166q-41 55 -100.5 87t-129.5 32q-115 0 -191.5 -78.5t-76.5 -193.5q0 -118 76.5 -194.5t197.5 -76.5q76 0 139 38t99 93z
M645 1475h287l-246 -328h-184z" />
    <glyph glyph-name="Ccircumflex" unicode="&#x108;" horiz-adv-x="1464" 
d="M815 1208q-133 0 -243 -65.5t-172 -178.5t-62 -247q0 -209 141 -350.5t348 -141.5q131 0 234 55t172 144l190 -170q-99 -126 -255 -200t-347 -74q-164 0 -306.5 57.5t-241.5 156.5t-155.5 234.5t-56.5 288.5t56 288.5t154.5 234.5t240 156.5t305.5 57.5q156 0 290 -54
t234 -151l-178 -188q-147 147 -348 147zM666 1884h286l205 -328h-184l-164 185l-164 -185h-184z" />
    <glyph glyph-name="ccircumflex" unicode="&#x109;" horiz-adv-x="1105" 
d="M850 356l205 -153q-167 -223 -451 -223q-228 0 -380 149.5t-152 366.5q0 143 69.5 261.5t192.5 187.5t272 69q126 0 236.5 -54t181.5 -145l-188 -166q-41 55 -100.5 87t-129.5 32q-115 0 -191.5 -78.5t-76.5 -193.5q0 -118 76.5 -194.5t197.5 -76.5q76 0 139 38t99 93z
M451 1475h286l205 -328h-184l-164 184l-164 -184h-184z" />
    <glyph glyph-name="Cdotaccent" unicode="&#x10a;" horiz-adv-x="1464" 
d="M815 1208q-133 0 -243 -65.5t-172 -178.5t-62 -247q0 -209 141 -350.5t348 -141.5q131 0 234 55t172 144l190 -170q-99 -126 -255 -200t-347 -74q-164 0 -306.5 57.5t-241.5 156.5t-155.5 234.5t-56.5 288.5t56 288.5t154.5 234.5t240 156.5t305.5 57.5q156 0 290 -54
t234 -151l-178 -188q-147 147 -348 147zM645 1755q0 72 51 121t123 49t123 -49t51 -121t-51 -121t-123 -49t-123 49t-51 121z" />
    <glyph glyph-name="cdotaccent" unicode="&#x10b;" horiz-adv-x="1105" 
d="M850 356l205 -153q-167 -223 -451 -223q-228 0 -380 149.5t-152 366.5q0 143 69.5 261.5t192.5 187.5t272 69q126 0 236.5 -54t181.5 -145l-188 -166q-41 55 -100.5 87t-129.5 32q-115 0 -191.5 -78.5t-76.5 -193.5q0 -118 76.5 -194.5t197.5 -76.5q76 0 139 38t99 93z
M379 1346q0 72 51 121t123 49t123 -49t51 -121t-51 -121t-123 -49t-123 49t-51 121z" />
    <glyph glyph-name="Ccaron" unicode="&#x10c;" horiz-adv-x="1464" 
d="M815 1208q-133 0 -243 -65.5t-172 -178.5t-62 -247q0 -209 141 -350.5t348 -141.5q131 0 234 55t172 144l190 -170q-99 -126 -255 -200t-347 -74q-164 0 -306.5 57.5t-241.5 156.5t-155.5 234.5t-56.5 288.5t56 288.5t154.5 234.5t240 156.5t305.5 57.5q156 0 290 -54
t234 -151l-178 -188q-147 147 -348 147zM952 1556h-286l-205 328h184l164 -184l164 184h184z" />
    <glyph glyph-name="ccaron" unicode="&#x10d;" horiz-adv-x="1105" 
d="M850 356l205 -153q-167 -223 -451 -223q-228 0 -380 149.5t-152 366.5q0 143 69.5 261.5t192.5 187.5t272 69q126 0 236.5 -54t181.5 -145l-188 -166q-41 55 -100.5 87t-129.5 32q-115 0 -191.5 -78.5t-76.5 -193.5q0 -118 76.5 -194.5t197.5 -76.5q76 0 139 38t99 93z
M737 1147h-286l-205 328h184l164 -185l164 185h184z" />
    <glyph glyph-name="Dcaron" unicode="&#x10e;" horiz-adv-x="1454" 
d="M1116 717q0 182 -104 311q-128 160 -367 160h-205v-942h205q239 0 367 160q104 129 104 311zM164 1434h450q309 0 494 -136q133 -99 209 -251.5t76 -329.5t-76 -330t-209 -252q-184 -135 -494 -135h-450v1434zM768 1556h-287l-205 328h185l164 -184l163 184h185z" />
    <glyph glyph-name="dcaron" unicode="&#x10f;" horiz-adv-x="1402" 
d="M1331 1434h287l-246 -328h-184zM840 348v297q-42 57 -106.5 90t-139.5 33q-113 0 -184.5 -80.5t-71.5 -191.5q0 -117 74.5 -194t187.5 -77q74 0 137.5 33.5t102.5 89.5zM1106 0h-256v80q-117 -100 -277 -100q-109 0 -208 45t-166 122q-127 147 -127 349q0 219 142 368.5
t345 149.5q163 0 281 -92v532h266v-1454z" />
    <glyph glyph-name="Dcroat" unicode="&#x110;" horiz-adv-x="1495" 
d="M0 645v246h205v543h450q309 0 494 -136q133 -99 209 -251.5t76 -329.5t-76 -330t-209 -252q-184 -135 -494 -135h-450v645h-205zM1157 717q0 182 -104 311q-128 160 -367 160h-205v-297h410v-246h-410v-399h205q239 0 367 160q104 129 104 311z" />
    <glyph glyph-name="dcroat" unicode="&#x111;" horiz-adv-x="1259" 
d="M1106 0h-256v80q-117 -100 -277 -100q-109 0 -208 45t-166 122q-127 147 -127 349q0 219 142 368.5t345 149.5q163 0 281 -92v184h-267v225h267v123h266v-123h164v-225h-164v-1106zM840 348v297q-42 57 -106.5 90t-139.5 33q-113 0 -184.5 -80.5t-71.5 -191.5
q0 -117 74.5 -194t187.5 -77q74 0 137.5 33.5t102.5 89.5z" />
    <glyph glyph-name="Emacron" unicode="&#x112;" horiz-adv-x="1126" 
d="M1024 1188h-584v-297h441v-246h-441v-399h604v-246h-880v1434h860v-246zM256 1823h655v-205h-655v205z" />
    <glyph glyph-name="emacron" unicode="&#x113;" horiz-adv-x="1095" 
d="M848 309l151 -151q-71 -85 -180 -131.5t-227 -46.5q-226 0 -373 143t-147 373q0 103 34.5 197t96 165.5t153 113.5t199.5 42q134 0 242 -69.5t167.5 -185.5t59.5 -253q0 -42 -6 -76h-688q10 -104 86 -169.5t182 -65.5q77 0 142.5 34t107.5 80zM342 625h410
q-6 69 -62 121.5t-135 52.5q-81 0 -142.5 -52t-70.5 -122zM225 1413h656v-205h-656v205z" />
    <glyph glyph-name="Ebreve" unicode="&#x114;" horiz-adv-x="1126" 
d="M1024 1188h-584v-297h441v-246h-441v-399h604v-246h-880v1434h860v-246zM688 1884h215q0 -128 -89.5 -217.5t-217.5 -89.5t-217.5 89.5t-89.5 217.5h215q0 -38 27 -65t65 -27t65 27t27 65z" />
    <glyph glyph-name="ebreve" unicode="&#x115;" horiz-adv-x="1095" 
d="M848 309l151 -151q-71 -85 -180 -131.5t-227 -46.5q-226 0 -373 143t-147 373q0 103 34.5 197t96 165.5t153 113.5t199.5 42q134 0 242 -69.5t167.5 -185.5t59.5 -253q0 -42 -6 -76h-688q10 -104 86 -169.5t182 -65.5q77 0 142.5 34t107.5 80zM342 625h410
q-6 69 -62 121.5t-135 52.5q-81 0 -142.5 -52t-70.5 -122zM659 1475h215q0 -128 -90 -218t-217 -90t-217 90t-90 218h215q0 -38 27 -65.5t65 -27.5t65 27.5t27 65.5z" />
    <glyph glyph-name="Edotaccent" unicode="&#x116;" horiz-adv-x="1126" 
d="M1024 1188h-584v-297h441v-246h-441v-399h604v-246h-880v1434h860v-246zM430 1755q0 72 51 121t123 49t123 -49t51 -121t-51 -121t-123 -49t-123 49t-51 121z" />
    <glyph glyph-name="edotaccent" unicode="&#x117;" horiz-adv-x="1095" 
d="M848 309l151 -151q-71 -85 -180 -131.5t-227 -46.5q-226 0 -373 143t-147 373q0 103 34.5 197t96 165.5t153 113.5t199.5 42q134 0 242 -69.5t167.5 -185.5t59.5 -253q0 -42 -6 -76h-688q10 -104 86 -169.5t182 -65.5q77 0 142.5 34t107.5 80zM342 625h410
q-6 69 -62 121.5t-135 52.5q-81 0 -142.5 -52t-70.5 -122zM393 1346q0 72 51 121t123 49t123 -49t51 -121t-51 -121t-123 -49t-123 49t-51 121z" />
    <glyph glyph-name="Eogonek" unicode="&#x118;" horiz-adv-x="1126" 
d="M1024 1188h-584v-297h441v-246h-441v-399h604v-246h-143q-51 -73 -51 -129q0 -37 23 -61.5t59 -24.5q27 0 51 8l31 -223q-42 -21 -133 -21q-125 0 -201 70.5t-76 175.5q0 113 62 205h-502v1434h860v-246z" />
    <glyph glyph-name="eogonek" unicode="&#x119;" horiz-adv-x="1095" 
d="M848 309l151 -151q-80 -99 -217 -146q-22 -27 -40.5 -67t-18.5 -74q0 -37 23 -61.5t59 -24.5q27 0 51 8l31 -223q-42 -21 -133 -21q-125 0 -201 70.5t-76 175.5q0 98 51 189q-201 19 -328.5 158.5t-127.5 353.5q0 103 34.5 197t96 165.5t153 113.5t199.5 42
q134 0 242 -69.5t167.5 -185.5t59.5 -253q0 -42 -6 -76h-688q10 -104 86 -169.5t182 -65.5q77 0 142.5 34t107.5 80zM342 625h410q-6 69 -62 121.5t-135 52.5q-81 0 -142.5 -52t-70.5 -122z" />
    <glyph glyph-name="Ecaron" unicode="&#x11a;" horiz-adv-x="1126" 
d="M1024 1188h-584v-297h441v-246h-441v-399h604v-246h-880v1434h860v-246zM727 1556h-287l-204 328h184l164 -184l164 184h184z" />
    <glyph glyph-name="ecaron" unicode="&#x11b;" horiz-adv-x="1095" 
d="M848 309l151 -151q-71 -85 -180 -131.5t-227 -46.5q-226 0 -373 143t-147 373q0 103 34.5 197t96 165.5t153 113.5t199.5 42q134 0 242 -69.5t167.5 -185.5t59.5 -253q0 -42 -6 -76h-688q10 -104 86 -169.5t182 -65.5q77 0 142.5 34t107.5 80zM342 625h410
q-6 69 -62 121.5t-135 52.5q-81 0 -142.5 -52t-70.5 -122zM696 1147h-286l-205 328h184l164 -185l164 185h184z" />
    <glyph glyph-name="Gcircumflex" unicode="&#x11c;" horiz-adv-x="1546" 
d="M666 1884h286l205 -328h-184l-164 185l-164 -185h-184zM815 1208q-133 0 -243 -65.5t-172 -178.5t-62 -247q0 -209 141 -350.5t348 -141.5q182 0 320 111v309h-369v246h645v-637q-99 -126 -255 -200t-347 -74q-164 0 -306.5 57.5t-241.5 156.5t-155.5 234.5t-56.5 288.5
t56 288.5t154.5 234.5t240 156.5t305.5 57.5q156 0 290 -54t234 -151l-178 -188q-147 147 -348 147z" />
    <glyph glyph-name="gcircumflex" unicode="&#x11d;" horiz-adv-x="1259" 
d="M502 1475h286l205 -328h-184l-164 184l-164 -184h-184zM1106 993v-938q0 -240 -90 -368q-68 -94 -183.5 -146.5t-257.5 -52.5t-271.5 58t-205.5 147l168 174q25 -27 49 -47.5t62.5 -44.5t89 -37.5t108.5 -13.5q136 0 203 79q32 35 47 88.5t15 145.5v33q-118 -90 -267 -90
q-109 0 -209 45t-167 122q-125 144 -125 349q0 219 142 368.5t345 149.5q166 0 291 -101v80h256zM840 348v297q-42 57 -106.5 90t-139.5 33q-113 0 -184.5 -80.5t-71.5 -191.5q0 -117 74.5 -194t187.5 -77q74 0 137.5 33.5t102.5 89.5z" />
    <glyph glyph-name="Gbreve" unicode="&#x11e;" horiz-adv-x="1546" 
d="M815 1208q-133 0 -243 -65.5t-172 -178.5t-62 -247q0 -209 141 -350.5t348 -141.5q182 0 320 111v309h-369v246h645v-637q-99 -126 -255 -200t-347 -74q-164 0 -306.5 57.5t-241.5 156.5t-155.5 234.5t-56.5 288.5t56 288.5t154.5 234.5t240 156.5t305.5 57.5
q156 0 290 -54t234 -151l-178 -188q-147 147 -348 147zM905 1884h215q0 -128 -90 -217.5t-217 -89.5t-217 89.5t-90 217.5h215q0 -38 27 -65t65 -27t65 27t27 65z" />
    <glyph glyph-name="gbreve" unicode="&#x11f;" horiz-adv-x="1259" 
d="M741 1475h215q0 -128 -90 -218t-217 -90t-217 90t-90 218h215q0 -38 27 -65.5t65 -27.5t65 27.5t27 65.5zM1106 993v-938q0 -240 -90 -368q-68 -94 -183.5 -146.5t-257.5 -52.5t-271.5 58t-205.5 147l168 174q25 -27 49 -47.5t62.5 -44.5t89 -37.5t108.5 -13.5
q136 0 203 79q32 35 47 88.5t15 145.5v33q-118 -90 -267 -90q-109 0 -209 45t-167 122q-125 144 -125 349q0 219 142 368.5t345 149.5q166 0 291 -101v80h256zM840 348v297q-42 57 -106.5 90t-139.5 33q-113 0 -184.5 -80.5t-71.5 -191.5q0 -117 74.5 -194t187.5 -77
q74 0 137.5 33.5t102.5 89.5z" />
    <glyph glyph-name="Gdotaccent" unicode="&#x120;" horiz-adv-x="1546" 
d="M645 1755q0 72 51 121t123 49t123 -49t51 -121t-51 -121t-123 -49t-123 49t-51 121zM815 1208q-133 0 -243 -65.5t-172 -178.5t-62 -247q0 -209 141 -350.5t348 -141.5q182 0 320 111v309h-369v246h645v-637q-99 -126 -255 -200t-347 -74q-164 0 -306.5 57.5
t-241.5 156.5t-155.5 234.5t-56.5 288.5t56 288.5t154.5 234.5t240 156.5t305.5 57.5q156 0 290 -54t234 -151l-178 -188q-147 147 -348 147z" />
    <glyph glyph-name="gdotaccent" unicode="&#x121;" horiz-adv-x="1259" 
d="M471 1346q0 72 51 121t123 49t123 -49t51 -121t-51 -121t-123 -49t-123 49t-51 121zM1106 993v-938q0 -240 -90 -368q-68 -94 -183.5 -146.5t-257.5 -52.5t-271.5 58t-205.5 147l168 174q25 -27 49 -47.5t62.5 -44.5t89 -37.5t108.5 -13.5q136 0 203 79q32 35 47 88.5
t15 145.5v33q-118 -90 -267 -90q-109 0 -209 45t-167 122q-125 144 -125 349q0 219 142 368.5t345 149.5q166 0 291 -101v80h256zM840 348v297q-42 57 -106.5 90t-139.5 33q-113 0 -184.5 -80.5t-71.5 -191.5q0 -117 74.5 -194t187.5 -77q74 0 137.5 33.5t102.5 89.5z" />
    <glyph glyph-name="Gcommaaccent" unicode="&#x122;" horiz-adv-x="1546" 
d="M815 1208q-133 0 -243 -65.5t-172 -178.5t-62 -247q0 -209 141 -350.5t348 -141.5q182 0 320 111v309h-369v246h645v-637q-99 -126 -255 -200t-347 -74q-164 0 -306.5 57.5t-241.5 156.5t-155.5 234.5t-56.5 288.5t56 288.5t154.5 234.5t240 156.5t305.5 57.5
q156 0 290 -54t234 -151l-178 -188q-147 147 -348 147zM700 -123h287l-246 -328h-184z" />
    <glyph glyph-name="gcommaaccent" unicode="&#x123;" horiz-adv-x="1259" 
d="M727 1147h-287l246 328h184zM1106 993v-938q0 -240 -90 -368q-68 -94 -183.5 -146.5t-257.5 -52.5t-271.5 58t-205.5 147l168 174q25 -27 49 -47.5t62.5 -44.5t89 -37.5t108.5 -13.5q136 0 203 79q32 35 47 88.5t15 145.5v33q-118 -90 -267 -90q-109 0 -209 45t-167 122
q-125 144 -125 349q0 219 142 368.5t345 149.5q166 0 291 -101v80h256zM840 348v297q-42 57 -106.5 90t-139.5 33q-113 0 -184.5 -80.5t-71.5 -191.5q0 -117 74.5 -194t187.5 -77q74 0 137.5 33.5t102.5 89.5z" />
    <glyph glyph-name="Hcircumflex" unicode="&#x124;" horiz-adv-x="1597" 
d="M1157 0v645h-717v-645h-276v1434h276v-543h717v543h277v-1434h-277zM655 1884h287l205 -328h-184l-164 185l-164 -185h-184z" />
    <glyph glyph-name="hcircumflex" unicode="&#x125;" horiz-adv-x="1269" 
d="M166 1905h287l204 -328h-184l-164 184l-164 -184h-184zM420 645v-645h-266v1454h266v-532q119 92 270 92q101 0 191.5 -42.5t152.5 -117.5q52 -61 77.5 -143t25.5 -205v-506h-267v526q0 128 -59 187q-55 55 -149 55q-77 0 -142.5 -38.5t-99.5 -84.5z" />
    <glyph glyph-name="Hbar" unicode="&#x126;" horiz-adv-x="1597" 
d="M1638 1313v-246h-204v-1067h-277v645h-717v-645h-276v1067h-205v246h205v121h276v-121h717v121h277v-121h204zM440 891h717v176h-717v-176z" />
    <glyph glyph-name="hbar" unicode="&#x127;" horiz-adv-x="1269" 
d="M420 645v-645h-266v1106h-164v205h164v143h266v-143h266v-205h-266v-184q119 92 270 92q101 0 191.5 -42.5t152.5 -117.5q52 -61 77.5 -143t25.5 -205v-506h-267v526q0 128 -59 187q-55 55 -149 55q-77 0 -142.5 -38.5t-99.5 -84.5z" />
    <glyph glyph-name="Itilde" unicode="&#x128;" horiz-adv-x="604" 
d="M164 0v1434h276v-1434h-276zM528 1884l164 -33q0 -116 -60.5 -195t-166.5 -79q-52 0 -110 25.5t-108.5 51t-86.5 25.5q-35 0 -56 -28.5t-26 -73.5l-164 33q0 116 60.5 195t166.5 79q52 0 110 -25.5t108.5 -51t86.5 -25.5q35 0 56 28.5t26 73.5z" />
    <glyph glyph-name="itilde" unicode="&#x129;" horiz-adv-x="573" 
d="M420 993v-993h-266v993h266zM512 1475l164 -33q0 -116 -60.5 -195.5t-166.5 -79.5q-41 0 -87 16t-79 35.5t-72 35.5t-68 16q-35 0 -56 -29t-26 -74l-163 33q0 116 60.5 195.5t166.5 79.5q41 0 87 -16t79 -35.5t71.5 -35.5t67.5 -16q35 0 56 29t26 74z" />
    <glyph glyph-name="Imacron" unicode="&#x12a;" horiz-adv-x="604" 
d="M164 0v1434h276v-1434h-276zM-25 1823h656v-205h-656v205z" />
    <glyph glyph-name="imacron" unicode="&#x12b;" horiz-adv-x="573" 
d="M420 993v-993h-266v993h266zM-41 1413h655v-205h-655v205z" />
    <glyph glyph-name="Ibreve" unicode="&#x12c;" horiz-adv-x="604" 
d="M164 0v1434h276v-1434h-276zM395 1884h215q0 -128 -90 -217.5t-217 -89.5t-217 89.5t-90 217.5h215q0 -38 27 -65t65 -27t65 27t27 65z" />
    <glyph glyph-name="ibreve" unicode="&#x12d;" horiz-adv-x="573" 
d="M420 993v-993h-266v993h266zM379 1475h215q0 -128 -90 -218t-217 -90t-217 90t-90 218h215q0 -38 27 -65.5t65 -27.5t65 27.5t27 65.5z" />
    <glyph glyph-name="Iogonek" unicode="&#x12e;" horiz-adv-x="604" 
d="M440 1434v-1434q-53 -76 -53 -129q0 -37 23 -61.5t59 -24.5q27 0 51 8l31 -223q-42 -21 -133 -21q-125 0 -201 70.5t-76 175.5q0 113 62 205h-39v1434h276z" />
    <glyph glyph-name="iogonek" unicode="&#x12f;" horiz-adv-x="573" 
d="M420 993v-993q-53 -76 -53 -129q0 -37 23 -61.5t59 -24.5q27 0 51 8l30 -223q-42 -21 -133 -21q-125 0 -200.5 70.5t-75.5 175.5q0 75 33 164v1034h266zM113 1346q0 72 51 121t123 49t123 -49t51 -121t-51 -121t-123 -49t-123 49t-51 121z" />
    <glyph glyph-name="Idotaccent" unicode="&#x130;" horiz-adv-x="604" 
d="M164 0v1434h276v-1434h-276zM129 1755q0 72 51 121t123 49t123 -49t51 -121t-51 -121t-123 -49t-123 49t-51 121z" />
    <glyph glyph-name="dotlessi" unicode="&#x131;" horiz-adv-x="573" 
d="M420 993v-993h-266v993h266z" />
    <glyph glyph-name="IJ" unicode="&#x132;" horiz-adv-x="1628" 
d="M164 0v1434h276v-1434h-276zM1475 1434v-983q0 -171 -45 -254q-55 -102 -160.5 -159.5t-231.5 -57.5q-139 0 -246 67.5t-157 183.5l237 119q21 -52 62.5 -88.5t105.5 -36.5q80 0 125 58q33 45 33 137v1014h277z" />
    <glyph glyph-name="ij" unicode="&#x133;" horiz-adv-x="1228" 
d="M420 993v-993h-266v993h266zM113 1346q0 72 51 121t123 49t123 -49t51 -121t-51 -121t-123 -49t-123 49t-51 121zM768 1346q0 72 51 121t123 49t123 -49t51 -121t-51 -121t-123 -49t-123 49t-51 121zM532 -498l41 242q30 -10 70 -10q85 0 127 45q39 42 39 170v1044h266
v-1044q0 -113 -16.5 -186t-54.5 -128q-104 -147 -338 -147q-66 0 -134 14z" />
    <glyph glyph-name="Jcircumflex" unicode="&#x134;" horiz-adv-x="1024" 
d="M567 1884h287l205 -328h-185l-163 185l-164 -185h-185zM870 1434v-983q0 -171 -45 -254q-55 -102 -160 -159.5t-231 -57.5q-139 0 -246 67.5t-157 183.5l237 119q21 -52 62.5 -88.5t105.5 -36.5q80 0 125 58q33 45 33 137v1014h276z" />
    <glyph glyph-name="jcircumflex" unicode="&#x135;" horiz-adv-x="655" 
d="M205 1475h287l204 -328h-184l-164 184l-164 -184h-184zM-41 -498l41 242q30 -10 70 -10q85 0 127 45q39 42 39 170v1044h266v-1044q0 -112 -17 -185t-55 -129q-104 -147 -338 -147q-65 0 -133 14z" />
    <glyph glyph-name="Kcommaaccent" unicode="&#x136;" horiz-adv-x="1423" 
d="M1069 0l-629 705v-705h-276v1434h276v-574l543 574h365l-631 -656l706 -778h-354zM598 -123h287l-246 -328h-184z" />
    <glyph glyph-name="kcommaaccent" unicode="&#x137;" horiz-adv-x="1218" 
d="M1137 993l-486 -446l547 -547h-358l-420 430v-430h-266v1434h266v-762l342 321h375zM475 -123h287l-246 -328h-184z" />
    <glyph glyph-name="kgreenlandic" unicode="&#x138;" horiz-adv-x="1218" 
d="M1137 993l-486 -446l547 -547h-358l-420 430v-430h-266v993h266v-321l342 321h375z" />
    <glyph glyph-name="Lacute" unicode="&#x139;" horiz-adv-x="1095" 
d="M348 1884h287l-246 -328h-184zM164 0v1434h276v-1188h604v-246h-880z" />
    <glyph glyph-name="lacute" unicode="&#x13a;" horiz-adv-x="573" 
d="M338 1905h287l-246 -328h-184zM420 1454v-1454h-266v1454h266z" />
    <glyph glyph-name="Lcommaaccent" unicode="&#x13b;" horiz-adv-x="1095" 
d="M164 0v1434h276v-1188h604v-246h-880zM475 -123h287l-246 -328h-184z" />
    <glyph glyph-name="lcommaaccent" unicode="&#x13c;" horiz-adv-x="573" 
d="M420 1454v-1454h-266v1454h266zM154 -123h286l-245 -328h-185z" />
    <glyph glyph-name="Lcaron" unicode="&#x13d;" horiz-adv-x="1095" 
d="M666 1434h286l-245 -328h-185zM164 0v1434h276v-1188h604v-246h-880z" />
    <glyph glyph-name="lcaron" unicode="&#x13e;" horiz-adv-x="716" 
d="M645 1434h287l-246 -328h-184zM420 1454v-1454h-266v1454h266z" />
    <glyph glyph-name="Ldot" unicode="&#x13f;" horiz-adv-x="1095" 
d="M164 0v1434h276v-1188h604v-246h-880zM602 717q0 72 51 121t123 49t123 -49t51 -121t-51 -121t-123 -49t-123 49t-51 121z" />
    <glyph glyph-name="ldot" unicode="&#x140;" horiz-adv-x="696" 
d="M420 1454v-1454h-266v1454h266zM522 717q0 72 51 121t123 49t123 -49t51 -121t-51 -121t-123 -49t-123 49t-51 121z" />
    <glyph glyph-name="Lslash" unicode="&#x141;" horiz-adv-x="1116" 
d="M174 0v545l-225 -131v270l225 131v619h277v-459l286 166v-271l-286 -165v-459h604v-246h-881z" />
    <glyph glyph-name="lslash" unicode="&#x142;" horiz-adv-x="573" 
d="M420 1454v-485l225 131v-271l-225 -131v-698h-266v545l-226 -131v270l226 131v639h266z" />
    <glyph glyph-name="Nacute" unicode="&#x143;" horiz-adv-x="1597" 
d="M164 0v1434h194l799 -934v934h277v-1434h-195l-799 934v-934h-276zM829 1884h287l-246 -328h-184z" />
    <glyph glyph-name="nacute" unicode="&#x144;" horiz-adv-x="1269" 
d="M686 1475h287l-246 -328h-184zM420 0h-266v993h256v-80q126 101 280 101q101 0 191.5 -42.5t152.5 -117.5q52 -61 77.5 -143t25.5 -205v-506h-267v526q0 128 -59 187q-55 55 -149 55q-77 0 -142.5 -38.5t-99.5 -84.5v-645z" />
    <glyph glyph-name="Ncommaaccent" unicode="&#x145;" horiz-adv-x="1597" 
d="M164 0v1434h194l799 -934v934h277v-1434h-195l-799 934v-934h-276zM680 -123h287l-246 -328h-184z" />
    <glyph glyph-name="ncommaaccent" unicode="&#x146;" horiz-adv-x="1269" 
d="M496 -123h286l-245 -328h-185zM420 0h-266v993h256v-80q126 101 280 101q101 0 191.5 -42.5t152.5 -117.5q52 -61 77.5 -143t25.5 -205v-506h-267v526q0 128 -59 187q-55 55 -149 55q-77 0 -142.5 -38.5t-99.5 -84.5v-645z" />
    <glyph glyph-name="Ncaron" unicode="&#x147;" horiz-adv-x="1597" 
d="M164 0v1434h194l799 -934v934h277v-1434h-195l-799 934v-934h-276zM942 1556h-287l-204 328h184l164 -184l164 184h184z" />
    <glyph glyph-name="ncaron" unicode="&#x148;" horiz-adv-x="1269" 
d="M799 1147h-287l-205 328h185l163 -185l164 185h185zM420 0h-266v993h256v-80q126 101 280 101q101 0 191.5 -42.5t152.5 -117.5q52 -61 77.5 -143t25.5 -205v-506h-267v526q0 128 -59 187q-55 55 -149 55q-77 0 -142.5 -38.5t-99.5 -84.5v-645z" />
    <glyph glyph-name="napostrophe" unicode="&#x149;" horiz-adv-x="1269" 
d="M297 1434h287l-246 -328h-184zM420 0h-266v993h256v-80q126 101 280 101q101 0 191.5 -42.5t152.5 -117.5q52 -61 77.5 -143t25.5 -205v-506h-267v526q0 128 -59 187q-55 55 -149 55q-77 0 -142.5 -38.5t-99.5 -84.5v-645z" />
    <glyph glyph-name="Eng" unicode="&#x14a;" horiz-adv-x="1597" 
d="M164 0v1434h194l799 -934v934h277v-1475q0 -171 -45 -254q-55 -102 -160.5 -159.5t-231.5 -57.5q-138 0 -245.5 68t-157.5 184l237 119q21 -52 62.5 -88.5t105.5 -36.5q80 0 125 57q33 45 33 137v168l-717 838v-934h-276z" />
    <glyph glyph-name="eng" unicode="&#x14b;" horiz-adv-x="1269" 
d="M420 0h-266v993h256v-80q126 101 280 101q101 0 191.5 -42.5t152.5 -117.5q52 -61 77.5 -143t25.5 -205v-557q0 -116 -21.5 -190.5t-66.5 -127.5q-56 -67 -140.5 -105t-181.5 -38q-150 0 -246 55l105 209q56 -28 119 -28q91 0 135 53q30 38 30 121v628q0 128 -59 187
q-55 55 -149 55q-77 0 -142.5 -38.5t-99.5 -84.5v-645z" />
    <glyph glyph-name="Omacron" unicode="&#x14c;" horiz-adv-x="1617" 
d="M338 717q0 -134 61 -246.5t169.5 -179t240.5 -66.5t240.5 66.5t169.5 179t61 246.5t-61 246.5t-169.5 178.5t-240.5 66t-240.5 -66t-169.5 -178.5t-61 -246.5zM61 717q0 152 55.5 287t152.5 234.5t237.5 157.5t302.5 58t302.5 -58t237.5 -157.5t152 -234.5t55 -287
t-55 -287t-152 -234.5t-237.5 -157.5t-302.5 -58t-302.5 58t-237.5 157.5t-152.5 234.5t-55.5 287zM481 1823h656v-205h-656v205z" />
    <glyph glyph-name="omacron" unicode="&#x14d;" horiz-adv-x="1200" 
d="M72 496q0 142 68.5 260.5t190 188t269.5 69.5t269.5 -69.5t190 -188t68.5 -260.5t-68.5 -260t-190 -187t-269.5 -69t-269.5 69t-190 187t-68.5 260zM338 496q0 -115 73.5 -193t188.5 -78t188.5 78t73.5 193t-73.5 193.5t-188.5 78.5t-188.5 -78.5t-73.5 -193.5zM272 1413
h656v-205h-656v205z" />
    <glyph glyph-name="Obreve" unicode="&#x14e;" horiz-adv-x="1617" 
d="M338 717q0 -134 61 -246.5t169.5 -179t240.5 -66.5t240.5 66.5t169.5 179t61 246.5t-61 246.5t-169.5 178.5t-240.5 66t-240.5 -66t-169.5 -178.5t-61 -246.5zM61 717q0 152 55.5 287t152.5 234.5t237.5 157.5t302.5 58t302.5 -58t237.5 -157.5t152 -234.5t55 -287
t-55 -287t-152 -234.5t-237.5 -157.5t-302.5 -58t-302.5 58t-237.5 157.5t-152.5 234.5t-55.5 287zM901 1884h215q0 -128 -90 -217.5t-217 -89.5t-217 89.5t-90 217.5h215q0 -38 27 -65t65 -27t65 27t27 65z" />
    <glyph glyph-name="obreve" unicode="&#x14f;" horiz-adv-x="1200" 
d="M72 496q0 142 68.5 260.5t190 188t269.5 69.5t269.5 -69.5t190 -188t68.5 -260.5t-68.5 -260t-190 -187t-269.5 -69t-269.5 69t-190 187t-68.5 260zM338 496q0 -115 73.5 -193t188.5 -78t188.5 78t73.5 193t-73.5 193.5t-188.5 78.5t-188.5 -78.5t-73.5 -193.5zM692 1475
h215q0 -128 -90 -218t-217 -90t-217 90t-90 218h215q0 -38 27 -65.5t65 -27.5t65 27.5t27 65.5z" />
    <glyph glyph-name="Ohungarumlaut" unicode="&#x150;" horiz-adv-x="1617" 
d="M338 717q0 -134 61 -246.5t169.5 -179t240.5 -66.5t240.5 66.5t169.5 179t61 246.5t-61 246.5t-169.5 178.5t-240.5 66t-240.5 -66t-169.5 -178.5t-61 -246.5zM61 717q0 152 55.5 287t152.5 234.5t237.5 157.5t302.5 58t302.5 -58t237.5 -157.5t152 -234.5t55 -287
t-55 -287t-152 -234.5t-237.5 -157.5t-302.5 -58t-302.5 58t-237.5 157.5t-152.5 234.5t-55.5 287zM635 1894h287l-246 -327h-184zM1085 1894h287l-246 -327h-184z" />
    <glyph glyph-name="ohungarumlaut" unicode="&#x151;" horiz-adv-x="1200" 
d="M72 496q0 142 68.5 260.5t190 188t269.5 69.5t269.5 -69.5t190 -188t68.5 -260.5t-68.5 -260t-190 -187t-269.5 -69t-269.5 69t-190 187t-68.5 260zM338 496q0 -115 73.5 -193t188.5 -78t188.5 78t73.5 193t-73.5 193.5t-188.5 78.5t-188.5 -78.5t-73.5 -193.5zM426 1475
h287l-246 -328h-184zM877 1475h286l-245 -328h-185z" />
    <glyph glyph-name="OE" unicode="&#x152;" horiz-adv-x="2242" 
d="M2140 1188h-584v-297h461v-246h-461v-399h605v-246h-881v141q-197 -161 -471 -161q-212 0 -384 99t-268 267.5t-96 370.5t96 370.5t268 267.5t384 99q269 0 471 -162v142h860v-246zM338 717q0 -134 61 -246.5t169.5 -179t240.5 -66.5t240.5 66.5t169.5 179t61 246.5
t-61 246.5t-169.5 178.5t-240.5 66t-240.5 -66t-169.5 -178.5t-61 -246.5z" />
    <glyph glyph-name="oe" unicode="&#x153;" horiz-adv-x="1886" 
d="M1638 309l152 -151q-71 -85 -180.5 -131.5t-227.5 -46.5q-125 0 -226 45.5t-167 130.5q-70 -81 -170.5 -128.5t-218.5 -47.5q-148 0 -269.5 69t-190 187t-68.5 260t68.5 260.5t190 188t269.5 69.5q118 0 217.5 -47t169.5 -129q61 82 152.5 129t206.5 47q134 0 242 -69.5
t167.5 -185.5t59.5 -253q0 -36 -7 -76h-688q10 -104 86.5 -169.5t182.5 -65.5q77 0 141.5 34t107.5 80zM338 496q0 -115 73.5 -193t188.5 -78t188.5 78t73.5 193t-73.5 193.5t-188.5 78.5t-188.5 -78.5t-73.5 -193.5zM1133 625h409q-6 69 -61.5 121.5t-134.5 52.5
q-81 0 -142.5 -52t-70.5 -122z" />
    <glyph glyph-name="Racute" unicode="&#x154;" horiz-adv-x="1372" 
d="M541 635h-101v-635h-276v1434h522q196 0 313 -107q60 -57 93.5 -132.5t33.5 -160.5t-33.5 -160.5t-93.5 -132.5q-61 -58 -143 -84l537 -657h-342zM440 881h230q99 0 139 43q41 44 41 108q0 67 -41 111q-42 45 -139 45h-230v-307zM594 1884h287l-246 -328h-184z" />
    <glyph glyph-name="racute" unicode="&#x155;" horiz-adv-x="839" 
d="M532 1475h287l-246 -328h-184zM788 1006l-30 -248q-30 10 -96 10q-80 0 -146 -45t-96 -98v-625h-266v993h256v-100q45 56 121.5 88.5t166.5 32.5q32 0 90 -8z" />
    <glyph glyph-name="Rcommaaccent" unicode="&#x156;" horiz-adv-x="1372" 
d="M541 635h-101v-635h-276v1434h522q196 0 313 -107q60 -57 93.5 -132.5t33.5 -160.5t-33.5 -160.5t-93.5 -132.5q-61 -58 -143 -84l537 -657h-342zM440 881h230q99 0 139 43q41 44 41 108q0 67 -41 111q-42 45 -139 45h-230v-307zM578 -123h286l-246 -328h-184z" />
    <glyph glyph-name="rcommaaccent" unicode="&#x157;" horiz-adv-x="839" 
d="M154 -123h286l-245 -328h-185zM788 1006l-30 -248q-30 10 -96 10q-80 0 -146 -45t-96 -98v-625h-266v993h256v-100q45 56 121.5 88.5t166.5 32.5q32 0 90 -8z" />
    <glyph glyph-name="Rcaron" unicode="&#x158;" horiz-adv-x="1372" 
d="M541 635h-101v-635h-276v1434h522q196 0 313 -107q60 -57 93.5 -132.5t33.5 -160.5t-33.5 -160.5t-93.5 -132.5q-61 -58 -143 -84l537 -657h-342zM440 881h230q99 0 139 43q41 44 41 108q0 67 -41 111q-42 45 -139 45h-230v-307zM768 1554h-287l-205 328h185l164 -184
l163 184h185z" />
    <glyph glyph-name="rcaron" unicode="&#x159;" horiz-adv-x="839" 
d="M645 1147h-287l-204 328h184l164 -185l164 185h184zM788 1006l-30 -248q-30 10 -96 10q-80 0 -146 -45t-96 -98v-625h-266v993h256v-100q45 56 121.5 88.5t166.5 32.5q32 0 90 -8z" />
    <glyph glyph-name="Sacute" unicode="&#x15a;" horiz-adv-x="1095" 
d="M598 1884h287l-246 -328h-184zM20 195l181 188q64 -71 153.5 -114.5t184.5 -43.5q92 0 150.5 51.5t58.5 129.5q0 52 -28 92t-79.5 68t-105.5 49.5t-125.5 51.5t-120.5 58q-203 119 -203 326q0 93 40.5 170.5t107 127.5t151 77.5t174.5 27.5q234 0 416 -135l-144 -205
q-44 41 -111.5 67.5t-135.5 26.5q-41 0 -79 -9t-70.5 -26.5t-52.5 -48.5t-20 -71q0 -41 28.5 -74.5t75 -55.5t106 -47.5t121.5 -49.5t121.5 -61.5t106 -82.5t75 -115t28.5 -157q0 -123 -67.5 -223t-178 -153.5t-239.5 -53.5q-285 0 -519 215z" />
    <glyph glyph-name="sacute" unicode="&#x15b;" horiz-adv-x="942" 
d="M55 113l129 190q51 -46 124.5 -72t148.5 -26q54 0 90.5 23.5t36.5 60.5q0 27 -20.5 48t-54.5 35t-77.5 30.5t-88.5 31t-88.5 39t-77.5 54t-54.5 75.5t-20.5 103q0 137 113.5 223t267.5 86q93 0 188.5 -30t147.5 -71l-125 -192q-92 67 -190 67q-58 0 -96.5 -21t-38.5 -58
q0 -26 26.5 -45.5t69 -34.5t94 -31.5t102.5 -41t93.5 -57.5t69 -87.5t26.5 -124.5q0 -92 -55.5 -163t-144.5 -107.5t-195 -36.5q-104 0 -208.5 34.5t-191.5 98.5zM481 1475h287l-246 -328h-184z" />
    <glyph glyph-name="Scircumflex" unicode="&#x15c;" horiz-adv-x="1095" 
d="M410 1884h286l205 -328h-184l-164 185l-164 -185h-184zM20 195l181 188q64 -71 153.5 -114.5t184.5 -43.5q92 0 150.5 51.5t58.5 129.5q0 52 -28 92t-79.5 68t-105.5 49.5t-125.5 51.5t-120.5 58q-203 119 -203 326q0 93 40.5 170.5t107 127.5t151 77.5t174.5 27.5
q234 0 416 -135l-144 -205q-44 41 -111.5 67.5t-135.5 26.5q-41 0 -79 -9t-70.5 -26.5t-52.5 -48.5t-20 -71q0 -41 28.5 -74.5t75 -55.5t106 -47.5t121.5 -49.5t121.5 -61.5t106 -82.5t75 -115t28.5 -157q0 -123 -67.5 -223t-178 -153.5t-239.5 -53.5q-285 0 -519 215z" />
    <glyph glyph-name="scircumflex" unicode="&#x15d;" horiz-adv-x="942" 
d="M55 113l129 190q51 -46 124.5 -72t148.5 -26q54 0 90.5 23.5t36.5 60.5q0 27 -20.5 48t-54.5 35t-77.5 30.5t-88.5 31t-88.5 39t-77.5 54t-54.5 75.5t-20.5 103q0 137 113.5 223t267.5 86q93 0 188.5 -30t147.5 -71l-125 -192q-92 67 -190 67q-58 0 -96.5 -21t-38.5 -58
q0 -26 26.5 -45.5t69 -34.5t94 -31.5t102.5 -41t93.5 -57.5t69 -87.5t26.5 -124.5q0 -92 -55.5 -163t-144.5 -107.5t-195 -36.5q-104 0 -208.5 34.5t-191.5 98.5zM330 1475h286l205 -328h-184l-164 184l-164 -184h-184z" />
    <glyph glyph-name="Scedilla" unicode="&#x15e;" horiz-adv-x="1095" 
d="M20 195l181 188q64 -71 153.5 -114.5t184.5 -43.5q92 0 150.5 51.5t58.5 129.5q0 52 -28 92t-79.5 68t-105.5 49.5t-125.5 51.5t-120.5 58q-203 119 -203 326q0 93 40.5 170.5t107 127.5t151 77.5t174.5 27.5q234 0 416 -135l-144 -205q-44 41 -111.5 67.5t-135.5 26.5
q-41 0 -79 -9t-70.5 -26.5t-52.5 -48.5t-20 -71q0 -41 28.5 -74.5t75 -55.5t106 -47.5t121.5 -49.5t121.5 -61.5t106 -82.5t75 -115t28.5 -157q0 -161 -110.5 -276t-276.5 -144l-53 -297h-267l121 295q-228 30 -418 207z" />
    <glyph glyph-name="scedilla" unicode="&#x15f;" horiz-adv-x="942" 
d="M266 -307l117 291q-186 23 -328 129l129 190q51 -46 124.5 -72t148.5 -26q54 0 90.5 23.5t36.5 60.5q0 27 -20.5 48t-54.5 35t-77.5 30.5t-88.5 31t-88.5 39t-77.5 54t-54.5 75.5t-20.5 103q0 137 113.5 223t267.5 86q93 0 188.5 -30t147.5 -71l-125 -192q-92 67 -190 67
q-58 0 -96.5 -21t-38.5 -58q0 -26 26.5 -45.5t69 -34.5t94 -31.5t102.5 -41t93.5 -57.5t69 -87.5t26.5 -124.5q0 -107 -72.5 -183.5t-187.5 -105.5l-58 -305h-266z" />
    <glyph glyph-name="Scaron" unicode="&#x160;" horiz-adv-x="1095" 
d="M686 1556h-287l-204 328h184l164 -184l164 184h184zM20 195l181 188q64 -71 153.5 -114.5t184.5 -43.5q92 0 150.5 51.5t58.5 129.5q0 52 -28 92t-79.5 68t-105.5 49.5t-125.5 51.5t-120.5 58q-203 119 -203 326q0 93 40.5 170.5t107 127.5t151 77.5t174.5 27.5
q234 0 416 -135l-144 -205q-44 41 -111.5 67.5t-135.5 26.5q-41 0 -79 -9t-70.5 -26.5t-52.5 -48.5t-20 -71q0 -41 28.5 -74.5t75 -55.5t106 -47.5t121.5 -49.5t121.5 -61.5t106 -82.5t75 -115t28.5 -157q0 -123 -67.5 -223t-178 -153.5t-239.5 -53.5q-285 0 -519 215z" />
    <glyph glyph-name="scaron" unicode="&#x161;" horiz-adv-x="942" 
d="M614 1147h-286l-205 328h184l164 -185l164 185h184zM55 113l129 190q51 -46 124.5 -72t148.5 -26q54 0 90.5 23.5t36.5 60.5q0 27 -20.5 48t-54.5 35t-77.5 30.5t-88.5 31t-88.5 39t-77.5 54t-54.5 75.5t-20.5 103q0 137 113.5 223t267.5 86q93 0 188.5 -30t147.5 -71
l-125 -192q-92 67 -190 67q-58 0 -96.5 -21t-38.5 -58q0 -26 26.5 -45.5t69 -34.5t94 -31.5t102.5 -41t93.5 -57.5t69 -87.5t26.5 -124.5q0 -92 -55.5 -163t-144.5 -107.5t-195 -36.5q-104 0 -208.5 34.5t-191.5 98.5z" />
    <glyph glyph-name="Tcommaaccent" unicode="&#x162;" horiz-adv-x="1136" 
d="M51 1434h1034v-246h-378v-1188h-277v1188h-379v246zM430 -123h287l-246 -328h-184z" />
    <glyph glyph-name="tcommaaccent" unicode="&#x163;" horiz-adv-x="1013" 
d="M532 -123h287l-246 -328h-184zM860 225l41 -225q-58 -20 -166 -20q-236 0 -344 143q-74 99 -74 297v348h-276v225h276v277h267v-277h327v-225h-327v-379q0 -87 32 -125q43 -49 136 -49q63 0 108 10z" />
    <glyph glyph-name="Tcaron" unicode="&#x164;" horiz-adv-x="1136" 
d="M51 1434h1034v-246h-378v-1188h-277v1188h-379v246zM711 1556h-287l-205 328h184l164 -184l164 184h184z" />
    <glyph glyph-name="tcaron" unicode="&#x165;" horiz-adv-x="1013" 
d="M809 1434h287l-246 -328h-184zM860 225l41 -225q-58 -20 -166 -20q-236 0 -344 143q-74 99 -74 297v348h-276v225h276v277h267v-277h327v-225h-327v-379q0 -87 32 -125q43 -49 136 -49q63 0 108 10z" />
    <glyph glyph-name="Tbar" unicode="&#x166;" horiz-adv-x="1136" 
d="M993 645h-286v-645h-277v645h-287v246h287v297h-379v246h1034v-246h-378v-297h286v-246z" />
    <glyph glyph-name="tbar" unicode="&#x167;" horiz-adv-x="1013" 
d="M860 225l41 -225q-58 -20 -166 -20q-236 0 -344 143q-71 91 -74 276h-276v226h276v143h-276v225h276v277h267v-277h327v-225h-327v-143h327v-226h-327v-10q0 -87 32 -125q43 -49 136 -49q63 0 108 10z" />
    <glyph glyph-name="Utilde" unicode="&#x168;" horiz-adv-x="1536" 
d="M768 -20q-124 0 -236 37.5t-194 109.5q-184 164 -184 477v830h276v-850q0 -179 94 -267q95 -92 244 -92t244 92q94 88 94 267v850h276v-830q0 -313 -184 -477q-82 -72 -194 -109.5t-236 -37.5zM993 1884l164 -33q0 -116 -60.5 -195t-166.5 -79q-52 0 -110 25.5t-108.5 51
t-86.5 25.5q-35 0 -56 -28.5t-26 -73.5l-164 33q0 116 60.5 195t166.5 79q52 0 110 -25.5t108.5 -51t86.5 -25.5q35 0 56 28.5t26 73.5z" />
    <glyph glyph-name="utilde" unicode="&#x169;" horiz-adv-x="1249" 
d="M829 993h267v-993h-256v80q-111 -100 -269 -100q-101 0 -189.5 42.5t-148.5 116.5q-100 124 -100 328v526h266v-536q0 -114 50 -170q56 -62 149 -62q75 0 134.5 38t96.5 85v645zM850 1475l164 -33q0 -116 -61 -195.5t-167 -79.5q-41 0 -87 16t-79 35.5t-71.5 35.5
t-67.5 16q-35 0 -56 -29t-26 -74l-163 33q0 116 60.5 195.5t166.5 79.5q41 0 87 -16t79 -35.5t71.5 -35.5t67.5 -16q35 0 56 29t26 74z" />
    <glyph glyph-name="Umacron" unicode="&#x16a;" horiz-adv-x="1536" 
d="M768 -20q-124 0 -236 37.5t-194 109.5q-184 164 -184 477v830h276v-850q0 -179 94 -267q95 -92 244 -92t244 92q94 88 94 267v850h276v-830q0 -313 -184 -477q-82 -72 -194 -109.5t-236 -37.5zM440 1823h656v-205h-656v205z" />
    <glyph glyph-name="umacron" unicode="&#x16b;" horiz-adv-x="1249" 
d="M297 1413h655v-205h-655v205zM829 993h267v-993h-256v80q-111 -100 -269 -100q-101 0 -189.5 42.5t-148.5 116.5q-100 124 -100 328v526h266v-536q0 -114 50 -170q56 -62 149 -62q75 0 134.5 38t96.5 85v645z" />
    <glyph glyph-name="Ubreve" unicode="&#x16c;" horiz-adv-x="1536" 
d="M768 -20q-124 0 -236 37.5t-194 109.5q-184 164 -184 477v830h276v-850q0 -179 94 -267q95 -92 244 -92t244 92q94 88 94 267v850h276v-830q0 -313 -184 -477q-82 -72 -194 -109.5t-236 -37.5zM860 1884h215q0 -128 -89.5 -217.5t-217.5 -89.5t-217.5 89.5t-89.5 217.5
h215q0 -38 27 -65t65 -27t65 27t27 65z" />
    <glyph glyph-name="ubreve" unicode="&#x16d;" horiz-adv-x="1249" 
d="M717 1475h215q0 -128 -90 -218t-217 -90t-217.5 90.5t-90.5 217.5h215q0 -38 27.5 -65.5t65.5 -27.5t65 27.5t27 65.5zM829 993h267v-993h-256v80q-111 -100 -269 -100q-101 0 -189.5 42.5t-148.5 116.5q-100 124 -100 328v526h266v-536q0 -114 50 -170q56 -62 149 -62
q75 0 134.5 38t96.5 85v645z" />
    <glyph glyph-name="Uring" unicode="&#x16e;" horiz-adv-x="1536" 
d="M768 -20q-124 0 -236 37.5t-194 109.5q-184 164 -184 477v830h276v-850q0 -179 94 -267q95 -92 244 -92t244 92q94 88 94 267v850h276v-830q0 -313 -184 -477q-82 -72 -194 -109.5t-236 -37.5zM543 1741q0 94 65.5 159.5t159.5 65.5t159.5 -65.5t65.5 -159.5
t-65.5 -159.5t-159.5 -65.5t-159.5 65.5t-65.5 159.5zM707 1741q0 -26 17.5 -44t43.5 -18t43.5 18t17.5 44t-17.5 43.5t-43.5 17.5t-43.5 -17.5t-17.5 -43.5z" />
    <glyph glyph-name="uring" unicode="&#x16f;" horiz-adv-x="1249" 
d="M399 1331q0 94 66 159.5t160 65.5t159.5 -65.5t65.5 -159.5t-65.5 -159.5t-159.5 -65.5t-160 65.5t-66 159.5zM563 1331q0 -26 18 -43.5t44 -17.5t43.5 17.5t17.5 43.5t-17.5 44t-43.5 18t-44 -18t-18 -44zM829 993h267v-993h-256v80q-111 -100 -269 -100
q-101 0 -189.5 42.5t-148.5 116.5q-100 124 -100 328v526h266v-536q0 -114 50 -170q56 -62 149 -62q75 0 134.5 38t96.5 85v645z" />
    <glyph glyph-name="Uhungarumlaut" unicode="&#x170;" horiz-adv-x="1536" 
d="M768 -20q-124 0 -236 37.5t-194 109.5q-184 164 -184 477v830h276v-850q0 -179 94 -267q95 -92 244 -92t244 92q94 88 94 267v850h276v-830q0 -313 -184 -477q-82 -72 -194 -109.5t-236 -37.5zM594 1915h287l-246 -328h-184zM1044 1915h287l-246 -328h-184z" />
    <glyph glyph-name="uhungarumlaut" unicode="&#x171;" horiz-adv-x="1249" 
d="M451 1475h286l-245 -328h-185zM901 1475h287l-246 -328h-184zM829 993h267v-993h-256v80q-111 -100 -269 -100q-101 0 -189.5 42.5t-148.5 116.5q-100 124 -100 328v526h266v-536q0 -114 50 -170q56 -62 149 -62q75 0 134.5 38t96.5 85v645z" />
    <glyph glyph-name="Uogonek" unicode="&#x172;" horiz-adv-x="1536" 
d="M1198 127q-81 -72 -188 -109q-66 -83 -66 -147q0 -37 23 -61.5t59 -24.5q27 0 51 8l31 -223q-42 -21 -133 -21q-125 0 -201 70.5t-76 175.5q0 100 50 185q-252 7 -410 147q-184 164 -184 477v830h276v-850q0 -179 94 -267q95 -92 244 -92t244 92q94 88 94 267v850h276
v-830q0 -313 -184 -477z" />
    <glyph glyph-name="uogonek" unicode="&#x173;" horiz-adv-x="1249" 
d="M829 993h267v-993q-54 -77 -54 -129q0 -37 23 -61.5t59 -24.5q28 0 52 8l30 -223q-42 -21 -133 -21q-125 0 -200.5 70.5t-75.5 175.5q0 83 43 191v94q-111 -100 -269 -100q-101 0 -189.5 42.5t-148.5 116.5q-100 124 -100 328v526h266v-536q0 -114 50 -170
q56 -62 149 -62q75 0 134.5 38t96.5 85v645z" />
    <glyph glyph-name="Wcircumflex" unicode="&#x174;" horiz-adv-x="2017" 
d="M496 0l-476 1434h279l297 -895l315 895h195l315 -895l297 895h279l-475 -1434h-195l-319 907l-318 -907h-194zM864 1884h287l205 -328h-185l-163 185l-164 -185h-185z" />
    <glyph glyph-name="wcircumflex" unicode="&#x175;" horiz-adv-x="1744" 
d="M872 578l-249 -578h-185l-418 993h269l241 -579l250 579h185l247 -579l244 579h268l-417 -993h-185zM729 1475h287l205 -328h-185l-164 184l-163 -184h-185z" />
    <glyph glyph-name="Ycircumflex" unicode="&#x176;" horiz-adv-x="1280" 
d="M1270 1434l-492 -785v-649h-276v649l-492 785h316l315 -504l313 504h316zM496 1884h286l205 -328h-184l-164 185l-164 -185h-184z" />
    <glyph glyph-name="ycircumflex" unicode="&#x177;" horiz-adv-x="1173" 
d="M469 -492h-279l275 592l-445 893h293l291 -596l268 596h281zM442 1475h287l205 -328h-184l-164 184l-164 -184h-184z" />
    <glyph glyph-name="Ydieresis" unicode="&#x178;" horiz-adv-x="1280" 
d="M1270 1434l-492 -785v-649h-276v649l-492 785h316l315 -504l313 504h316zM262 1724q0 67 48 113.5t116 46.5t116 -46.5t48 -113.5t-48 -113t-116 -46t-116 46t-48 113zM692 1724q0 67 48 113.5t116 46.5t116 -46.5t48 -113.5t-48 -113t-116 -46t-116 46t-48 113z" />
    <glyph glyph-name="Zacute" unicode="&#x179;" horiz-adv-x="1259" 
d="M82 0v164l696 1024h-635v246h1004v-164l-698 -1024h739v-246h-1106zM680 1884h287l-246 -328h-184z" />
    <glyph glyph-name="zacute" unicode="&#x17a;" horiz-adv-x="1085" 
d="M942 993v-164l-481 -604h522v-225h-881v164l476 604h-435v225h799zM596 1475h287l-246 -328h-184z" />
    <glyph glyph-name="Zdotaccent" unicode="&#x17b;" horiz-adv-x="1259" 
d="M82 0v164l696 1024h-635v246h1004v-164l-698 -1024h739v-246h-1106zM475 1755q0 72 51 121t123 49t123 -49t51 -121t-51 -121t-123 -49t-123 49t-51 121z" />
    <glyph glyph-name="zdotaccent" unicode="&#x17c;" horiz-adv-x="1085" 
d="M942 993v-164l-481 -604h522v-225h-881v164l476 604h-435v225h799zM389 1346q0 72 51 121t123 49t123 -49t51 -121t-51 -121t-123 -49t-123 49t-51 121z" />
    <glyph glyph-name="Zcaron" unicode="&#x17d;" horiz-adv-x="1259" 
d="M82 0v164l696 1024h-635v246h1004v-164l-698 -1024h739v-246h-1106zM778 1556h-286l-205 328h184l164 -184l164 184h184z" />
    <glyph glyph-name="zcaron" unicode="&#x17e;" horiz-adv-x="1085" 
d="M686 1147h-287l-204 328h184l164 -185l164 185h184zM942 993v-164l-481 -604h522v-225h-881v164l476 604h-435v225h799z" />
    <glyph glyph-name="longs" unicode="&#x17f;" horiz-adv-x="841" 
d="M420 1065v-1065h-266v1034q0 228 120 342q125 119 332 119q57 0 119.5 -15t105.5 -38l-94 -213q-68 31 -131 31q-93 0 -141 -54q-45 -48 -45 -141z" />
    <glyph glyph-name="uni018F" unicode="&#x18f;" horiz-adv-x="1478" 
d="M1118 567h-764q10 -63 40.5 -123.5t77.5 -109.5t114.5 -79t142.5 -30q153 0 262 102.5t127 239.5zM264 1016l-168 184q110 118 268 186t324 68q209 0 374.5 -91t260 -259.5t94.5 -384.5q0 -148 -48.5 -281t-135 -234.5t-218 -161.5t-286.5 -60q-194 0 -348.5 99
t-237 263.5t-82.5 360.5q0 59 9 108h1065q-19 173 -145 284t-300 111q-130 0 -242 -57.5t-184 -134.5z" />
    <glyph glyph-name="florin" unicode="&#x192;" horiz-adv-x="1097" 
d="M-170 -469l68 221q76 -28 135 -28q186 0 246 190q15 47 27 103.5t25 143t18.5 130.5t20 165.5t17.5 147.5h-328v225h357q29 202 55 283q110 363 498 363q45 0 102 -11.5t100 -31.5l-67 -222q-78 29 -135 29q-186 0 -246 -190q-25 -77 -49 -220h348v-225h-381
q-8 -61 -24.5 -206.5t-26.5 -221t-26.5 -172t-33.5 -154.5q-110 -362 -497 -362q-45 0 -102.5 12t-100.5 31z" />
    <glyph glyph-name="uni01B5" unicode="&#x1b5;" horiz-adv-x="1259" 
d="M205 891h370l203 297h-635v246h1004v-164l-258 -379h196v-246h-364l-272 -399h739v-246h-1106v164l328 481h-205v246z" />
    <glyph glyph-name="uni01B6" unicode="&#x1b6;" horiz-adv-x="1085" 
d="M901 399h-303l-137 -174h522v-225h-881v164l185 235h-103v226h281l113 143h-435v225h799v-164l-164 -204h123v-226z" />
    <glyph glyph-name="Aringacute" unicode="&#x1fa;" horiz-adv-x="1423" 
d="M485 1741q0 94 66 159.5t160 65.5t159.5 -65.5t65.5 -159.5t-65.5 -159.5t-159.5 -65.5t-160 65.5t-66 159.5zM649 1741q0 -26 18 -44t44 -18t43.5 18t17.5 44t-17.5 43.5t-43.5 17.5t-44 -17.5t-18 -43.5zM762 2376h287l-246 -328h-185zM289 0h-289l614 1434h195
l614 -1434h-288l-136 317h-575zM711 987l-183 -424h365z" />
    <glyph glyph-name="aringacute" unicode="&#x1fb;" horiz-adv-x="1259" 
d="M440 1331q0 94 66 159.5t160 65.5t159.5 -65.5t65.5 -159.5t-65.5 -159.5t-159.5 -65.5t-160 65.5t-66 159.5zM604 1331q0 -26 18 -43.5t44 -17.5t43.5 17.5t17.5 43.5t-17.5 44t-43.5 18t-44 -18t-18 -44zM717 1966h287l-246 -328h-185zM840 348v297q-42 57 -106.5 90
t-139.5 33q-113 0 -184.5 -80.5t-71.5 -191.5q0 -117 74.5 -194t187.5 -77q74 0 137.5 33.5t102.5 89.5zM1106 993v-993h-256v80q-117 -100 -277 -100q-109 0 -208 45t-166 122q-127 147 -127 349q0 219 142 368.5t345 149.5q166 0 291 -101v80h256z" />
    <glyph glyph-name="AEacute" unicode="&#x1fc;" horiz-adv-x="1966" 
d="M1034 1884h287l-246 -328h-184zM1864 1188h-584v-297h461v-246h-461v-399h604v-246h-880v317h-525l-190 -317h-309l862 1434h1022v-246zM627 563h377v627z" />
    <glyph glyph-name="aeacute" unicode="&#x1fd;" horiz-adv-x="1886" 
d="M1014 1475h286l-245 -328h-185zM1638 309l152 -151q-71 -85 -180.5 -131.5t-227.5 -46.5q-76 0 -158.5 28t-138.5 72v-80h-235v80q-117 -100 -277 -100q-109 0 -208 45t-166 122q-127 147 -127 349q0 219 142 368.5t345 149.5q166 0 291 -101v80h235v-80q46 44 113 72.5
t141 28.5q129 0 238.5 -68t173.5 -185t64 -255q0 -36 -7 -76h-708q10 -103 90.5 -169t187.5 -66q78 0 148.5 34.5t111.5 79.5zM840 348v297q-42 57 -106.5 90t-139.5 33q-113 0 -184.5 -80.5t-71.5 -191.5q0 -117 74.5 -194t187.5 -77q74 0 137.5 33.5t102.5 89.5zM1112 625
h430q-10 73 -72 123.5t-139 50.5q-78 0 -140 -48t-79 -126z" />
    <glyph glyph-name="Oslashacute" unicode="&#x1fe;" horiz-adv-x="1617" 
d="M860 1884h287l-246 -328h-184zM61 717q0 152 55.5 287t152.5 234.5t237.5 157.5t302.5 58q203 0 377 -94l76 94h335l-213 -256q172 -204 172 -481q0 -152 -55 -287t-152 -234.5t-237.5 -157.5t-302.5 -58q-205 0 -379 94l-78 -94h-334l215 253q-83 97 -127.5 221.5
t-44.5 262.5zM1280 717q0 144 -76 270l-604 -713q96 -49 209 -49q132 0 240.5 66.5t169.5 179t61 246.5zM338 717q0 -148 74 -271l604 713q-96 49 -207 49q-132 0 -240.5 -66t-169.5 -178.5t-61 -246.5z" />
    <glyph glyph-name="oslashacute" unicode="&#x1ff;" horiz-adv-x="1200" 
d="M651 1475h287l-246 -328h-184zM895 1014h293l-168 -201q108 -140 108 -317q0 -142 -68.5 -260t-190 -187t-269.5 -69q-137 0 -248 57l-47 -57h-293l166 200q-106 134 -106 316q0 142 68.5 260.5t190 188t269.5 69.5q132 0 248 -58zM862 496q0 54 -18 104l-309 -369
q30 -6 65 -6q115 0 188.5 78t73.5 193zM338 496q0 -56 18 -103l308 367q-27 8 -64 8q-115 0 -188.5 -78.5t-73.5 -193.5z" />
    <glyph glyph-name="Scommaaccent" unicode="&#x218;" horiz-adv-x="1095" 
d="M31 205l184 184q137 -164 315 -164q94 0 156 53.5t62 135.5q0 31 -10 58t-31 49t-43.5 39t-59 35t-64.5 30t-73 30.5t-72 30.5q-54 24 -92.5 45t-81 54t-68.5 69t-43.5 87t-17.5 112q0 118 61.5 210.5t165 141.5t228.5 49q119 0 213 -35.5t186 -107.5l-170 -197
q-91 94 -217 94q-79 0 -134.5 -41t-55.5 -110q0 -28 12.5 -51.5t30.5 -39.5t51 -33.5t59 -28t70.5 -27.5t71.5 -29q60 -27 104.5 -50.5t96 -62.5t83.5 -81.5t54 -104.5t22 -135q0 -188 -144 -311t-352 -123q-291 0 -497 225zM410 -123h286l-245 -328h-185z" />
    <glyph glyph-name="scommaaccent" unicode="&#x219;" horiz-adv-x="942" 
d="M55 113l129 190q51 -46 124.5 -72t148.5 -26q54 0 90.5 23.5t36.5 60.5q0 27 -20.5 48t-54.5 35t-77.5 30.5t-88.5 31t-88.5 39t-77.5 54t-54.5 75.5t-20.5 103q0 137 113.5 223t267.5 86q93 0 188.5 -30t147.5 -71l-125 -192q-92 67 -190 67q-58 0 -96.5 -21t-38.5 -58
q0 -26 26.5 -45.5t69 -34.5t94 -31.5t102.5 -41t93.5 -57.5t69 -87.5t26.5 -124.5q0 -92 -55.5 -163t-144.5 -107.5t-195 -36.5q-104 0 -208.5 34.5t-191.5 98.5zM328 -123h286l-245 -328h-185z" />
    <glyph glyph-name="uni0237" unicode="&#x237;" horiz-adv-x="655" 
d="M-41 -498l41 242q30 -10 70 -10q85 0 127 45q39 42 39 170v1044h266v-1044q0 -112 -17 -185t-55 -129q-104 -147 -338 -147q-65 0 -133 14z" />
    <glyph glyph-name="uni0259" unicode="&#x259;" horiz-adv-x="1095" 
d="M248 686l-152 152q71 85 180.5 131.5t227.5 46.5q226 0 373 -143t147 -373q0 -103 -34.5 -197t-96 -165.5t-153 -113.5t-199.5 -42q-134 0 -242 69t-167.5 185t-59.5 253q0 41 6 76h688q-10 104 -86 170t-182 66q-77 0 -142 -34.5t-108 -80.5zM754 371h-410
q6 -69 62 -121.5t135 -52.5q81 0 142.5 52t70.5 122z" />
    <glyph glyph-name="circumflex" unicode="&#x2c6;" horiz-adv-x="983" 
d="M348 1475h287l205 -328h-185l-163 184l-164 -184h-185z" />
    <glyph glyph-name="caron" unicode="&#x2c7;" horiz-adv-x="983" 
d="M635 1147h-287l-205 328h185l164 -185l163 185h185z" />
    <glyph glyph-name="breve" unicode="&#x2d8;" horiz-adv-x="901" 
d="M543 1475h215q0 -128 -90 -218t-217 -90t-217.5 90.5t-90.5 217.5h215q0 -38 27.5 -65.5t65.5 -27.5t65 27.5t27 65.5z" />
    <glyph glyph-name="dotaccent" unicode="&#x2d9;" horiz-adv-x="634" 
d="M143 1346q0 72 51 121t123 49t123.5 -49t51.5 -121t-51.5 -121t-123.5 -49t-123 49t-51 121z" />
    <glyph glyph-name="ring" unicode="&#x2da;" horiz-adv-x="737" 
d="M143 1331q0 94 66 159.5t160 65.5t159.5 -65.5t65.5 -159.5t-65.5 -159.5t-159.5 -65.5t-160 65.5t-66 159.5zM307 1331q0 -26 18 -43.5t44 -17.5t43.5 17.5t17.5 43.5t-17.5 44t-43.5 18t-44 -18t-18 -44z" />
    <glyph glyph-name="ogonek" unicode="&#x2db;" horiz-adv-x="696" 
d="M221 20h236q-68 -85 -68 -149q0 -37 23 -61.5t59 -24.5q27 0 51 8l31 -223q-42 -21 -133 -21q-125 0 -201 70.5t-76 175.5q0 34 7 67.5t14 53.5t22 47.5t18.5 32.5t16.5 24z" />
    <glyph glyph-name="tilde" unicode="&#x2dc;" horiz-adv-x="1064" 
d="M758 1475l164 -33q0 -116 -61 -195.5t-167 -79.5q-41 0 -87 16t-79 35.5t-71.5 35.5t-67.5 16q-35 0 -56 -29t-26 -74l-164 33q0 116 61 195.5t167 79.5q41 0 87 -16t79 -35.5t71.5 -35.5t67.5 -16q35 0 56 29t26 74z" />
    <glyph glyph-name="hungarumlaut" unicode="&#x2dd;" horiz-adv-x="1167" 
d="M287 1475h286l-245 -328h-185zM737 1475h287l-246 -328h-184z" />
    <glyph glyph-name="pi" unicode="&#x3c0;" horiz-adv-x="1181" 
d="M262 0v735q-79 -10 -129 -73l-143 147q57 85 166 125q78 29 190 29h815v-226h-205v-424q0 -65 14.5 -100t55.5 -70l-174 -163q-87 65 -114 141t-27 209v407h-203v-737h-246z" />
    <glyph glyph-name="Wgrave" unicode="&#x1e80;" horiz-adv-x="2017" 
d="M496 0l-476 1434h279l297 -895l315 895h195l315 -895l297 895h279l-475 -1434h-195l-319 907l-318 -907h-194zM668 1884h286l144 -328h-185z" />
    <glyph glyph-name="wgrave" unicode="&#x1e81;" horiz-adv-x="1744" 
d="M872 578l-249 -578h-185l-418 993h269l241 -579l250 579h185l247 -579l244 579h268l-417 -993h-185zM535 1475h286l144 -328h-185z" />
    <glyph glyph-name="Wacute" unicode="&#x1e82;" horiz-adv-x="2017" 
d="M496 0l-476 1434h279l297 -895l315 895h195l315 -895l297 895h279l-475 -1434h-195l-319 907l-318 -907h-194zM1065 1884h287l-246 -328h-184z" />
    <glyph glyph-name="wacute" unicode="&#x1e83;" horiz-adv-x="1744" 
d="M872 578l-249 -578h-185l-418 993h269l241 -579l250 579h185l247 -579l244 579h268l-417 -993h-185zM924 1475h286l-245 -328h-185z" />
    <glyph glyph-name="Wdieresis" unicode="&#x1e84;" horiz-adv-x="2017" 
d="M496 0l-476 1434h279l297 -895l315 895h195l315 -895l297 895h279l-475 -1434h-195l-319 907l-318 -907h-194zM629 1724q0 67 48 113.5t116 46.5t115.5 -46.5t47.5 -113.5t-47.5 -113t-115.5 -46t-116 46t-48 113zM1059 1724q0 67 48 113.5t116 46.5t115.5 -46.5
t47.5 -113.5t-47.5 -113t-115.5 -46t-116 46t-48 113z" />
    <glyph glyph-name="wdieresis" unicode="&#x1e85;" horiz-adv-x="1744" 
d="M872 578l-249 -578h-185l-418 993h269l241 -579l250 579h185l247 -579l244 579h268l-417 -993h-185zM494 1315q0 67 47.5 113.5t115.5 46.5t116 -46.5t48 -113.5t-48 -113.5t-116 -46.5t-115.5 46.5t-47.5 113.5zM924 1315q0 67 47.5 113.5t115.5 46.5t116 -46.5
t48 -113.5t-48 -113.5t-116 -46.5t-115.5 46.5t-47.5 113.5z" />
    <glyph glyph-name="uni1E8A" unicode="&#x1e8a;" horiz-adv-x="1392" 
d="M522 1755q0 72 51 121t123 49t123 -49t51 -121t-51 -121t-123 -49t-123 49t-51 121zM1300 1434l-436 -670l498 -764h-318l-348 545l-348 -545h-317l495 764l-434 670h318l286 -453l287 453h317z" />
    <glyph glyph-name="uni1E8B" unicode="&#x1e8b;" horiz-adv-x="1118" 
d="M362 993l197 -282l197 282h305l-334 -463l381 -530h-315l-234 336l-233 -336h-316l381 530l-334 463h305zM385 1346q0 72 51 121t123 49t123 -49t51 -121t-51 -121t-123 -49t-123 49t-51 121z" />
    <glyph glyph-name="Ygrave" unicode="&#x1ef2;" horiz-adv-x="1280" 
d="M1270 1434l-492 -785v-649h-276v649l-492 785h316l315 -504l313 504h316zM307 1884h287l143 -328h-184z" />
    <glyph glyph-name="ygrave" unicode="&#x1ef3;" horiz-adv-x="1173" 
d="M469 -492h-279l275 592l-445 893h293l291 -596l268 596h281zM266 1475h287l143 -328h-184z" />
    <glyph glyph-name="endash" unicode="&#x2013;" horiz-adv-x="1064" 
d="M31 645h1003v-225h-1003v225z" />
    <glyph glyph-name="emdash" unicode="&#x2014;" horiz-adv-x="1679" 
d="M31 645h1618v-225h-1618v225z" />
    <glyph glyph-name="quoteleft" unicode="&#x2018;" horiz-adv-x="665" 
d="M389 829h-287l246 605h195z" />
    <glyph glyph-name="quoteright" unicode="&#x2019;" horiz-adv-x="665" 
d="M276 1434h287l-246 -605h-194z" />
    <glyph glyph-name="quotesinglbase" unicode="&#x201a;" horiz-adv-x="665" 
d="M276 317h287l-246 -604h-194z" />
    <glyph glyph-name="quotedblleft" unicode="&#x201c;" horiz-adv-x="1157" 
d="M881 829h-287l246 605h194zM389 829h-287l246 605h195z" />
    <glyph glyph-name="quotedblright" unicode="&#x201d;" horiz-adv-x="1157" 
d="M276 1434h287l-246 -605h-194zM768 1434h287l-246 -605h-195z" />
    <glyph glyph-name="quotedblbase" unicode="&#x201e;" horiz-adv-x="1157" 
d="M276 317h287l-246 -604h-194zM768 317h287l-246 -604h-195z" />
    <glyph glyph-name="dagger" unicode="&#x2020;" horiz-adv-x="1126" 
d="M686 748v-1158h-246v1158h-348v225h348v461h246v-461h348v-225h-348z" />
    <glyph glyph-name="daggerdbl" unicode="&#x2021;" horiz-adv-x="1126" 
d="M686 422h348v-225h-348v-607h-246v607h-348v225h348v326h-348v225h348v461h246v-461h348v-225h-348v-326z" />
    <glyph glyph-name="bullet" unicode="&#x2022;" horiz-adv-x="1228" 
d="M164 496q0 186 132 318t318 132t318.5 -132t132.5 -318t-132.5 -318.5t-318.5 -132.5t-318 132.5t-132 318.5z" />
    <glyph glyph-name="ellipsis" unicode="&#x2026;" horiz-adv-x="2037" 
d="M225 154q0 75 51.5 125.5t126.5 50.5t128 -50.5t53 -125.5q0 -74 -52.5 -124t-128.5 -50q-75 0 -126.5 49.5t-51.5 124.5zM860 154q0 75 51.5 125.5t126.5 50.5t128 -50.5t53 -125.5q0 -74 -52.5 -124t-128.5 -50q-75 0 -126.5 49.5t-51.5 124.5zM1495 154
q0 75 51.5 125.5t126.5 50.5t127.5 -50.5t52.5 -125.5q0 -74 -52 -124t-128 -50q-75 0 -126.5 49.5t-51.5 124.5z" />
    <glyph glyph-name="perthousand" unicode="&#x2030;" horiz-adv-x="2508" 
d="M1096 358q0 158 112 268.5t277 110.5q151 0 266 -100q111 100 266 100q165 0 277 -110.5t112 -268.5t-112 -268t-277 -110q-158 0 -266 100q-111 -100 -266 -100q-165 0 -277 110t-112 268zM102 1075q0 158 112.5 268.5t277.5 110.5t277 -110.5t112 -268.5t-112 -268.5
t-277 -110.5t-277.5 110.5t-112.5 268.5zM635 1075q0 65 -39.5 109.5t-103.5 44.5t-104 -44.5t-40 -109.5t40 -109t104 -44t103.5 44t39.5 109zM1628 358q0 65 -39.5 109.5t-103.5 44.5t-104 -44.5t-40 -109.5t40 -109t104 -44t103.5 44t39.5 109zM2161 358q0 65 -40 109.5
t-104 44.5t-103.5 -44.5t-39.5 -109.5t39.5 -109t103.5 -44t104 44t40 109zM686 0h-227l837 1434h228z" />
    <glyph glyph-name="guilsinglleft" unicode="&#x2039;" horiz-adv-x="776" 
d="M401 895h293l-319 -389l319 -389h-293l-258 317v144z" />
    <glyph glyph-name="guilsinglright" unicode="&#x203a;" horiz-adv-x="776" 
d="M82 895h293l258 -317v-144l-258 -317h-293l319 389z" />
    <glyph glyph-name="fraction" unicode="&#x2044;" horiz-adv-x="1085" 
d="M238 0h-228l838 1434h227z" />
    <glyph glyph-name="uni2070" unicode="&#x2070;" horiz-adv-x="692" 
d="M266 1065q0 -205 80 -205t80 205t-80 205t-80 -205zM61 1065q0 81 15 148t47 122.5t89 87t134 31.5q64 0 114 -21t82 -56.5t52.5 -86.5t28.5 -105.5t8 -119.5t-8 -119.5t-28.5 -105.5t-52.5 -86.5t-82 -56.5t-114 -21q-77 0 -134 31.5t-89 87t-47 122.5t-15 148z" />
    <glyph glyph-name="uni2074" unicode="&#x2074;" horiz-adv-x="716" 
d="M541 1434v-441h135v-153h-135v-144h-174v144h-326v102l377 492h123zM274 993h93v119z" />
    <glyph glyph-name="uni2075" unicode="&#x2075;" horiz-adv-x="602" 
d="M20 782l136 111q42 -53 104 -53q42 0 71 27.5t29 70.5t-30.5 70.5t-73.5 27.5q-41 0 -74 -22l-110 16l39 404h389v-164h-226l-6 -72h15q86 0 148.5 -39.5t91 -97.5t28.5 -123q0 -117 -81 -189.5t-208 -72.5q-77 0 -140.5 29t-101.5 77z" />
    <glyph glyph-name="uni2076" unicode="&#x2076;" horiz-adv-x="675" 
d="M430 940q0 38 -25 64t-65 26q-41 0 -70 -22q-24 -31 -24 -68q0 -39 26.5 -64.5t67.5 -25.5q37 0 63.5 26.5t26.5 63.5zM522 1434l-149 -242q78 -1 136.5 -37t87 -92t28.5 -123q0 -110 -86 -187t-205 -77q-122 0 -202.5 75.5t-80.5 184.5q0 86 74 211l176 287h221z" />
    <glyph glyph-name="uni2077" unicode="&#x2077;" horiz-adv-x="583" 
d="M41 1434h512v-103l-287 -635h-205l252 564h-272v174z" />
    <glyph glyph-name="uni2078" unicode="&#x2078;" horiz-adv-x="663" 
d="M578 1231q0 -74 -52 -123q86 -64 86 -182q0 -105 -79 -177.5t-201 -72.5t-201.5 72.5t-79.5 177.5q0 109 90 182q-55 55 -55 129q0 88 70.5 152.5t175.5 64.5q106 0 176 -66.5t70 -156.5zM246 930q0 -35 23.5 -57.5t62.5 -22.5t62.5 22.5t23.5 57.5t-23.5 58.5
t-62.5 23.5t-62.5 -23.5t-23.5 -58.5zM276 1223q0 -24 16 -40t40 -16t39.5 16t15.5 40t-15.5 40.5t-39.5 16.5t-40 -16.5t-16 -40.5z" />
    <glyph glyph-name="uni2079" unicode="&#x2079;" horiz-adv-x="675" 
d="M246 1190q0 -38 25 -64t65 -26q41 0 70 22q24 31 24 68q0 39 -26.5 64.5t-67.5 25.5q-37 0 -63.5 -26.5t-26.5 -63.5zM154 696l149 242q-78 1 -136.5 37t-87 92t-28.5 123q0 108 85 186t202 78q111 0 199 -72t88 -188q0 -86 -74 -211l-176 -287h-221z" />
    <glyph glyph-name="uni2080" unicode="&#x2080;" horiz-adv-x="692" 
d="M266 369q0 -205 80 -205t80 205q0 204 -80 204t-80 -204zM61 369q0 81 15 148t47 122.5t89 87t134 31.5q64 0 114 -21t82 -56.5t52.5 -86.5t28.5 -105.5t8 -119.5t-8 -119.5t-28.5 -105.5t-52.5 -86.5t-82 -56.5t-114 -21q-77 0 -134 31.5t-89 87t-47 122.5t-15 148z" />
    <glyph glyph-name="uni2081" unicode="&#x2081;" horiz-adv-x="542" 
d="M61 371v209l267 137h123v-717h-205v465z" />
    <glyph glyph-name="uni2082" unicode="&#x2082;" horiz-adv-x="638" 
d="M256 520l-184 53q23 84 93.5 134.5t162.5 50.5q102 0 173.5 -65.5t71.5 -166.5q0 -96 -86 -202l-120 -150h221v-174h-527v102l269 326q43 54 43 88q0 24 -14.5 40.5t-39.5 16.5q-46 0 -63 -53z" />
    <glyph glyph-name="uni2083" unicode="&#x2083;" horiz-adv-x="606" 
d="M160 319v103l119 151h-234v164h471v-102l-123 -174q70 -29 111 -89t41 -132q0 -114 -87 -187t-208 -73q-150 0 -250 100l121 123q45 -56 123 -56q40 0 70 26t30 67t-30.5 68.5t-73.5 27.5q-38 0 -80 -17z" />
    <glyph glyph-name="uni2084" unicode="&#x2084;" horiz-adv-x="716" 
d="M541 737v-440h135v-154h-135v-143h-174v143h-326v103l377 491h123zM274 297h93v119z" />
    <glyph glyph-name="uni2085" unicode="&#x2085;" horiz-adv-x="602" 
d="M20 86l136 111q43 -54 104 -54q42 0 71 28t29 71t-30.5 70.5t-73.5 27.5q-40 0 -74 -23l-110 17l39 403h389v-164h-226l-6 -71h15q86 0 148.5 -39.5t91 -97.5t28.5 -123q0 -117 -81 -189.5t-208 -72.5q-77 0 -140.5 29t-101.5 77z" />
    <glyph glyph-name="uni2086" unicode="&#x2086;" horiz-adv-x="675" 
d="M430 244q0 38 -25 64t-65 26q-39 0 -70 -23q-24 -31 -24 -67q0 -39 26.5 -64.5t67.5 -25.5q37 0 63.5 26.5t26.5 63.5zM522 737l-149 -241q78 -1 136.5 -37t87 -92t28.5 -123q0 -110 -86 -187t-205 -77q-122 0 -202.5 75.5t-80.5 184.5q0 86 74 211l176 286h221z" />
    <glyph glyph-name="uni2087" unicode="&#x2087;" horiz-adv-x="583" 
d="M41 737h512v-102l-287 -635h-205l252 563h-272v174z" />
    <glyph glyph-name="uni2088" unicode="&#x2088;" horiz-adv-x="663" 
d="M578 535q0 -74 -52 -123q41 -31 63.5 -79t22.5 -104q0 -105 -79 -177t-201 -72q-123 0 -202 72t-79 177q0 110 90 183q-55 55 -55 129q0 88 70.5 152.5t175.5 64.5q106 0 176 -66.5t70 -156.5zM246 233q0 -34 23.5 -56.5t62.5 -22.5t62.5 22.5t23.5 56.5q0 35 -23.5 58.5
t-62.5 23.5t-62.5 -23.5t-23.5 -58.5zM276 526q0 -24 16 -39.5t40 -15.5t39.5 15.5t15.5 39.5t-15.5 41t-39.5 17t-40 -17t-16 -41z" />
    <glyph glyph-name="uni2089" unicode="&#x2089;" horiz-adv-x="675" 
d="M246 494q0 -38 25 -64.5t65 -26.5q39 0 70 23q24 31 24 68q0 39 -26.5 64.5t-67.5 25.5q-37 0 -63.5 -26.5t-26.5 -63.5zM154 0l149 242q-78 1 -136.5 37t-87 92t-28.5 123q0 108 85 186t202 78q111 0 199 -72t88 -188q0 -86 -74 -211l-176 -287h-221z" />
    <glyph glyph-name="Euro" unicode="&#x20ac;" horiz-adv-x="1331" 
d="M-10 768v225h186q71 207 234 334t378 127q147 0 268 -63t208 -177l-199 -161q-107 155 -272 155q-104 0 -188.5 -57t-131.5 -158h481v-225h-542q-2 -16 -2 -51t2 -51h542v-226h-485q43 -101 129.5 -158t194.5 -57q100 0 180 49.5t133 137.5l205 -154q-203 -278 -518 -278
q-221 0 -385 124.5t-234 335.5h-184v226h143v102h-143z" />
    <glyph glyph-name="trademark" unicode="&#x2122;" horiz-adv-x="1802" 
d="M143 1434h588v-164h-205v-621h-178v621h-205v164zM942 1434l305 -445l303 445h109v-785h-182v375l-187 -268h-90l-186 268v-375h-183v785h111z" />
    <glyph glyph-name="Omega" unicode="&#x2126;" horiz-adv-x="1536" 
d="M768 1208q-198 0 -324.5 -143.5t-126.5 -357.5q0 -166 77.5 -303t215.5 -240v-164h-559v246h150q-65 86 -107.5 210t-42.5 261q0 202 92.5 370.5t257.5 267.5t367 99t367 -99t257.5 -267.5t92.5 -370.5q0 -137 -42.5 -261t-107.5 -210h150v-246h-559v164
q138 103 215.5 240t77.5 303q0 214 -126.5 357.5t-324.5 143.5z" />
    <glyph glyph-name="arrowleft" unicode="&#x2190;" horiz-adv-x="1466" 
d="M1343 420h-862l348 -348h-319l-387 389v143l387 389h319l-348 -348h862v-225z" />
    <glyph glyph-name="arrowright" unicode="&#x2192;" horiz-adv-x="1466" 
d="M985 420h-862v225h862l-348 348h319l387 -389v-143l-387 -389h-319z" />
    <glyph glyph-name="uni2196" unicode="&#x2196;" horiz-adv-x="1239" 
d="M225 993h545l225 -225h-489l610 -610l-158 -158l-610 610v-487l-225 225v543z" />
    <glyph glyph-name="uni2197" unicode="&#x2197;" horiz-adv-x="1239" 
d="M469 993h545l102 -102v-543l-225 -225v487l-610 -610l-158 158l610 610h-489z" />
    <glyph glyph-name="uni2198" unicode="&#x2198;" horiz-adv-x="1239" 
d="M1014 0h-545l-225 225h489l-610 611l158 157l610 -610v487l225 -225v-543z" />
    <glyph glyph-name="uni2199" unicode="&#x2199;" horiz-adv-x="1239" 
d="M770 0h-545l-102 102v543l225 225v-487l610 610l158 -157l-610 -611h489z" />
    <glyph glyph-name="partialdiff" unicode="&#x2202;" horiz-adv-x="1220" 
d="M584 1012l-316 442h310l378 -526q82 -113 132.5 -219t50.5 -213q0 -105 -40.5 -200.5t-109.5 -164.5t-167 -110t-208 -41q-149 0 -271.5 68.5t-191.5 186.5t-69 261q0 137 63 253t179 187t260 76zM877 496q0 118 -76 211l-19 22q-58 39 -151 39q-126 0 -204.5 -76
t-78.5 -196q0 -115 75 -193t191 -78q114 0 188.5 79.5t74.5 191.5z" />
    <glyph glyph-name="Delta" unicode="&#x2206;" 
d="M20 143l492 1291h184l492 -1291v-143h-1168v143zM604 1044l-311 -819h622z" />
    <glyph glyph-name="product" unicode="&#x220f;" 
d="M31 1434h1147v-226h-205v-1208h-246v1208h-246v-1208h-245v1208h-205v226z" />
    <glyph glyph-name="summation" unicode="&#x2211;" horiz-adv-x="1198" 
d="M799 668l-422 -443h514v205h225v-430h-1126v143l561 594l-541 553v144h1086v-430h-226v204h-464l393 -397v-143z" />
    <glyph glyph-name="minus" unicode="&#x2212;" horiz-adv-x="1126" 
d="M92 686h942v-225h-942v225z" />
    <glyph glyph-name="uni2215" unicode="&#x2215;" horiz-adv-x="1085" 
d="M238 0h-228l838 1434h227z" />
    <glyph glyph-name="radical" unicode="&#x221a;" horiz-adv-x="1249" 
d="M-20 993h342l288 -626l381 1067h238l-510 -1434h-184l-359 768h-196v225z" />
    <glyph glyph-name="infinity" unicode="&#x221e;" horiz-adv-x="1597" 
d="M1546 567q0 -187 -121 -305.5t-292 -118.5q-207 0 -334 193q-127 -193 -334 -193q-83 0 -158 30.5t-132 85t-90.5 134.5t-33.5 174t33.5 174t90.5 134.5t132 85t158 30.5q204 0 334 -192q130 192 334 192q171 0 292 -118.5t121 -305.5zM1133 766q-69 0 -115.5 -50.5
t-95.5 -148.5q48 -98 95 -148t116 -50q86 0 137 56.5t51 141.5q0 86 -51 142.5t-137 56.5zM465 369q67 0 115 50.5t96 147.5q-48 97 -96 148t-115 51q-86 0 -137.5 -57t-51.5 -142t51.5 -141.5t137.5 -56.5z" />
    <glyph glyph-name="integral" unicode="&#x222b;" horiz-adv-x="1136" 
d="M-215 -469l68 221q76 -28 135 -28q185 0 245 190q39 123 70.5 366.5t60.5 483t62 348.5q110 363 498 363q45 0 102 -11.5t100 -31.5l-67 -222q-78 29 -135 29q-186 0 -246 -190q-39 -123 -70.5 -367t-60.5 -483.5t-62 -348.5q-110 -362 -497 -362q-45 0 -102.5 12
t-100.5 31z" />
    <glyph glyph-name="approxequal" unicode="&#x2248;" horiz-adv-x="1167" 
d="M260 160l-219 55q14 66 41 124t68.5 105.5t102 75t132.5 27.5q67 0 129.5 -27t101.5 -59t82.5 -59t75.5 -27q50 0 85 45.5t48 116.5l219 -56q-14 -66 -41 -123.5t-68.5 -105t-102 -75t-132.5 -27.5q-67 0 -129.5 27t-101.5 59t-82.5 59t-75.5 27q-50 0 -85 -45.5
t-48 -116.5zM260 610l-219 56q14 66 41 123.5t68.5 105t102 75t132.5 27.5q67 0 129.5 -27t101.5 -59t82.5 -59t75.5 -27q50 0 85 45.5t48 116.5l219 -55q-14 -66 -41 -124t-68.5 -105.5t-102 -75t-132.5 -27.5q-67 0 -129.5 27t-101.5 59t-82.5 59t-75.5 27
q-50 0 -85 -45.5t-48 -116.5z" />
    <glyph glyph-name="notequal" unicode="&#x2260;" horiz-adv-x="1126" 
d="M1014 1126l-127 -225h147v-225h-274l-115 -205h389v-225h-516l-127 -226h-258l127 226h-168v225h295l115 205h-410v225h537l127 225h258z" />
    <glyph glyph-name="lessequal" unicode="&#x2264;" horiz-adv-x="1126" 
d="M92 287h942v-226h-942v226zM1034 858l-446 -143l446 -144v-237l-942 309v143l942 310v-238z" />
    <glyph glyph-name="greaterequal" unicode="&#x2265;" horiz-adv-x="1126" 
d="M92 287h942v-226h-942v226zM539 715l-447 143v238l942 -310v-143l-942 -309v237z" />
    <glyph glyph-name="lozenge" unicode="&#x25ca;" horiz-adv-x="1146" 
d="M481 0l-409 645v143l409 646h185l409 -646v-143l-409 -645h-185zM291 717l282 -443l281 443l-281 440z" />
    <glyph glyph-name="parenleft.ss03" horiz-adv-x="931" 
d="M532 717q0 -340 146 -635l-221 -102q-170 338 -170 737t170 737l221 -102q-146 -295 -146 -635z" />
    <glyph glyph-name="parenright.ss03" horiz-adv-x="931" 
d="M399 717q0 342 -145 635l221 102q170 -338 170 -737t-170 -737l-221 102q145 293 145 635z" />
    <glyph glyph-name="bracketleft.ss03" horiz-adv-x="931" 
d="M287 0v1434h563v-236h-318v-962h318v-236h-563z" />
    <glyph glyph-name="bracketright.ss03" horiz-adv-x="931" 
d="M645 1434v-1434h-563v236h317v962h-317v236h563z" />
    <glyph glyph-name="braceleft.ss03" horiz-adv-x="931" 
d="M383 717q33 -12 54 -23.5t45.5 -34.5t37 -62t12.5 -93q0 -22 -5 -69t-5 -73q0 -126 156 -126h70v-236h-52q-169 0 -264 53q-73 42 -114.5 115t-41.5 168q0 26 5.5 83t5.5 77q0 139 -185 139v164q185 0 185 139q0 20 -5.5 77t-5.5 83q0 95 41 167.5t115 114.5
q97 54 264 54h52v-236h-70q-156 0 -156 -127q0 -26 5 -72.5t5 -68.5q0 -54 -12.5 -93t-37 -62t-45.5 -34.5t-54 -23.5z" />
    <glyph glyph-name="braceright.ss03" horiz-adv-x="931" 
d="M549 717q-33 12 -54 23.5t-46 34.5t-37.5 62t-12.5 93q0 22 5.5 68.5t5.5 72.5q0 127 -156 127h-70v236h52q167 0 264 -54q73 -42 114 -114.5t41 -167.5q0 -26 -5 -83t-5 -77q0 -139 184 -139v-164q-184 0 -184 -139q0 -21 5 -77.5t5 -82.5q0 -95 -41 -168t-114 -115
q-95 -53 -264 -53h-52v236h70q156 0 156 126q0 26 -5.5 73t-5.5 69q0 54 12.5 93t37.5 62t46 34.5t54 23.5z" />
    <glyph glyph-name="bar.ss03" horiz-adv-x="491" 
d="M369 1434v-1434h-246v1434h246z" />
    <glyph glyph-name="zero.tf" 
d="M829 717q0 105 -12 191t-38 155t-70.5 107t-104.5 38t-104.5 -38t-70.5 -107t-38 -155t-12 -191t12 -191.5t38 -155.5t70.5 -107t104.5 -38t104.5 38t70.5 107t38 155.5t12 191.5zM102 717q0 126 16.5 233.5t54.5 201.5t95.5 160t143 104t192.5 38t192.5 -38t143 -104
t95.5 -160t54.5 -201.5t16.5 -233.5t-16.5 -233.5t-54.5 -201.5t-95.5 -160t-143 -104t-192.5 -38t-192.5 38t-143 104t-95.5 160t-54.5 201.5t-16.5 233.5z" />
    <glyph glyph-name="one.tf" 
d="M215 942v262l389 230h195v-1188h317v-246h-1003v246h409v868z" />
    <glyph glyph-name="two.tf" 
d="M387 1047l-254 75q43 149 166 240.5t283 91.5q123 0 228.5 -55.5t169.5 -158t64 -228.5q0 -119 -49 -215.5t-135 -196.5l-305 -354h500v-246h-932v164l504 571q79 89 110 155t31 126q0 77 -53 134.5t-133 57.5q-70 0 -121.5 -43.5t-73.5 -117.5z" />
    <glyph glyph-name="three.tf" 
d="M88 203l199 166q46 -65 116.5 -104.5t149.5 -39.5q105 0 186.5 74t81.5 186t-81 187.5t-201 75.5q-92 0 -172 -41v163l268 318h-479v246h870v-164l-260 -320q151 -58 241.5 -181.5t90.5 -283.5q0 -148 -72 -264t-193.5 -178.5t-269.5 -62.5q-133 0 -256.5 58t-218.5 165z
" />
    <glyph glyph-name="four.tf" 
d="M768 1434h195v-861h235v-245h-235v-328h-277v328h-666v164zM418 573h268v336z" />
    <glyph glyph-name="five.tf" 
d="M123 164l188 176q48 -52 112.5 -83.5t133.5 -31.5q100 0 172 66q80 73 80 184q0 120 -88 195q-66 57 -174 57q-118 0 -211 -78l-172 25l92 760h758v-246h-533l-22 -225q48 10 110 10q201 0 334 -109q85 -68 133.5 -171t48.5 -218q0 -139 -71.5 -253t-192.5 -178t-264 -64
q-250 0 -434 184z" />
    <glyph glyph-name="six.tf" 
d="M571 1434h306l-271 -457h19q135 0 249.5 -63t183 -177t68.5 -254q0 -137 -69 -253t-186.5 -183t-254.5 -67q-101 0 -195 35t-167.5 97t-117.5 155t-44 202q0 96 36.5 188.5t104.5 206.5zM444 696q-86 -117 -86 -227q0 -101 74.5 -172.5t179.5 -71.5q104 0 173 73t69 177
q0 106 -71.5 181t-184.5 75q-80 0 -154 -35z" />
    <glyph glyph-name="seven.tf" 
d="M143 1188v246h942v-164l-616 -1270h-293l580 1188h-613z" />
    <glyph glyph-name="eight.tf" 
d="M604 911q63 0 103.5 42.5t40.5 105.5t-40.5 106t-103.5 43t-103 -43t-40 -106t40 -105.5t103 -42.5zM604 225q101 0 168.5 63t67.5 156t-67.5 157.5t-168.5 64.5q-100 0 -167.5 -64.5t-67.5 -157.5t67 -156t168 -63zM604 -20q-215 0 -363.5 134.5t-148.5 329.5
q0 227 207 363q-115 104 -115 252q0 166 120 280.5t300 114.5t300 -114.5t120 -280.5q0 -148 -115 -252q207 -136 207 -363q0 -195 -148.5 -329.5t-363.5 -134.5z" />
    <glyph glyph-name="nine.tf" 
d="M637 0h-305l270 457h-18q-135 0 -250 62.5t-183.5 176.5t-68.5 254q0 137 69 253.5t186.5 183.5t254.5 67q101 0 195 -35t167.5 -97t117.5 -155t44 -202q0 -96 -36.5 -189.5t-104.5 -206.5zM764 737q86 117 86 228q0 101 -74.5 172t-179.5 71q-104 0 -173 -73t-69 -177
q0 -106 71.5 -181t184.5 -75q80 0 154 35z" />
    <glyph glyph-name="parenleft.case" horiz-adv-x="931" 
d="M532 717q0 -219 63.5 -427t180.5 -376l-198 -139q-141 201 -216 442t-75 500t75 500t216 442l198 -139q-117 -168 -180.5 -376t-63.5 -427z" />
    <glyph glyph-name="parenright.case" horiz-adv-x="931" 
d="M399 717q0 220 -63 428t-180 375l198 139q141 -201 216 -442t75 -500t-75 -500t-216 -442l-198 139q117 167 180 375t63 428z" />
    <glyph glyph-name="bracketleft.case" horiz-adv-x="931" 
d="M287 -205v1843h563v-235h-318v-1372h318v-236h-563z" />
    <glyph glyph-name="bracketright.case" horiz-adv-x="931" 
d="M645 1638v-1843h-563v236h317v1372h-317v235h563z" />
    <glyph glyph-name="braceleft.case" horiz-adv-x="931" 
d="M383 717q34 -12 55.5 -25t45.5 -39t36 -70t12 -106q0 -56 -10 -157t-10 -150q0 -139 156 -139h80v-236h-62q-201 0 -310.5 93t-109.5 274q0 61 10.5 171t10.5 163q0 139 -185 139v164q185 0 185 139q0 53 -10.5 163t-10.5 171q0 180 109.5 273t310.5 93h62v-235h-80
q-156 0 -156 -139q0 -49 10 -150.5t10 -157.5q0 -62 -12 -106t-36 -69.5t-45.5 -38.5t-55.5 -25z" />
    <glyph glyph-name="braceright.case" horiz-adv-x="931" 
d="M549 717q-27 10 -44.5 18.5t-39.5 27t-35 42t-22 62.5t-9 89q0 56 10.5 157.5t10.5 150.5q0 139 -156 139h-80v235h62q201 0 310.5 -93t109.5 -273q0 -61 -10.5 -171t-10.5 -163q0 -139 184 -139v-164q-184 0 -184 -139q0 -53 10.5 -163t10.5 -171q0 -181 -109.5 -274
t-310.5 -93h-62v236h80q156 0 156 139q0 49 -10.5 150t-10.5 157q0 62 12 106t36.5 70t46 39t55.5 25z" />
    <glyph glyph-name="a.ss01" horiz-adv-x="1095" 
d="M696 307v103q-52 30 -133 30q-33 0 -66 -6t-66 -19.5t-53 -40.5t-20 -63q0 -48 39 -77t95 -29q121 0 204 102zM963 0h-256v80q-30 -38 -100.5 -69t-155.5 -31q-152 0 -255.5 95.5t-103.5 235.5q0 105 57 184.5t149 119.5t202 40q109 0 196 -43q0 48 -16.5 83.5t-46 55
t-64 28.5t-75.5 9q-66 0 -140.5 -24.5t-124.5 -56.5l-86 204q61 40 160.5 71.5t214.5 31.5q108 0 200 -39.5t154 -116.5q47 -59 69 -127t22 -178v-553z" />
    <glyph glyph-name="zero.tf.zero" 
d="M102 717q0 126 16.5 233.5t54.5 201.5t95.5 160t143 104t192.5 38t192.5 -38t143 -104t95.5 -160t54.5 -201.5t16.5 -233.5t-16.5 -233.5t-54.5 -201.5t-95.5 -160t-143 -104t-192.5 -38t-192.5 38t-143 104t-95.5 160t-54.5 201.5t-16.5 233.5zM604 1208
q-60 0 -104.5 -38t-70.5 -107t-38 -155t-12 -191q0 -92 4 -133l336 575q-49 49 -115 49zM829 717q0 67 -6 129l-334 -574q47 -47 115 -47q60 0 104.5 38t70.5 107t38 155.5t12 191.5z" />
    <glyph glyph-name="endash.ss04" horiz-adv-x="2293" 
d="M31 645h2232v-225h-2232v225z" />
    <glyph glyph-name="periodcentered.case" horiz-adv-x="768" 
d="M205 717q0 75 51.5 125.5t126.5 50.5t127.5 -50.5t52.5 -125.5q0 -74 -52 -124t-128 -50q-75 0 -126.5 49.5t-51.5 124.5z" />
    <glyph glyph-name="bullet.case" horiz-adv-x="1228" 
d="M164 717q0 186 132 318t318 132t318.5 -132t132.5 -318t-132.5 -318.5t-318.5 -132.5t-318 132.5t-132 318.5z" />
    <glyph glyph-name="asterisk.ss05" horiz-adv-x="1056" 
d="M975 1110l-221 -127l221 -127l-113 -197l-221 129v-256h-225v256l-221 -129l-113 197l219 127l-219 127l113 197l221 -127v254h225v-254l221 127z" />
    <glyph glyph-name="zero.zero" horiz-adv-x="1228" 
d="M113 717q0 159 27.5 288.5t85 232t156.5 159.5t232 57q107 0 192.5 -38t143 -104t95.5 -160t54.5 -201.5t16.5 -233.5t-16.5 -233.5t-54.5 -201.5t-95.5 -160t-143 -104t-192.5 -38q-133 0 -232 57t-156.5 159.5t-85 232t-27.5 288.5zM614 1208q-60 0 -104.5 -38
t-70.5 -107t-38 -155t-12 -191q0 -92 4 -133l336 575q-49 49 -115 49zM840 717q0 67 -6 129l-334 -574q47 -47 114 -47q80 0 132 68.5t73 175t21 248.5z" />
    <glyph glyph-name="uni2070.zero" horiz-adv-x="692" 
d="M61 1065q0 81 15 148t47 122.5t89 87t134 31.5q64 0 114 -21t82 -56.5t52.5 -86.5t28.5 -105.5t8 -119.5t-8 -119.5t-28.5 -105.5t-52.5 -86.5t-82 -56.5t-114 -21q-77 0 -134 31.5t-89 87t-47 122.5t-15 148zM346 860q24 0 40.5 16.5t24.5 48t11.5 67t3.5 83.5
l-117 -201q14 -14 37 -14zM266 1059l115 198q-16 13 -35 13q-80 0 -80 -211z" />
    <glyph glyph-name="uni2080.zero" horiz-adv-x="692" 
d="M61 369q0 81 15 148t47 122.5t89 87t134 31.5q64 0 114 -21t82 -56.5t52.5 -86.5t28.5 -105.5t8 -119.5t-8 -119.5t-28.5 -105.5t-52.5 -86.5t-82 -56.5t-114 -21q-77 0 -134 31.5t-89 87t-47 122.5t-15 148zM346 164q24 0 40.5 16.5t24.5 48t11.5 67t3.5 83.5l-117 -201
q14 -14 37 -14zM266 362l115 199q-15 12 -35 12q-80 0 -80 -211z" />
    <glyph glyph-name="emdash.ss04" horiz-adv-x="2908" 
d="M31 645h2846v-225h-2846v225z" />
    <glyph glyph-name="currency.tf" 
d="M172 719q0 113 53 205l-164 163l175 175l163 -164q92 53 205 53q115 0 207 -53l162 164l174 -175l-162 -163q51 -94 51 -205q0 -113 -51 -207l162 -162l-174 -174l-162 162q-94 -51 -207 -51q-111 0 -205 51l-163 -162l-175 174l164 162q-53 92 -53 207zM438 719
q0 -69 48.5 -117.5t117.5 -48.5t117.5 48.5t48.5 117.5t-48.5 117.5t-117.5 48.5t-117.5 -48.5t-48.5 -117.5z" />
    <glyph glyph-name="hyphen.case" horiz-adv-x="962" 
d="M143 881h676v-226h-676v226z" />
    <glyph glyph-name="endash.case" horiz-adv-x="1064" 
d="M31 881h1003v-226h-1003v226z" />
    <glyph glyph-name="emdash.case" horiz-adv-x="1679" 
d="M31 881h1618v-226h-1618v226z" />
    <glyph glyph-name="endash.case.ss04" horiz-adv-x="2293" 
d="M31 881h2232v-226h-2232v226z" />
    <glyph glyph-name="emdash.case.ss04" horiz-adv-x="2908" 
d="M31 881h2846v-226h-2846v226z" />
    <glyph glyph-name="guillemotleft.case" horiz-adv-x="1349" 
d="M401 1079h293l-319 -389l319 -389h-293l-258 317v144zM975 1079h293l-320 -389l320 -389h-293l-258 317v144z" />
    <glyph glyph-name="guillemotright.case" horiz-adv-x="1349" 
d="M655 1079h293l258 -317v-144l-258 -317h-293l320 389zM82 1079h293l258 -317v-144l-258 -317h-293l319 389z" />
    <glyph glyph-name="guilsinglleft.case" horiz-adv-x="776" 
d="M401 1079h293l-319 -389l319 -389h-293l-258 317v144z" />
    <glyph glyph-name="guilsinglright.case" horiz-adv-x="776" 
d="M82 1079h293l258 -317v-144l-258 -317h-293l319 389z" />
    <glyph glyph-name="bar.case" horiz-adv-x="491" 
d="M369 1638v-1843h-246v1843h246z" />
    <glyph glyph-name="aacute.ss01" horiz-adv-x="1095" 
d="M573 1475h287l-246 -328h-184zM696 307v103q-52 30 -133 30q-33 0 -66 -6t-66 -19.5t-53 -40.5t-20 -63q0 -48 39 -77t95 -29q121 0 204 102zM963 0h-256v80q-30 -38 -100.5 -69t-155.5 -31q-152 0 -255.5 95.5t-103.5 235.5q0 105 57 184.5t149 119.5t202 40
q109 0 196 -43q0 48 -16.5 83.5t-46 55t-64 28.5t-75.5 9q-66 0 -140.5 -24.5t-124.5 -56.5l-86 204q61 40 160.5 71.5t214.5 31.5q108 0 200 -39.5t154 -116.5q47 -59 69 -127t22 -178v-553z" />
    <glyph glyph-name="agrave.ss01" horiz-adv-x="1095" 
d="M246 1475h286l144 -328h-184zM696 307v103q-52 30 -133 30q-33 0 -66 -6t-66 -19.5t-53 -40.5t-20 -63q0 -48 39 -77t95 -29q121 0 204 102zM963 0h-256v80q-30 -38 -100.5 -69t-155.5 -31q-152 0 -255.5 95.5t-103.5 235.5q0 105 57 184.5t149 119.5t202 40
q109 0 196 -43q0 48 -16.5 83.5t-46 55t-64 28.5t-75.5 9q-66 0 -140.5 -24.5t-124.5 -56.5l-86 204q61 40 160.5 71.5t214.5 31.5q108 0 200 -39.5t154 -116.5q47 -59 69 -127t22 -178v-553z" />
    <glyph glyph-name="acircumflex.ss01" horiz-adv-x="1095" 
d="M399 1475h287l205 -328h-184l-164 184l-164 -184h-184zM696 307v103q-52 30 -133 30q-33 0 -66 -6t-66 -19.5t-53 -40.5t-20 -63q0 -48 39 -77t95 -29q121 0 204 102zM963 0h-256v80q-30 -38 -100.5 -69t-155.5 -31q-152 0 -255.5 95.5t-103.5 235.5q0 105 57 184.5
t149 119.5t202 40q109 0 196 -43q0 48 -16.5 83.5t-46 55t-64 28.5t-75.5 9q-66 0 -140.5 -24.5t-124.5 -56.5l-86 204q61 40 160.5 71.5t214.5 31.5q108 0 200 -39.5t154 -116.5q47 -59 69 -127t22 -178v-553z" />
    <glyph glyph-name="adieresis.ss01" horiz-adv-x="1095" 
d="M178 1315q0 67 48 113.5t116 46.5t116 -46.5t48 -113.5t-48 -113.5t-116 -46.5t-116 46.5t-48 113.5zM608 1315q0 67 48 113.5t116 46.5t116 -46.5t48 -113.5t-48 -113.5t-116 -46.5t-116 46.5t-48 113.5zM696 307v103q-52 30 -133 30q-33 0 -66 -6t-66 -19.5t-53 -40.5
t-20 -63q0 -48 39 -77t95 -29q121 0 204 102zM963 0h-256v80q-30 -38 -100.5 -69t-155.5 -31q-152 0 -255.5 95.5t-103.5 235.5q0 105 57 184.5t149 119.5t202 40q109 0 196 -43q0 48 -16.5 83.5t-46 55t-64 28.5t-75.5 9q-66 0 -140.5 -24.5t-124.5 -56.5l-86 204
q61 40 160.5 71.5t214.5 31.5q108 0 200 -39.5t154 -116.5q47 -59 69 -127t22 -178v-553z" />
    <glyph glyph-name="atilde.ss01" horiz-adv-x="1095" 
d="M696 307v103q-52 30 -133 30q-33 0 -66 -6t-66 -19.5t-53 -40.5t-20 -63q0 -48 39 -77t95 -29q121 0 204 102zM963 0h-256v80q-30 -38 -100.5 -69t-155.5 -31q-152 0 -255.5 95.5t-103.5 235.5q0 105 57 184.5t149 119.5t202 40q109 0 196 -43q0 48 -16.5 83.5t-46 55
t-64 28.5t-75.5 9q-66 0 -140.5 -24.5t-124.5 -56.5l-86 204q61 40 160.5 71.5t214.5 31.5q108 0 200 -39.5t154 -116.5q47 -59 69 -127t22 -178v-553zM772 1475l164 -33q0 -116 -60.5 -195.5t-166.5 -79.5q-41 0 -87 16t-79 35.5t-72 35.5t-68 16q-35 0 -55.5 -28.5
t-25.5 -74.5l-164 33q0 116 60.5 195.5t166.5 79.5q41 0 87 -16t79 -35.5t71.5 -35.5t67.5 -16q35 0 56 29t26 74z" />
    <glyph glyph-name="aring.ss01" horiz-adv-x="1095" 
d="M317 1331q0 94 66 159.5t160 65.5t159.5 -65.5t65.5 -159.5t-65.5 -159.5t-159.5 -65.5t-160 65.5t-66 159.5zM481 1331q0 -26 18 -43.5t44 -17.5t43.5 17.5t17.5 43.5t-17.5 44t-43.5 18t-44 -18t-18 -44zM696 307v103q-52 30 -133 30q-33 0 -66 -6t-66 -19.5t-53 -40.5
t-20 -63q0 -48 39 -77t95 -29q121 0 204 102zM963 0h-256v80q-30 -38 -100.5 -69t-155.5 -31q-152 0 -255.5 95.5t-103.5 235.5q0 105 57 184.5t149 119.5t202 40q109 0 196 -43q0 48 -16.5 83.5t-46 55t-64 28.5t-75.5 9q-66 0 -140.5 -24.5t-124.5 -56.5l-86 204
q61 40 160.5 71.5t214.5 31.5q108 0 200 -39.5t154 -116.5q47 -59 69 -127t22 -178v-553z" />
    <glyph glyph-name="ae.ss01" horiz-adv-x="1710" 
d="M956 625h410q-6 69 -62 121.5t-135 52.5q-81 0 -142.5 -52t-70.5 -122zM696 307v103q-52 30 -133 30q-33 0 -66 -6t-66 -19.5t-53 -40.5t-20 -63q0 -48 39 -77t95 -29q121 0 204 102zM229 707l-86 204q61 40 160.5 71.5t214.5 31.5q203 0 328 -137q127 137 323 137
q134 0 242 -69.5t167.5 -185.5t59.5 -253q0 -42 -6 -76h-688q10 -104 86 -169.5t182 -65.5q77 0 142.5 34t107.5 80l152 -151q-71 -85 -180.5 -131.5t-227.5 -46.5q-163 0 -276 73v-53h-223v80q-30 -38 -100.5 -69t-155.5 -31q-152 0 -255.5 95.5t-103.5 235.5
q0 105 57 184.5t149 119.5t202 40q109 0 196 -43q0 48 -16.5 83.5t-46 55t-64 28.5t-75.5 9q-66 0 -140.5 -24.5t-124.5 -56.5z" />
    <glyph glyph-name="zero.dnom" horiz-adv-x="692" 
d="M266 369q0 -205 80 -205t80 205q0 204 -80 204t-80 -204zM61 369q0 81 15 148t47 122.5t89 87t134 31.5q64 0 114 -21t82 -56.5t52.5 -86.5t28.5 -105.5t8 -119.5t-8 -119.5t-28.5 -105.5t-52.5 -86.5t-82 -56.5t-114 -21q-77 0 -134 31.5t-89 87t-47 122.5t-15 148z" />
    <glyph glyph-name="one.dnom" horiz-adv-x="532" 
d="M61 412v198l246 127h123v-737h-205v496z" />
    <glyph glyph-name="two.dnom" horiz-adv-x="649" 
d="M256 520l-184 53q23 84 93.5 134.5t162.5 50.5q102 0 173.5 -65.5t71.5 -166.5q0 -96 -86 -202l-120 -150h221v-174h-527v102l269 326q43 54 43 88q0 24 -14.5 40.5t-39.5 16.5q-46 0 -63 -53z" />
    <glyph glyph-name="three.dnom" horiz-adv-x="606" 
d="M160 319v103l119 151h-234v164h471v-102l-123 -174q70 -29 111 -89t41 -132q0 -114 -87 -187t-208 -73q-150 0 -250 100l121 123q45 -56 123 -56q40 0 70 26t30 67t-30.5 68.5t-73.5 27.5q-38 0 -80 -17z" />
    <glyph glyph-name="four.dnom" horiz-adv-x="716" 
d="M541 737v-440h135v-154h-135v-143h-174v143h-326v103l377 491h123zM274 297h93v119z" />
    <glyph glyph-name="five.dnom" horiz-adv-x="602" 
d="M20 86l136 111q43 -54 104 -54q42 0 71 28t29 71t-30.5 70.5t-73.5 27.5q-40 0 -74 -23l-110 17l39 403h389v-164h-226l-6 -71h15q86 0 148.5 -39.5t91 -97.5t28.5 -123q0 -117 -81 -189.5t-208 -72.5q-77 0 -140.5 29t-101.5 77z" />
    <glyph glyph-name="six.dnom" horiz-adv-x="675" 
d="M430 244q0 38 -25 64t-65 26q-39 0 -70 -23q-24 -31 -24 -67q0 -39 26.5 -64.5t67.5 -25.5q37 0 63.5 26.5t26.5 63.5zM522 737l-149 -241q78 -1 136.5 -37t87 -92t28.5 -123q0 -110 -86 -187t-205 -77q-122 0 -202.5 75.5t-80.5 184.5q0 86 74 211l176 286h221z" />
    <glyph glyph-name="seven.dnom" horiz-adv-x="583" 
d="M41 737h512v-102l-287 -635h-205l252 563h-272v174z" />
    <glyph glyph-name="eight.dnom" horiz-adv-x="663" 
d="M578 535q0 -74 -52 -123q41 -31 63.5 -79t22.5 -104q0 -105 -79 -177t-201 -72q-123 0 -202 72t-79 177q0 110 90 183q-55 55 -55 129q0 88 70.5 152.5t175.5 64.5q106 0 176 -66.5t70 -156.5zM246 233q0 -34 23.5 -56.5t62.5 -22.5t62.5 22.5t23.5 56.5q0 35 -23.5 58.5
t-62.5 23.5t-62.5 -23.5t-23.5 -58.5zM276 526q0 -24 16 -39.5t40 -15.5t39.5 15.5t15.5 39.5t-15.5 41t-39.5 17t-40 -17t-16 -41z" />
    <glyph glyph-name="nine.dnom" horiz-adv-x="675" 
d="M246 494q0 -38 25 -64.5t65 -26.5q39 0 70 23q24 31 24 68q0 39 -26.5 64.5t-67.5 25.5q-37 0 -63.5 -26.5t-26.5 -63.5zM154 0l149 242q-78 1 -136.5 37t-87 92t-28.5 123q0 108 85 186t202 78q111 0 199 -72t88 -188q0 -86 -74 -211l-176 -287h-221z" />
    <glyph glyph-name="zero.numr" horiz-adv-x="692" 
d="M266 1065q0 -205 80 -205t80 205t-80 205t-80 -205zM61 1065q0 81 15 148t47 122.5t89 87t134 31.5q64 0 114 -21t82 -56.5t52.5 -86.5t28.5 -105.5t8 -119.5t-8 -119.5t-28.5 -105.5t-52.5 -86.5t-82 -56.5t-114 -21q-77 0 -134 31.5t-89 87t-47 122.5t-15 148z" />
    <glyph glyph-name="one.numr" horiz-adv-x="532" 
d="M61 1108v199l246 127h123v-738h-205v496z" />
    <glyph glyph-name="two.numr" horiz-adv-x="649" 
d="M256 1217l-184 53q23 84 93.5 134t162.5 50q102 0 173.5 -65t71.5 -166q0 -97 -86 -203l-120 -150h221v-174h-527v103l269 325q43 54 43 88q0 24 -14.5 41t-39.5 17q-46 0 -63 -53z" />
    <glyph glyph-name="three.numr" horiz-adv-x="606" 
d="M160 1016v102l119 152h-234v164h471v-103l-123 -174q70 -29 111 -89t41 -132q0 -114 -87 -187t-208 -73q-150 0 -250 100l121 123q44 -55 123 -55q40 0 70 25.5t30 66.5t-30.5 68.5t-73.5 27.5q-40 0 -80 -16z" />
    <glyph glyph-name="four.numr" horiz-adv-x="716" 
d="M541 1434v-441h135v-153h-135v-144h-174v144h-326v102l377 492h123zM274 993h93v119z" />
    <glyph glyph-name="five.numr" horiz-adv-x="602" 
d="M20 782l136 111q42 -53 104 -53q42 0 71 27.5t29 70.5t-30.5 70.5t-73.5 27.5q-41 0 -74 -22l-110 16l39 404h389v-164h-226l-6 -72h15q86 0 148.5 -39.5t91 -97.5t28.5 -123q0 -117 -81 -189.5t-208 -72.5q-77 0 -140.5 29t-101.5 77z" />
    <glyph glyph-name="six.numr" horiz-adv-x="675" 
d="M430 940q0 38 -25 64t-65 26q-41 0 -70 -22q-24 -31 -24 -68q0 -39 26.5 -64.5t67.5 -25.5q37 0 63.5 26.5t26.5 63.5zM522 1434l-149 -242q78 -1 136.5 -37t87 -92t28.5 -123q0 -110 -86 -187t-205 -77q-122 0 -202.5 75.5t-80.5 184.5q0 86 74 211l176 287h221z" />
    <glyph glyph-name="seven.numr" horiz-adv-x="583" 
d="M41 1434h512v-103l-287 -635h-205l252 564h-272v174z" />
    <glyph glyph-name="eight.numr" horiz-adv-x="663" 
d="M578 1231q0 -74 -52 -123q86 -64 86 -182q0 -105 -79 -177.5t-201 -72.5t-201.5 72.5t-79.5 177.5q0 109 90 182q-55 55 -55 129q0 88 70.5 152.5t175.5 64.5q106 0 176 -66.5t70 -156.5zM246 930q0 -35 23.5 -57.5t62.5 -22.5t62.5 22.5t23.5 57.5t-23.5 58.5
t-62.5 23.5t-62.5 -23.5t-23.5 -58.5zM276 1223q0 -24 16 -40t40 -16t39.5 16t15.5 40t-15.5 40.5t-39.5 16.5t-40 -16.5t-16 -40.5z" />
    <glyph glyph-name="nine.numr" horiz-adv-x="675" 
d="M246 1190q0 -38 25 -64t65 -26q41 0 70 22q24 31 24 68q0 39 -26.5 64.5t-67.5 25.5q-37 0 -63.5 -26.5t-26.5 -63.5zM154 696l149 242q-78 1 -136.5 37t-87 92t-28.5 123q0 108 85 186t202 78q111 0 199 -72t88 -188q0 -86 -74 -211l-176 -287h-221z" />
    <glyph glyph-name="zero.dnom.zero" horiz-adv-x="692" 
d="M61 369q0 81 15 148t47 122.5t89 87t134 31.5q64 0 114 -21t82 -56.5t52.5 -86.5t28.5 -105.5t8 -119.5t-8 -119.5t-28.5 -105.5t-52.5 -86.5t-82 -56.5t-114 -21q-77 0 -134 31.5t-89 87t-47 122.5t-15 148zM346 164q24 0 40.5 16.5t24.5 48t11.5 67t3.5 83.5l-117 -201
q14 -14 37 -14zM266 362l115 199q-15 12 -35 12q-80 0 -80 -211z" />
    <glyph glyph-name="zero.numr.zero" horiz-adv-x="692" 
d="M61 1065q0 81 15 148t47 122.5t89 87t134 31.5q64 0 114 -21t82 -56.5t52.5 -86.5t28.5 -105.5t8 -119.5t-8 -119.5t-28.5 -105.5t-52.5 -86.5t-82 -56.5t-114 -21q-77 0 -134 31.5t-89 87t-47 122.5t-15 148zM346 860q24 0 40.5 16.5t24.5 48t11.5 67t3.5 83.5
l-117 -201q14 -14 37 -14zM266 1059l115 198q-16 13 -35 13q-80 0 -80 -211z" />
    <glyph glyph-name="minus.tf" 
d="M133 686h942v-225h-942v225z" />
    <glyph glyph-name="multiply.tf" 
d="M307 1030l297 -297l297 297l160 -160l-297 -297l297 -297l-160 -159l-297 297l-297 -297l-160 159l297 297l-297 297z" />
    <glyph glyph-name="numbersign.tf" 
d="M506 829l-62 -225h258l62 225h-258zM47 1055h287l100 379h234l-101 -379h258l101 379h233l-100 -379h225v-226h-285l-63 -225h225l8 -225h-292l-101 -379h-233l100 379h-258l-100 -379h-234l101 379h-226v225h285l61 225h-225v226z" />
    <glyph glyph-name="dollar.tf" 
d="M102 195l181 188q64 -71 153.5 -114.5t184.5 -43.5q92 0 150 51t58 130q0 52 -28 92t-79 68t-105 49.5t-125.5 51.5t-120.5 58q-203 119 -203 326q0 143 89.5 243.5t229.5 139.5v235h246v-221q174 -19 324 -129l-144 -205q-44 41 -111.5 67.5t-135.5 26.5q-41 0 -79 -9
t-70.5 -26.5t-52.5 -48.5t-20 -71q0 -41 28.5 -74.5t75 -55.5t106 -47.5t121.5 -49.5t121.5 -61.5t106 -82.5t75 -115t28.5 -157q0 -158 -106.5 -272t-266.5 -146v-228h-246v230q-210 40 -385 201z" />
    <glyph glyph-name="plus.tf" 
d="M133 686h359v358h225v-358h358v-225h-358v-359h-225v359h-359v225z" />
    <glyph glyph-name="less.tf" 
d="M530 573l545 -237v-244l-942 410v143l942 410v-244z" />
    <glyph glyph-name="equal.tf" 
d="M133 471h942v-225h-942v225zM133 901h942v-225h-942v225z" />
    <glyph glyph-name="greater.tf" 
d="M133 336l545 237l-545 238v244l942 -410v-143l-942 -410v244z" />
    <glyph glyph-name="cent.tf" 
d="M911 356l205 -153q-135 -180 -344 -215v-224h-246v234q-175 41 -284 179t-109 319q0 180 109 317t284 182v234h246v-225q194 -38 313 -189l-188 -166q-90 119 -229 119q-115 0 -192 -78.5t-77 -193.5q0 -117 76 -194t195 -77q77 0 141.5 38t99.5 93z" />
    <glyph glyph-name="sterling.tf" 
d="M561 829h277v-225h-199q8 -58 8 -96q0 -142 -82 -262h561v-246h-1013v164q126 41 197 131.5t71 210.5q0 52 -10 98h-228v225h136q-41 97 -41 211q0 171 128 292.5t306 121.5q150 0 253.5 -75t151.5 -203l-231 -91q-20 53 -64 88t-102 35q-74 0 -125 -48t-51 -120
q0 -79 57 -211z" />
    <glyph glyph-name="section.tf" 
d="M1126 440q0 -181 -143 -307q61 -87 61 -201q0 -93 -40.5 -170.5t-107 -127.5t-151 -77.5t-174.5 -27.5q-233 0 -415 135l143 205q44 -41 111.5 -67.5t136.5 -26.5q56 0 104 15t82.5 51.5t34.5 88.5q0 46 -37 81.5t-96.5 60.5t-131 50t-143 59t-131 78t-96.5 117t-37 167
q0 181 144 305q-62 84 -62 203q0 93 40.5 170.5t107 127.5t151 77.5t174.5 27.5q234 0 416 -135l-143 -205q-44 41 -111.5 67.5t-136.5 26.5q-56 0 -104 -15t-82.5 -51.5t-34.5 -88.5q0 -41 29 -74t76 -54t107.5 -45.5t123 -46t123 -57t107.5 -78t76 -109t29 -149.5z
M850 436q0 38 -18 68.5t-45 50t-70 38t-82.5 31t-93.5 31t-92 35.5q-76 -51 -76 -143q0 -38 17.5 -69t44.5 -50.5t70 -38t82.5 -31t93.5 -31.5t93 -36q76 53 76 145z" />
    <glyph glyph-name="notequal.tf" 
d="M1055 1126l-127 -225h147v-225h-274l-115 -205h389v-225h-516l-127 -226h-258l127 226h-168v225h295l115 205h-410v225h537l127 225h258z" />
    <glyph glyph-name="plusminus.tf" 
d="M492 602h-359v225h359v258h225v-258h358v-225h-358v-258h-225v258zM133 287h942v-226h-942v226z" />
    <glyph glyph-name="lessequal.tf" 
d="M133 287h942v-226h-942v226zM1075 858l-446 -143l446 -144v-237l-942 309v143l942 310v-238z" />
    <glyph glyph-name="greaterequal.tf" 
d="M133 287h942v-226h-942v226zM580 715l-447 143v238l942 -310v-143l-942 -309v237z" />
    <glyph glyph-name="yen.tf" 
d="M70 440v226h385l-66 102h-319v225h178l-275 441h316l315 -504l314 504h315l-277 -441h181v-225h-322l-63 -102h385v-226h-396v-440h-276v440h-395z" />
    <glyph glyph-name="mu.tf" 
d="M819 993h266v-993h-256v80q-111 -100 -268 -100q-99 0 -172 45v-517h-266v1485h266v-536q0 -115 49 -170q56 -62 150 -62q75 0 134.5 38t96.5 85v645z" />
    <glyph glyph-name="partialdiff.tf" 
d="M578 1012l-316 442h309l379 -526q82 -113 132.5 -219t50.5 -213q0 -105 -40.5 -200.5t-109.5 -164.5t-167 -110t-208 -41q-149 0 -271.5 68.5t-191.5 186.5t-69 261q0 137 63 253t179 187t260 76zM870 496q0 119 -75 211l-19 22q-58 39 -151 39q-126 0 -204.5 -76
t-78.5 -196q0 -115 75 -193t191 -78q113 0 187.5 79.5t74.5 191.5z" />
    <glyph glyph-name="summation.tf" 
d="M829 668l-421 -443h514v205h225v-430h-1127v143l562 594l-541 553v144h1085v-430h-225v204h-465l393 -397v-143z" />
    <glyph glyph-name="product.tf" 
d="M31 1434h1147v-226h-205v-1208h-246v1208h-246v-1208h-245v1208h-205v226z" />
    <glyph glyph-name="pi.tf" 
d="M291 0v735q-79 -10 -129 -73l-144 147q57 85 166 125q78 29 191 29h815v-226h-205v-424q0 -65 14.5 -100t55.5 -70l-174 -163q-87 65 -114.5 141.5t-27.5 208.5v407h-202v-737h-246z" />
    <glyph glyph-name="integral.tf" 
d="M-154 -469l68 221q76 -28 135 -28q186 0 246 190q39 123 70 366.5t60 483t62 348.5q110 363 498 363q45 0 102.5 -12t100.5 -31l-68 -222q-78 29 -135 29q-186 0 -246 -190q-39 -123 -70 -367t-60 -483.5t-62 -348.5q-110 -362 -498 -362q-45 0 -102.5 12t-100.5 31z" />
    <glyph glyph-name="logicalnot.tf" 
d="M1075 901v-655h-225v430h-717v225h942z" />
    <glyph glyph-name="radical.tf" 
d="M-41 993h342l289 -626l381 1067h237l-510 -1434h-184l-358 768h-197v225z" />
    <glyph glyph-name="florin.tf" 
d="M-154 -469l68 221q76 -28 135 -28q186 0 246 190q15 47 27 103.5t25 143t18.5 130.5t20 165.5t17.5 147.5h-327v225h356q29 202 55 283q110 363 498 363q45 0 102.5 -12t100.5 -31l-68 -222q-78 29 -135 29q-186 0 -246 -190q-25 -77 -49 -220h328v-225h-361
q-8 -66 -24.5 -207.5t-26 -219.5t-26 -173.5t-33.5 -153.5q-110 -362 -498 -362q-45 0 -102.5 12t-100.5 31z" />
    <glyph glyph-name="asciicircum.tf" 
d="M133 717l379 717h184l379 -717h-254l-217 411l-217 -411h-254z" />
    <glyph glyph-name="asciitilde.tf" 
d="M281 385l-220 55q14 66 41.5 124t69 105.5t102 75t132.5 27.5q67 0 129.5 -27t101.5 -59t82.5 -59t75.5 -27q50 0 85 45.5t48 116.5l219 -55q-14 -66 -41 -124t-68.5 -105.5t-102 -75t-132.5 -27.5q-67 0 -129.5 27t-101.5 59t-82.5 59t-75.5 27q-50 0 -85 -45.5
t-48 -116.5z" />
    <glyph glyph-name="approxequal.tf" 
d="M281 160l-220 55q14 66 41.5 124t69 105.5t102 75t132.5 27.5q67 0 129.5 -27t101.5 -59t82.5 -59t75.5 -27q50 0 85 45.5t48 116.5l219 -56q-14 -66 -41 -123.5t-68.5 -105t-102 -75t-132.5 -27.5q-67 0 -129.5 27t-101.5 59t-82.5 59t-75.5 27q-50 0 -85 -45.5
t-48 -116.5zM281 610l-220 56q19 90 60 162t115.5 120.5t169.5 48.5q67 0 129.5 -27t101.5 -59t82.5 -59t75.5 -27q50 0 85 45.5t48 116.5l219 -55q-14 -66 -41 -124t-68.5 -105.5t-102 -75t-132.5 -27.5q-67 0 -129.5 27t-101.5 59t-82.5 59t-75.5 27q-50 0 -85 -45.5
t-48 -116.5z" />
    <glyph glyph-name="Delta.tf" 
d="M20 143l492 1291h184l492 -1291v-143h-1168v143zM604 1044l-311 -819h622z" />
    <glyph glyph-name="Euro.tf" 
d="M-51 768v225h186q71 207 234.5 334t378.5 127q147 0 267 -63t208 -177l-199 -161q-107 155 -272 155q-104 0 -188.5 -57t-131.5 -158h481v-225h-542q-2 -16 -2 -51t2 -51h542v-226h-485q43 -101 129.5 -158t194.5 -57q100 0 180 49.5t133 137.5l205 -154
q-203 -278 -518 -278q-221 0 -385 124.5t-234 335.5h-184v226h143v102h-143z" />
    <glyph glyph-name="lozenge.tf" 
d="M512 0l-410 645v143l410 646h184l410 -646v-143l-410 -645h-184zM322 717l282 -443l281 443l-281 440z" />
    <glyph glyph-name="divide.tf" 
d="M133 686h942v-225h-942v225zM451 936q0 63 45 106t108 43t108.5 -43t45.5 -106t-45.5 -106.5t-108.5 -43.5t-108 43.5t-45 106.5zM451 211q0 63 45 106t108 43t108.5 -43t45.5 -106t-45.5 -106.5t-108.5 -43.5t-108 43.5t-45 106.5z" />
    <glyph glyph-name="quotedbl.tf" 
d="M522 1434l-41 -523h-184l-41 523h266zM952 1434l-41 -523h-184l-41 523h266z" />
    <glyph glyph-name="quotesingle.tf" 
d="M737 1434l-41 -523h-184l-41 523h266z" />
    <glyph glyph-name="at.case" horiz-adv-x="2048" 
d="M782 717q0 -99 66.5 -167.5t169.5 -68.5q58 0 108.5 22t77.5 56q-4 54 -4 90v230q-29 32 -78 52.5t-104 20.5q-103 0 -169.5 -68.5t-66.5 -166.5zM1526 276q-69 0 -133 29.5t-109 79.5q-119 -109 -280 -109q-58 0 -119.5 17.5t-120 54.5t-105 88t-74.5 124t-28 157
q0 101 40 186.5t103.5 139.5t138 84t146.5 30q126 0 223 -63v43h217v-494q0 -77 21 -115q28 -47 86 -47q44 0 74.5 27.5t45.5 74t21 91.5t6 94q0 178 -91 323t-238.5 223.5t-317.5 78.5q-135 0 -258 -53t-211.5 -143t-141 -215.5t-52.5 -264.5q0 -137 52 -262.5t139.5 -216
t209 -144t254.5 -53.5q238 0 406 133l126 -186q-230 -172 -518 -172q-185 0 -351 71t-285 191.5t-189 287t-70 351.5q0 183 69 349.5t186.5 287.5t282.5 192.5t349 71.5q172 0 332 -64.5t279.5 -175.5t191.5 -270.5t72 -339.5q0 -137 -39 -245.5t-126.5 -177.5t-213.5 -69z
" />
    <glyph glyph-name="amacron.ss01" horiz-adv-x="1095" 
d="M240 1413h655v-205h-655v205zM696 307v103q-52 30 -133 30q-33 0 -66 -6t-66 -19.5t-53 -40.5t-20 -63q0 -48 39 -77t95 -29q121 0 204 102zM963 0h-256v80q-30 -38 -100.5 -69t-155.5 -31q-152 0 -255.5 95.5t-103.5 235.5q0 105 57 184.5t149 119.5t202 40
q109 0 196 -43q0 48 -16.5 83.5t-46 55t-64 28.5t-75.5 9q-66 0 -140.5 -24.5t-124.5 -56.5l-86 204q61 40 160.5 71.5t214.5 31.5q108 0 200 -39.5t154 -116.5q47 -59 69 -127t22 -178v-553z" />
    <glyph glyph-name="abreve.ss01" horiz-adv-x="1095" 
d="M659 1475h215q0 -128 -90 -218t-217 -90t-217 90t-90 218h215q0 -38 27 -65.5t65 -27.5t65 27.5t27 65.5zM696 307v103q-52 30 -133 30q-33 0 -66 -6t-66 -19.5t-53 -40.5t-20 -63q0 -48 39 -77t95 -29q121 0 204 102zM963 0h-256v80q-30 -38 -100.5 -69t-155.5 -31
q-152 0 -255.5 95.5t-103.5 235.5q0 105 57 184.5t149 119.5t202 40q109 0 196 -43q0 48 -16.5 83.5t-46 55t-64 28.5t-75.5 9q-66 0 -140.5 -24.5t-124.5 -56.5l-86 204q61 40 160.5 71.5t214.5 31.5q108 0 200 -39.5t154 -116.5q47 -59 69 -127t22 -178v-553z" />
    <glyph glyph-name="aogonek.ss01" horiz-adv-x="1095" 
d="M696 307v103q-52 30 -133 30q-33 0 -66 -6t-66 -19.5t-53 -40.5t-20 -63q0 -48 39 -77t95 -29q121 0 204 102zM963 553v-553q-54 -77 -54 -129q0 -37 23 -61.5t59 -24.5q27 0 51 8l31 -223q-42 -21 -133 -21q-125 0 -200.5 70.5t-75.5 175.5q0 83 43 191v94
q-30 -38 -100.5 -69t-155.5 -31q-152 0 -255.5 95.5t-103.5 235.5q0 105 57 184.5t149 119.5t202 40q109 0 196 -43q0 48 -16.5 83.5t-46 55t-64 28.5t-75.5 9q-66 0 -140.5 -24.5t-124.5 -56.5l-86 204q61 40 160.5 71.5t214.5 31.5q108 0 200 -39.5t154 -116.5
q47 -59 69 -127t22 -178z" />
    <glyph glyph-name="aringacute.ss01" horiz-adv-x="1095" 
d="M317 1331q0 94 66 159.5t160 65.5t159.5 -65.5t65.5 -159.5t-65.5 -159.5t-159.5 -65.5t-160 65.5t-66 159.5zM481 1331q0 -26 18 -43.5t44 -17.5t43.5 17.5t17.5 43.5t-17.5 44t-43.5 18t-44 -18t-18 -44zM594 1966h287l-246 -328h-184zM696 307v103q-52 30 -133 30
q-33 0 -66 -6t-66 -19.5t-53 -40.5t-20 -63q0 -48 39 -77t95 -29q121 0 204 102zM963 0h-256v80q-30 -38 -100.5 -69t-155.5 -31q-152 0 -255.5 95.5t-103.5 235.5q0 105 57 184.5t149 119.5t202 40q109 0 196 -43q0 48 -16.5 83.5t-46 55t-64 28.5t-75.5 9
q-66 0 -140.5 -24.5t-124.5 -56.5l-86 204q61 40 160.5 71.5t214.5 31.5q108 0 200 -39.5t154 -116.5q47 -59 69 -127t22 -178v-553z" />
    <glyph glyph-name="aeacute.ss01" horiz-adv-x="1710" 
d="M881 1475h286l-245 -328h-185zM956 625h410q-6 69 -62 121.5t-135 52.5q-81 0 -142.5 -52t-70.5 -122zM696 307v103q-52 30 -133 30q-33 0 -66 -6t-66 -19.5t-53 -40.5t-20 -63q0 -48 39 -77t95 -29q121 0 204 102zM229 707l-86 204q61 40 160.5 71.5t214.5 31.5
q203 0 328 -137q127 137 323 137q134 0 242 -69.5t167.5 -185.5t59.5 -253q0 -42 -6 -76h-688q10 -104 86 -169.5t182 -65.5q77 0 142.5 34t107.5 80l152 -151q-71 -85 -180.5 -131.5t-227.5 -46.5q-163 0 -276 73v-53h-223v80q-30 -38 -100.5 -69t-155.5 -31
q-152 0 -255.5 95.5t-103.5 235.5q0 105 57 184.5t149 119.5t202 40q109 0 196 -43q0 48 -16.5 83.5t-46 55t-64 28.5t-75.5 9q-66 0 -140.5 -24.5t-124.5 -56.5z" />
    <glyph glyph-name="asterisk.ss06" horiz-adv-x="1056" 
d="M174 1282l180 131l174 -239l174 239l181 -131l-174 -240l282 -92l-69 -213l-281 92v-297h-225v297l-281 -90l-69 211l282 92z" />
    <glyph glyph-name="asterisk.ss07" horiz-adv-x="1056" 
d="M655 537l-127 221l-127 -221l-196 112l129 221h-256v226h256l-129 221l196 113l127 -220l127 220l197 -113l-127 -221h254v-226h-254l127 -221z" />
    <glyph glyph-name="asterisk.ss08" horiz-adv-x="1056" 
d="M401 1430l127 -220l-194 -114v-226h-256v226h256l-129 221zM852 1317l-127 -221h254v-226h-254v226l-197 114l127 220zM725 870l127 -221l-197 -112l-127 221zM528 758l-127 -221l-196 112l129 221z" />
    <glyph glyph-name="asterisk.ss09" horiz-adv-x="1056" 
d="M641 870v-338h-225v338h225zM78 870v226h338v-226h-338zM979 870h-338v226h338v-226zM416 1096v338h225v-338h-225zM662 1276l137 135l157 -158l-135 -137zM236 1116l-136 137l158 158l137 -135zM799 555l-137 135l159 160l135 -137zM100 713l136 137l159 -160l-137 -135
z" />
    <glyph glyph-name="f.ss02" horiz-adv-x="1024" 
d="M973 1421l-92 -213q-68 31 -131 31q-94 0 -142 -53q-45 -48 -45 -142v-51h389v-225h-389v-768h-266v768h-256v225h256v21q0 227 121 342q125 119 332 119q56 0 118 -15t105 -39z" />
    <glyph glyph-name="j.ss02" horiz-adv-x="655" 
d="M-154 -457l105 209q56 -28 119 -28q91 0 135 53q31 39 31 121v1095h266v-1044q0 -116 -21.5 -190.5t-66.5 -127.5q-56 -67 -140.5 -105t-181.5 -38q-150 0 -246 55zM195 1346q0 72 51 121t123 49t123 -49t51 -121t-51 -121t-123 -49t-123 49t-51 121z" />
    <glyph glyph-name="t.ss02" horiz-adv-x="1075" 
d="M891 246l94 -213q-39 -17 -67.5 -26.5t-77.5 -18t-105 -8.5q-187 0 -309 116q-58 55 -83.5 138t-25.5 206v328h-276v225h276v277h267v-277h420v-225h-420v-358q0 -58 7 -89.5t27 -52.5q47 -53 134 -53q67 0 139 31z" />
    <glyph glyph-name="fi.ss02" horiz-adv-x="1474" 
d="M942 1436l-78 -219q-60 22 -114 22q-94 0 -142 -53q-45 -48 -45 -142v-51h758v-993h-266v768h-492v-768h-266v768h-256v225h256v21q0 227 121 342q125 119 332 119q106 0 192 -39zM1014 1346q0 72 51 121t123 49t123 -49t51 -121t-51 -121t-123 -49t-123 49t-51 121z" />
    <glyph glyph-name="fl.ss02" horiz-adv-x="1474" 
d="M1321 1454v-1454h-266v768h-492v-768h-266v768h-256v225h256v21q0 227 121 342q125 119 332 119q106 0 192 -39l-78 -219q-60 22 -114 22q-94 0 -142 -53q-45 -48 -45 -142v-51h492v461h266z" />
    <glyph glyph-name="uniFB00.ss02" horiz-adv-x="1781" 
d="M1055 993v21q0 227 121 342q125 119 331 119q56 0 118.5 -15t105.5 -39l-93 -213q-68 31 -131 31q-93 0 -141 -53q-45 -48 -45 -142v-51h389v-225h-389v-768h-266v768h-492v-768h-266v768h-256v225h256v21q0 227 121 342q125 119 332 119q106 0 192 -39l-78 -219
q-60 22 -114 22q-94 0 -142 -53q-45 -48 -45 -142v-51h492z" />
    <glyph glyph-name="uniFB03.ss02" horiz-adv-x="2232" 
d="M1055 993v21q0 227 121 342q125 119 331 119q107 0 193 -39l-78 -219q-60 22 -115 22q-93 0 -141 -53q-45 -48 -45 -142v-51h758v-993h-267v768h-491v-768h-266v768h-492v-768h-266v768h-256v225h256v21q0 227 121 342q125 119 332 119q106 0 192 -39l-78 -219
q-60 22 -114 22q-94 0 -142 -53q-45 -48 -45 -142v-51h492zM1772 1346q0 72 51 121t123 49t123 -49t51 -121t-51 -121t-123 -49t-123 49t-51 121z" />
    <glyph glyph-name="uniFB04.ss02" horiz-adv-x="2232" 
d="M1321 993h491v461h267v-1454h-267v768h-491v-768h-266v768h-492v-768h-266v768h-256v225h256v21q0 227 121 342q125 119 332 119q106 0 192 -39l-78 -219q-60 22 -114 22q-94 0 -142 -53q-45 -48 -45 -142v-51h492v21q0 227 121 342q125 119 331 119q107 0 193 -39
l-78 -219q-60 22 -115 22q-93 0 -141 -53q-45 -48 -45 -142v-51z" />
    <glyph glyph-name="tbar.ss02" horiz-adv-x="1075" 
d="M317 625v143h-276v225h276v277h267v-277h420v-225h-420v-143h420v-226h-420q0 -53 7 -82t27 -49q47 -53 134 -53q67 0 139 31l94 -213q-39 -17 -67.5 -26.5t-77.5 -18t-105 -8.5q-187 0 -309 116q-103 97 -109 303h-276v226h276z" />
    <glyph glyph-name="ij.ss02" horiz-adv-x="1228" 
d="M420 993v-993h-266v993h266zM113 1346q0 72 51 121t123 49t123 -49t51 -121t-51 -121t-123 -49t-123 49t-51 121zM420 -457l104 209q56 -28 119 -28q91 0 135 53q31 39 31 121v1095h266v-1044q0 -116 -21.5 -190.5t-66.5 -127.5q-56 -67 -140 -105t-181 -38
q-150 0 -246 55zM768 1346q0 72 51 121t123 49t123 -49t51 -121t-51 -121t-123 -49t-123 49t-51 121z" />
    <glyph glyph-name="tcommaaccent.ss02" horiz-adv-x="1075" 
d="M891 246l94 -213q-39 -17 -67.5 -26.5t-77.5 -18t-105 -8.5q-187 0 -309 116q-58 55 -83.5 138t-25.5 206v328h-276v225h276v277h267v-277h420v-225h-420v-358q0 -58 7 -89.5t27 -52.5q47 -53 134 -53q67 0 139 31zM532 -123h287l-246 -328h-184z" />
    <glyph glyph-name="tcaron.ss02" horiz-adv-x="1075" 
d="M809 1434h287l-246 -328h-184zM891 246l94 -213q-39 -17 -67.5 -26.5t-77.5 -18t-105 -8.5q-187 0 -309 116q-58 55 -83.5 138t-25.5 206v328h-276v225h276v277h267v-277h420v-225h-420v-358q0 -58 7 -89.5t27 -52.5q47 -53 134 -53q67 0 139 31z" />
    <glyph glyph-name="jcircumflex.ss02" horiz-adv-x="655" 
d="M-154 -457l105 209q56 -28 119 -28q91 0 135 53q31 39 31 121v1095h266v-1044q0 -116 -21.5 -190.5t-66.5 -127.5q-56 -67 -140.5 -105t-181.5 -38q-150 0 -246 55zM205 1475h287l204 -328h-184l-164 184l-164 -184h-184z" />
    <glyph glyph-name="uni0237.ss02" horiz-adv-x="655" 
d="M-154 -457l105 209q56 -28 119 -28q91 0 135 53q31 39 31 121v1095h266v-1044q0 -116 -21.5 -190.5t-66.5 -127.5q-56 -67 -140.5 -105t-181.5 -38q-150 0 -246 55z" />
    <glyph glyph-name="r.ss02" horiz-adv-x="921" 
d="M891 963l-82 -232q-68 37 -147 37q-80 0 -146 -45t-96 -98v-625h-266v993h256v-100q41 52 113.5 86.5t148.5 34.5q123 0 219 -51z" />
    <glyph glyph-name="racute.ss02" horiz-adv-x="921" 
d="M532 1475h287l-246 -328h-184zM891 963l-82 -232q-68 37 -147 37q-80 0 -146 -45t-96 -98v-625h-266v993h256v-100q41 52 113.5 86.5t148.5 34.5q123 0 219 -51z" />
    <glyph glyph-name="rcaron.ss02" horiz-adv-x="921" 
d="M645 1147h-287l-204 328h184l164 -185l164 185h184zM891 963l-82 -232q-68 37 -147 37q-80 0 -146 -45t-96 -98v-625h-266v993h256v-100q41 52 113.5 86.5t148.5 34.5q123 0 219 -51z" />
    <glyph glyph-name="rcommaaccent.ss02" horiz-adv-x="921" 
d="M154 -123h286l-245 -328h-185zM891 963l-82 -232q-68 37 -147 37q-80 0 -146 -45t-96 -98v-625h-266v993h256v-100q41 52 113.5 86.5t148.5 34.5q123 0 219 -51z" />
    </font>
</defs>
</svg>
