<?xml version="1.0" standalone="no"?>
<!DOCTYPE svg PUBLIC "-//W3C//DTD SVG 1.1//EN" "http://www.w3.org/Graphics/SVG/1.1/DTD/svg11.dtd" >
<svg xmlns="http://www.w3.org/2000/svg" xmlns:xlink="http://www.w3.org/1999/xlink" version="1.1">
<metadata>
Created by FontForge 20170731 at Mon Feb  6 00:57:59 2023
 By Aleksey,,,
Copyright (c) 2018 by Trustha Studio. All rights reserved.
</metadata>
<defs>
<font id="ScarletWhaleys" horiz-adv-x="1548" >
  <font-face 
    font-family="Scarlet Whaleys"
    font-weight="400"
    font-stretch="normal"
    units-per-em="2048"
    panose-1="0 0 0 0 0 0 0 0 0 0"
    ascent="1536"
    descent="-512"
    x-height="583"
    cap-height="1568"
    bbox="-1042.5 -1323.69 2062.04 2155.06"
    underline-thickness="102"
    underline-position="-307"
    unicode-range="U+000D-FB06"
  />
<missing-glyph horiz-adv-x="307" 
 />
    <glyph glyph-name="f_f" unicode="ff" horiz-adv-x="1105" 
d="M1210 324q18 -8 9 -16q-8 -7 -25 -3q-100 28 -217.5 36.5t-222.5 -13.5q75 -48 137 -174q78 -177 65 -385q-6 -146 -43 -281q-12 -45 -21.5 -75.5t-31 -69.5t-47.5 -62q-48 -35 -95.5 -18t-72.5 65q-60 114 -72 330q-23 453 60 831q-223 -163 -527 -217v-8
q12 -14 37.5 -45.5t40 -49t34.5 -44.5t36 -51q89 -133 133 -302.5t23 -322.5q-7 -61 -36.5 -110.5t-82.5 -57.5q-110 -14 -168 98q-23 46 -39.5 108.5t-22.5 98.5t-18 115q-12 82 -15.5 216t-1.5 227l1 92q-28 11 -34.5 33t8 38.5t40.5 14.5q24 395 84 616q27 105 78 227
q4 8 16 37t19 44t19.5 38t26 40t29.5 30q29 26 63.5 22.5t57.5 -37.5q22 -31 29 -78t5 -80t-9 -85q-37 -281 -176 -531q-104 -186 -164 -233q304 56 532 231q43 173 117 369q77 212 193 362q131 166 204 78q22 -26 28 -60.5t-3 -73.5t-19.5 -67t-27.5 -65
q-65 -147 -171 -285t-235 -248q-36 -155 -43 -192q112 30 258.5 11t257.5 -68zM784 739q-12 -41 -24 -84q61 58 123 133q186 231 241 402q21 69 21 102q-2 36 -23.5 54t-52.5 -5q-49 -45 -121 -178q-85 -156 -164 -424zM266 -68q-47 96 -164 242q-10 -356 49 -613
q46 -198 110 -213q17 -4 34 7q25 16 38.5 45.5t15.5 72t1.5 66t-4.5 64.5q-18 197 -80 329zM219 1016q-86 -308 -104 -631q34 44 82.5 121t64.5 106q90 170 135 377q29 165 25 242q-11 132 -71 66q-54 -59 -112 -220q-12 -32 -20 -61zM887 0q-10 42 -26 85.5t-40.5 91.5
t-60 81t-76.5 39q-25 -138 -29 -459q-4 -249 31 -379q30 -109 66 -129q21 -10 49 39q56 96 84 244q46 211 2 387z" />
    <glyph glyph-name="s_t" unicode="st" horiz-adv-x="985" 
d="M1632 1198q25 0 24 -9q0 -5 -11 -7q-293 -62 -789 -58l-45 -1634q3 -16 -7 -33.5t-26 -17.5q-14 0 -23 26t-7 50q10 922 24 1611h-41q0 -4 -21 -71t-63 -184t-94.5 -246t-127 -272t-149.5 -247q31 -86 44 -175t6 -176t-48 -158.5t-114 -108.5q-41 -21 -87.5 -28.5
t-91.5 8.5t-65 59q-20 41 -22.5 84t12 84.5t36 80t54.5 81t63 77t66 77t59 73.5q-55 140 -96 246q-84 222 -22 375q35 85 99 112q58 24 94 -16q24 -26 28 -74q4 -45 -17.5 -86.5t-42.5 -32.5q-24 7 -2 37q21 26 16 72q-6 43 -32 43q-22 0 -53 -39q-36 -47 -43 -118.5
t14 -123.5q23 -69 44 -125.5t41.5 -107t27.5 -70.5q77 101 157 257t136.5 300.5t92.5 249t46 145.5q-474 6 -514 5q-49 0 -69.5 14.5t-0.5 29.5t68 15q267 3 528 0q19 84 66.5 248.5t62.5 228.5q4 17 20 21.5t29.5 -6t10.5 -31.5l-19 -461q512 -4 774 6zM-33 -350
q-25 -95 27 -123q45 -23 111 19q84 53 120 161q45 134 -10 297q-21 -25 -69.5 -79.5t-76 -87.5t-58.5 -85.5t-44 -101.5zM772 1192q2 33 2 100q-2 -6 -26 -100h24z" />
    <glyph glyph-name="a_f" unicode="af" horiz-adv-x="1247" 
d="M1366 326q11 -9 1.5 -21.5t-21.5 -5.5q-111 69 -334 20q-48 -11 -58 -14q-1 -1 -2 -3t-2 -3q-54 -82 -71 -106q100 -60 158 -174t77 -257q26 -201 -14 -372q-46 -236 -154 -262q-42 -10 -75 10t-54.5 66t-36.5 105t-22 138t-10 152.5t-1.5 161t4.5 151t7 133.5
q-31 -34 -82 -74q-112 -90 -191 -55q-69 33 -94 152q-22 112 -12 256q-8 -16 -24 -43.5t-19 -32.5q-65 -102 -104 -141q-72 -71 -136 -48q-48 16 -71.5 54.5t-22 85.5t14.5 93t36 85q58 100 155.5 148.5t192.5 13.5q3 7 10.5 22.5t10.5 22.5q7 19 25.5 23t32 -8.5t7.5 -33.5
q-70 -280 -34 -471q4 -24 9 -42t15 -40.5t28 -34t42 -8.5q97 9 217 148q4 70 4 78q-42 10 -78 10q-15 2 -20 16.5t10 22.5q74 38 96 47q25 384 72 631q32 162 63 241q78 180 179 203q74 19 102 -63t14.5 -209t-31.5 -224.5t-32 -146.5q-56 -188 -156 -363q34 10 62 13
q64 10 112.5 12t105.5 -11.5t99 -47.5zM317 362q38 71 66 134q-167 -20 -248 -150q-51 -82 -45 -161q4 -53 32 -56q8 -1 17 4q28 14 53 37.5t49 60t35 55.5t34 63q2 3 2.5 4.5t2 4t2.5 4.5zM772 236v6q-2 0 -10 -4q2 0 5 -1t5 -1zM989 -721q49 92 70 220t11 255.5t-65 239.5
t-149 166q-5 -3 -14 -17q-15 -339 -13 -538q4 -178 35 -287q1 -4 6 -21t9 -27.5t10 -25t14 -24.5t17 -15q7 -1 11.5 -1t11.5 7t12 12.5t11.5 16t10 16.5t7.5 14t5 9zM846 221q8 11 24.5 34t24.5 34q-43 -16 -45 -17q-1 -8 -2 -25.5t-2 -25.5zM932 346q226 370 229 768
q0 1 0.5 21t0 32t-1.5 34.5t-4 37.5t-8 31.5t-13 26.5t-19 12q-36 8 -94 -72q-61 -97 -92 -252q-52 -250 -78 -663q42 16 80 24z" />
    <glyph glyph-name="a_l" unicode="al" horiz-adv-x="1345" 
d="M1450 389q5 9 15.5 4.5t7.5 -14.5q-58 -175 -175 -311q-121 -141 -230 -145q-127 -4 -190 189q-21 66 -34 152q-51 -88 -108.5 -152.5t-111 -97.5t-101.5 -33t-82 33.5t-50 110t-8 188.5q-49 -98 -128.5 -143.5t-143.5 -1.5q-60 46 -54 135.5t64 161.5q23 29 54.5 51.5
t66.5 35t71 1.5t62 -47q6 -8 1.5 -17.5t-12.5 -12.5t-16 3q-58 57 -129 -16q-56 -58 -81 -147q-23 -85 11 -103q8 -5 19 -4q60 3 114.5 65.5t84 141.5t30.5 143q1 22 20.5 31.5t38 0t15.5 -31.5q-12 -89 -17 -163.5t-4 -140.5t11.5 -110t29.5 -71.5t50.5 -26t73 28.5
t99.5 89.5t128 158.5q-7 66 -13.5 137.5t-12.5 197t-5 237.5t13.5 242t37 230.5t71 182.5t111.5 116q37 22 71 20.5t63 -32.5q82 -91 73 -278t-73 -400.5t-141.5 -390t-131.5 -246.5q2 -10 7 -36q9 -51 15.5 -82t24 -85t37 -83.5t52.5 -48.5t73 -9q51 13 100 52t95.5 107
t68.5 105t61 109q3 4 4 6.5t3 6.5t4 7zM1049 1593q-52 -52 -87 -151.5t-49 -208.5t-19 -242t-2 -235t6.5 -206t2.5 -138q39 66 85 170t93 240.5t77 275t37 273.5t-28 235q-6 18 -19 25t-29 3.5t-34 -14.5t-34 -27z" />
    <glyph glyph-name="a_r" unicode="ar" horiz-adv-x="1759" 
d="M1851 387q11 18 26 12q11 -7 3 -22q-60 -97 -127 -176q-115 -136 -203 -191q-62 -39 -126.5 -41.5t-114.5 35t-68 107.5q-32 122 59 354q5 13 18 45t19 47t15 44t10.5 46.5t0.5 43t-9.5 44.5t-24 40t-39.5 40q-42 31 -78 49q-75 -237 -188 -473q-87 -182 -149 -273
q-142 -210 -271 -214q-81 -2 -127.5 50t-51 139t18.5 200q-19 -24 -73 -92q-15 -16 -18.5 -20t-19.5 -21t-23 -23.5t-24 -21.5t-27.5 -21.5t-27 -17.5t-29.5 -14.5t-29 -7.5t-31.5 -3t-30.5 6q-63 20 -82 83t-3.5 127.5t48.5 107.5q132 176 379 176q19 0 19 -15
q0 -18 -21 -24l-7 -2q-206 -26 -301 -174q-59 -95 -28 -170q8 -19 20 -27.5t28 -4.5t33 13t36.5 27t36 34.5t35.5 39t31 37.5t25.5 32t16.5 21q87 112 133 199q6 12 15.5 16.5t19 1.5t18 -10t11 -18t-0.5 -23q-10 -32 -21.5 -77.5t-24.5 -111.5t-15 -125.5t5 -111t37 -77.5
t81 -15q28 6 57.5 25.5t54 42.5t53 61t46.5 65t43.5 71.5t35.5 63.5t30 58.5t20 40.5q101 205 188 477q-45 23 -72 41t-56 46t-39 64.5t-3 81.5q3 21 13.5 51t28.5 66t41 61t52.5 36t63.5 -9q46 -27 66 -82.5t18.5 -108t-14.5 -102.5q-5 -19 -15.5 -55.5t-15.5 -54.5
q40 -17 78 -43q196 -136 108 -340q-139 -319 -78 -434q41 -76 153 -38q122 40 253 181q57 62 106 135zM1212 1057q8 35 10.5 73.5t-9 81.5t-39.5 64q-41 30 -78 -50.5t-37 -125.5q0 -52 32.5 -86.5t90.5 -63.5q20 70 30 107z" />
    <glyph glyph-name="a_s" unicode="as" horiz-adv-x="1517" 
d="M1640 389q6 -1 6 -7t-6 -7q-87 -14 -151 -33.5t-97.5 -35.5t-97.5 -52q15 -85 21 -157t4.5 -150t-19.5 -139.5t-51.5 -114.5t-92.5 -86.5t-140 -44.5q-228 -31 -266 94q-20 72 5.5 151t76.5 144.5t124 131t134 108.5t122 79q-10 53 -38 179t-39 194q-28 -37 -80.5 -116
t-98.5 -144.5t-104.5 -140t-124.5 -134t-131 -94.5q-36 -19 -70 -22t-63.5 14.5t-46.5 56.5q-18 38 -22 101t9 127q-36 -49 -69.5 -90.5t-72 -83t-73 -66.5t-67 -38t-60 -1.5t-45.5 47.5q-22 40 -19 87.5t18.5 91.5t44.5 88t57.5 78t58.5 61q36 34 76 61.5t85 48.5t82 12
t54 -52q16 36 41.5 49.5t34.5 -6.5t-8 -78q-13 -32 -25 -69t-24.5 -86t-19 -92t-4 -84.5t16.5 -66.5q33 -59 144 7q70 50 140.5 122t135 159.5t113.5 161t104 165.5q-33 119 3 258q29 111 78 140q45 27 83 -38q10 -17 15.5 -36.5t8.5 -36t-1 -39t-6 -36.5t-12.5 -38.5
t-14.5 -35.5t-19 -37.5t-19.5 -33.5t-21 -34.5t-18.5 -30.5q7 -41 14 -72q7 -39 33 -152t39 -180q204 99 356 74zM309 281q59 78 144 221q-33 55 -131 -15q-91 -63 -168 -176q-90 -132 -72 -205q3 -11 8 -20q10 -16 40.5 4t73.5 68t62.5 71t42.5 52zM1186 795q8 12 10 16
q42 61 53 168q9 81 -11 88q-12 4 -32 -27q-12 -19 -18 -45t-7.5 -46t-2.5 -64q4 -60 8 -90zM1096 -338q56 31 91 83t45 108.5t12 121t-7 121.5q-4 42 -14 111q-61 -31 -146.5 -100t-163 -153t-109 -161.5t16.5 -126.5q34 -31 86 -39.5t100.5 2t88.5 33.5z" />
    <glyph glyph-name="a_t" unicode="at" horiz-adv-x="1460" 
d="M1989 1085q12 -2 0 -16q-8 -7 -15 -8q-33 -2 -153 -9.5t-247 -14t-233 -9.5q-1 -25 -22.5 -744t-38.5 -923q-2 -30 -22 -18q-23 12 -34 50q-3 14 -3 27q8 405 47 1536q-12 -16 -36.5 -70t-54 -126.5t-68 -163.5t-79.5 -182t-87 -181.5t-91.5 -161.5t-93 -123t-91 -65.5
t-85.5 11.5q-56 38 -80.5 152t-14.5 243q-41 -60 -59 -82q-20 -27 -29 -38.5t-32 -39.5t-38 -42t-39.5 -32.5t-44 -24.5t-43.5 -5.5t-46 12.5q-110 61 -107 195q2 115 81 220q79 104 181 124q111 21 201 -78v-2q20 46 25 65q7 22 27.5 26t36 -10.5t9.5 -35.5
q-24 -87 -34 -252q-17 -274 54 -319q33 -21 85 16q56 40 147 207.5t168 345t142.5 331t74.5 164.5q-70 -6 -221 -8t-221 4q-17 1 -24.5 12t-2.5 23q1 1 2 4t2 4q10 20 33 12q16 1 128 1t213 1t112 5q1 64 3.5 113t9 112t18.5 111t30 94t46 77t65 46q106 31 98 -78
q-8 -104 -123 -336q-54 -106 -74 -139q185 -3 283 -1.5t188 1t177 -6.5zM1481 1604q-28 -9 -50 -32t-36 -59t-23 -71.5t-14.5 -86.5t-7.5 -85t-4 -84q74 153 123.5 291.5t11.5 126.5zM428 350l57 94q-64 92 -167 52q-79 -31 -138 -120q-64 -97 -47 -179q7 -32 27 -56
q32 -34 76 -8q55 34 99.5 87.5t92.5 129.5z" />
    <glyph glyph-name="a_x" unicode="ax" horiz-adv-x="1832" 
d="M1788 -184q4 -17 -12 -24t-27 7q-118 176 -184 258q-33 41 -103 123q-145 -158 -342 -317q-9 -8 -19 -1t-3 19q42 61 102 131.5t97.5 110.5t115.5 121q-5 6 -14.5 19.5t-14.5 19.5q-91 135 -127 256q-29 -74 -75 -142q-20 -30 -46 -65.5t-64 -84t-79 -93t-88 -89.5
t-94.5 -76.5t-93 -50.5t-90 -16t-80.5 31q-44 34 -59.5 149.5t10.5 221.5q-12 -31 -43 -79.5t-77 -104.5t-98 -96.5t-108 -56.5t-106 15q-56 34 -61 105.5t24 144t77 139.5q18 25 51 56t80 60t93.5 43t93.5 -1t78 -66q2 3 18 34t21 36q19 18 40.5 5t18.5 -42
q0 -2 -11.5 -81.5t-16.5 -135t-7 -130.5t14 -118t48 -47q67 -8 146 34.5t146 108t136 154t112 154.5t78 127q-22 108 -8 215q0 9 14 14q19 8 29 6q7 0 12 -10q17 -77 -2 -162q9 -49 27 -96q42 -110 149 -248q31 33 117.5 136t120.5 147q43 56 55 75q18 24 19 25q8 8 8 4
q3 12 14.5 11.5t16.5 -11.5q11 -33 0.5 -61t-39.5 -68q-34 -47 -126 -159.5t-136 -161.5q14 -17 53 -63t56.5 -68t49 -64.5t48.5 -73t36 -72t29 -81.5zM479 438q-56 77 -159 21q-87 -47 -157 -156q-66 -104 -71 -194q-1 -25 19 -33.5t45 2.5q84 34 171.5 134t151.5 226z" />
    <glyph glyph-name="b_b" unicode="bb" horiz-adv-x="1439" 
d="M1532 387q3 5 9 2.5t5 -8.5q-72 -189 -274 -330q-136 -96 -322 -172q-28 -10 -40 20t14 44q69 39 118.5 106t71.5 146q8 28 11 53.5t1.5 56t-19 49t-50.5 17.5q-104 0 -148 -203q-36 -130 -51 -340q-2 -26 -21 -25q-21 0 -33 26q-6 12 -5 26q3 115 6 312t4 261
q-119 -220 -248.5 -380t-306.5 -271q-28 -17 -41 3.5t10 45.5q56 60 85.5 94t66.5 92t51 111q8 31 12 59t2 61.5t-21.5 53t-56.5 18.5q-111 0 -161 -221q-12 -43 -18.5 -87t-8.5 -71.5t-4 -81.5t-4 -85q-2 -29 -23 -28q-23 1 -36 29q-7 14 -7 29q-1 49 -4 223.5t-3.5 250
t-1 214t3.5 251t11 225.5q12 255 54 393q11 35 20.5 59t28.5 59.5t45 54t57 17.5q51 -1 83 -39t40 -92q12 -97 -26 -248q-40 -153 -99 -305q-57 -152 -106 -260l-31 -61l-10 -312q40 87 101.5 136.5t144.5 25.5q65 -18 92.5 -70t20.5 -111t-23 -107.5t-33 -73.5
q124 119 346 477v18q2 54 4 204.5t8 232.5q12 244 49 358q10 31 19 53.5t26 55t41 49.5t52 16q46 -1 75 -35.5t37 -83.5q9 -90 -24 -227q-38 -141 -90 -279q-36 -98 -97 -235l-26 -51q0 -1 -1 -3.5t-1 -3.5l-11 -282q91 187 226 147q53 -16 79.5 -59.5t24.5 -92.5t-14 -100
q-30 -99 -78 -165q131 60 229.5 143t192.5 221zM928 1305q-21 -74 -31.5 -160.5t-11.5 -163.5t-1.5 -163.5t-0.5 -160.5q8 32 31 90t47 114.5t50.5 130t41.5 137.5t21 136.5t-11 127.5q-7 24 -30 37.5t-46 -5.5q-35 -35 -59 -120zM221 1339q-19 -66 -31 -138t-16.5 -155
t-6.5 -139.5t-2 -154.5t-1 -138q158 379 201 578q1 7 8 37t9.5 42t6.5 39t4 43t-3 37.5t-9 39.5q-9 27 -39 45.5t-55 -2.5q-37 -37 -66 -134z" />
    <glyph glyph-name="c_h" unicode="ch" horiz-adv-x="1765" 
d="M1837 336q13 21 28 12q8 -5 3 -14q-28 -60 -64 -121t-86.5 -129.5t-112 -116t-120.5 -57.5q-74 -13 -127.5 49.5t-63.5 146.5q-15 132 6 289q0 1 5 33t7.5 55t2.5 52t-8 43.5t-25 9.5q-112 -30 -209 -219q-14 -29 -27 -63t-21 -56t-21 -67t-16.5 -58t-17.5 -68t-16 -61
q-8 -29 -38 -29t-39 29q-44 161 -31 510q-67 -87 -125.5 -156t-134.5 -145t-159 -135.5t-167 -96.5q-32 -15 -53.5 -23t-55 -17.5t-63 -6t-53.5 18.5q-94 59 -37 233q23 78 74.5 168.5t130 170.5t155.5 97q107 23 123 -122q1 -12 -9.5 -18.5t-22 -3.5t-13.5 15
q-3 21 -6 33.5t-14.5 28.5t-28.5 14q-89 -11 -240 -248q-38 -56 -68 -146q-53 -154 25 -159q12 -1 27 2q109 33 211.5 92.5t192.5 140.5t162.5 161t150.5 182q30 375 141 723q45 147 115 295q1 2 11 24.5t13 29.5t14 29.5t16.5 32t17 29.5t20 30t21 25.5t23.5 24t24.5 17
t27.5 12.5q104 31 120 -119q12 -120 -28 -286q-6 -28 -12 -44q-113 -334 -385 -735q-10 -17 -31.5 -48t-31.5 -48q-24 -221 -2 -396q21 74 43 133t54.5 121.5t78 112.5t102.5 84q27 17 54 25.5t57 2.5t49 -32q7 -8 12 -18t8.5 -18.5t5 -21.5t3 -20t1 -22.5t-0.5 -21t-2 -23
t-2.5 -20.5t-3.5 -22t-3 -20q-9 -49 -13 -113t-0.5 -142.5t32.5 -131t82 -51.5q37 1 81.5 29.5t82 66.5t79 91t66 89.5t49.5 75.5zM1184 1626q-146 -307 -219 -737q-4 -26 -13.5 -87t-13.5 -95q136 188 235 357.5t158 342.5q56 166 45 307q-2 25 -10 48t-20 39.5t-31 14
t-41 -29.5q-38 -46 -90 -160z" />
    <glyph glyph-name="c_k" unicode="ck" horiz-adv-x="1206" 
d="M1321 -217q4 1 6.5 -3t-0.5 -7q-72 -49 -163.5 -55.5t-169 21t-137 80t-73.5 113.5q-12 -282 -12 -409q0 -22 -18 -31.5t-36.5 -0.5t-19.5 32q-7 90 -8.5 183t3 203.5t9 176t13.5 195.5q-68 -103 -203.5 -224.5t-237.5 -138.5q-114 -19 -197 43t-77 178q6 95 53 181
t123 147q150 120 238 80q97 -45 10 -244q-9 -21 -24 -11q-17 11 -9 34t12.5 46t4.5 48.5t-9 40.5t-28 21t-54 -9q-63 -27 -118 -81t-88 -118q-20 -38 -31 -82t-5.5 -93.5t36.5 -78.5q41 -37 98.5 -38.5t105.5 19t93 54.5q166 125 311 310q9 49 26 181.5t36 254.5t49 265.5
t77.5 272.5t108.5 217q17 26 41 47t52 35t55.5 1.5t45.5 -54.5q67 -154 -30 -411q-71 -188 -177.5 -411t-209.5 -386q-1 -14 -4.5 -43t-4.5 -43q11 38 45.5 76t76.5 60.5t86.5 15t70.5 -55.5q20 -42 18 -90.5t-28.5 -97t-62.5 -87.5t-84 -63t-93 -22q48 -140 160 -209
q68 -41 171 -49.5t177 14.5zM866 866q-57 -334 -63 -383q14 27 59.5 108.5t73.5 135t72.5 140.5t73 156t56.5 148t41.5 149.5t12.5 129.5q0 20 -3 51t-14.5 64.5t-29.5 31.5q-9 -1 -18.5 -6t-18.5 -15t-17.5 -21t-18 -27t-16 -28t-15 -30t-13 -27.5t-11.5 -25.5t-9 -20
q-34 -77 -62.5 -176.5t-43.5 -170.5t-36 -184zM782 98q77 -39 176 80q62 79 49 149q-9 49 -48 57q-52 11 -108 -65q-8 -10 -15 -22q-23 -36 -36 -79t-20 -120h2z" />
    <glyph glyph-name="c_t" unicode="ct" horiz-adv-x="1218" 
d="M1849 1165q7 -1 7 -9t-7 -11q-16 -5 -160.5 -12.5t-350.5 -16t-244 -10.5q5 -359 -4.5 -708t-22 -604.5t-12.5 -352.5q0 -38 -23 -36t-40 35q-12 22 -11 46q18 599 29 1616q-29 -135 -61 -251.5t-80.5 -250t-104 -240t-133 -203.5t-166.5 -159q-33 -24 -61.5 -41.5
t-66.5 -35.5t-72 -26.5t-72.5 -8.5t-73.5 14q-73 28 -102.5 91.5t-18.5 138.5t43 152.5t78 140.5t90 95q27 21 57.5 37.5t67.5 28.5t69 1t50 -48q28 -57 -2.5 -126t-83.5 -120q-14 -14 -27.5 -0.5t-1.5 28.5q77 81 74 158q-3 41 -29.5 49.5t-60.5 -10.5q-173 -96 -232 -323
q-11 -41 -15.5 -68.5t1.5 -65t30 -61.5q66 -63 173 -18q86 34 163 92t136.5 127t112 158.5t91 176t72.5 189.5t57 189t45 184q-193 -4 -412 6.5t-216 38.5q1 12 10.5 18.5t25 8t29 1t29.5 -2t20 -1.5q346 -8 523 -4h8q22 127 32 217t25 299q2 21 19.5 30t34 0t16.5 -30
q0 -57 0.5 -253t-4.5 -255q69 3 295.5 10.5t255.5 6.5q7 0 32.5 -0.5t36 -1t33 -2t36 -3.5t31.5 -5.5t33 -8.5z" />
    <glyph glyph-name="d_d" unicode="dd" horiz-adv-x="1918" 
d="M2021 393q4 5 9.5 4.5t10 -5.5t3.5 -11q-24 -53 -56 -111.5t-81.5 -126.5t-101 -117t-114 -72t-120.5 -3q-131 44 -201 256q-65 -109 -108 -162q-103 -128 -197 -151q-58 -14 -110.5 6.5t-77.5 72.5q-20 47 -17 119q-78 -74 -162 -80q-40 -3 -74 13t-55.5 41t-39 63.5
t-27 70.5t-17.5 72q-7 29 -16 95q-13 -25 -24.5 -44.5t-33.5 -57t-43 -65.5t-48.5 -62t-55 -55t-57 -36.5t-59.5 -13.5t-58 20q-49 34 -58 104t11.5 136.5t54.5 112.5q34 45 83 71t104 23q65 -3 131 -35q2 0 2 -2q6 13 18.5 39t18.5 39q-1 25 -3 77.5t-3 77.5
q-15 365 12 594q14 121 23.5 188t37 171.5t66.5 177.5q85 152 172 143q124 -10 102 -293q-10 -201 -82 -471q-105 -404 -250 -717q6 -109 20.5 -191t51.5 -151q28 -50 65 -64.5t76.5 3t75.5 48t72 75.5q2 5 7.5 17t8.5 18q77 173 207 239q108 54 197 9q-44 327 14 704
q33 261 119 455q10 23 21 45t28.5 50t35 50.5t40.5 42.5t46 29.5t50.5 8t54.5 -18.5q45 -27 66.5 -89.5t25 -121.5t-10 -156.5t-22 -139.5t-28.5 -125q-3 -12 -4 -18q-112 -479 -295 -848q-14 -32 -20 -43q4 -20 8 -32q25 -94 58.5 -154.5t68.5 -85t75 -24t77 20t77 55
t72 73.5t64.5 84t52 77.5t36.5 61.5zM186 141q101 69 201 258q-2 1 -5 2t-5 2q-55 17 -74 19q-66 0 -104 -35q-83 -80 -80 -192q1 -30 7 -46.5t20.5 -21.5t39.5 14zM520 1139q-9 -170 2 -441q126 314 199 633q12 51 18 79.5t15.5 77t14 84t8.5 78.5t3.5 83.5t-4.5 78.5
q-3 27 -5.5 38.5t-9 27.5t-19 14t-31.5 -20q-46 -43 -72 -96q-99 -213 -119 -637zM1565 1718q-68 -103 -112 -251t-61 -291t-19.5 -294.5t4.5 -258.5t18 -185q17 37 36 86.5t41.5 111t32.5 87.5q178 492 209 842q8 94 -14 169q-31 103 -100 30q-16 -18 -35 -46zM1024 -25
q30 2 60.5 19.5t53.5 39t49 55.5t40.5 57t34.5 55q4 7 6 10q46 75 69 125q-15 72 -24 143q-48 12 -98 -5t-91.5 -55t-73 -80t-53.5 -85q-9 -17 -18.5 -42.5t-19.5 -59t-13 -65.5t1 -59t23.5 -41.5t53.5 -11.5z" />
    <glyph glyph-name="e_l" unicode="el" horiz-adv-x="1536" 
d="M1624 371q6 10 19 3t8 -18q-17 -41 -47 -95.5t-74 -118t-93.5 -122t-107.5 -104.5t-114 -70t-115 -14t-109 59q-76 73 -121 275q-102 -126 -225 -225q-226 -171 -395 -134q-90 19 -146 85t-65 159q-12 105 12.5 215t87.5 176q36 38 71 58t71 17t61 -36q31 -40 32.5 -96.5
t-24.5 -99.5q-34 -62 -94.5 -85t-132.5 -7q-10 0 -10 8q-13 -79 5.5 -166.5t74.5 -122.5q53 -32 113 -36.5t118 17.5t112 54t107.5 80t92.5 87.5t77 84.5q27 35 43 53q-3 13 -8.5 69.5t-11.5 165t-6.5 232t12.5 272t38.5 285.5t77.5 271t125 229q30 39 74 49t85 -12.5
t63 -71.5q39 -90 44 -205t-12 -211q-35 -267 -143 -561q-97 -270 -248 -494q7 -45 17 -80q8 -34 15 -59.5t20 -61.5t26 -60.5t33 -48.5t42 -35t51.5 -10.5t63.5 17.5q119 59 224 178.5t186 260.5zM266 449q-59 -21 -96 -86t-55 -146q3 6 12 6q70 2 122 29.5t64 89.5
q1 16 2 43.5t-12 49.5t-37 14zM938 367q149 224 238 497q115 357 124 594q4 86 -18 181q-28 116 -81 110q-28 -5 -60 -41q-110 -125 -172.5 -489t-30.5 -852z" />
    <glyph glyph-name="e_r" unicode="er" horiz-adv-x="1669" 
d="M1759 358q11 20 25 17q13 -3 4 -21q-102 -212 -305 -456q-18 -21 -36.5 -40.5t-44.5 -43t-51 -39.5t-55 -29.5t-57 -15t-57 5.5q-47 15 -76 51t-38.5 82t-8 92.5t13.5 91.5q16 62 54.5 163t63.5 188.5t26 168.5q0 40 -2.5 65.5t-17 56.5t-42.5 48q-44 29 -139 70
q-50 -145 -115 -291t-146 -290t-167 -252.5t-177.5 -178t-178.5 -68t-169 78.5q-42 43 -58.5 119.5t-7.5 162.5t41 173t79.5 153.5t116 102t143.5 20.5q78 -16 62 -115q-15 -98 -104 -209q-98 -122 -205 -156q-27 -9 -52 -10q-18 -175 67 -219q70 -34 144.5 -8.5t149 93
t145.5 164.5t133.5 205t113.5 214.5t84.5 193.5t47.5 142q-177 82 -199 196q-9 44 9.5 90t53.5 72.5t79 31.5t87 -32q96 -85 43 -307q60 -25 83.5 -35.5t64 -37t65.5 -58.5q45 -57 52 -148t-8.5 -166.5t-43.5 -152.5q-2 -6 -13.5 -34.5t-20.5 -53t-23 -63.5t-22 -71.5
t-16 -71t-7.5 -68.5t6.5 -56t23.5 -42.5t44.5 -20.5q49 -7 114 34t125.5 105t122.5 146t104 146.5t72 116.5zM264 461q-44 -27 -76.5 -68.5t-52.5 -95t-31.5 -98.5t-21.5 -107q103 29 195 153q72 99 84 179q10 64 -34 62q-24 -1 -63 -25zM989 1001q0 38 -1 58t-13.5 51.5
t-36.5 42.5q-48 21 -76.5 -8.5t-26 -77.5t30.5 -76q40 -42 113 -78q6 32 10 88z" />
    <glyph glyph-name="e_s" unicode="es" horiz-adv-x="1619" 
d="M1706 358q26 6 26 -5.5t-22 -20.5q-248 -110 -412 -228q1 -9 3.5 -28.5t3.5 -28.5q13 -250 -72 -379q-45 -68 -119.5 -112.5t-150.5 -40.5q-76 5 -114 65t-9 133q26 63 70 123t106 117.5t97 86.5t97 77q-2 21 -30 151q-4 14 -15.5 58.5t-15.5 61.5t-13.5 57t-13.5 61
t-10.5 56t-9 60t-4.5 56t-2 59q-25 -43 -49 -73q-157 -239 -313.5 -425.5t-338.5 -322.5q-39 -29 -68 -49.5t-70.5 -44t-72 -33t-66 -9.5t-60 17.5t-45.5 56.5t-31 101q-12 67 1.5 155.5t46.5 171t94 143t136 67.5q49 5 93 -11.5t63.5 -52t-8.5 -90.5q-49 -88 -144 -151
t-205 -95q-8 -52 -7.5 -97.5t12.5 -85t40 -51.5t74 3q104 41 231.5 149.5t243 243.5t222 280.5t181 270.5t107.5 205q8 20 28 21t34.5 -14t7.5 -34q-62 -160 -55 -278q5 -102 47 -261q35 -129 61 -278q124 80 214 122t206 70zM123 297q-33 -56 -51 -158q105 50 172 109
q103 78 112 139q5 24 -22.5 33t-60 5t-48.5 -13q-59 -34 -102 -115zM1122 -340q62 65 85.5 170t15.5 219q-233 -188 -301 -336q-42 -90 18 -112q49 -18 120 15q39 18 62 44z" />
    <glyph glyph-name="e_t" unicode="et" horiz-adv-x="1277" 
d="M1952 1153q22 2 26 -7q2 -5 -7 -8q-3 -1 -5 -1q-312 -66 -852 -62q-8 -306 -34.5 -839t-28.5 -820q0 -24 -19.5 -34t-39 0t-19.5 34q-3 12 0 23q3 475 78 1636q-7 0 -22.5 1t-22.5 1q-15 -44 -43 -149t-55 -205.5t-71 -230t-91 -238t-114.5 -212.5t-141 -170.5
t-172 -95.5t-207.5 -3q-77 19 -123.5 85t-44.5 152q0 160 91 310.5t242 211.5q54 20 92 -7t35 -87q-5 -131 -113.5 -241.5t-240.5 -106.5q-4 0 -8 4q-7 -39 -7.5 -72t5.5 -57t15 -43.5t23.5 -32t30 -21.5t35 -12.5t37 -5.5t37.5 -1t35.5 3t32.5 5q79 15 151 68t126 126.5
t103 170.5t83.5 193t66.5 201.5t52 188t40 161t31 111.5q-374 8 -510 6q-53 0 -74.5 16t0 32.5t74.5 17.5q169 2 535 -2q13 46 44 159t54 194t49 159q9 29 37 20.5t22 -37.5q0 -2 -1 -7t-1 -7q-10 -52 -17 -98.5t-12 -99.5t-7.5 -83.5t-6.5 -100t-6 -99.5q553 -4 834 6z
M328 465q-56 -19 -101 -52t-72 -64t-50 -76t-31.5 -69.5t-20.5 -63.5q-3 -9 -4 -13q12 4 31 13t65.5 39t77.5 65q71 79 106 169q21 55 2 53q-1 0 -3 -1zM1055 1149q8 90 10 135q-6 -22 -18.5 -68.5t-18.5 -68.5h27v2z" />
    <glyph glyph-name="g_g" unicode="gg" horiz-adv-x="1812" 
d="M1925 397q10 4 12.5 -6.5t-6.5 -13.5q-176 -93 -342 -238q0 -173 -10 -418q-6 -103 -23.5 -191t-52 -177t-93.5 -164t-140 -129q-30 -20 -63.5 -36.5t-73.5 -30t-79 -11t-67 24.5q-82 61 -74 221q7 113 42 218.5t74.5 179t122.5 170t132.5 145.5t157.5 150q47 44 71 67
q4 117 0 352q-78 -148 -180 -217q-31 -20 -65 -34.5t-74 -24.5t-78 -1.5t-63 37.5q-41 55 -33 148q-204 -140 -338 -266q-2 -43 -6 -130.5t-6 -130.5q-1 -8 -3.5 -44.5t-3.5 -47.5t-4 -44.5t-4.5 -48t-5.5 -44.5t-7 -47t-7.5 -44t-9.5 -46.5t-11.5 -43t-13.5 -44.5
q-61 -199 -231 -387q-58 -65 -135.5 -113t-153.5 -55q-43 -4 -75 11.5t-49.5 45t-25.5 64.5t-8 77q3 371 377 791q102 118 303 295q2 37 7.5 94t6.5 102q-39 -61 -61 -81q-28 -27 -63.5 -53.5t-80.5 -51.5t-89 -39.5t-90 -14t-82 20.5q-69 39 -88.5 102t4.5 126t70 119.5
t102 87.5q52 29 105.5 45.5t108 19t101 -24t72.5 -81.5q4 22 9 46t7.5 40t5.5 47q1 19 16 26.5t29.5 0t14.5 -26.5q0 -108 -9.5 -247.5t-11.5 -191.5q47 42 107.5 85t139.5 94.5t101 66.5q29 67 74 103q89 71 215 94q74 11 188 4q1 5 4.5 14.5t4.5 14.5q9 32 41 26t34 -37
q13 -199 2 -481q146 112 328 182zM582 426q23 40 34 76q-5 0 -8 6q-21 40 -60 55.5t-83 9t-91 -25t-85 -42.5t-64 -48q-130 -121 -61 -213q39 -49 119 -23q86 24 169.5 80t129.5 125zM573 -268q18 210 25 356q-14 -13 -47 -48t-55 -54q-171 -154 -299 -348
q-161 -243 -199 -435q-31 -165 4 -225q15 -22 40.5 -25t44 3.5t46.5 19.5l3 1.5t2.5 1t2.5 1.5q101 53 180 136t129.5 184t80.5 208t42 224zM1325 389q123 105 178 266q-22 -3 -46.5 -9t-55 -15t-45.5 -13q-123 -39 -168 -69q-31 -21 -60 -60t-39 -84.5t29 -76.5
q16 -13 39.5 -14.5t46 6t47.5 20.5t42 25t32 24zM1239 -868q53 42 94.5 92t68 98.5t46 113t29 116.5t16 128t8 128.5t3.5 138t5 137.5q-34 -38 -107.5 -112.5t-125.5 -128.5t-117 -140t-103.5 -164.5t-62 -183.5t-14.5 -213q3 -43 25.5 -64t53 -20.5t66 12t65.5 28.5t50 34z
" />
    <glyph glyph-name="g_h" unicode="gh" horiz-adv-x="1574" 
d="M1669 324q8 20 19 16q9 -5 4 -21q-36 -101 -130 -249.5t-169 -210.5q-51 -40 -91.5 -28.5t-67 52t-36.5 99.5q-5 29 -10.5 91t-11 121t-13 116t-20 91t-29.5 31q-35 -5 -90.5 -141.5t-67.5 -206.5q-13 -76 -29.5 -219.5t-23.5 -196.5q-3 -20 -30 -6q-28 18 -31 39
q-3 80 -9.5 235.5t-10.5 280.5t-3 238q-92 -119 -237 -289v-108v-120.5t-1 -106.5t-3.5 -124.5t-6.5 -113t-10 -128.5q-6 -53 -10 -84t-15 -85t-25.5 -89.5t-39.5 -74t-57 -62.5q-62 -41 -126 -29t-117 62t-69 113q-56 230 168 610q27 45 82.5 120.5t102.5 135.5t47 61
q0 6 1.5 27.5t0.5 34.5q0 18 3 57.5t3 59.5l-23 -33q-37 -49 -88.5 -83t-112.5 -45.5t-118 19.5q-62 34 -78 96t3.5 122.5t60.5 113.5q36 45 100.5 80t133 43t122.5 -27l6 -6q10 48 25 82q9 18 27 18t31 -14t7 -33q-14 -55 -18 -134t-6 -298q129 151 237 297q4 364 35 559
q43 271 121 428q14 28 31 52.5t41.5 49.5t50 38t57.5 17.5t64 -13.5q21 -10 35.5 -27t22.5 -33t11 -44t4 -44t-2.5 -49.5t-5 -43.5t-6.5 -42q-37 -203 -178 -477q-107 -196 -205 -336v-244q3 -132 0 -264q39 277 158 408q54 60 93.5 52t63 -61t31.5 -143q1 -16 3 -52
t4 -68.5t5 -73t8.5 -73t13 -61t19 -44t25.5 -15.5q127 4 350 408zM907 881q-9 -130 -12 -254q128 189 225 403q64 139 99 259t22 229q-9 86 -63 86q-50 0 -86 -39q-51 -58 -88 -168q-74 -231 -97 -516zM489 -430q18 307 13 514q-15 -19 -60 -87t-111 -174.5t-119.5 -224.5
t-64.5 -196q-30 -220 103 -279q158 -68 213 212q16 83 25 221zM489 455q5 18 21 116q-86 27 -184 -12t-142 -121q-55 -107 -18 -159q35 -53 104 -46q78 6 135 71.5t84 150.5z" />
    <glyph glyph-name="h_t" unicode="ht" horiz-adv-x="1437" 
d="M1942 1139q10 -1 11.5 -12.5t-7.5 -14.5q-47 -22 -179 -31.5t-306 -11t-191 -2.5q6 -287 -1.5 -760.5t-27.5 -859.5q-1 -27 -20 -17q-23 12 -31 44l-2 22q6 104 3.5 746.5t2.5 818.5q-77 0 -111 -2q-28 -76 -113.5 -335.5t-148 -407.5t-133.5 -240q-32 -41 -63.5 -56
t-57 -5t-45 34t-30.5 60q-27 83 -15 303q1 21 7 71t6.5 72.5t-3.5 69.5q-7 37 -26 51q-43 38 -119 -19q-95 -69 -158 -233q-76 -194 -90 -485q-2 -24 -20.5 -34t-36.5 0t-19 34q-13 223 -12 364.5t12 364.5q13 287 27 395q15 111 45 244q40 162 94 266q18 37 31.5 62
t38.5 64.5t48.5 64.5t56 46.5t65.5 26.5q39 7 67 -2t42.5 -31.5t22.5 -51.5t7 -66t-5 -71.5t-12.5 -72t-15 -63t-14.5 -49.5q-59 -201 -151 -342.5t-263 -323.5q0 -4 -4 -4q-4 -69 -5 -121t-0.5 -121.5t-0.5 -120.5q14 54 43 109q88 183 209 239q81 37 150 -3.5t69 -131.5
q-1 -37 -5.5 -126t-4.5 -138q0 -8 -2 -38.5t-2 -49t1 -46t5 -49t12 -38.5q33 -79 96 12q113 162 361 920q-14 1 -108 -0.5t-105 4.5q-29 8 -26.5 28.5t30.5 26.5q20 0 232 8q16 44 84 308t114 354q9 21 31 19.5t22 -25.5q0 -77 -11 -299.5t-13 -350.5q12 0 151.5 -1t292 0.5
t224.5 9.5zM268 1589q-45 -83 -76 -176t-48.5 -202.5t-25 -187.5t-16.5 -206q20 27 66.5 88t64 85.5t52.5 75t52.5 82.5t41.5 80.5t41 97t33 104.5q43 147 48 215q4 54 -7 96q-22 84 -103.5 2.5t-122.5 -154.5zM1202 1133q13 301 17 362q-24 -60 -51.5 -159.5t-65.5 -209.5
q24 1 49 3.5t51 3.5z" />
    <glyph glyph-name="i_s" unicode="is" horiz-adv-x="1169" 
d="M1270 362q20 8 19 -4q-2 -15 -23 -30q-114 -80 -184 -140t-119 -113.5t-64 -66.5q52 -189 64 -325q16 -187 -45 -283q-31 -50 -82.5 -84.5t-112 -33.5t-102.5 52q-98 116 -19 326q66 179 201 332l14 14q-57 207 -82 352q-11 60 -15.5 87.5t-5 83t12.5 94.5
q-10 -14 -29.5 -49t-42.5 -78t-54 -98t-63 -109t-69 -111t-73 -104t-74 -88t-72.5 -63t-69.5 -29t-63 14q-39 26 -57.5 70t-17.5 90.5t3 97.5q2 22 5.5 72.5t5.5 79.5t7.5 71t12.5 78q4 15 24 25q24 9 38 -1.5t12 -23.5q-4 -153 -19 -246q-6 -38 -7.5 -86.5t9 -103.5
t37.5 -66q34 -14 98.5 49t139 172t141.5 216t127 209t74 122q32 102 116 166q19 15 40.5 0.5t6.5 -35.5q-18 -26 -53.5 -77.5t-54.5 -77.5q-38 -121 2 -334q24 -120 76 -301q123 106 186 154t201 134zM754 -633q149 55 133 287q-9 116 -53 283q-91 -108 -154 -254
q-50 -108 -47 -193q0 -64 29.5 -104.5t91.5 -18.5zM170 643q-3 -20 -20 -25t-33.5 5.5t-18.5 29.5q-7 74 15 187q5 31 7.5 45.5t15 36.5t32.5 30q14 5 20 -4q7 -9 11.5 -20.5t6 -20t0.5 -23.5t-2 -21.5t-4.5 -24t-4.5 -21.5q-5 -29 -12.5 -87t-12.5 -87z" />
    <glyph glyph-name="i_t" unicode="it" horiz-adv-x="1048" 
d="M1638 1108q7 0 8 -6.5t-2.5 -13.5t-9.5 -9q-27 -9 -144.5 -15.5t-238.5 -8t-241 -3t-129 -1.5q11 -106 11.5 -369t-3.5 -517.5t0 -512.5q0 -19 -1.5 -57.5t-1.5 -70.5t3 -59q0 -17 0.5 -21t-3.5 -23t-5 -23q-3 -17 -20 -17.5t-27 11.5q-18 18 -23 79.5t-2.5 142t2.5 85.5
q-2 48 -2 1272q-14 -84 -43.5 -204t-73.5 -264t-100 -278.5t-117 -241t-131.5 -159t-136.5 -25.5q-53 22 -87 66.5t-47.5 95t-17.5 118.5t-0.5 122.5t7.5 122.5t4 104q-1 22 16.5 31t36 0t20.5 -31q4 -57 -1 -175t-1 -173q4 -49 14.5 -90t40.5 -78t76 -43q16 -2 36 10.5
t41 38t41 53.5t41.5 65t36 64t31.5 60t23 43q39 74 75.5 176t55.5 170t52 200.5t44 172.5q5 21 15.5 63t15.5 64q-24 0 -124.5 -2t-185 -2t-124.5 4q-23 1 -25.5 22.5t19.5 28.5q43 17 141 8q59 -5 314 6q6 34 16 115q-2 22 -6.5 70.5t-6 66.5t-3.5 55.5t0 59t6 55t12 65
t20 68.5q9 25 35 21.5t27 -29.5q4 -106 0 -171.5t-19 -185.5q-3 -21 -4 -32q1 -17 3 -48t3 -48q0 -7 1.5 -29t1.5 -29q110 -7 316 -8t224 -2q105 -6 221 0zM154 729q-4 -94 -38 -114q-23 -13 -39 22q-17 37 -9 104q3 23 0.5 43t1.5 40.5t20 33.5q11 8 29.5 7.5t21.5 -7.5
q8 -14 11.5 -32t3.5 -30.5t-1 -34.5t-1 -32z" />
    <glyph glyph-name="l_l" unicode="ll" horiz-adv-x="1298" 
d="M1378 326q6 12 14 14.5t10.5 -5t-3.5 -20.5q-23 -54 -53 -109.5t-75.5 -120.5t-94.5 -113.5t-111.5 -79.5t-124.5 -27q-197 14 -219 411q-5 -7 -29.5 -40.5t-33 -44.5t-28 -35.5t-36.5 -42t-37 -35.5q-233 -237 -370 -68q-117 143 -141 532q-22 356 40 721
q60 349 163 480q57 73 120 57q70 -18 78.5 -206.5t-32 -425t-117.5 -472.5t-161 -342q2 -9 7 -30q9 -42 15 -66.5t20.5 -69.5t29 -71t38.5 -55t50.5 -37.5t64 -3t80.5 33.5q55 36 108 90t86 98t83 117q-2 28 -3 87t-3 77q-3 586 110 1080q11 45 22 78t30 78t46 77.5t60 48.5
q64 28 104.5 -12t61.5 -115q30 -120 35 -243.5t-15.5 -243.5t-53.5 -231t-87 -229.5t-105.5 -215t-119.5 -211.5q0 -74 2 -120.5t14.5 -111t36.5 -112.5q75 -174 257 -36q111 84 221 245q32 48 46 76zM829 1104q-37 -280 -30 -625q140 262 182 357q138 303 141 561
q19 271 -49 395q-85 159 -170 -190q-48 -225 -74 -498zM295 1694q-48 -60 -89 -220.5t-62.5 -350t-28 -388t13.5 -334.5q150 321 208.5 614t65.5 621q4 108 -43 112q-29 2 -54 -32q-8 -11 -11 -22z" />
    <glyph glyph-name="l_s" unicode="ls" horiz-adv-x="1302" 
d="M1393 375q23 14 34 4q9 -8 -10 -21q-153 -109 -370 -309q24 -68 21 -151.5t-23 -161t-67 -147.5t-112 -111q-46 -29 -90 -12.5t-59 69.5q-19 72 1.5 154.5t68.5 155t94.5 126t93.5 95.5q-8 28 -26 81.5t-25 81.5q-37 124 -43 252q-18 -39 -55 -131.5t-68 -167.5
t-79 -166.5t-93.5 -152t-105.5 -98t-122 -29.5q-85 11 -145.5 83.5t-89.5 184.5t-41.5 253t-5.5 293t22 301.5t38 280.5t46 228.5t43 146.5q12 29 19.5 47t24 51.5t30.5 55t35 48t41.5 40.5t47.5 21.5t54 1.5q43 -8 74.5 -33.5t46.5 -59.5t24.5 -75.5t8 -82t-3.5 -77.5
q-14 -159 -94.5 -376.5t-180 -403t-196.5 -320.5q7 -113 22 -203.5t32 -144t39 -91.5t38.5 -54t34.5 -25q38 -18 74 -17.5t60.5 11t52 38t40 45.5t34 51.5t25.5 39.5q44 65 97 190t107 268t81 201q12 28 40 14.5t23 -40.5q-7 -44 -7 -91t3.5 -83t14.5 -87.5t19 -80t24.5 -87
t23.5 -83.5q137 125 359 260zM260 1358q-45 -184 -68 -356.5t-27 -278.5t-5 -303q19 36 70 129q34 63 53 98t55.5 105.5t58.5 118t53 120t48.5 128t36.5 126t26 130t7 124t-11 121.5q-9 45 -49 77t-82 5q-46 -28 -80.5 -90t-47.5 -105.5t-33 -128.5q-3 -14 -5 -20zM788 -467
q23 -30 81 37.5t100 193.5t20 236q-52 -45 -113 -133.5t-95 -183.5t7 -150z" />
    <glyph glyph-name="l_t" unicode="lt" horiz-adv-x="1308" 
d="M1825 1294q7 1 10.5 -6.5t2 -16t-8.5 -9.5q-192 -22 -353.5 -29t-246 -7.5t-121.5 -8.5q-2 -94 3.5 -489.5t3 -742.5t-22.5 -472q-4 -25 -27 -25t-27 25q-12 183 -11 457t5.5 705t3.5 542h-6q-8 0 -25.5 1t-25.5 1q-46 -125 -90.5 -270.5t-72 -239.5t-80.5 -226
t-126 -270q-50 -95 -131.5 -163.5t-179.5 -74.5q-143 -9 -211 210q-75 242 -44 669q27 382 119 672q84 263 178 294q21 7 42 1q49 -15 83 -58t47 -96t19.5 -111t-0.5 -102q-28 -222 -146.5 -528t-252.5 -469q-1 0 -3.5 -2.5t-4.5 -3.5q3 -50 13 -108t31 -131t62.5 -119.5
t96.5 -45.5q160 5 297 295q31 65 60 138t61.5 175t51 164t59.5 205.5t58 200.5q-2 0 -156.5 -0.5t-154.5 4.5q-55 31 32 44q25 4 207 16q61 4 95 9q2 5 8 29q38 130 54.5 189.5t37 166t25.5 193.5v74q0 17 15.5 24.5t30.5 0t15 -24.5q2 -264 -12 -658q97 1 229.5 -1.5
t247 -2.5t236.5 6zM346 1753q-59 -69 -109 -238.5t-77.5 -359t-39 -368t-1.5 -281.5q92 130 207.5 413t144.5 535q12 102 -20 214q-29 102 -71 104q-17 1 -34 -19zM1040 1290q1 34 4.5 97t4.5 94q-1 -5 -52 -191h23h20z" />
    <glyph glyph-name="o_l" unicode="ol" horiz-adv-x="1576" 
d="M1647 360q16 25 28 25q8 0 2 -14q-16 -39 -46.5 -89.5t-73 -103.5t-91.5 -100.5t-103.5 -79.5t-106.5 -42t-103.5 15t-91.5 88q-30 47 -47.5 147t-16.5 195.5t13 171.5q-27 -35 -120 -87.5t-214 -79.5q-3 -63 -24.5 -126.5t-55.5 -107.5q-151 -205 -298 -209
q-104 -4 -170 93q-68 97 -57 232q13 164 136 276q62 56 145 91q26 10 27 -10t-19 -33l-10 -4q-98 -30 -155 -171.5t-34.5 -268.5t122.5 -121q100 9 198.5 125t116.5 229q-109 10 -178 70q-59 58 -29 115t109 51q85 -4 129 -53t49 -123q120 31 206.5 80.5t133.5 101.5
q2 10 12 73q17 109 30.5 185.5t45.5 232t69.5 260t87.5 210.5t116 146.5t139 10.5q68 -29 32 -205q-133 -620 -450 -899q-1 -22 -5 -78t-6 -86.5t-3.5 -83.5t0.5 -86t7.5 -77t15.5 -73t26.5 -57.5t38.5 -45.5q60 -44 149.5 -4t177 121.5t146.5 172.5zM1296 1497
q-31 -84 -93.5 -324.5t-90.5 -445.5q46 44 96.5 119.5t94.5 163t84.5 183.5t68 184.5t43.5 161.5t13.5 120t-25.5 55q-37 4 -60 -12q-15 -9 -28 -19.5t-25 -27.5t-19.5 -27t-18 -34t-14 -31t-14.5 -35t-12 -31zM518 479q28 -10 80 -18q-7 63 -53 90q-9 6 -23 12.5t-32 12
t-33 2.5t-21 -17q-12 -27 19 -49.5t63 -32.5z" />
    <glyph glyph-name="o_r" unicode="or" horiz-adv-x="1554" 
d="M1663 391q2 3 6 4t6.5 -0.5t1.5 -5.5q-25 -66 -45 -115.5t-52 -119t-61.5 -120.5t-68.5 -105t-77 -87t-85 -53t-94 -16q-57 5 -94.5 29.5t-54.5 59.5t-21.5 83.5t2 96t19 103t26 97.5t27 86t18.5 63q10 47 11 83.5t-4.5 63.5t-23.5 54t-36.5 47t-52.5 51
q-27 -62 -60 -123.5t-80.5 -133t-98 -128t-114 -102t-127.5 -62.5q-33 -150 -121 -232.5t-208 -64.5q-74 11 -120 60t-59.5 115t-9 138t25 134t48.5 98q19 24 39 42.5t35 27.5t27.5 13.5t19.5 4t8 -3.5q2 -6 -8 -18.5t-22.5 -25.5t-14.5 -17q-105 -196 -70 -341
q22 -94 92 -124q73 -32 147 28q62 49 101 148q-65 -5 -112 21t-66 69.5t-22.5 92t13 93.5t46.5 70q77 58 134 29.5t88 -110.5t22 -173q55 13 124 73.5t127.5 139t106 158.5t68.5 139q-59 46 -66 55q-28 33 -35 89t5.5 111t42.5 102.5t69 64.5q87 38 103 -86
q13 -106 -23 -250q-12 -48 -25 -74q12 -12 43.5 -36.5t54.5 -49t42 -59.5q21 -38 27 -83.5t-3.5 -98t-20.5 -93.5t-31 -102.5t-28 -91.5q-19 -69 -20 -121t10 -79t31 -44t36.5 -21.5t32.5 -4.5q174 0 449 538zM461 190q9 47 -7.5 125.5t-56.5 104.5q-44 29 -78 -18
q-32 -46 -23 -109q11 -77 81 -99q37 -10 84 -4zM999 766q24 64 34 196q10 129 -17 123q-8 -2 -19 -18q-51 -73 -53 -184q0 -66 55 -117z" />
    <glyph glyph-name="o_s" unicode="os" horiz-adv-x="1363" 
d="M1473 393q17 5 16 -5q-3 -9 -14 -15q-22 -11 -44.5 -23t-40 -21.5t-41 -25t-36.5 -24t-38 -27.5t-34.5 -25.5t-37 -28.5t-33.5 -27t-36.5 -29.5t-35.5 -28.5q20 -85 23.5 -164.5t-19.5 -167.5t-78 -148q-23 -24 -50 -44.5t-60.5 -35.5t-67.5 -11t-60 32q-41 43 -42.5 106
t25.5 126t71.5 128.5t87.5 113.5t80 81q-5 20 -16 60.5t-20 74t-19 79.5t-15 84.5t-5 80t7 74.5q-207 -284 -383 -299q-2 -66 -29.5 -129.5t-72.5 -109t-99.5 -72t-117.5 -20.5t-119 48q-55 41 -75 117.5t-5 153.5t67.5 145.5t131.5 93.5q1 0 3 0.5t6.5 1.5t7 -1t5.5 -6
t0 -13q-1 -4 -4 -8.5t-6 -6.5l-2 -2q-68 -40 -105.5 -127.5t-24 -172t78.5 -112.5q88 -38 177 34t103 179q-70 2 -128.5 59t-67.5 138q0 2 -1 11.5t-0.5 19.5t3.5 24q18 76 85 63q62 -12 122 -86q63 -80 69 -167q36 4 74 21.5t64.5 35t66.5 55.5t56.5 56t59 66.5t50.5 58.5
q16 18 38 45t38.5 43t50.5 41q20 15 36 -5q15 -19 2 -34q-4 -4 -10 -6q-87 -59 -71 -209q13 -117 65 -318q172 132 394 205zM487 332q6 53 -43 139q-43 74 -79 84q-24 5 -35 -23q-7 -39 4 -73.5t31.5 -57t44.5 -39t44.5 -24t32.5 -6.5zM950 -317q124 132 76 364
q-36 -36 -87 -102.5t-94 -151.5t-30 -129q9 -34 36.5 -35.5t53.5 15.5t45 39z" />
    <glyph glyph-name="o_t" unicode="ot" horiz-adv-x="1378" 
d="M2017 1176q23 0 24 -9q1 -5 -9 -8h-2q-288 -61 -789 -57l-45 -1690q3 -16 -7 -33.5t-26 -17.5q-14 0 -23 26t-7 50q12 1050 24 1667h-41q-28 -110 -62.5 -213.5t-87.5 -219t-114.5 -206.5t-145 -163t-176.5 -101q-28 -99 -92 -165t-143.5 -75.5t-163.5 53.5
q-68 55 -74.5 170t47 232.5t146.5 175.5q97 118 188 100q72 -15 108 -109q48 -127 1 -313q86 45 154.5 105t119 129t94 165.5t76.5 196.5t70 240q-433 5 -514 4q-49 0 -69.5 15t-0.5 29.5t68 14.5q267 3 528 0q100 446 123 541q4 17 20 21.5t29 -6t10 -31.5l-12 -525
q490 -4 774 7zM193 51q56 -33 108.5 -8t88 68t48.5 84q-62 -7 -112.5 19t-76.5 73t-35.5 107.5t9.5 121.5q-67 -86 -88.5 -189t-2.5 -177t61 -99zM457 256q6 20 13.5 57t13 94t2.5 105.5t-25.5 84t-63.5 36.5q-75 2 -112 -79q-35 -78 -13 -168q23 -96 98 -124q39 -14 87 -6z
M1157 1169q2 33 2 101q-1 -3 -26 -101h24z" />
    <glyph glyph-name="p_p" unicode="pp" horiz-adv-x="1824" 
d="M1919 342q10 -3 8.5 -11.5t-12.5 -8.5q-38 0 -73 -1.5t-65.5 -5t-52.5 -6t-47 -7.5t-35.5 -7.5t-31.5 -8t-23 -5.5q-22 -71 -64.5 -132.5t-95.5 -97.5q-38 -26 -83.5 -43t-97.5 -13t-79 44q-21 28 -18 57t17 53.5t40.5 47t51.5 38t51 27.5q94 43 225 70q17 86 -8 151
q-19 46 -61.5 58.5t-84 1.5t-82.5 -35q-79 -43 -124.5 -124t-75.5 -191q-76 -293 -45 -1012q1 -22 -18 -34t-39 -5.5t-23 27.5q-28 213 -35.5 543.5t4.5 549.5q1 38 6 87t9.5 84t12.5 92.5t11 82.5q-15 -32 -38.5 -63t-42.5 -51.5t-58 -51.5t-56 -42.5t-65 -45.5
q-3 -97 -49 -194.5t-117 -155.5q-25 -20 -56 -36t-67 -26.5t-71 -5t-60 28.5q-25 24 -30.5 52t4 52.5t30.5 51t41.5 44.5t44.5 36q37 28 81.5 57.5t98 64t84.5 54.5q-4 117 -67 153q-40 22 -87.5 14t-90.5 -33t-70 -58q-32 -38 -57 -94t-37.5 -97.5t-28.5 -107.5
q-40 -178 -61 -418q-27 -307 -11 -668q2 -28 -25 -31q-29 -4 -45 20q-6 8 -7 17q0 2 -1 6.5t-1 6.5q-32 1012 32 1738q2 16 14 23q6 4 7 -4q33 -298 10 -793q14 77 37 164q17 63 30 103t39 93t58 89q39 46 97.5 74.5t117.5 34t112 -24.5t78 -95q14 -41 19 -71q60 42 91 65.5
t71 62t61.5 74.5t40.5 88t29 117q0 7 5 9.5t10.5 0t6.5 -9.5q6 -55 3.5 -140.5t-6.5 -141t-10.5 -141t-8.5 -140.5q-6 -103 -9 -194q43 255 142 387q35 48 94 88.5t123.5 61.5t126 0.5t94.5 -89.5q36 -74 23 -170q159 20 315 -4zM518 59q51 43 85.5 110t45.5 138
q-146 -98 -229 -166q-51 -46 -60 -57q-21 -24 -16 -55t41 -27q81 10 133 57zM1495 227q3 6 8.5 18t7.5 17q-125 -30 -194 -69q-33 -17 -71 -55q-66 -66 5 -77q69 -12 138.5 42t105.5 124z" />
    <glyph glyph-name="s_h" unicode="sh" horiz-adv-x="1343" 
d="M1389 328q9 15 19.5 7.5t0.5 -24.5q-12 -21 -39.5 -70t-45.5 -80.5t-47.5 -75.5t-54.5 -71.5t-56.5 -50.5t-61.5 -29q-43 -8 -75.5 6t-50 44.5t-29.5 70.5t-14 83t-4 83t1 70q2 61 -4.5 111.5t-23 84t-40 41t-60 -23.5t-79.5 -103q-8 -13 -15 -28t-12.5 -28.5t-10.5 -33
t-8.5 -31.5t-8 -35t-6.5 -33.5t-5.5 -36t-4.5 -33.5t-4.5 -35.5t-4.5 -32.5l-4 -201q-2 -35 -28.5 -35.5t-43.5 29.5q-7 13 -8 29q-4 45 -8 169.5t-2 149.5q11 259 14 301q-162 -218 -303 -379q27 -84 31 -181t-15.5 -187.5t-69.5 -165t-124 -109.5q-42 -20 -88 -25.5
t-91 12t-65 60.5q-11 25 -12 55t6.5 61t23.5 66.5t35.5 68t45 69t50 67.5t52.5 64.5t49.5 58.5t45.5 52t36 42q-16 47 -44 104t-40 87q-96 227 -39 376q32 84 98 109q63 23 107 -21q28 -28 37 -75q6 -29 -7 -62t-32.5 -52t-32.5 -13q-22 7 0 37q51 69 20 107q-23 29 -68 16
q-51 -14 -72 -72.5t1 -142.5q26 -99 78 -210t55 -120q174 182 340 397q25 316 66 537q49 279 102 418q42 108 69 149q49 69 110 76q65 6 103.5 -53t35.5 -125q-3 -70 -16 -143t-29.5 -134t-46.5 -135t-53.5 -125t-64 -126.5t-64.5 -117t-69 -118.5t-65 -111l-8 -178
q65 129 148 166q38 17 70 17.5t54.5 -12.5t40 -37t28 -52.5t17.5 -63.5t10 -66t3 -63q0 -11 -0.5 -66.5t1 -86.5t12 -73.5t30.5 -66.5q21 -22 50.5 -14.5t65 39.5t70 72.5t66 85t52 77t28.5 48.5zM936 1739q-44 -27 -85 -114.5t-69 -190.5t-54 -240t-40 -231t-28 -195
q-1 -13 -2 -20t-2.5 -16.5t-2.5 -16.5q45 78 57.5 99.5t60 109t68 133t57.5 131.5t54.5 146.5t32.5 136.5t16 141q0 19 -2 37.5t-8 41.5t-19.5 36.5t-33.5 11.5zM-16 -461q127 36 189 185.5t22 343.5q-90 -103 -169.5 -216t-107.5 -192q-8 -22 -10.5 -44.5t1 -45t22.5 -32
t53 0.5z" />
    <glyph glyph-name="s_k" unicode="sk" horiz-adv-x="1077" 
d="M1100 -270q10 -5 12.5 -9t-2 -6t-14.5 -2q-74 2 -144.5 52t-122 127t-88 158t-55.5 157q-1 -37 -5 -179t-4 -176t1 -180q0 -26 -25 -29q-27 -2 -41 22l-6 16q-17 143 -13.5 332.5t11.5 222.5q1 76 21 348q-27 -34 -100 -127.5t-130.5 -164t-130.5 -155.5q27 -84 31 -181
t-15.5 -187.5t-69.5 -165t-124 -109.5q-42 -20 -87.5 -25.5t-90 12t-66.5 60.5q-14 26 -15 58.5t10 68t28.5 72t43.5 75.5t51.5 74.5t57.5 74t56.5 67.5t52 60.5t41.5 49.5q-17 50 -94 236q-89 224 -30 382q34 90 101 120q60 27 102 -15q25 -26 34 -71q6 -29 -7 -62
t-32.5 -52t-32.5 -13q-22 7 0 36q50 70 24 111q-20 30 -60 19q-49 -13 -73 -75q-22 -61 -10 -147q10 -67 40 -147.5t64.5 -155t41.5 -94.5q170 192 397 483q2 21 6 55.5t6 55.5q27 221 34 269q88 568 261 640q57 24 123 -10q40 -21 49 -80.5t-1 -114t-28 -110.5
q-37 -114 -92 -221t-147.5 -256.5t-124.5 -206.5q-8 -61 -21 -246q20 75 93.5 123t139.5 25.5t66 -123.5q1 -92 -67 -176.5t-158 -122.5q2 -6 17 -48.5t21 -57t22 -55t28 -60.5t32 -55.5t40 -57.5t46 -49t56.5 -47.5t65.5 -36.5zM1028 1673q-40 14 -76 -15t-64 -93.5
t-51.5 -143t-42.5 -177.5t-33.5 -182.5t-27.5 -171.5l-3 -19.5t-2.5 -16.5t-2.5 -18q20 33 65.5 106t72 116.5t64 111.5t66.5 130q15 33 32.5 83t34 114t10 114t-41.5 62zM-14 -461q71 19 126.5 84t84.5 177.5t0 267.5q-90 -103 -169.5 -216t-107.5 -192q-8 -22 -10.5 -44.5
t1 -44.5t22.5 -31.5t53 -0.5zM688 231q7 21 25 27q75 24 155 113.5t64 165.5q-12 60 -87 -3q-67 -56 -122 -149q-42 -71 -35 -100v-54z" />
    <glyph glyph-name="s_l" unicode="sl" horiz-adv-x="1099" 
d="M1202 379q5 5 11.5 5t11.5 -5.5t2 -11.5q-16 -38 -39.5 -83t-57.5 -95.5t-71.5 -94.5t-82 -77t-88.5 -46.5t-91.5 1.5t-89.5 63q-96 109 -136 387q-53 -74 -146.5 -181t-145.5 -153q27 -84 28.5 -173.5t-21 -170.5t-74 -148t-126.5 -102q-43 -20 -91 -27t-93.5 10.5
t-59.5 63.5q-12 31 -9 66.5t11 68t27.5 67.5t40.5 66.5t49 64.5t54 60.5t56 55.5t53.5 49.5t47.5 42.5q11 9 16 14q-10 30 -90 223q-89 224 -29 370q34 82 101 106q62 22 106 -23q26 -28 35 -74q6 -29 -6.5 -62t-32 -52t-32.5 -13q-6 2 -9 5t-1.5 9t3.5 10t7 13
q41 73 13 108q-22 26 -59 8q-51 -25 -65 -103q-13 -70 12 -164q24 -87 67 -189.5t46 -111.5q44 39 152.5 157.5t158.5 184.5q-5 41 -9 78t-8.5 133t-2.5 180.5t14 202.5t36.5 218.5t70.5 208.5t110 191q28 35 69.5 45t79.5 -11t54 -67q27 -78 31 -168.5t-9 -174.5
t-41.5 -178.5t-60 -169.5t-73 -159t-71 -136t-64 -110.5t-42.5 -74.5q111 -850 553 -127zM-14 -461q126 44 192 176.5t33 302.5q-97 -80 -180 -178t-111 -174q-8 -22 -10.5 -46t1.5 -49t22.5 -33.5t52.5 1.5zM829 1649q-239 -274 -188 -1055q13 24 51.5 94.5t53 98.5
t47 92.5t47.5 101t38.5 97.5t35 108.5t22.5 107.5t16 119q8 93 -10 182q-26 135 -98 69z" />
    <glyph glyph-name="s_s" unicode="ss" horiz-adv-x="1093" 
d="M1217 403q17 5 16 -5q-3 -9 -14 -15q-22 -11 -44.5 -23t-40 -21.5t-41 -25t-36.5 -24t-38 -27.5t-34.5 -25.5t-37 -28.5t-33.5 -27t-36.5 -29.5t-35.5 -28.5q20 -85 23.5 -164.5t-19.5 -167t-78 -147.5q-23 -24 -50 -44.5t-60.5 -36t-67.5 -11.5t-60 32q-41 43 -42.5 106
t25.5 126t71.5 128.5t87.5 113.5t80 81q-5 20 -23 87.5t-29 115t-18.5 112.5t-1.5 113q-77 -129 -191.5 -268.5t-209.5 -210.5q27 -84 28.5 -173.5t-21 -170.5t-74 -148t-126.5 -102q-43 -20 -91 -27t-93.5 10.5t-59.5 63.5q-12 31 -9 66.5t11 68t27.5 67.5t40.5 66.5
t49 64.5t54 60.5t56 55.5t53.5 49.5t47.5 42.5q11 9 16 14q-10 30 -90 223q-89 224 -29 370q34 82 101 106q62 22 106 -23q26 -28 35 -74q6 -29 -6.5 -62t-32 -52t-32.5 -13q-6 2 -9 5t-1.5 9t3.5 10t7 13q41 73 13 108q-22 26 -59 8q-51 -25 -65 -103q-13 -70 12 -164
q24 -87 67 -189.5t46 -111.5q55 41 118.5 103.5t114.5 122.5t94 114.5t67 87.5l24 34q5 8 30.5 49t47 64.5t51.5 38.5q22 12 38 -9q14 -20 -2 -32q-3 -2 -8 -4q-87 -59 -71 -209q13 -116 65 -317q170 130 394 204zM-14 -461q126 44 192 176.5t33 302.5q-97 -80 -180 -178
t-111 -174q-8 -22 -10.5 -46t1.5 -49t22.5 -33.5t52.5 1.5zM694 -307q124 132 76 364q-36 -36 -87 -102.5t-94 -151.5t-30 -129q9 -34 36.5 -35.5t53.5 15.5t45 39z" />
    <glyph glyph-name="t_h" unicode="th" horiz-adv-x="1171" 
d="M1264 309q9 15 19.5 8t0.5 -24q-30 -50 -50.5 -83.5t-56 -82.5t-65.5 -80.5t-68.5 -58t-74.5 -33.5q-51 -10 -87.5 10t-52 58.5t-25.5 86.5t-8 95t1 84q2 61 -4.5 111.5t-23 84t-40 41t-60 -23.5t-79.5 -103q-8 -13 -15 -28t-12 -27.5t-10.5 -30.5t-9 -29.5t-7.5 -33
t-6 -30.5t-5.5 -34t-4 -32t-4 -34t-4.5 -32l-6 -197q6 -86 -24 -98q-20 -8 -35 22q-7 14 -9 31q-4 36 -9 196t-5 220q-71 -239 -145 -399q-21 -46 -45.5 -69.5t-46 -24.5t-40 11t-31.5 34.5t-18 48.5q-15 72 -19.5 226.5t0.5 323.5t12 327t13 261l7 103h-451q-55 0 -77 32
q-15 22 3 34q7 4 19 4q413 0 508 2q2 62 11 218.5t11 241.5q2 21 23 24t24 -18q18 -104 20 -234t-5 -237q160 0 313 3q43 247 96 389q41 107 67 145q47 74 111 80q21 2 40.5 -7t37 -31t28.5 -54.5t12 -83t-8 -111t-35 -142.5t-68 -175q128 7 239 18q7 1 10 -4t1.5 -11.5
t-7.5 -8.5q-118 -40 -264 -56q-17 -36 -81.5 -196t-120.5 -302l-56 -141l-4 -61q65 130 147 166q38 17 70 17.5t54.5 -12.5t40 -37t28.5 -52.5t18 -63.5t10 -66t3 -63q0 -14 -1 -64.5t0.5 -80t11.5 -68.5t30 -63q32 -32 83.5 -5.5t108 86t98.5 114t54 79.5zM733 1180
q121 270 120 439q0 96 -40 107q-41 11 -93 -75q-90 -152 -136 -477zM571 1106q-49 -251 -59 -467q26 66 88.5 215.5t106.5 261.5q-44 -5 -136 -10zM432 463q11 205 24 334t42 307h-303q-79 -1250 3 -1250q26 0 80 154q17 48 17 49q5 15 30 85.5t54.5 158t52.5 162.5z" />
    <glyph glyph-name="t_l" unicode="tl" horiz-adv-x="1136" 
d="M1237 356q6 10 18 4.5t7 -16.5q-20 -50 -56 -114t-86 -138.5t-110 -134.5t-122.5 -98.5t-129.5 -33.5t-125 62q-66 66 -103 207q-118 -234 -170 -299q-43 -54 -83.5 -75.5t-67 -17t-49.5 25t-33.5 38.5t-17.5 35q-19 51 -20.5 169.5t3.5 174.5q0 122 9 285.5t10 296.5v2
l12 375q-30 0 -220 3t-216 3q-55 0 -77 32q-16 22 2 34q7 4 19 4q66 0 226 -3t268 -1q4 92 14 493q2 21 23 24t24 -18q36 -208 25 -504q159 0 309 3q36 300 154 462q79 109 161 107q77 -1 117 -105q58 -152 6 -444q14 1 39 4t37 4q7 1 10 -4t1.5 -11.5t-7.5 -8.5
q-53 -18 -88 -25q-69 -359 -354 -924q3 -25 9 -55t17 -67.5t25.5 -70t35 -63.5t45.5 -47t56 -21t68 15q52 25 101.5 64.5t85 78t75.5 96t63.5 96t59.5 101.5zM391 -41q44 72 117 229q-56 379 2 916h-301q-9 -256 -16.5 -506.5t-10.5 -372t-4 -133.5q-3 -98 2.5 -163.5
t16 -98t29 -38.5t36 3.5t42.5 39t43.5 57t43.5 67.5zM782 1655q-61 -49 -102.5 -165.5t-71.5 -313.5q196 4 301 12q26 116 23 268q-3 219 -78 229q-31 2 -72 -30zM598 1108q-44 -359 -18 -782q208 375 317 815q-146 -27 -299 -33z" />
    <glyph glyph-name="t_t" unicode="tt" horiz-adv-x="942" 
d="M1122 1180q23 0 33 -27q10 -26 -7 -32q-3 -1 -7 -1q-92 0 -181 -2.5t-157 -3.5q-19 -240 -42 -751.5t-32 -878.5q-1 -30 -33 -47q-30 -16 -39 4q-2 5 -2 12q-5 284 21.5 826t50.5 833q-18 -2 -43 -2q-5 -13 -34 -151.5t-70 -306.5t-93 -340t-118.5 -284.5t-130.5 -107.5
q-54 4 -90 58t-51.5 143.5t-21.5 195t-1.5 226t11 222.5t12.5 198.5t5 140.5q-46 -5 -254 1.5t-305 12.5q-10 0 -8 8q1 3 4 4q43 15 304.5 26t265.5 11q6 73 13 205t15 217q3 24 35 39t40 -3q1 -3 1 -7q1 -93 -10.5 -237.5t-14.5 -209.5q109 2 236 2.5t221 2.5
q19 91 66.5 254t60.5 212q11 43 34 49q16 5 19 -17q1 -9 -2 -21q-6 -25 -11.5 -246t-6.5 -225q68 4 164 1t153 -3zM219 8q76 -71 159 145q53 139 149 543q71 297 104 414h-451q0 -35 -15.5 -340t-6 -509t60.5 -253zM733 1180q1 5 3 41t6 80t8 73q0 1 -9 -32t-22 -81t-21 -81
h35z" />
    <glyph glyph-name="u_r" unicode="ur" horiz-adv-x="1560" 
d="M1669 375q4 6 9.5 7t9 -2t2.5 -7q-51 -133 -119.5 -248.5t-155 -192t-162.5 -67.5q-53 7 -89 32.5t-52 61t-20.5 84.5t0.5 95.5t17 101t24 95.5t25.5 85t17.5 63q10 45 11 80t-4 61.5t-20.5 52t-33.5 45.5t-48 48q-11 -32 -41 -122q-124 -382 -205 -547
q-140 -282 -247 -199q-86 69 -101 305q-2 12 -2 37q-20 -62 -47 -109q-112 -223 -250 -174q-32 12 -54.5 38t-33.5 55t-17 69.5t-7 68.5t0 64q7 216 45 358q5 17 19 12.5t16 -20.5q2 -59 -3.5 -168.5t-5.5 -132.5q0 -5 -0.5 -33t-0.5 -47.5t1.5 -51.5t6 -54.5t11.5 -46
t19.5 -37.5t28.5 -17q23 -5 45 2.5t38.5 19t34.5 36t28.5 41t24.5 47.5t18 41.5t14 36.5q21 53 44 133.5t38 122.5q6 21 23.5 30t33 0.5t14.5 -30.5q-7 -80 -4 -219q0 -220 49 -297q59 -92 188 187q70 154 207 545q21 60 31 87q-5 2 -36 30t-41 41q-57 68 -34.5 149
t105.5 118q147 65 85 -247q-2 -10 -6 -29q-4 -21 -5 -27q5 -4 19 -17t20 -18.5t18 -17.5t19.5 -21t18 -21.5t19 -26.5t17.5 -30q26 -46 26.5 -110.5t-12 -114t-36.5 -128.5t-33 -116q-16 -69 -16 -122.5t11 -83t29 -48t34.5 -23.5t31.5 -4q42 5 86.5 34t81.5 68t80.5 102
t74.5 113.5t72 123.5zM1065 866q49 221 5 228q-13 2 -34 -17q-33 -29 -45 -61t5 -72t69 -78z" />
    <glyph glyph-name="u_s" unicode="us" horiz-adv-x="1615" 
d="M1714 371q25 6 24 -6q-2 -12 -20 -19q-241 -109 -385 -213l6 -53q12 -233 -67 -354q-42 -64 -111.5 -106.5t-140.5 -39.5q-71 5 -107 62t-8 125q19 48 54.5 98t65 83t82.5 79t73 61.5t71 54.5q-5 38 -28 144q-1 6 -11 44t-12.5 46t-11 42.5t-10.5 46t-9 42t-9 45.5
t-6 41.5t-5.5 45t-2.5 41.5t-1 44l-9 -22q-222 -597 -392 -770q-93 -94 -160 -42q-81 65 -97 314q-2 12 -2 37q-20 -62 -47 -109q-112 -223 -250 -174q-32 12 -54.5 38t-33.5 55t-17 69.5t-7 68.5t0 64q7 216 45 358q3 11 11.5 13.5t16.5 -2.5t9 -15q2 -56 -7 -158.5
t-10 -140.5v-27v-37.5t1 -40.5t3.5 -44.5t7.5 -40.5t12.5 -37.5t18.5 -27t25 -17.5q45 -15 88 27t60 78.5t41 98.5q2 5 3 7q18 46 99 272q4 15 17.5 23t27.5 7t25 -11t10 -27q-2 -17 -6 -59.5t-5.5 -61.5t-3 -52t-0.5 -63q0 -70 1 -106.5t11.5 -100.5t32.5 -98
q107 -162 496 771q98 234 100 237q12 17 31 18t30.5 -12t4.5 -31q-58 -148 -51 -260q4 -73 20.5 -155t43 -183.5t38.5 -165.5q116 75 199.5 115t191.5 66zM1169 -283q57 60 79.5 158.5t15.5 206.5q-80 -63 -163.5 -149t-119.5 -166q-41 -86 18 -106q47 -17 115 16
q34 17 55 40z" />
    <glyph glyph-name="u_t" unicode="ut" horiz-adv-x="1404" 
d="M2038 1167q25 0 24 -9q-1 -5 -12 -7q-288 -61 -788 -57l-45 -1690q3 -16 -7 -33.5t-26 -17.5q-14 0 -23.5 26t-7.5 50q10 936 25 1667h-41q-10 -28 -104 -338q-168 -557 -286 -737q-89 -136 -161 -91q-86 69 -99 275q-2 12 -2 37q-20 -62 -47 -109q-112 -223 -250 -174
q-32 12 -54.5 38t-33.5 55t-17 69.5t-7 68.5t0 64q7 216 45 358q3 11 11.5 13.5t16.5 -2.5t9 -15q2 -56 -7 -158t-10 -141v-23.5v-31.5t0.5 -34t2.5 -39t5 -37t8.5 -36.5t12.5 -30t17 -25.5t22 -15q41 -17 80.5 15t72 98t57 131.5t48 138t33.5 94.5q4 15 17.5 23t27.5 7
t25 -11t10 -27q-2 -20 -6 -59t-5.5 -58.5t-3 -51t-0.5 -61.5q0 -183 47 -266q47 -80 155 154q126 274 288 839q17 62 26 95q-433 5 -514 4q-49 0 -69.5 15t-0.5 29.5t68 14.5q268 3 529 0q100 446 123 541q4 17 20 21.5t29 -6t10 -31.5l-12 -525q512 -4 774 6zM1178 1161
q2 33 2 101q-5 -16 -27 -101h25z" />
    <glyph glyph-name="u_x" unicode="ux" horiz-adv-x="1597" 
d="M1620 571q9 -3 8.5 -15t-12.5 -11q-37 5 -81 -15.5t-81.5 -52t-82.5 -82t-74 -88.5t-67.5 -89t-51.5 -68q17 -39 28.5 -62.5t44 -82t64.5 -101.5t82.5 -95t105.5 -88q5 -4 4.5 -13.5t-6.5 -10.5q-22 -4 -81 30.5t-99 73.5q-64 62 -106.5 124.5t-88.5 154.5
q-138 -174 -252 -373q-7 -10 -20 -3q-18 12 -6 44q28 69 92 173t100.5 156t53.5 75q-93 217 -105 362q-10 -25 -26 -71.5t-31 -91.5t-35 -100.5t-41 -103t-45 -94t-50 -78.5t-53.5 -52t-59 -18.5t-62.5 25.5q-86 69 -99 275q-2 12 -2 37q-20 -62 -47 -109
q-112 -223 -250 -174q-32 12 -54.5 38t-33.5 55t-17 69.5t-7 68.5t0 64q7 216 45 358q3 11 11.5 13.5t16.5 -2.5t9 -15q2 -56 -7 -158.5t-10 -140.5v-27v-37.5t1 -40.5t3.5 -44.5t7.5 -40.5t12.5 -37.5t18.5 -27t25 -17.5q31 -10 61.5 5.5t56 51.5t48 79t42 96.5t33.5 95.5
t26.5 84t17.5 55q4 15 17.5 23t27.5 7t24.5 -11t9.5 -27q-10 -115 -8 -220q0 -60 1.5 -94t12.5 -86t33 -86q79 -120 235 235q27 61 117 295q11 29 17 42q-11 46 -12 85.5t3 55.5l5 16q17 23 29 25q5 1 13 0t13 -2l6 -2l11 -113q-6 -51 0.5 -110t25.5 -123.5t31.5 -100.5
t34.5 -92q3 4 42.5 57.5t59 79t63.5 76t75.5 78t73 53.5t77.5 31q18 3 31 -0.5t30 -12.5t27 -12z" />
    <glyph glyph-name="y_s" unicode="ys" horiz-adv-x="1554" 
d="M1647 356q24 13 31 2q4 -10 -11 -20q-19 -13 -120.5 -81.5t-142 -97.5t-115.5 -85.5t-134 -108.5q25 -74 38.5 -133t14 -138.5t-23.5 -146.5q-29 -83 -96.5 -144.5t-155.5 -86.5q-50 -13 -96.5 -12t-84.5 29.5t-53 80.5q-17 57 1.5 124.5t58 127t97.5 121t109.5 105
t104.5 81.5q-47 136 -57 197q-21 127 32 203q-22 -20 -224 -196.5t-292 -266.5q-26 -229 -45 -328q-16 -83 -24.5 -123.5t-27.5 -111.5t-44.5 -125t-58.5 -99q-44 -59 -104 -79.5t-116.5 -1.5t-93.5 71q-37 53 -37.5 119.5t31 134.5t77 136t104.5 133.5t109 117t95.5 96.5
t59.5 62q5 40 20 188.5t29 227.5q-20 -44 -28.5 -62t-27.5 -55.5t-30.5 -54t-32 -42t-38.5 -37.5t-42 -22.5t-51 -13.5q-44 -4 -77.5 7.5t-52.5 37t-31.5 56.5t-15 73.5t-2 79.5t7 83t11.5 75.5t12 66t9 45.5t7.5 14t12.5 5t13.5 -3t10.5 -10t3 -16q-1 -6 -5.5 -42t-8 -69
t-6.5 -80.5t-0.5 -87t9.5 -76.5t24.5 -61t43.5 -30q50 -3 107 66.5t95 152.5t75.5 172.5t44.5 101.5q12 22 36.5 12.5t18.5 -36.5q-19 -95 -30.5 -289t-26.5 -291q164 147 307 264t323 240q16 11 32.5 4t19.5 -21.5t-9 -27.5q-75 -62 -103 -126.5t-21 -130.5t44 -167
q51 36 100 68.5t109.5 69.5t92.5 56.5t111 66.5t104 62zM295 -772q101 222 145 594q-259 -259 -360 -447q-59 -110 -21 -193q26 -58 83 -67q68 -10 123 62q17 23 30 51zM977 -588q228 174 115 496q-20 -16 -43.5 -36.5t-58.5 -52.5t-66.5 -66t-64.5 -72.5t-55.5 -76.5
t-37 -74.5t-12 -70.5t23.5 -59q28 -31 91 -25.5t108 37.5z" />
    <glyph glyph-name=".notdef" horiz-adv-x="307" 
 />
    <glyph glyph-name=".null" horiz-adv-x="0" 
 />
    <glyph glyph-name="nonmarkingreturn" horiz-adv-x="682" 
 />
    <glyph glyph-name="NULL" horiz-adv-x="0" 
 />
    <glyph glyph-name="NULL" horiz-adv-x="0" 
 />
    <glyph glyph-name="CR" unicode="&#xd;" horiz-adv-x="307" 
 />
    <glyph glyph-name="space" unicode=" " horiz-adv-x="307" 
 />
    <glyph glyph-name="exclam" unicode="!" horiz-adv-x="479" 
d="M375 1421q9 22 28 23t32.5 -16t8.5 -39q-10 -46 -34.5 -148.5t-37.5 -160t-30 -143.5t-27 -159q-17 -122 -29 -242t-22 -242.5t-14 -168.5q-2 -8 -8 -8q-4 0 -4 6q-15 100 -15.5 223t6.5 217.5t21 222.5q1 7 9 77.5t10 85t10.5 77t13.5 86.5t14.5 76.5t18.5 83.5t22 72.5
t27 76.5zM213 16q5 1 21.5 -0.5t37 -8t28 -23t-4.5 -45.5q-10 -22 -21.5 -33.5t-33.5 -18.5q-17 -6 -34 1t-26 24q-15 24 -8 59q6 36 41 45z" />
    <glyph glyph-name="quotedbl" unicode="&#x22;" horiz-adv-x="356" 
d="M39 1407q5 19 17.5 29t25 3t16.5 -32q4 -33 0.5 -63.5t-13.5 -77t-13 -60.5q-12 -81 -28 -99q-9 -9 -19 -9q-20 0 -23.5 41t5 98.5t17.5 102t15 67.5zM246 1421q6 13 16.5 16t19 -7t7.5 -29q-1 -28 -4.5 -58.5t-10 -68.5t-8.5 -57q-5 -50 -11.5 -76t-25.5 -62
q-5 -9 -12 -6t-10 12q-10 20 -12.5 42t-2 33t6.5 42t8 41q1 9 6.5 44t8.5 50t9.5 40t14.5 44z" />
    <glyph glyph-name="numbersign" unicode="#" horiz-adv-x="835" 
d="M737 565q29 -3 29 -30.5t-29 -30.5q-92 -10 -168 -10q0 -21 1 -60.5t1 -58.5q0 -45 2 -68q45 -2 138 -2q19 0 27 -15.5t0 -31.5t-27 -16q-22 1 -68 2t-68 2q4 -154 -10 -228q-3 -17 -24 -17t-25 17q-15 93 -8 230q-142 4 -211 0h-12q-4 -162 -43 -236q-7 -14 -26.5 -12.5
t-22.5 18.5q-3 48 -3.5 59t6 59.5t7.5 60.5q1 7 2 23t2 24q-61 -3 -117 -15q-7 -2 -22.5 -7t-24 -7.5t-21 -2t-22.5 6.5v2q12 63 211 78q4 70 4 109q0 16 1 46t1 46q-56 4 -176 8q-17 1 -23.5 13.5t0 25.5t23.5 14q30 1 88.5 4t87.5 4q3 111 0 219q0 17 13.5 24t27 0
t14.5 -24q14 -163 15 -215q190 5 227 5q1 24 2 74.5t2 74.5q4 18 17 21q2 2 6 2q1 2 6 -2q16 -3 16 -21q4 -102 4 -149q75 -3 170 -13zM512 375v117q-112 0 -223 6q0 -84 -2 -125v-70q74 4 223 4q0 11 1 34t1 34z" />
    <glyph glyph-name="dollar" unicode="$" horiz-adv-x="536" 
d="M436 254q67 -101 39 -180q-14 -44 -62.5 -77.5t-97.5 -43.5q-3 0 -9 -1t-9 -1q3 -107 -8 -195q-1 -14 -18 -14t-19 14q-10 63 -10 195q-85 8 -153.5 63.5t-88.5 137.5q-3 14 10 21t23 -3q15 -16 43.5 -51t47.5 -55.5t51 -39.5t67 -20q4 122 4 182q-1 31 -2 95.5t-2 95.5
q-38 34 -57.5 52t-48.5 50.5t-48 63.5q-64 101 -31 190q17 42 57.5 77.5t82.5 45.5q28 4 41 4q-4 92 6 133q3 9 12 9t12 -9q11 -47 11 -135q68 -11 116.5 -59t55.5 -117q0 -6 -6.5 -7t-8.5 5q-12 55 -56.5 92.5t-100.5 42.5v-6q4 -88 8 -272q0 -80 2 -121q104 -96 147 -162z
M139 571q31 -44 103 -112q0 14 -1 40t-1 38q0 46 -1 138t-1 138q-15 0 -27 -6q-81 -27 -101.5 -98.5t29.5 -137.5zM416 84q27 51 -21 127q-34 53 -106 121q2 -57 2 -170q1 -26 3 -76t3 -76q38 7 71.5 26t47.5 48z" />
    <glyph glyph-name="percent" unicode="%" horiz-adv-x="696" 
d="M557 1004q4 10 14 7t7 -14q-56 -190 -129.5 -371t-171 -397t-154.5 -358q-7 -18 -23 -20t-26 11.5t-2 31.5q49 110 156.5 346.5t181 406t147.5 357.5zM178 446q-35 -26 -73 -29t-67 19.5t-36 67.5q-6 37 5.5 80t39.5 65q22 33 60.5 35t72.5 -31q45 -45 47.5 -105.5
t-49.5 -101.5zM41 528q3 -45 31.5 -60t68.5 9q35 23 39 63t-24 72q-31 31 -54 31q-14 0 -26 -8q-39 -41 -35 -107zM629 358q34 -51 18 -109t-74 -81q-37 -11 -73 -11t-59 25.5t-15 69.5q7 47 43 90q8 24 29.5 43.5t44.5 20.5q25 3 48.5 -11t37.5 -37zM520 203q46 10 69.5 42
t0.5 72q-18 36 -43 33q-8 -1 -15.5 -4t-11 -5.5t-11 -9.5t-9.5 -9q-11 -11 -23 -35q-11 -24 -12 -44.5t12.5 -33t42.5 -6.5z" />
    <glyph glyph-name="ampersand" unicode="&#x26;" horiz-adv-x="962" 
d="M891 221q3 -47 -10 -76t-34.5 -40t-56 -11t-66.5 5.5t-74 15.5q-5 1 -7 2q21 -52 10 -110t-41 -101q-49 -75 -137 -112.5t-184.5 -26t-167.5 70.5q-68 57 -98.5 122.5t-24.5 127t36.5 121t81.5 107.5t113.5 84t128.5 53q-59 26 -105.5 63.5t-77.5 84.5t-29.5 105
t40.5 117q34 50 100 69t122 -1q58 -21 86 -61t34 -103q0 -2 -6 -6t-13 -1t-9 19q-5 44 -34 76.5t-69 43.5t-80 7t-72 -33.5t-40 -78.5q-22 -137 164 -239q55 -30 127 -54v0h6q13 -2 18 -16t-2.5 -26.5t-23.5 -10.5q-155 15 -324 -132q-43 -38 -69.5 -90.5t-29.5 -112
t33 -112.5q61 -92 159.5 -121t197.5 21q58 31 98.5 84.5t34.5 111.5q-3 33 -18.5 54.5t-48.5 28.5t-83 -21q-12 -4 -16 -2l-4 8q-1 8 4 14q37 35 91 38.5t105 -9t100 -22t88 7.5t58 71q1 5 5.5 6t9 -2t4.5 -8z" />
    <glyph glyph-name="quotesingle" unicode="'" horiz-adv-x="137" 
d="M98 1407q4 -33 0.5 -63.5t-13.5 -77t-13 -60.5q-12 -81 -28 -99q-9 -9 -19 -9q-20 0 -23.5 41t5 98.5t17.5 102t15 67.5q5 19 17.5 29t25 3t16.5 -32z" />
    <glyph glyph-name="parenleft" unicode="(" horiz-adv-x="339" 
d="M446 1057q4 -1 4 -7t-4 -6q-73 -6 -132.5 -45t-97 -92.5t-65.5 -124t-41.5 -131.5t-22 -124t-10 -91.5t-1.5 -42.5q22 -558 356 -694q4 -3 3.5 -9t-5.5 -9q-43 -20 -143 45.5t-168 175.5q-108 177 -119 495q-6 237 96 434q47 92 115.5 150t128.5 73.5t106 2.5z" />
    <glyph glyph-name="parenright" unicode=")" horiz-adv-x="550" 
d="M354 831q103 -199 97 -434q-11 -318 -119 -495q-44 -74 -109.5 -131t-120.5 -80t-82 -10q-5 3 -5.5 9t3.5 9q335 136 357 694q0 15 -1.5 43t-9.5 91t-22 123.5t-42 131.5t-65.5 124.5t-97.5 92.5t-133 45q-4 0 -4 6t4 7q46 13 106 -2.5t128.5 -73.5t115.5 -150z" />
    <glyph glyph-name="asterisk" unicode="*" horiz-adv-x="636" 
d="M578 1182q10 -3 10 -14.5t-10 -14.5q-45 -16 -108 -16.5t-112 6.5q22 -22 63.5 -64.5t61.5 -62.5q23 -23 1 -45t-46 -2q-47 41 -133 131q-1 -15 -3 -44.5t-3 -45.5q0 -3 0.5 -18t0 -21.5t-1.5 -17.5t-4.5 -19.5t-8.5 -15.5q-7 -14 -22.5 -14t-24.5 14q-26 39 -9 169
q-8 -9 -35.5 -41t-41 -47t-38 -35t-46.5 -30q-4 -3 -10.5 -0.5t-6.5 8.5q2 17 7.5 34t17 35t20 30.5t26.5 31.5t25 26.5t29 28t25 23.5l6 6q-75 5 -197 23q-8 1 -10 7t1.5 11.5t10.5 5.5q64 2 195 -2q-88 88 -178 137q-12 6 -5.5 21.5t19.5 9.5q101 -38 197 -121
q0 68 -7 164q0 13 9 19t20.5 4t18.5 -11q30 -42 30 -172q127 115 131 119q19 17 36.5 -0.5t0.5 -36.5q-92 -92 -137 -135q14 0 72 1t94.5 -3t69.5 -16z" />
    <glyph glyph-name="plus" unicode="+" horiz-adv-x="669" 
d="M541 395q21 -2 30 -19.5t0 -34t-30 -15.5q-90 7 -215 4q-1 -43 -5.5 -129.5t-5.5 -130.5q-1 -18 -16.5 -26t-31 0t-15.5 26q0 86 12 258h-33q-98 -4 -149 -6q-5 0 -18.5 -2t-21.5 -2.5t-19 1t-19 7.5q-4 2 -4 8q0 2 1 5.5t1 4.5q3 13 16 16q107 32 248 39q2 85 -14 260
q-1 13 14 17.5t21 -6.5q19 -36 28.5 -86.5t11 -84t1.5 -93.5v-5q76 2 213 -6z" />
    <glyph glyph-name="comma" unicode="," horiz-adv-x="294" 
d="M78 119q19 43 44.5 55.5t45.5 0.5t33.5 -33.5t11.5 -41.5q-8 -80 -64 -146t-104 -85q-7 -3 -12 1.5t-5 10.5t5 10q32 18 50.5 42.5t41.5 68.5q-19 4 -29 16q-43 46 -18 101z" />
    <glyph glyph-name="hyphen" unicode="-" horiz-adv-x="624" 
d="M520 389q11 -5 13 -18t-9 -19q-19 -10 -40 -16t-46.5 -8t-42 -2.5t-49 0t-43.5 0.5q-165 -4 -278 6q-16 1 -22 13.5t0 24.5t22 13q54 3 150.5 6t127.5 4q18 0 68 5t84 3.5t65 -12.5z" />
    <glyph glyph-name="period" unicode="." horiz-adv-x="309" 
d="M225 102q6 -39 -14 -70t-55 -34q-32 -3 -48 27.5t-8 66.5q9 36 34 59.5t52 6.5q4 -4 4 -6q29 -16 35 -50z" />
    <glyph glyph-name="slash" unicode="/" horiz-adv-x="559" 
d="M547 1069q3 7 13 10t17.5 -3t2.5 -21q-171 -494 -500 -1327q-14 -37 -48 -38q-26 0 -32 19q-3 9 2 19q79 176 172.5 424t186.5 486.5t186 430.5z" />
    <glyph glyph-name="zero" unicode="0" horiz-adv-x="641" 
d="M430 838q66 -68 106 -201.5t35 -259.5q-23 -544 -282 -584q-63 -10 -114.5 10.5t-84 64.5t-52.5 96t-28 112q-21 143 -0.5 296.5t76.5 293.5q117 283 270 217q2 0 2 -2q47 -11 72 -43zM248 -150q57 0 102.5 28t74.5 73.5t49.5 105.5t29.5 121t13 121.5t2.5 106t-5.5 75.5
q-54 363 -183 358q-66 -2 -134 -94q-7 -9 -13 -18q-94 -177 -106 -453q1 -37 -0.5 -88.5t9 -110t26.5 -108.5t51 -83t84 -34z" />
    <glyph glyph-name="one" unicode="1" horiz-adv-x="466" 
d="M410 -129q6 -3 6.5 -11t-4.5 -12q-21 -20 -52.5 -29t-55.5 -9.5t-65 1t-59 1.5q-97 -5 -131 2q-20 4 -28.5 15t1.5 24t37 22l117 6q6 77 14.5 230.5t15 246.5t22.5 222t40 237q-99 -61 -137 -92q-1 -1 -16 -15t-21 -19t-19 -10.5t-24 -4.5q-15 -2 -21 14.5t9 26.5
q19 14 54 45t54 45q17 13 72 51t84 60q18 13 35 -2t12 -35q-27 -115 -43.5 -252.5t-21.5 -237.5t-11.5 -261.5t-11.5 -244.5q41 -8 64.5 -4.5t45 3t38.5 -12.5z" />
    <glyph glyph-name="two" unicode="2" horiz-adv-x="518" 
d="M442 -127q13 -2 12 -15t-12 -18q-53 -22 -125 -27t-143.5 -10.5t-124.5 -27.5q-18 -7 -33.5 6t-15.5 31q-1 79 25.5 157t69 146t87 132t88.5 139t66 142q41 129 46 186q6 66 -17 105q-22 38 -56.5 42t-70 -19t-68.5 -56.5t-54.5 -71t-23.5 -63.5q-1 -5 -5 -7t-7.5 0
t-3.5 7q0 86 71.5 171.5t157.5 84.5q57 0 91 -36.5t43.5 -85t2.5 -103.5q-23 -194 -155 -403q-12 -19 -48.5 -73.5t-54 -83.5t-43 -76.5t-39.5 -90.5t-20 -86q136 38 360 4z" />
    <glyph glyph-name="three" unicode="3" horiz-adv-x="538" 
d="M264 436q81 -41 140.5 -122t78.5 -173.5t-8 -183.5q-28 -78 -89 -127.5t-142 -56.5q-33 -3 -71.5 2t-76.5 18t-65 40.5t-31 64.5q-1 9 8.5 13.5t14.5 -1.5q48 -66 138 -78t168.5 35t94.5 133q14 82 -15.5 171.5t-96 155t-150.5 74.5q-20 3 -28.5 19t0 31.5t28.5 17.5
q58 4 113 52.5t80.5 117.5t4.5 125q-21 55 -87.5 75t-116.5 -8q-41 -22 -43 -53t23.5 -56.5t62.5 -39.5q5 -2 6.5 -7t-0.5 -9t-8 -4q-49 2 -90.5 26t-56.5 63.5t24 92.5q50 63 146.5 65t152.5 -53q64 -64 62 -144t-50.5 -156.5t-120.5 -119.5z" />
    <glyph glyph-name="four" unicode="4" horiz-adv-x="671" 
d="M684 428q11 -8 7.5 -23t-17.5 -14q-70 4 -99 8v-22q-4 -85 -5.5 -177.5t-1.5 -215t-1 -177.5q0 -20 -15 -28t-30.5 0.5t-17.5 27.5q-6 53 -8.5 109t-1 121t3 108t5.5 121.5t5 110.5v29q-102 8 -154 6q-48 -1 -156 -7t-167 -6q-22 0 -29.5 22.5t12.5 33.5q144 68 305 194
q5 4 36.5 29t48.5 38.5t45 41t42.5 48t24.5 47.5t6 50q0 13 4 15q2 4 4 4q0 2 5 2q2 0 2 2q0 1 1 4.5t1 5.5q3 14 20.5 14t20.5 -14q4 -26 6 -52.5t2.5 -58.5t0.5 -51.5t-1.5 -59t-1.5 -52.5q0 -4 -6 -193q57 -12 104 -41zM520 662q4 74 4 112q-44 -61 -131 -133
q-128 -106 -237 -176q221 12 223 12q65 3 133 0q4 126 8 185z" />
    <glyph glyph-name="five" unicode="5" horiz-adv-x="724" 
d="M723 874q17 -29 -179 -37t-237 -1q-4 0 -10 6q-6 -26 -33 -86q-17 -36 -54.5 -104.5t-53.5 -100.5q219 56 362 -43q90 -61 122 -161.5t5 -211.5q-31 -121 -111 -216.5t-194 -129.5q-49 -17 -103.5 -14t-102.5 18.5t-84.5 54t-49.5 93.5q-1 7 5.5 11t12.5 -1q12 -9 38 -31
t41.5 -34.5t40.5 -25.5t50 -18q97 -19 185 31q91 51 149 137.5t68 190.5q7 81 -19 143t-75.5 97.5t-113.5 52t-134 12t-137 -28.5q-19 -6 -29.5 10.5t-3.5 32.5q14 31 30.5 60.5t43.5 74t34 56.5q123 185 99 200q23 -16 96 -16q28 1 118 6t132 4q75 0 92 -31z" />
    <glyph glyph-name="six" unicode="6" horiz-adv-x="696" 
d="M643 115q10 -70 -11 -132t-63.5 -103t-100.5 -69.5t-123 -32.5t-130 9q-76 18 -125.5 63t-69 102.5t-20.5 127.5t13.5 136t39.5 130q36 89 91.5 177t126.5 167t159.5 138t179.5 81q3 0 4.5 -3.5t-2.5 -4.5q-149 -79 -264.5 -201t-189.5 -276q-23 -49 -43 -100t-36 -120.5
t-16 -127.5t25 -111t78 -80q56 -29 128.5 -31t135.5 20.5t105.5 76t39.5 125.5q-4 71 -50 107t-110 35.5t-128 -18t-109 -46.5q-9 -4 -14.5 4t0.5 14q52 62 126 91t154 20q72 -8 130.5 -53.5t68.5 -114.5z" />
    <glyph glyph-name="seven" unicode="7" horiz-adv-x="534" 
d="M518 909q22 0 33 -19t0 -38q-176 -315 -289 -571q-73 -169 -117 -306q-30 -95 -43 -151q-10 -48 -43 -64q-11 -6 -16 2q-16 20 -16.5 53t6.5 57.5t21.5 66t17.5 51.5q50 147 118 301q36 82 83 174t109 206.5t91 170.5q-21 -1 -128.5 -5t-118 -2.5t-128.5 3.5
q-30 0 -35 16q0 1 -1 2t-1 2v6v4q0 1 1 2t1 2q6 21 31 25q243 12 424 12z" />
    <glyph glyph-name="eight" unicode="8" horiz-adv-x="614" 
d="M438 426q177 -164 70 -344q-118 -199 -252 -289q-40 -27 -86 -36t-90 7.5t-66 61.5q-13 27 -13.5 61t7.5 63t25.5 65.5t31 58.5t33.5 53q43 69 109 152q32 60 102 141q-10 5 -67 39q-56 33 -91 81.5t-38.5 106.5t41.5 115q60 74 163.5 129.5t180.5 30.5q45 -14 64 -55.5
t13 -93t-19 -96t-30 -79.5q-40 -79 -110 -152q16 -12 22 -20zM229 737q-40 -43 -47.5 -78.5t23.5 -69t53.5 -49.5t79.5 -48l7.5 -4.5t7 -4t7.5 -4.5q70 80 103 156q5 12 11.5 30t14.5 45t11 52.5t1.5 48t-14.5 35t-36 10.5q-52 -6 -117.5 -42.5t-104.5 -76.5zM444 119
q26 45 30 85.5t-12.5 73.5t-41.5 58.5t-62 50.5q-16 -14 -49 -47q-113 -158 -176 -274q-59 -111 -59 -172q0 -37 28 -58t64 -8q140 48 278 291z" />
    <glyph glyph-name="nine" unicode="9" horiz-adv-x="653" 
d="M590 887q14 18 37 9.5t14 -32.5q-9 -31 -16 -47q-27 -90 -37 -200.5t-15 -232.5t-18 -204q-12 -64 -27 -116t-41 -111t-68 -102.5t-97 -65.5q-48 -17 -94 -15.5t-85 23.5t-70.5 53t-49.5 73.5t-23 85.5t9.5 88.5t47.5 82.5q2 2 5 1.5t5 -2t1 -3.5q-1 -16 -5.5 -61.5
t-4 -66.5t4 -55.5t18.5 -60.5t40 -49q56 -50 126 -45t122 60q42 45 70.5 104.5t42.5 130t19.5 126.5t8.5 132q1 22 3 62.5t4 74t5 62.5q-165 -291 -327 -144q-53 47 -61.5 106.5t18.5 113.5t79 100q27 24 56 45.5t69 46t76 37.5t77 19.5t73 -7.5q12 -4 8 -16zM569 829
q3 14 17 50q-2 -2 -4 -2q-93 -30 -160 -61.5t-123 -80.5q-31 -27 -54.5 -57.5t-39 -67t-3 -71t55.5 -58.5q19 -11 39.5 -11t36.5 5.5t34.5 21.5t30.5 28.5t28.5 36t23.5 35t20 32.5q61 103 98 200z" />
    <glyph glyph-name="colon" unicode=":" horiz-adv-x="247" 
d="M139 397q17 -20 2 -61q-6 -24 -24 -39q-28 -26 -88 -18q-11 3 -15 20q0 27 2 37q-1 21 9.5 42.5t25.5 29.5q24 10 43 8q33 -5 45 -19zM96 154q32 -18 35 -50q6 -42 -15 -74.5t-57 -35.5q-33 -3 -49 29t-8 71q9 36 35.5 60.5t54.5 5.5q1 -1 2 -3t2 -3z" />
    <glyph glyph-name="semicolon" unicode=";" horiz-adv-x="196" 
d="M139 403q19 -25 8 -57q-10 -41 -44 -54.5t-66 1.5q-10 5 -10 12q-12 64 14 96q21 27 53 17q31 8 45 -15zM96 160q23 -11 31 -31q11 -23 9 -50.5t-15 -47.5q-14 -35 -43 -64q-52 -52 -90 -47q-2 0 -3.5 3t1.5 5q6 7 30.5 30.5t36.5 39.5q1 1 2 3t2 3q-16 2 -34 11.5
t-21 23.5q-8 44 21 92q17 25 67 29h6z" />
    <glyph glyph-name="less" unicode="&#x3c;" horiz-adv-x="755" 
d="M680 182q14 -15 3 -34t-32 -15q-29 8 -79 34t-72 34q-78 29 -152 49q-150 43 -325 86q-19 5 -23 27.5t16 31.5q75 32 196 95t227.5 111t205.5 73q6 2 9 -2t2.5 -10t-5.5 -9q-82 -33 -168.5 -78t-193.5 -106t-162 -90q173 -35 266 -66q2 -1 46 -13.5t56.5 -17t49.5 -18
t54.5 -23.5t41.5 -26t39 -33z" />
    <glyph glyph-name="equal" unicode="=" horiz-adv-x="622" 
d="M8 467q-11 6 -8 18q4 9 11 16.5t18 12.5t21 9.5t25.5 7t25 4.5t27.5 3t25 1.5t24.5 1t19.5 0.5q45 3 147.5 2.5t147.5 3.5q21 1 30 -16.5t0 -36t-30 -19.5q-66 -1 -90.5 -1t-91 2t-91.5 3q-109 0 -147 -8q-5 -1 -13.5 -3.5t-13 -3.5t-11 -1.5t-13 0.5t-13.5 4zM524 307
q19 2 27 -13t0 -31.5t-27 -18.5q-182 -19 -291 -19q-16 0 -57.5 0.5t-63.5 1t-55 5t-59 12.5q-8 2 -8 10.5t8 11.5q37 10 78 14t105 5t81 2q148 7 262 20z" />
    <glyph glyph-name="greater" unicode="&#x3e;" horiz-adv-x="663" 
d="M588 395q15 -12 9 -30t-26 -23q-130 -31 -278 -92q-23 -10 -69 -32.5t-82.5 -38.5t-71.5 -27q-17 -6 -27 9.5t2 24.5q171 128 438 201q-27 18 -59.5 36t-78 41t-62.5 32q-22 11 -64.5 33.5t-69 36.5t-64.5 31.5t-71 29.5q-14 7 -14.5 19.5t11.5 22.5t28 5
q107 -34 297 -133q178 -89 252 -146z" />
    <glyph glyph-name="question" unicode="?" horiz-adv-x="612" 
d="M449 1438q36 -5 58 -25.5t28 -51.5t5.5 -63.5t-10 -71t-18 -65t-18.5 -53.5q-120 -306 -164 -473q-41 -156 -56 -270q-3 -28 -7 -105t-11 -119q-3 -26 -34 -26t-34 26q-19 146 39 387q43 191 111 377q5 12 56 137t69 191q1 2 4 13.5t4 16t4 16.5t3.5 18.5t1.5 17.5t0 18
t-3 15.5t-6 14.5t-10 11q-16 16 -43.5 13.5t-52.5 -11t-53.5 -26t-47.5 -31.5t-35 -27q-21 -18 -35.5 -33t-32 -38t-25 -43.5t-5 -44.5t18.5 -46q3 -3 -1 -7t-8 -3q-34 14 -44.5 42.5t0 61t27 61.5t36.5 50q62 68 139.5 113t149.5 33zM281 -10q15 -15 18 -37
q3 -25 -21.5 -61.5t-50.5 -30.5q-2 0 -16 2.5t-22 5t-19 9.5t-14 17.5t0 29t16 42.5q20 39 53 41q37 4 56 -18z" />
    <glyph glyph-name="at" unicode="@" horiz-adv-x="1034" 
d="M936 168q3 27 20 35q12 3 13 -15q0 -101 -84.5 -210t-186.5 -150q-243 -99 -437 6q-142 77 -213 240q-74 171 -35 348q44 197 212 309q97 65 228 92q109 23 214.5 -5t178.5 -96t105.5 -170.5t-5.5 -229.5q-27 -87 -91.5 -147t-139.5 -36q-113 36 -158 160
q-49 -69 -104 -100q-43 -28 -89 -13.5t-49 70.5q-4 75 40.5 133.5t117.5 89.5q145 63 170 -22q3 -12 -5.5 -20t-19.5 -5q-1 -40 7 -82.5t26 -83t53.5 -61t83.5 -8.5q62 15 86 92.5t14.5 161t-36.5 137.5q-43 88 -122.5 136.5t-167 52.5t-176 -28t-150.5 -94
q-55 -55 -90 -121.5t-46.5 -133t-7.5 -135t27.5 -129.5t58.5 -114.5t86.5 -92.5t109 -61t128 -21.5t143.5 26.5q106 37 189 115t102 180zM481 336q45 63 54 108q-58 -29 -107 -90t-33 -100q76 66 86 82z" />
    <glyph glyph-name="A" unicode="A" horiz-adv-x="1067" 
d="M1092 600q7 -2 5 -13.5t-10 -11.5q-57 -4 -115.5 -3.5t-137.5 -0.5q0 -195 -16.5 -604t-16.5 -629q0 -26 -28 -31q-32 -5 -53 22q-13 18 -13 42q0 234 24 679.5t27 524.5q-45 3 -141 8.5t-144 8.5q-85 -221 -172 -389q-285 -550 -641 -697q-66 -27 -130.5 -36t-133.5 5.5
t-123 57.5q-62 49 -97.5 124.5t-39 153.5t15.5 158q30 109 92.5 207t146 173.5t183.5 134.5t208.5 95.5t219.5 51.5q181 22 399 12q43 111 66 178q93 261 208 591.5t116 346.5q1 23 38 35q27 8 29 -2q0 -129 -10.5 -591.5t-11.5 -573.5q176 -16 256 -27zM-8 -113
q217 257 391 709q-162 6 -305 -8q-387 -40 -617 -248q-59 -53 -109 -117t-92 -144t-52 -158t12 -161q42 -128 147.5 -177t233.5 -3q195 71 391 307zM760 633q22 529 31 878q-20 -74 -66.5 -212.5t-89.5 -255.5t-90.5 -247t-55.5 -151q46 -2 135.5 -6t135.5 -6z" />
    <glyph glyph-name="B" unicode="B" horiz-adv-x="1427" 
d="M954 748q143 -106 233 -263t89 -325q-3 -182 -115.5 -330.5t-288.5 -210.5q-83 -30 -170.5 -35t-168.5 16t-144 80t-88 150q-14 50 -15.5 121t14 145.5t45.5 133.5t86.5 85.5t129.5 1.5q9 -3 6.5 -12t-12.5 -8q-57 8 -100.5 -18.5t-66 -75t-32.5 -100.5t-8 -103
q2 -109 42 -196.5t128 -125.5q119 -46 243 -22t232.5 103.5t161.5 185.5q39 78 47.5 166.5t-11.5 172.5t-63 165.5t-102.5 148.5t-134.5 116.5t-155.5 74.5t-169.5 19.5t-171 -46.5q-18 -9 -34.5 1.5t-16 27t17.5 28.5q42 21 151.5 70.5t166.5 81.5q55 31 93.5 56.5t79 62
t66.5 81.5t37 99q19 90 -19 140t-130 46q-78 -4 -147.5 -33t-127 -78.5t-103 -104.5t-89.5 -126q-30 -291 -79.5 -882.5t-80.5 -888.5q-3 -32 -32.5 -37t-38.5 26q-146 410 -97 940q47 489 228 820q10 20 22 38q36 383 76 646q1 7 7.5 8.5t13 -2t6.5 -10.5q-6 -287 -25 -523
q166 218 389 262q175 31 246 -38q100 -92 26 -287q-39 -106 -131 -178.5t-233 -137.5q174 -12 317 -122zM213 584q6 75 35 383q-152 -328 -176 -785q-17 -357 49 -635q32 446 92 1037z" />
    <glyph glyph-name="C" unicode="C" horiz-adv-x="1253" 
d="M1333 330q7 11 16 9.5t13 -10.5t0 -18q-74 -142 -152 -263.5t-178 -238.5t-204 -198.5t-229.5 -130.5t-254.5 -47q-83 1 -144.5 33t-97 76.5t-54 119t-24.5 134.5t-0.5 151.5t11.5 140t18 129.5q13 90 43.5 211t78 267.5t115 295t146 282t179.5 241.5t208 161
q39 16 82.5 15.5t85 -24t60.5 -62.5q35 -88 10 -184.5t-93 -182t-147 -119.5q-2 -2 -3.5 1.5t1.5 4.5q67 36 117 109t76 156q12 38 17 76.5t0 78t-31.5 65.5t-73.5 29q-102 6 -224 -128.5t-228.5 -345.5t-194 -467t-132 -487.5t-29.5 -413t101 -238.5q69 -46 148.5 -53
t154 17t156.5 76.5t151 113t142.5 140.5t126 145.5t107 141t80 114t50.5 77.5z" />
    <glyph glyph-name="D" unicode="D" horiz-adv-x="1320" 
d="M926 1352q244 -183 235 -723q-8 -534 -264 -811q-87 -95 -198.5 -152.5t-237 -62.5t-236.5 75q-83 61 -123 144q0 -183 2 -273q0 -24 -20 -34t-39.5 0t-19.5 34q-1 121 -14 402.5t-11 433.5q4 222 37 377q1 70 3 211.5t3 212.5q1 51 1.5 156t3 187.5t9.5 156.5
q2 13 11.5 18t19 0t10.5 -18q6 -61 8.5 -136.5t3 -119t0 -143.5t-0.5 -124q1 -27 1 -57.5t-0.5 -66.5t-0.5 -56q6 11 17 33.5t17 34.5q45 77 110 148t147.5 126.5t168.5 84t180.5 16t176.5 -73.5zM1028 184q71 227 68 463q0 280 -66 447q-82 207 -233 252q-143 44 -299 -35
q-297 -157 -389 -514q0 -29 -1.5 -87t-1.5 -87q0 -95 -1 -287t-1 -289q43 105 162 205q15 13 29 -1.5t2 -29.5q-9 -12 -35 -43.5t-38 -47.5t-32.5 -46t-28.5 -51.5t-15.5 -50.5t-5 -57.5t13.5 -57.5q28 -82 104 -134t166 -61q109 -10 209.5 31t175.5 117.5t130 169t87 194.5
z" />
    <glyph glyph-name="E" unicode="E" horiz-adv-x="1536" 
d="M1597 346q24 39 38 23q9 -11 3 -23q-96 -177 -208 -321t-223 -241t-227 -162.5t-222 -94.5t-207 -29q-136 0 -257.5 41.5t-195.5 134.5q-67 84 -88 176.5t-0.5 177.5t70 170t120 157.5t152.5 137t165.5 112t162.5 77.5q226 86 407 104q-65 9 -151.5 43t-173 86
t-154.5 117t-95.5 136t3.5 143q37 81 148.5 111t236 13t239.5 -59t165 -94q8 -9 -1.5 -17t-19.5 -1q-29 19 -88.5 42t-135.5 45t-156.5 32.5t-149.5 7t-117.5 -33.5t-56.5 -87q-8 -51 14.5 -100.5t64.5 -89.5t102 -78.5t121.5 -67t128.5 -55.5t117 -43.5t94 -31t54 -18.5
q21 -9 15.5 -34.5t-31.5 -24.5q-206 5 -459 -80q-79 -27 -171.5 -76t-189 -118t-174.5 -150t-128.5 -172t-51.5 -185t57 -188q65 -99 185 -140t256 -34q111 5 241 58.5t263 148t266.5 238.5t242.5 317z" />
    <glyph glyph-name="F" unicode="F" horiz-adv-x="1120" 
d="M1421 1321q2 -2 -3 -4h-3q-28 35 -70 52t-80.5 18.5t-95 -10t-91 -23t-93 -33t-76.5 -27.5q-236 -83 -379 -108q0 -23 -1 -61.5t-1 -51.5q-7 -196 -28 -440q90 3 296 22t326 15q12 0 12 -16t-12 -17q-86 -9 -197 -22.5t-208 -23.5t-225 -18q-4 -50 -17 -200t-21 -260.5
t-12 -200.5q-8 -98 -4 -226t29 -225q10 -35 26.5 -67t42.5 -60t57.5 -31t70.5 21q15 11 28 -6t-2 -29q-64 -58 -143 -47q-36 4 -66 27.5t-49 58.5t-30.5 70t-18.5 72q-33 173 -14 464q9 165 53 633q-187 -11 -313 4q-21 2 -24.5 16t6.5 26.5t22 9.5q45 2 151.5 2.5
t163.5 3.5q29 273 33 465v82q-9 -1 -26.5 -2.5t-26.5 -2.5q-267 -12 -367 132q-47 66 -36.5 132.5t53 120t110.5 87t135 32.5q218 -2 227 -428q41 7 170 41q17 5 182.5 57.5t252.5 69.5q224 41 286 -94zM164 1282q121 -66 297 -45q-1 45 -4 84.5t-11 84t-19.5 79t-31 64
t-44.5 44t-61 13.5t-79 -21q-141 -72 -141 -160q0 -46 25.5 -83t68.5 -60z" />
    <glyph glyph-name="G" unicode="G" horiz-adv-x="1280" 
d="M1253 440q6 -9 1 -21t-15 -13q-42 -8 -162 -21q4 -159 -22 -565q-6 -87 -21.5 -261t-21.5 -261q0 -12 -12 -12t-13 12q-2 32 -6.5 109.5t-6 109.5t-5 109.5t-3 109t0.5 108.5q1 40 2 120t2 120q-73 -123 -195 -248q-53 -56 -97.5 -96t-105.5 -84.5t-126 -67t-130 -20.5
q-76 3 -133.5 37.5t-92 86.5t-56 124.5t-29.5 143t-7 153t6 142.5t13 122q34 252 150 522q39 91 71.5 159.5t79.5 151.5t102.5 151t117.5 118q123 95 227 75q70 -12 101.5 -43.5t41.5 -101.5q18 -126 -76 -332q-72 -157 -149 -237q-59 -60 -80 -25q110 114 173 316
q55 181 34 299q-17 94 -80 90q-77 -3 -203 -150q-102 -116 -206 -330q-150 -315 -195 -540q-76 -399 -2 -645q43 -161 143 -185q114 -30 260 74q308 219 439 625q-2 -2 -9 -2q-69 -15 -165 -43q-27 -9 -54 -21q-12 -4 -20 -6q-4 -2 -10 -2q-5 -6 -12.5 -6.5t-12.5 6.5
q-46 64 119 120q39 13 104 29q9 2 35 9t41 10q2 22 19.5 33t37.5 6.5t29 -21.5q140 18 184 -41z" />
    <glyph glyph-name="H" unicode="H" horiz-adv-x="1077" 
d="M1028 612q10 0 13 -10t-7 -14q-18 -8 -91.5 -21t-78.5 -14q-4 -184 -4 -279q-3 -412 23 -733q11 -154 28 -260q9 -53 45 -139q7 -17 4 -29.5t-9.5 -20.5t-16 -13t-15.5 -7t-8 -2q-22 3 -37 25q-36 49 -53 162q-19 108 -30 270q-18 327 -5 747q1 40 11 267
q-110 -18 -316 -17t-360 13q-5 -322 -4 -415.5t9.5 -360t12.5 -468.5q0 -22 -20.5 -27.5t-41.5 6.5t-22 32q-3 71 -8 212t-8 210q-34 132 -92 258q-171 389 -420 565q-14 10 -10.5 26t20.5 17q231 16 502 10q8 112 13.5 477.5t33.5 632.5q1 18 19 16q19 -1 23 -20q1 -4 1 -8
q-7 -209 -5.5 -564.5t-2.5 -537.5q14 0 174 -6t297 -4t209 18q11 206 37 443q2 17 7.5 70.5t8.5 77.5t10.5 71.5t15.5 77.5t21.5 68t30.5 69q2 3 6.5 1.5t3.5 -5.5q-9 -26 -14 -54t-9 -68t-6 -54q-17 -117 -28 -283q-14 -240 -19 -408q22 2 80.5 2t81.5 -2zM33 23
q-1 96 1.5 272.5t2.5 245.5q-274 19 -436 10q250 -198 405 -559q2 -5 29 -66q-2 33 -2 97z" />
    <glyph glyph-name="I" unicode="I" horiz-adv-x="591" 
d="M698 1544q6 -2 6.5 -9t-6.5 -9q-75 -13 -204.5 -11.5t-153.5 -1.5q0 -22 -27 -741t-26 -1057q101 3 88 6q16 -4 114 -12q13 -1 13 -17t-13 -18q-292 -50 -512 -43q-33 2 -35 25q-2 24 26 36q9 4 20 5q35 3 109.5 7t109.5 7q0 850 74 1798q-181 -5 -252 -6q-30 0 -18 20
q12 19 36 26q2 1 4 1q90 18 333.5 18t313.5 -24z" />
    <glyph glyph-name="J" unicode="J" horiz-adv-x="1251" 
d="M1231 520q8 3 14.5 -4.5t-0.5 -13.5q-42 -29 -131.5 -91.5t-163.5 -115.5q7 -180 17 -311q9 -97 7 -221.5t-24 -219.5q-24 -104 -82 -197.5t-139 -162t-186.5 -103t-214.5 -20.5q-96 12 -173.5 64t-120 127.5t-54.5 168.5t22 187q44 126 205 268q164 143 373 277
q164 104 276 167v11q-1 54 -4 168t-4 179.5t2.5 169.5t13.5 179t32.5 163.5t55.5 164.5q-111 -48 -225 -62q-56 -7 -185.5 -14t-197.5 -18q-42 -6 -95.5 -18t-122.5 -36t-121 -53t-81 -73t-14 -93q3 -9 -3.5 -15t-16 -4t-13.5 11q-11 26 -11.5 51t8.5 47t23.5 42t36.5 38
t44.5 33.5t51 29.5t53 25t53 21t48 16.5t41.5 13.5q119 36 375 60q130 13 233.5 43t198.5 90q28 17 51.5 -7t6.5 -52q-26 -43 -47.5 -91t-37 -90.5t-27 -99t-19 -96.5t-12 -103.5t-6.5 -99.5t-1.5 -105t1 -99.5t2.5 -103.5t3 -98q0 -48 2 -73q173 99 283 149zM694 -729
q56 50 94.5 110.5t58.5 131.5t30 135.5t8.5 150.5t-5 146.5t-11.5 153.5t-11 143q-209 -120 -313 -191q-9 -6 -28 -19q-88 -59 -136 -94t-125.5 -104.5t-116 -127.5t-62.5 -139.5t-9 -164.5q16 -89 67.5 -149t121 -82t147.5 -19t154.5 35t135.5 84z" />
    <glyph glyph-name="K" unicode="K" horiz-adv-x="688" 
d="M1352 -705q7 0 10 -5t1.5 -11t-7.5 -8q-81 -28 -159.5 -31.5t-146 15t-132 55.5t-118.5 85.5t-104.5 110.5t-90.5 125t-75 133q-34 65 -67.5 142t-54.5 125.5t-53 104.5t-81.5 108.5t-121.5 107.5q-4 -164 -19 -626q-4 -166 6 -250q4 -44 37 -187q2 -14 -10.5 -23.5
t-24.5 -2.5q-22 13 -38.5 35t-26.5 44.5t-16.5 56t-9.5 58t-3.5 63.5t0 60t2.5 58.5t2 48.5q1 27 10 300.5t11 395.5q0 33 4 47q-47 33 -58 39q-18 11 -18 31.5t18 29.5q12 8 62 33q3 69 9 195t10 229.5t5 196.5q0 22 -1 84t-1 96t4.5 92t14 96.5t29.5 81.5t49 74
q11 8 23.5 0.5t6.5 -20.5q-22 -65 -33.5 -139.5t-12.5 -140.5t-1.5 -142.5t-1.5 -145.5q-2 -88 -22 -512q129 75 252 179.5t196 213.5q34 52 101 176t128.5 210t141.5 145q7 5 13.5 0.5t8 -12t-3.5 -15.5q-64 -53 -119.5 -134t-90.5 -154.5t-84 -164.5t-95 -151
q-79 -102 -203 -203.5t-247 -171.5q0 -13 -1 -35.5t-1 -33.5q57 -36 101 -70t78.5 -71.5t57.5 -68t47.5 -78t39.5 -81t42.5 -96.5t48.5 -107q113 -240 293 -436q184 -199 490 -154z" />
    <glyph glyph-name="L" unicode="L" horiz-adv-x="430" 
d="M983 -319q13 1 19 -11t-5 -20q-40 -24 -81.5 -37.5t-93 -16.5t-85.5 -2.5t-103 5.5t-102 6q-142 7 -239.5 -9.5t-231.5 -70.5q-25 -8 -42.5 11.5t-14.5 43.5q40 216 70.5 489.5t43.5 451.5t32 495q13 180 8 325q-4 144 -31 209q-11 28 -29.5 38t-42 2t-48 -23t-52.5 -42
t-50.5 -51t-46.5 -54t-36.5 -46t-24.5 -33q-9 -15 -24.5 -6.5t-8.5 25.5q41 71 132 174q68 71 104 94q55 36 102 25q59 -13 88 -101q12 -35 21 -72t13 -83t6.5 -75t1.5 -86t-1.5 -76t-4 -85t-3.5 -74q-1 -18 -9.5 -186.5t-11 -209t-11 -184t-15 -211.5t-17.5 -183t-24 -208
t-29 -184q212 66 441 37q18 -2 78.5 -9.5t79 -9.5t65.5 -4.5t73.5 1t65 11t74.5 20.5z" />
    <glyph glyph-name="M" unicode="M" horiz-adv-x="1452" 
d="M1427 -735q17 -12 7 -30.5t-29 -8.5q-69 44 -117 108.5t-73 143.5t-36.5 151.5t-15.5 163.5q-5 133 5 413.5t3 426.5q-8 120 -30 188q-35 101 -80 107q-39 5 -81.5 -35.5t-66.5 -83.5q-45 -74 -77 -170q-38 -113 -68 -239.5t-62.5 -289.5t-50.5 -243q-5 -22 -24 -28
t-36.5 5.5t-19.5 32.5q-13 191 -7 337t3.5 337.5t-24.5 335.5q-4 29 -8.5 50.5t-13 54t-18 54.5t-25.5 44t-34.5 30.5t-45 5t-56.5 -23.5q-33 -22 -60 -52.5t-46.5 -71.5t-33 -75.5t-25.5 -86.5t-17 -80.5t-14 -80.5q-37 -237 -37 -641q0 -33 1 -139t-2.5 -177.5
t-13.5 -139.5q-4 -22 -23 -27.5t-37 6.5t-20 33q-13 135 -19.5 290.5t-6 290.5t1.5 291q0 169 -2.5 273t-15 251.5t-37.5 270.5q-1 5 -4 25t-6.5 37t-9 41.5t-13 43t-17 35.5t-22 25.5t-27.5 7.5q-10 -1 -20 -5t-20.5 -12.5t-17.5 -14.5t-18 -19.5t-14.5 -18t-14.5 -20.5
l-11 -16q-15 -20 -52.5 -74.5t-60.5 -81.5q-1 -1 -8.5 -10t-9 -10.5t-9 -9.5t-10.5 -10.5t-10 -8.5t-11.5 -8.5t-11.5 -6t-13 -5t-13 -1.5q-20 0 -19.5 19.5t19.5 21.5q20 2 40.5 22.5t46 60t25.5 40.5q4 6 18 28t19.5 30.5t18.5 27.5t22 29.5t21 25t24 25.5q69 69 125 45
q73 -31 109 -184q68 -277 82 -656q4 17 8 47q12 70 25 124t36 119t58.5 118t82.5 90q100 79 185 55q78 -20 121 -127q16 -37 28 -75.5t19 -88t12 -79t7.5 -92t3 -80.5t1 -91t0.5 -79q0 -41 -1 -122t-1 -122q64 326 154 520q114 239 246 234q121 -2 172 -193
q15 -61 22 -133.5t7 -136t-1 -135.5q-1 -48 -4.5 -139.5t-5.5 -166t-2 -139.5q1 -69 -0.5 -143t8 -156t27 -154t57 -138t96.5 -107z" />
    <glyph glyph-name="N" unicode="N" horiz-adv-x="1259" 
d="M1317 -823q20 -9 11 -29.5t-30 -15.5q-77 21 -139 78t-101 129.5t-65.5 160t-37 165.5t-11.5 151q-3 156 9.5 443.5t13.5 381.5q7 237 -56 430q-13 40 -27.5 72.5t-39.5 71t-60 55.5t-75 6q-36 -10 -72 -34t-63.5 -52t-55.5 -66.5t-46.5 -69.5t-39.5 -69
q-106 -192 -172 -463q-99 -404 -123 -973q-1 -24 -19.5 -36.5t-39.5 -5.5t-29 30q-1 5 -4 15.5t-4 15.5q-7 34 -13 68t-9.5 74.5t-6 66.5t-4.5 75.5t-2.5 66.5t-2 75.5t-1.5 68.5q-6 335 4 719q6 340 23 627q4 74 8 109q4 24 6 38l6 25q6 58 21 64q12 4 17.5 -9.5
t-5.5 -19.5q6 3 7 1.5t-1 -8.5q-1 -3 -1.5 -6.5t-0.5 -7.5q0 -10 2 -28.5t2 -28.5q1 -40 -0.5 -114t-1.5 -97q-6 -323 -6 -647q0 -333 8 -598q9 76 31 201q75 446 217 712q21 39 44 77t57 85t69 84.5t78 69t85 45.5t89.5 7t91.5 -40q116 -85 164 -324q38 -176 35 -403
q-1 -82 -6.5 -205t-11 -219t-6.5 -215.5t4.5 -211.5t24 -189.5t50 -167.5t85 -126.5t126.5 -84.5z" />
    <glyph glyph-name="O" unicode="O" 
d="M1665 387q9 7 19 -3.5t2 -18.5q-124 -131 -258 -186t-332 -46q-43 -86 -100 -162t-129 -140t-162 -102.5t-185 -39.5q-173 -1 -299.5 115t-175.5 292q-66 239 -37 494q15 136 96 356q3 4 12 4.5t18.5 -3.5t8.5 -9q-33 -104 -55 -225q-49 -276 0 -502q52 -238 207 -356
q61 -47 127 -65t124.5 -11t119 33t108 58.5t94.5 74.5q66 60 138 198q-99 16 -198 63t-184 117t-161 159.5t-129.5 191t-89.5 211.5t-40.5 220t17.5 218q14 64 35 119.5t58 111.5t85 95t120 63t159 23q101 -1 187 -52t147 -136t107.5 -198t71.5 -237t34 -254.5t0.5 -249.5
t-32.5 -223t-63 -174q286 -34 535 176zM1038 219q36 66 60 171t33 228t0 256.5t-33.5 259.5t-73 234.5t-113.5 184t-160 106.5t-208 2q-115 -29 -180.5 -122t-76 -218t13 -262.5t80.5 -266.5t132 -221q114 -141 242 -232t284 -120z" />
    <glyph glyph-name="P" unicode="P" horiz-adv-x="1230" 
d="M1337 399q9 -5 9.5 -15.5t-7 -18t-16.5 -3.5q-164 58 -324 64q-61 -143 -172 -266q-188 -218 -360 -230q-90 -6 -157 28t-64 91q3 75 48 148.5t118.5 130.5t162 98.5t184.5 60t181 9.5q26 68 41 180.5t13.5 234t-40.5 226t-112 141.5q-63 32 -122 26.5t-112 -34.5
t-101 -83t-89.5 -118.5t-77 -139.5t-64 -147.5t-50 -142.5t-35 -123.5t-19.5 -91.5t-16.5 -218.5t-12.5 -197.5q-1 -23 -6 -67.5t-6 -65.5q-2 -49 -41 -717q-1 -34 -31.5 -38.5t-49.5 21.5q-10 14 -9 32q3 80 7.5 255.5t11.5 307t22 254.5q2 51 19 313t18 344
q4 136 10 272.5t15 302.5t14 273q0 19 25.5 19t25.5 -19q5 -200 3.5 -288.5t-9.5 -272.5t-10 -287v-8q7 35 20.5 80.5t35 104t49.5 117t64.5 120t79 113t93.5 95.5t108 67.5t122.5 30t137.5 -18.5q81 -26 132.5 -104t68.5 -177t16 -211t-16 -206t-37 -161q143 -8 311 -90z
M541 27q82 43 167.5 129.5t135.5 158t71 117.5q-116 0 -243.5 -39.5t-208.5 -111.5q-186 -167 -125 -237q35 -40 129 -34q48 3 74 17z" />
    <glyph glyph-name="Q" unicode="Q" horiz-adv-x="1339" 
d="M-315 1708q0 -2 -2 -2q0 2 2 2zM1327 -412q7 7 15.5 -1.5t3.5 -16.5q-31 -52 -67.5 -85.5t-72 -48t-76 -12.5t-76 12.5t-77.5 35.5t-74 49t-71 60t-64 61.5t-57 60.5q-116 -64 -246 -47q-106 17 -189 79t-134 154.5t-84.5 201.5t-45.5 230t-11.5 229.5t11.5 209.5
q28 258 138 532q93 237 223 326q93 65 185 84.5t187.5 -12t182.5 -117.5q96 -94 157.5 -230.5t84.5 -287.5t16 -316t-43 -319.5t-97 -296t-141 -246.5q-59 -81 -133 -135q57 -54 83.5 -78t78 -61.5t96.5 -57.5q184 -81 297 43zM358 -152q18 36 42 56t48.5 26t54 -0.5
t54.5 -18.5t55.5 -33t52.5 -39t48 -42q39 28 73.5 65t65 88t50.5 86t45 98.5t32.5 83.5t28.5 79q48 133 71.5 280t20.5 304.5t-52.5 312.5t-144.5 276q-131 167 -265.5 180.5t-272.5 -118.5q-72 -68 -114 -157.5t-42 -184.5q0 -121 44.5 -224t133.5 -171q17 -14 15 -30
q-2 -12 -17 -3q-97 63 -158.5 157.5t-76.5 206.5q-76 -276 -82 -540q-1 -54 1.5 -110.5t8.5 -122t18.5 -127t29.5 -125t43 -117.5t58.5 -101.5t76 -80t94.5 -51.5t116 -17.5t139 24.5q-47 47 -71 66q-129 111 -205 12q-6 -9 -15 -3t-4 15z" />
    <glyph glyph-name="R" unicode="R" horiz-adv-x="972" 
d="M1389 -317q8 2 10.5 -5t-4.5 -10q-124 -70 -269 -72t-273 50t-235 145q-158 135 -269 279.5t-199 330.5q-7 13 -3.5 30t17.5 24q676 352 829 813q71 214 -14.5 295t-300.5 -7q-80 -32 -152.5 -73t-149 -107t-134.5 -144t-100 -188.5t-54 -236.5q-18 -202 4.5 -619.5
t9.5 -586.5q-2 -24 -21 -34.5t-38.5 -0.5t-22.5 35q-26 335 -14 850q-18 288 21 471q11 245 17.5 360.5t23.5 315.5t41 358q2 7 11 5.5t11 -9.5q13 -279 -22 -787q20 74 86.5 157t156.5 153t196.5 121t204.5 69.5t182 -11t128 -110.5q54 -107 28 -255t-114 -275
q-130 -192 -320 -346t-413 -262q72 -149 164 -260t241 -248q172 -155 346.5 -209t393.5 -6z" />
    <glyph glyph-name="S" unicode="S" horiz-adv-x="1679" 
d="M1788 369q9 1 13 -7t2 -17t-11 -11q-45 -9 -88.5 -19t-76 -18.5t-76.5 -22.5t-67.5 -22t-73 -27t-68.5 -26.5t-79 -31.5t-81 -32q74 -65 133.5 -135t106 -153t68.5 -167t16.5 -179t-44.5 -187q-44 -102 -119.5 -193.5t-168.5 -161t-201.5 -125t-218.5 -91t-219 -52.5
q-310 -46 -476 52q-85 50 -124.5 131.5t-35 170.5t43.5 181q86 204 325 414q247 222 447 342q155 92 319 168q-106 75 -207 133q-15 9 -80.5 47t-86.5 50t-79 47t-85 52.5t-76.5 50.5t-81.5 58t-71.5 57t-73.5 64q-43 41 -78 82.5t-65.5 95t-43.5 103.5t-4 106.5t45 107.5
q65 94 174.5 152t230 74.5t246 -6.5t226.5 -79.5t168 -156.5t73 -227q0 -9 -13.5 -9t-14.5 9q-18 100 -71.5 179.5t-128.5 128.5t-159.5 75t-171.5 28q-77 2 -156.5 -11t-160.5 -42t-139.5 -86t-75.5 -135q-14 -66 10 -131.5t83.5 -127t102.5 -97t111 -85.5
q62 -45 139.5 -95t130.5 -81.5t150 -87.5t137 -80q106 -67 182 -127q321 136 668 183zM1333 -162q-93 146 -237 262q-132 -57 -213 -102q-220 -117 -439 -295q-216 -176 -317 -307q-35 -45 -66 -95.5t-55 -113.5t-31 -121.5t11 -116.5t65 -100q110 -98 332 -90
q185 7 373.5 71t354.5 187.5t249 282.5q69 134 60.5 272t-87.5 266z" />
    <glyph glyph-name="T" unicode="T" horiz-adv-x="415" 
d="M1348 1317q9 -7 2.5 -16.5t-15.5 -6.5q-21 6 -73.5 20t-80.5 21t-71.5 17t-82 15.5t-75.5 8.5q-183 12 -360.5 -10t-398.5 -72q-14 -266 -33.5 -929t-16.5 -885q0 -4 0.5 -35t0 -43.5t-2.5 -41t-6 -44.5t-12 -35t-19 -31q-8 -8 -18 -8t-18 8q-9 9 -14.5 19t-7 22.5
t-2 20.5t0 25t0.5 24q0 96 2 143q4 205 13.5 455.5t26.5 664t26 656.5q-97 -26 -156.5 -41t-154.5 -36.5t-168 -32t-160 -19.5t-169 -7t-159 13q-73 12 -127.5 52t-60.5 106q-3 35 12 70t45.5 66t55 51.5t59.5 45.5q7 4 12.5 -3t-0.5 -13q-24 -21 -48 -50t-44.5 -66t-28 -70
t9.5 -63t62 -44q78 -26 179 -28t213.5 16.5t207.5 39.5t213.5 51t177.5 42q314 62 397 75q374 57 626 -13q130 -36 241 -105z" />
    <glyph glyph-name="U" unicode="U" horiz-adv-x="1241" 
d="M1352 -627q14 16 27 12q7 -2 1 -12q-74 -140 -178 -125q-94 13 -172 121q-36 50 -61 109.5t-38 110t-19.5 123.5t-7.5 119t-1 126q0 118 4 184.5t16 170t19 182.5q4 41 14 100.5t13 105.5q-33 -178 -99 -366q-30 -88 -47 -135t-48.5 -122t-61.5 -124t-74.5 -105.5
t-97.5 -101.5q-52 -44 -118 -72t-133.5 -35t-129.5 23.5t-97 99.5q-20 39 -33 80.5t-19 93.5t-9.5 85.5t0 98t5 87t8.5 97t8 85.5q13 129 38 406q12 119 17 189.5t4.5 175t-14.5 188.5q-43 258 -201 198q-82 -32 -129 -107.5t-41 -162.5q0 -5 -4.5 -5.5t-5.5 3.5
q-9 76 19 148.5t87 117.5q34 27 72 43.5t82 15.5t78 -26q32 -24 55 -62.5t34.5 -70.5t19 -88t9 -81t4.5 -83q9 -182 -21 -548q-2 -25 -3 -38q-3 -38 -15 -158t-16 -180t-3 -154.5t13 -170.5q8 -49 18 -85.5t38.5 -75.5t70.5 -48q71 -14 145 11t132 77q116 104 191.5 254.5
t138.5 349.5q154 504 157 887q0 11 15 13t30.5 -5t16.5 -19q10 -142 4.5 -311.5t-14.5 -273.5t-21.5 -265.5t-17.5 -287.5q-3 -148 -4.5 -255t8.5 -192t20 -141.5t31 -102t41.5 -74t50.5 -57.5q31 -32 68.5 -35t70 16t60.5 54z" />
    <glyph glyph-name="V" unicode="V" horiz-adv-x="1024" 
d="M1161 1444q7 9 16 8.5t15 -9.5t0 -18q-71 -131 -139 -302t-103 -278.5t-100 -316.5q-21 -69 -73 -243.5t-80.5 -267.5t-75 -233.5t-89.5 -256.5q-12 -33 -45.5 -33t-44.5 33q-22 60 -53 229q-33 169 -103.5 556.5t-111.5 594.5q-17 87 -57.5 260t-57.5 260q-8 43 -20 87
t-20.5 69t-14 46t-3 29.5t14.5 8.5q6 0 12 -3t11 -9.5t10 -13.5t9.5 -18t8 -19.5t8 -21t6.5 -20t6 -20t5 -16.5q41 -123 80 -277.5t59 -249.5t58.5 -296t50.5 -261q95 -480 113 -565q25 -124 39 -184q50 145 147 436.5t147 435.5q50 149 80.5 233.5t80 211t102 232.5
t112.5 202z" />
    <glyph glyph-name="W" unicode="W" horiz-adv-x="1794" 
d="M1616 1440q15 -282 -2 -558t-56.5 -493.5t-94 -396t-114.5 -289t-118 -147.5q-61 -39 -117 -43.5t-98.5 21.5t-78.5 66.5t-64 95t-48 102t-36 91.5q-1 5 -2.5 8.5t-2.5 6.5q-79 207 -111 413t-44 482q-1 -4 -4 -12.5t-4 -12.5q-74 -208 -144 -383q-122 -310 -280 -684
q-12 -30 -41 -30t-41 30q-9 24 -17 52t-14 50.5t-11.5 56.5t-8 52.5t-6.5 57.5t-5.5 52.5t-5 56.5t-4.5 52q-35 346 -41 682q-7 383 16 625q0 4 3 36.5t5 53t9 53.5t15 54t22.5 39.5t33.5 23.5q13 3 17 -9.5t-8 -17.5q-27 -9 -35 -108q-15 -129 -17 -209q-6 -214 13 -604
q17 -366 49 -633q23 -204 39 -277q106 255 231 568q127 326 152 397q61 157 76 248q4 21 23 27t36.5 -5.5t17.5 -31.5q-3 -193 5 -357q5 -125 21 -255t45.5 -273.5t82 -277t121.5 -226.5q90 -125 155 -82q155 92 267.5 485t146.5 1049q3 71 -1.5 188t-24 290.5t-84.5 258
t-166 15.5q-20 -14 -33 -3q-13 10 3 22q2 2 5 3q85 46 152 21t115 -103t74.5 -173.5t31.5 -190.5z" />
    <glyph glyph-name="X" unicode="X" horiz-adv-x="1253" 
d="M1102 -88q13 -31 73.5 -137.5t109.5 -203t50 -130.5q0 -17 -17 -20.5t-26 10.5q-42 69 -143.5 248t-128.5 239q-24 56 -76.5 150.5t-118 207.5t-84.5 146q-24 -38 -99.5 -157t-105.5 -165.5t-95 -146.5t-103.5 -156t-93.5 -134.5t-103 -141.5t-96 -121q-9 -13 -23.5 -7.5
t-20 20t0.5 28.5q86 145 325.5 494.5t360.5 570.5q-8 17 -26 47.5t-21 36.5q-264 455 -324 565q-45 83 -122 245t-117 236q-6 9 1 15t15 0q32 -26 61 -67t44.5 -70t40.5 -82q51 -110 129 -246q179 -298 344 -586q5 -6 14 -25q87 147 271.5 481.5t283.5 497.5q7 11 21.5 17.5
t21.5 -2.5q12 -21 -26 -103t-102 -196t-77 -140q-106 -222 -317 -600q-12 -18 -21 -36q23 -41 97.5 -170.5t133.5 -236.5t89 -175z" />
    <glyph glyph-name="Y" unicode="Y" horiz-adv-x="1212" 
d="M1110 332q5 4 9.5 1.5t5 -7.5t-2.5 -9q-7 -6 -66.5 -52t-66.5 -52q0 -1 3 -41t6.5 -86.5t5.5 -118t1 -141t-7 -150t-18 -150.5t-33.5 -137t-51.5 -114q-86 -135 -208 -210t-269 -66q-176 11 -250 133q-74 128 -27 252q36 92 84 175.5t117 162.5t117.5 131t141 126
t127 100t133.5 97q32 24 48 35q0 4 -1 8t-1 8q-29 441 -6 719q-16 -41 -53 -117q-154 -338 -334 -501q-60 -54 -121 -85t-134 -30.5t-134 49.5q-27 22 -48.5 50t-35 64t-23 66.5t-13 76t-5.5 73.5t0 78t3.5 70t4.5 69q7 94 37 344q1 6 5 36t5.5 39.5t4.5 35.5t4 40t2.5 35.5
t1 39.5t-1.5 36q0 9 10 10t12 -8q13 -55 14 -128t-4 -130q-2 -58 -15 -211t-12.5 -263.5t21.5 -209.5q32 -149 127 -182q87 -26 187 45q107 77 191.5 196t162.5 273q49 96 76.5 155t56.5 153t31 169q1 18 16 26t30 0t15 -26q0 -7 -1 -22.5t-1 -22.5q-24 -490 0 -979
q5 3 63 35.5t64 36.5zM827 -653q52 118 76.5 258.5t22.5 269.5t-11 272q-124 -68 -305 -236q-249 -231 -360 -433q-151 -274 35 -380q12 -7 26 -13q98 -39 200.5 -8t189 106t126.5 164z" />
    <glyph glyph-name="Z" unicode="Z" horiz-adv-x="1173" 
d="M1421 -276q17 8 26.5 -7.5t-7.5 -25.5q-142 -95 -324 -66q-50 8 -173.5 39.5t-192.5 38.5q-394 41 -787 -121q-31 -11 -41 19t12 51q2 1 6.5 3t6.5 3q117 53 225 130.5t205 179.5t177.5 205t172.5 237q80 117 161.5 249t131 216t125.5 191t164 208q-23 -39 -276 -63
q-320 -31 -625 -5q-365 30 -414 128q-11 22 -4 48q6 19 39.5 27t54.5 -2q12 -2 13 -11.5t-11 -11.5q-115 -15 -3 -54q77 -27 148 -38q97 -14 293.5 -17.5t425.5 10.5t365 46q5 1 37 7t51.5 11.5t34.5 14.5q13 9 24 -4.5t0 -24.5q-105 -104 -211 -247t-188.5 -279
t-178 -289.5t-181.5 -283t-196.5 -253.5t-225.5 -206q103 27 205.5 31.5t187 -8.5t167 -33t156.5 -39.5t144 -31.5t142 -6.5t138 34.5z" />
    <glyph glyph-name="bracketleft" unicode="[" horiz-adv-x="358" 
d="M317 1044q9 0 8.5 -8t-8.5 -10q-51 -3 -86 -8.5t-62.5 -7.5t-86.5 0q-1 -140 -16.5 -585.5t-6.5 -688.5q19 -1 59.5 -2t65 -2t58.5 -6.5t61 -14.5q9 -3 8.5 -14t-12.5 -10q-49 3 -143.5 -1.5t-122.5 -4.5q-12 0 -20.5 8t-8.5 20q-2 187 -4 264t3.5 265t8.5 265.5
t11.5 265.5t11.5 265q5 23 24 23q76 -5 137.5 -7.5t120.5 -5.5z" />
    <glyph glyph-name="backslash" unicode="\" horiz-adv-x="561" 
d="M578 -272q11 -25 -13 -35q-28 -11 -52 14q-8 9 -13 21q-39 98 -128 318.5t-137 343t-115 310t-118 355.5q-5 15 2 21t16.5 3t12.5 -10q93 -192 186 -430.5t186.5 -486.5t172.5 -424z" />
    <glyph glyph-name="bracketright" unicode="]" horiz-adv-x="380" 
d="M291 1034q4 -87 11.5 -259t12 -278t8.5 -252t4 -278t-5 -258q0 -12 -8.5 -20t-20.5 -8q-28 0 -122.5 4.5t-143.5 1.5q-12 -1 -12.5 10t8.5 14q27 9 61 14.5t58 6.5t65 2t59 2q9 243 -6 690t-16 584q-59 -2 -86.5 0t-63 7.5t-86.5 8.5q-8 2 -8 10t8 8q59 3 120.5 5.5
t137.5 7.5q10 0 17.5 -7.5t7.5 -15.5z" />
    <glyph glyph-name="asciicircum" unicode="^" horiz-adv-x="356" 
d="M367 1049q6 -21 -10 -22q-16 1 -27 22q-20 37 -53.5 93t-54 95t-38.5 86q-17 -51 -45 -100.5t-65.5 -107t-57.5 -93.5q-3 -7 -10.5 -4.5t-5.5 10.5q16 65 83 192.5t81 202.5q3 15 19.5 14.5t19.5 -14.5q19 -65 81.5 -186t82.5 -188z" />
    <glyph glyph-name="underscore" unicode="_" horiz-adv-x="878" 
d="M760 2q25 0 35.5 -16t0 -32t-35.5 -17q-65 -1 -184 -9.5t-202.5 -13.5t-187 5.5t-180.5 41.5q-8 3 -5.5 11t11.5 8q145 -6 409 7.5t339 14.5z" />
    <glyph glyph-name="grave" unicode="`" horiz-adv-x="241" 
d="M72 1415q9 -22 42 -77.5t50 -101.5t10 -87q-2 -5 -9 -8t-11 0q-13 10 -25.5 24.5t-20 25t-20 30t-18.5 28.5q-43 61 -68 137q-7 19 7.5 34t34.5 14t28 -19z" />
    <glyph glyph-name="a" unicode="a" horiz-adv-x="970" 
d="M1085 375q13 19 20 12q6 -7 -5 -25q-133 -220 -256 -350q-65 -68 -144.5 -109.5t-158.5 -27.5q-51 9 -86.5 43t-53.5 84.5t-24.5 105.5t-3.5 117q-91 -101 -134 -140q-130 -115 -194 -75q-41 24 -48 91t8.5 129.5t37.5 99.5q59 96 156.5 113t193.5 -46q3 5 9.5 15.5
t9.5 15.5q11 20 34 20.5t38.5 -16.5t7.5 -39q-13 -38 -22 -110.5t-8.5 -155.5t34 -139.5t98.5 -48.5q49 6 100 32t89.5 56.5t88 83.5t76.5 87t74 95.5t63 81.5zM96 100q50 1 145 97t134 174q-130 69 -221 -23q-60 -61 -75 -153q-11 -74 17 -95z" />
    <glyph glyph-name="b" unicode="b" horiz-adv-x="768" 
d="M879 391q3 5 9 2.5t5 -8.5q-76 -205 -301 -362q-165 -114 -352 -189q-19 -8 -34 6t-14 34.5t19 29.5q75 42 130 116t79 160q8 31 12 59.5t2 61.5t-21.5 53t-56.5 19q-111 0 -161 -221q-42 -158 -56 -375q-2 -29 -24 -28q-22 2 -35 29q-6 14 -6 29q4 127 7 366.5t7 367.5
q2 60 4 224.5t8 254.5q12 255 54 393q9 27 15.5 45.5t21 49.5t29.5 49.5t37.5 33t47.5 13.5q51 -1 83 -39t40 -92q11 -94 -27 -248q-42 -161 -98 -305q-59 -157 -106 -261q0 -1 -12.5 -24t-18.5 -37q-1 -17 -2 -51.5t-2 -52.5q-3 -38 -3.5 -107.5t-2.5 -99.5q25 55 56.5 95
t81.5 62t107 5q44 -13 71.5 -43.5t36 -70t6 -80.5t-14.5 -83q-29 -103 -84 -180q142 65 251.5 156.5t211.5 242.5zM215 1397q-23 -81 -35 -170t-13.5 -167t-2 -167t-0.5 -170q4 9 24 57.5t25 60.5t22.5 54.5t23.5 60t20 55t21.5 61t17.5 56.5t17.5 62.5t14.5 60.5
q13 58 17.5 83.5t5.5 75t-11 83.5q-5 17 -18.5 31t-30 18t-32.5 -12q-38 -38 -66 -133z" />
    <glyph glyph-name="c" unicode="c" horiz-adv-x="804" 
d="M918 389q15 17 23 5q4 -7 -1 -15q-145 -195 -219 -277q-278 -309 -512 -264q-37 7 -74 23q-62 27 -96.5 80t-39.5 115t4 120.5t30 110.5q19 43 54.5 89t81.5 81t93 51.5t93.5 -3t78.5 -79.5q3 -6 -0.5 -10.5t-9.5 -4.5t-10 5q-32 46 -80 47.5t-89.5 -25t-72.5 -65.5
q-98 -122 -92 -273q5 -133 82 -166q52 -23 108.5 -22.5t103.5 12.5t109 52.5t101 70t103.5 94t92.5 95.5t92 102q31 34 46 51z" />
    <glyph glyph-name="d" unicode="d" horiz-adv-x="1007" 
d="M1118 391q4 5 9.5 4.5t9 -6.5t0.5 -12q-32 -63 -62.5 -111.5t-74 -102t-98 -88t-114.5 -44.5q-54 -9 -102.5 6t-85.5 46t-69.5 77.5t-55 93.5t-41.5 102q-40 -90 -63 -133q-10 -18 -19 -34.5t-27.5 -47.5t-36.5 -54.5t-41.5 -51.5t-46 -44t-46 -26t-47.5 -3t-44 30
q-37 43 -42.5 112.5t9 129.5t40.5 116q51 104 136 141.5t189 -6.5q-97 370 -45 858q0 4 5.5 53.5t7 61.5t7.5 54.5t10.5 62.5t12.5 53t17.5 59t21.5 50q18 38 50 65.5t72.5 36t80.5 -17.5q15 -11 27.5 -25t20.5 -34l14 -35t9 -42.5t5 -40.5t1.5 -45.5t-0.5 -40t-1.5 -41
t-1.5 -34.5q-15 -229 -68 -451q-76 -335 -164 -567q26 -86 68 -168q21 -40 39.5 -69.5t48 -65t65 -54t72.5 -14.5q189 16 348 297zM406 1133q-10 -304 45 -580q15 46 66 236.5t65 257.5q51 237 66 469q19 292 -56 283q-27 -3 -66 -48q-54 -62 -83 -245t-37 -373zM297 211
q49 86 104 221q-83 21 -155 -4.5t-107 -97.5q-19 -41 -31 -84.5t-15 -95.5t16 -87q19 -42 57 -16q70 55 131 164z" />
    <glyph glyph-name="e" unicode="e" horiz-adv-x="755" 
d="M844 358q7 11 21 11q6 -1 3 -7q-107 -192 -210 -313t-228 -174q-75 -32 -144.5 -33t-121 25.5t-91 71t-56.5 104.5t-16 124t28.5 132t79.5 125q27 29 61.5 45.5t73.5 13.5t69 -32q31 -29 35 -73.5t-14.5 -85.5t-48.5 -67q-101 -89 -213 -84q-1 -43 13.5 -87.5t35.5 -63.5
q54 -54 119 -67.5t124 3t125.5 61.5t115.5 90.5t104 109t80.5 97.5t54.5 74zM188 395q-42 -29 -72.5 -88.5t-39.5 -126.5q106 31 174 105q30 37 22 84q-7 40 -38 43q-21 0 -46 -17z" />
    <glyph glyph-name="f" unicode="f" horiz-adv-x="450" 
d="M578 399q10 -7 4.5 -18.5t-17.5 -9.5q-328 50 -444 -101q71 -43 119 -89t77 -109q60 -139 54 -287q-3 -142 -52 -281q-19 -49 -28 -69.5t-31.5 -56.5t-46.5 -56q-34 -26 -65.5 -27.5t-54 15.5t-40.5 47t-29 61.5t-16 63.5q-15 89 -18 199t0.5 177.5t13.5 200.5
q1 10 19 213.5t18 223.5q3 248 41 548q2 13 8 60t9.5 72t13 68.5t20.5 71t30 58t42 49.5q64 49 118.5 15.5t67.5 -109.5q20 -114 -22 -328q-48 -207 -125 -391q-55 -138 -113 -227q82 49 214 52t233 -36zM178 139q-9 9 -38 32.5t-48 35.5q-19 -209 -22 -397q0 -187 12 -279
q12 -128 49 -154q11 -6 15.5 -5t15.5 10q40 46 51 71q60 124 76 258q18 178 -27 301q-34 80 -84 127zM109 430q91 173 161 420q50 170 58 268q0 5 5.5 54t6.5 70.5t-2.5 57t-15.5 56.5q-45 78 -90.5 -0.5t-57.5 -151.5q-35 -197 -47 -389q-4 -65 -9 -192.5t-9 -192.5z" />
    <glyph glyph-name="g" unicode="g" horiz-adv-x="831" 
d="M950 408q4 3 9 0t6 -7.5t-2 -7.5q-303 -235 -402 -340q5 -100 4.5 -207.5t-12.5 -207.5q-30 -237 -150 -394q-124 -163 -217 -104q-52 33 -70.5 101t-13.5 141q10 167 123 360q107 185 256 321q-6 271 -4 308q-46 -46 -71 -64q-181 -146 -275 -92q-46 28 -52.5 87.5
t17 116.5t58.5 89q69 65 162.5 81.5t181.5 -11.5q1 5 3 16t3 16q5 24 28 31t43.5 -6t18.5 -37q-3 -23 -10 -53q-27 -138 -23 -402q112 105 389 265zM334 -717q51 72 83.5 156t46.5 176.5t18 174t1 185.5q-173 -164 -260 -411q-61 -176 -48 -292q10 -81 54 -78q43 3 105 89z
M377 401q83 83 110 142q-72 8 -147.5 -14t-118.5 -68q-55 -58 -55 -133v-5.5v-6v-5.5t0.5 -6t1.5 -5t2.5 -4.5t3 -3.5t4.5 -2.5t6 -0.5q83 2 193 112z" />
    <glyph glyph-name="h" unicode="h" horiz-adv-x="743" 
d="M838 328q9 15 19.5 7.5t0.5 -24.5q-30 -50 -50.5 -83.5t-56 -82.5t-65.5 -80.5t-68.5 -58t-74.5 -33.5q-51 -10 -87.5 10t-52 58.5t-25.5 86.5t-8 95t1 84q2 60 -7 111t-28 83.5t-45.5 41t-63 -21t-77.5 -97.5q-25 -41 -40 -90t-20.5 -106.5t-7 -102t-1.5 -112.5t-1 -103
q-2 -29 -21.5 -39t-39 3.5t-21.5 41.5q-4 44 -7 166.5t-1 148.5q31 602 88 932q49 279 102 418q41 107 67 145q47 74 111 80q64 5 101 -52t39 -126q1 -78 -26 -173.5t-52.5 -152.5t-75.5 -159q-33 -71 -113 -214t-129 -224q-1 -3 -6 -41t-11 -115t-9 -158q22 73 62.5 133
t90.5 82q38 17 70 17t54.5 -12.5t40 -36.5t28.5 -52.5t18 -63t10 -65.5t3 -63q0 -14 -1 -64.5t0.5 -80t11.5 -69t30 -63.5q32 -32 83.5 -5.5t108 86t98.5 114.5t54 80zM375 1755q-27 -17 -52.5 -52t-47.5 -89t-40 -107t-34.5 -129.5t-28 -130.5t-24.5 -137t-19 -122
t-16 -112.5t-11 -82.5q19 39 72 137t93.5 179t84.5 180t67 187t19 152q-1 15 -1.5 23t-3 27t-6.5 30t-10.5 24t-17 18.5t-24.5 4.5z" />
    <glyph glyph-name="i" unicode="i" horiz-adv-x="475" 
d="M575 367q5 8 14 3.5t5 -14.5q-13 -40 -43.5 -100t-77 -130.5t-100 -123t-111.5 -78t-112 5.5q-37 19 -59.5 59t-28.5 84t-8.5 91.5t1.5 83.5q4 139 21 190q6 17 20.5 21.5t27.5 -4t15 -25.5q5 -51 -2.5 -154t0 -172t45.5 -102q19 -16 42.5 -17t49.5 14.5t51 35t54 54
t50.5 61.5t49 67.5t41 61t34 53.5t21.5 35zM147 645q-3 -24 -28 -22t-33 22q-17 45 -8.5 111.5t33.5 107.5q5 6 13 6.5t11 -6.5q19 -33 19 -102q0 -74 -7 -117z" />
    <glyph glyph-name="j" unicode="j" horiz-adv-x="419" 
d="M526 381q7 8 14 6t8.5 -9.5t-3.5 -15.5q-182 -243 -385 -444q-2 -102 -5 -177t-16 -193.5t-34 -209t-62.5 -189t-97.5 -167.5q-46 -57 -98.5 -86t-98 -25.5t-81.5 30.5t-53 84t-9 132q13 116 56 229.5t110 217t141 192t168 181.5q2 68 3.5 223t5.5 266.5t13 222.5
q2 20 22 20t21 -20q13 -267 13 -489q0 -27 1 -72t1 -74q144 133 366 367zM-297 -1014q32 -60 98 -22q80 45 152 193q120 246 127 592q1 46 0 93q-326 -333 -381 -663q-25 -136 4 -193zM141 739q-60 -10 -66 66q-6 77 33 181q9 25 17 38q10 17 29.5 12t17.5 -24
q-1 -22 -16 -117t-6 -143q1 -4 -2.5 -8.5t-6.5 -4.5z" />
    <glyph glyph-name="k" unicode="k" horiz-adv-x="520" 
d="M543 -227q10 -5 12.5 -9t-2 -6t-14.5 -2q-75 2 -145.5 44.5t-122 108.5t-89 141t-55.5 149q-4 -201 2 -496q0 -20 -16.5 -27t-34.5 3.5t-21 31.5q-18 112 -18.5 313t6.5 203q-1 67 14 265.5t27 306.5q1 9 5 40q96 889 348 877q31 -2 65 -18q110 -52 31 -297
q-61 -190 -222 -438q-112 -176 -155 -261q0 -15 -4 -43q-9 -103 -15 -196q20 75 93.5 122.5t139.5 25t66 -123.5q1 -92 -67 -176.5t-158 -122.5q20 -55 34 -89t43 -88t60 -91t81.5 -77.5t111.5 -69.5zM469 1665q-40 14 -76 -15t-64 -93.5t-51.5 -143t-42.5 -177.5
t-33 -182.5t-28 -172.5q-5 -37 -8 -54q43 71 45 74q17 28 58 93t64 101.5t52.5 92.5t48.5 104q134 338 35 373zM129 223q7 21 25 27q75 24 155 113t64 165q-12 60 -87 -3q-67 -56 -122 -149q-42 -71 -35 -100v-53z" />
    <glyph glyph-name="l" unicode="l" horiz-adv-x="552" 
d="M639 367q7 15 25 15q11 1 6 -9q-11 -21 -37 -73.5t-44 -88t-50 -85t-61 -80.5t-69 -55.5t-83 -29.5q-46 -5 -84.5 12t-64.5 47t-47 76t-33 89.5t-21 97.5t-12.5 89.5t-6.5 76.5q-12 112 -7 263t21 297t54.5 296t93.5 260q51 101 124 166q97 86 146 14q19 -28 29 -80
q22 -111 -18 -309q-46 -225 -144 -465q-95 -231 -225 -414v-4q4 -62 8.5 -102t16 -101.5t34.5 -110t56 -81.5q22 -22 46 -32t48.5 -5t47 14t47.5 32t44.5 42t42.5 51.5t37.5 52.5t33.5 52.5t26 45.5t20 36zM315 1589q-118 -225 -157.5 -483t-30.5 -576q13 26 63.5 131
t68.5 143.5t58 130t59.5 148t42.5 135.5t36 152q1 4 6.5 34t7.5 40t6.5 39t5 44t1.5 41t-1.5 43t-7 36.5t-12.5 35.5q-19 35 -47 21q-26 -11 -54 -46t-45 -69zM0 0z" />
    <glyph glyph-name="m" unicode="m" horiz-adv-x="1193" 
d="M1282 342q4 14 17 4q14 -11 6 -27q-18 -39 -29 -62.5t-37.5 -76t-48 -88t-53.5 -81t-60.5 -73.5t-63 -49t-67.5 -22q-48 -2 -81.5 22t-47.5 63t-22 88t-5.5 96.5t2.5 87.5q1 20 1 28q11 332 -54 330q-43 -2 -100 -142q-68 -169 -89 -349q-5 -47 -5 -87q0 -26 -18 -36
t-36 0.5t-18 35.5q0 43 2 128t2 154.5t-4 127.5q-8 84 -36 150q-39 94 -91 30q-36 -46 -66.5 -112.5t-53 -148t-38.5 -150t-35 -160.5t-30 -136q-8 -30 -34 -38q-26 -7 -33 16q-1 6 -1 12q2 154 25 426q5 66 11 199t11 198q1 12 11 19t20 4t12 -16q6 -32 9 -69t4.5 -64
t1 -74t-1.5 -69t-3 -80.5t-3 -78.5q16 100 74.5 233.5t129.5 170.5q65 34 111 -11.5t64 -136.5t12 -202q28 156 111 252q68 78 129 63q57 -15 81 -113q17 -72 15 -173t-8 -174.5t10 -172.5q21 -107 115 -50q87 53 188 205q59 90 98 179z" />
    <glyph glyph-name="n" unicode="n" horiz-adv-x="815" 
d="M915 350q9 14 21 14q9 -1 4 -12q-32 -69 -71 -130.5t-79.5 -109t-83 -83.5t-82.5 -52t-76.5 -16t-66.5 25.5t-51.5 71.5t-33 123t-9.5 179q0 3 1.5 37.5t1 62.5t-4 62t-15.5 54.5t-32 21.5q-48 3 -89 -37.5t-68 -108.5t-47.5 -146t-31.5 -158.5t-16 -136.5t-6 -89
q-1 -24 -21 -34t-39.5 0t-19.5 34q0 44 2 64q2 90 5 170.5t9 174t9.5 145.5t12.5 173.5t13 169.5q0 9 8 13.5t16 2t9 -11.5q15 -91 16 -210.5t-6 -213.5q11 65 50.5 132t90 111t109.5 40t102 -74q27 -47 32.5 -121t-1.5 -127q-16 -297 90 -321q89 -20 237 158q55 66 111 153
z" />
    <glyph glyph-name="o" unicode="o" horiz-adv-x="833" 
d="M956 395q4 3 9 0.5t6 -7t-2 -7.5q-72 -87 -188.5 -134t-235.5 -36q0 -6 -4 -10q-31 -79 -97.5 -142.5t-144.5 -74.5q-81 -12 -144.5 27t-84.5 118q-33 133 12 238q42 89 108 149q2 48 27.5 89t69.5 61q64 26 120.5 2t92.5 -82q97 -148 67 -303q125 -14 209.5 10
t179.5 102zM299 72q112 39 160 155q-88 29 -160 86.5t-98 135.5q-29 -49 -35 -62q-54 -103 -29 -197q17 -69 57.5 -105t104.5 -13zM477 305q21 121 -43 227q-25 40 -61 61t-72 -1q-52 -35 -49 -78t43.5 -86t90.5 -76t91 -47z" />
    <glyph glyph-name="p" unicode="p" horiz-adv-x="960" 
d="M1061 313q12 -5 12 -15.5t-12 -10.5q-13 1 -53 0t-82.5 -2t-99 -10.5t-103.5 -26.5q-5 -30 -27 -88q-67 -160 -182 -221q-34 -18 -70 -28t-73 -10.5t-67 19.5t-44 60q-13 39 15.5 85.5t68.5 79.5q80 67 174 105q89 36 146 49q4 46 2 66q-1 42 -11.5 79.5t-39 67.5
t-70.5 31q-51 1 -95.5 -13.5t-78.5 -45t-61.5 -65t-48.5 -84t-36 -91t-27.5 -97.5t-19 -92t-14.5 -86q-47 -326 -25 -823q2 -25 -24 -30q-30 -6 -50 24q-12 19 -12 47q-4 519 4.5 896.5t42.5 756.5q0 10 11 10t12 -10q32 -380 2 -727q16 133 57.5 235t132.5 178
q57 48 135.5 74t141.5 4q57 -19 91.5 -66t44.5 -102.5t5 -120.5q41 8 100.5 12.5t126 1.5t101.5 -16zM571 78q54 70 78 151q-176 -47 -270 -143q-34 -40 -43 -79q-9 -44 40 -40h5q44 7 76 21q72 37 114 90z" />
    <glyph glyph-name="q" unicode="q" horiz-adv-x="864" 
d="M967 328q7 -2 7 -11.5t-7 -9.5q-148 -6 -249 -56t-214 -165q-1 -7 -2 -23t-2 -24q135 -143 213 -330.5t90 -388.5q11 -193 -33 -317q-48 -136 -129 -148q-51 -8 -93 15t-67 61.5t-44 94t-27 99t-13 89.5q-16 129 -16.5 275.5t8.5 266.5t27 275l-2 2q-22 22 0 47q1 2 4 6
t4 6q2 20 7 60.5t7 60.5q-52 -66 -120.5 -101.5t-139.5 -13.5q-53 16 -80 54.5t-28.5 85t11.5 99t35.5 97t47.5 76.5q97 119 198 141q54 10 103 -12q8 -4 10 -6q5 31 8 74q2 25 24 35.5t42.5 0.5t19.5 -36q-6 -105 -18 -207q-6 -52 -17.5 -157t-17.5 -157
q118 98 213.5 130.5t239.5 11.5zM324 219q114 102 145 367q-69 16 -129 -15q-84 -44 -139 -139q-70 -119 -49 -192q10 -32 30 -48t44.5 -15.5t50 11.5t47.5 31zM725 -768q5 195 -55 380.5t-178 334.5q-14 -149 -19 -260q-11 -254 0 -404q6 -65 10 -101t19 -90.5t39 -92.5
q77 -125 134 1q38 84 49 209q1 13 1 23z" />
    <glyph glyph-name="r" unicode="r" horiz-adv-x="622" 
d="M655 391q13 1 13 -9t-13 -13q-55 -15 -126.5 -4.5t-112.5 51.5q-7 7 -13.5 15t-12.5 18t-10.5 16t-10.5 19t-8.5 17.5t-9 20t-7.5 18t-8.5 20t-7.5 18.5q-53 -108 -107 -320q-60 -234 -55 -397q1 -26 -19.5 -36t-42.5 0.5t-24 35.5v78q1 45 1 145t1.5 175t5.5 144
q17 242 57 515q1 6 9 6t10 -6q9 -60 11.5 -136t2.5 -115t-4.5 -145t-5.5 -121q0 -44 -2 -67q67 208 141 332q11 18 30 14.5t25 -21.5q4 -11 18.5 -46.5t22 -54t21 -46t25.5 -47.5q53 -87 206 -74z" />
    <glyph glyph-name="s" unicode="s" horiz-adv-x="546" 
d="M647 395q9 3 15.5 0t6 -10t-9.5 -12q-103 -57 -189.5 -124t-190.5 -161q27 -84 28.5 -173.5t-21 -170.5t-74 -148t-126.5 -102q-43 -20 -91 -27t-93.5 10.5t-59.5 63.5q-12 31 -9 66.5t11 68t27.5 67.5t40.5 66.5t49 64.5t54 60.5t56 55.5t53.5 49.5t47.5 42.5
q11 9 16 14q-10 30 -90 223q-89 224 -29 370q34 82 101 106q62 22 106 -23q26 -28 35 -74q6 -29 -6.5 -62t-32 -52t-32.5 -13q-6 2 -9 5t-1.5 9t3.5 10t7 13q41 73 13 108q-22 26 -59 8q-51 -25 -65 -103q-13 -70 12 -164q24 -87 67 -189.5t46 -111.5q39 29 76.5 54.5
t66.5 44.5t60 38t50 30t45 24.5t37 19t32.5 16t25.5 12.5zM-14 -461q126 44 192 176.5t33 302.5q-97 -80 -180 -178t-111 -174q-8 -22 -10.5 -46t1.5 -49t22.5 -33.5t52.5 1.5z" />
    <glyph glyph-name="t" unicode="t" horiz-adv-x="329" 
d="M1030 1202q7 1 10 -4t1.5 -11.5t-7.5 -8.5q-86 -27 -176 -43.5t-201 -22.5t-173 -7t-195 -1h-84q-17 -334 -23 -852.5t-24 -798.5q-1 -24 -24 -22t-32 24l-2 13q-1 37 3.5 450t8.5 799.5t1 386.5q-71 0 -201 2t-242 2q-55 0 -77 32q-15 22 3 34q7 4 19 4q51 0 250.5 -2.5
t255.5 0.5q6 158 14 460q2 21 23 24t24 -18q35 -203 25 -471q172 0 267.5 1t253 8.5t302.5 21.5z" />
    <glyph glyph-name="u" unicode="u" horiz-adv-x="899" 
d="M1012 348q7 12 14 14t9 -5.5t-3 -20.5q-7 -13 -21.5 -44.5t-28 -60t-33.5 -67t-39 -71t-44 -67t-48.5 -59.5t-52.5 -44t-57 -25.5t-59.5 1t-62.5 31.5q-86 69 -99 275q-2 12 -2 37q-20 -62 -47 -109q-112 -223 -250 -174q-32 12 -54.5 38t-33.5 55t-17 69.5t-7 68.5t0 64
q7 216 45 358q3 11 11.5 13.5t16.5 -2.5t9 -15q2 -56 -7 -158.5t-10 -140.5v-27v-37.5t1 -40.5t3.5 -44.5t7.5 -40.5t12.5 -37.5t18.5 -27t25 -17.5q31 -10 61.5 5.5t56 51.5t48 79t42 96.5t33.5 95.5t26.5 84t17.5 55q4 15 17.5 23t27.5 7t24.5 -11t9.5 -27
q-10 -115 -8 -220q0 -60 1.5 -94t12.5 -86t33 -86q84 -129 264 119q60 81 136 219z" />
    <glyph glyph-name="v" unicode="v" horiz-adv-x="761" 
d="M870 352q9 0 11 -10q2 -7 -4 -8q-105 -13 -176.5 2.5t-106 45.5t-62.5 81q-10 -65 -38 -165.5t-37 -143.5q-82 -330 -170 -496q-14 -24 -40 -20t-34 28q-22 68 -42 151.5t-31 142t-28.5 160t-25.5 146.5q-10 51 -19 107t-20 129.5t-16 107.5q-4 21 -10.5 65t-10.5 64
q-2 9 -4 29.5t-2 22.5q0 8 7 19t7 13q-2 3 2 3q2 0 3 -1q1 -3 13 -11t15 -17q11 -32 12 -43q23 -93 29 -127q41 -187 68 -340q8 -44 27 -154t35.5 -190.5t35.5 -153.5q26 61 47.5 129t47 161t36.5 130q9 32 30.5 109t33 119t26 105.5t23.5 116.5q4 33 8 48t17 17t23 -7.5
t7 -24.5q-5 -43 -8 -55q-1 -41 5 -78t26.5 -77t54.5 -68t94.5 -46t140.5 -16z" />
    <glyph glyph-name="w" unicode="w" horiz-adv-x="1523" 
d="M1628 397q6 2 7 -4q1 -3 -1 -4q-39 -35 -80 -59.5t-87.5 -39.5t-94.5 -6.5t-90 42.5q-69 53 -100 157q-7 -43 -19 -144.5t-22 -154.5q-15 -75 -25.5 -119t-33 -110.5t-55.5 -116t-77 -84.5q-60 -46 -130 -48t-129 35.5t-93 102.5q-37 72 -56 151t-34 189
q-27 -77 -76 -170q-20 -39 -47.5 -78t-70 -78.5t-81.5 -45.5q-35 -6 -62 8t-43 44t-24.5 58t-13.5 62q-22 142 -6 305q3 25 7 90.5t10.5 112.5t19.5 86q3 10 14.5 10t14.5 -10q10 -33 12 -69t-2 -93t-4 -70q-7 -160 4 -256q21 -165 45 -187q10 -8 20 1q91 83 148 195
t110 274q6 18 24.5 26t35.5 1t20 -27q7 -45 16 -140.5t22 -168.5t38 -136q60 -151 158 -151q95 -3 153 80q56 80 89 188.5t42 200.5t25.5 211.5t40.5 201.5q6 24 34 25t33 -25q21 -132 42 -184q22 -53 55 -84q42 -39 82 -48.5t90.5 3t144.5 51.5z" />
    <glyph glyph-name="x" unicode="x" horiz-adv-x="634" 
d="M592 -317q5 -4 4.5 -14t-6.5 -11q-22 -4 -81 30.5t-99 73.5q-142 139 -224 301q-106 -113 -184 -366q-2 -7 -10.5 -10t-16 -0.5t-6.5 10.5q5 77 21 141t44 118.5t47 83.5t55 78q9 13 14 19q-16 38 -30.5 74.5t-32 92.5t-25.5 103t-4.5 95t22.5 78q2 3 5 3t5 -3
q6 -17 42 -152.5t73 -220.5q104 123 203 178q65 38 120 41q18 1 30.5 -2t31 -11.5t26.5 -11.5q9 -3 8.5 -15t-12.5 -11q-42 5 -99.5 -21t-102.5 -59q-85 -64 -168 -170q84 -161 123 -218q91 -134 227 -224z" />
    <glyph glyph-name="y" unicode="y" horiz-adv-x="702" 
d="M788 360q20 19 29 2q6 -12 -2 -20q-197 -197 -328 -348q0 -21 -2 -35q0 -8 -2.5 -73.5t-3 -81t-3.5 -74.5t-6.5 -82.5t-9.5 -74.5t-13.5 -81l-18 -72t-24.5 -77t-31 -68q-27 -52 -61.5 -93.5t-70 -65.5t-73 -38t-71 -11t-63 15.5t-50.5 41t-32.5 66t-9 90.5t20.5 114
q19 67 59 139.5t97.5 145t102.5 124.5t110.5 122t85.5 93q2 70 2 213q-29 -66 -72 -120q-22 -28 -48.5 -47.5t-61.5 -27.5t-66 15q-36 23 -59.5 55t-32.5 69.5t-11.5 74.5t3.5 82.5t12.5 80t16.5 80t14 70.5q3 20 23 17t20 -21q2 -36 -5 -106t-11.5 -123t10 -112t55.5 -93
q32 -26 75.5 34t81 158.5t62 172t31.5 102.5q6 20 25 24.5t33.5 -8.5t8.5 -33q-17 -71 -25.5 -166t-9 -147t-0.5 -172q170 163 299 270zM276 -727q72 127 102.5 287.5t37.5 353.5q-3 -4 -47.5 -52t-52.5 -56.5t-46 -52t-49.5 -59t-42.5 -54t-45 -62t-36 -58.5t-36.5 -67
t-27.5 -65q-25 -66 -30 -119t7.5 -83.5t39 -42.5t61.5 -2.5t78.5 43.5t86.5 89z" />
    <glyph glyph-name="z" unicode="z" horiz-adv-x="935" 
d="M997 299q16 9 25 -1q5 -7 -2 -13q-72 -55 -159.5 -153.5t-123.5 -160.5q67 -108 60 -286q-12 -271 -115 -519q-23 -59 -46 -107t-56 -102t-75.5 -96.5t-90.5 -68.5q-68 -39 -132.5 -21.5t-95.5 90.5q-70 170 62 477q108 251 332 539q11 16 33.5 44t29.5 38q-13 15 -41 33
q-146 71 -401 0q-29 -9 -46.5 19t5.5 48q129 106 241 303q68 116 88 172q33 90 5 134q-14 22 -41 23t-54 -12t-58.5 -36t-50.5 -40t-34 -32q-58 -55 -104 -122q-6 -7 -32.5 -56t-23.5 -49q-34 5 -4 83q38 99 128 195q125 135 243 134q157 -1 102 -199q-45 -159 -195 -375
q-31 -44 -61 -82q208 42 336 -37q24 -14 51 -38q58 71 148 154.5t153 119.5zM715 -358q5 182 -35 264q-71 -85 -144.5 -190t-149 -233.5t-122.5 -260t-45 -230.5q1 -56 24 -97t64.5 -51t100.5 36q72 59 128.5 150t91.5 196t56 207t31 209z" />
    <glyph glyph-name="braceleft" unicode="{" horiz-adv-x="342" 
d="M453 1014q6 -2 1 -7q-2 -2 -5 -1q-31 16 -62.5 24.5t-64.5 9.5t-58 -17t-35 -56q-18 -74 -23.5 -182.5t-5 -186.5t-21.5 -153t-73 -109q29 -20 45 -67.5t19.5 -83t4.5 -103t1 -72.5q0 -7 1.5 -35.5t2 -40.5t2.5 -38t5 -42t7 -37t10.5 -38.5t14.5 -32.5q11 -21 26.5 -31.5
t30.5 -12t35.5 4t35 12.5t37 18.5t34.5 16.5q5 2 6 -3q0 -2 -2 -3q-19 -20 -43.5 -37.5t-53.5 -30.5t-60 -12t-56 19q-39 29 -54.5 77.5t-21.5 116.5q-5 44 -8.5 142t-9.5 149q-4 35 -8.5 57t-15 46t-31 35.5t-50.5 11.5q-8 1 -12.5 8t-2 14t10.5 8q114 0 137 164
q7 57 9.5 163.5t5.5 149.5q4 42 6 58.5t9 54t20.5 61.5t33.5 41q80 65 226 -30z" />
    <glyph glyph-name="bar" unicode="|" horiz-adv-x="131" 
d="M49 1114q14 -174 21 -374t7 -329.5t-1.5 -370.5t-1.5 -343q0 -42 -32 -55q-25 -9 -36 9q-4 7 -4 17q9 207 0.5 717.5t11.5 730.5q1 7 9 13t16.5 3t9.5 -18z" />
    <glyph glyph-name="braceright" unicode="}" horiz-adv-x="505" 
d="M451 352q8 -1 9.5 -8t-3 -14t-13.5 -8q-24 0 -42 -9.5t-28.5 -22t-17.5 -35t-10 -39.5t-6 -44q-5 -52 -8.5 -150t-7.5 -141q-13 -146 -76 -194q-25 -18 -56 -19t-60 12t-54 30.5t-45 37.5q-2 2 2 6q1 1 2 0q12 -5 34.5 -16.5t37.5 -18.5t35.5 -12.5t35.5 -4t30.5 12
t27.5 31.5q9 18 16.5 41.5t11 39.5t7 49.5t4 43t2.5 49.5t2 41q0 7 1 73t4 102t19 83.5t45 67.5q-48 27 -72.5 84.5t-28 130t-2 144.5t-1.5 148.5t-19 123.5q-13 37 -38.5 55t-57.5 17.5t-62 -9t-61 -24.5q-6 -2 -8 4q-1 3 2 4q30 19 54.5 30.5t55.5 21t60.5 4t54.5 -25.5
q21 -17 35 -42.5t21 -59t9.5 -56t4.5 -57.5q3 -42 6 -148.5t10 -164.5q20 -162 138 -164z" />
    <glyph glyph-name="asciitilde" unicode="~" horiz-adv-x="821" 
d="M653 455q55 -19 92.5 -64t36.5 -106q0 -9 -15 -4q-10 4 -11 10q-8 40 -31 65t-51.5 34.5t-69 7.5t-74 -9t-77.5 -22.5t-69 -26t-58 -25.5q-152 -64 -222 -34q-48 19 -75 69.5t-29 106.5q0 6 6 7t8 -5q14 -67 63 -102.5t118 -18.5q36 9 75.5 23.5t86.5 34.5t73 30
q146 54 223 29z" />
    <glyph glyph-name="sterling" unicode="&#xa3;" horiz-adv-x="430" 
d="M713 -229q6 3 12.5 -3.5t3.5 -11.5q-25 -35 -70.5 -51.5t-90 -15.5t-81.5 14q-12 4 -41 14t-43 14.5t-41 12t-42.5 10t-40 4.5t-40 -1.5t-36.5 -10t-36.5 -18.5t-32 -30t-30.5 -42q-17 -28 -41 -20t-24 40q4 100 0 211.5t-14 253t-13 211.5q-12 -1 -52.5 -3t-59 -2.5
t-51 0t-58.5 4.5t-51 11q-8 2 -8 10t8 11q98 29 268 37v22q0 12 -3 88.5t-2.5 105.5t3 88.5t12.5 103t27 83.5q25 59 70.5 98t102.5 47.5t116 -26.5q66 -41 90 -130t10 -175q-1 -6 -6 -7.5t-9 1t-3 8.5q4 46 -10 106.5t-45 112.5t-78 69.5t-109 -22.5q-32 -21 -53 -56
t-30 -65t-12 -81.5t-2.5 -76t3.5 -77.5q8 -143 14 -213q43 1 81.5 2t80 -9t72.5 -32q8 -4 7 -15t-11 -12q-45 -12 -109.5 -12.5t-116.5 4.5q29 -374 31 -543q82 62 231 19q32 -9 98.5 -40t104.5 -40q76 -17 150 25z" />
    <glyph glyph-name="yen" unicode="&#xa5;" horiz-adv-x="698" 
d="M621 45q17 0 24.5 -14t0 -28.5t-24.5 -14.5q-44 0 -133 1t-134 1q1 -10 4.5 -51.5t4.5 -58t2 -53t-0.5 -58.5t-6 -50t-12.5 -51q-4 -15 -19.5 -15t-21.5 15q-21 61 -24 157.5t2 166.5q-178 4 -265 8q-15 2 -15 17.5t15 15.5q176 8 263 8v8q-3 67 -9 139q-37 1 -113 4.5
t-116 4.5q-11 2 -14.5 13.5t6.5 16.5q81 35 233 31q-4 113 6 186q1 17 15 74q-29 37 -54.5 84.5t-52.5 109t-43 91.5q-7 13 -21 38t-22.5 40t-21.5 36t-25 37q-5 7 -20 23.5t-25 31t-12 27.5q0 2 2 2q2 2 4 2q7 7 16 4q24 -12 46 -31.5t43 -49.5t33 -48t34 -57t27 -47
q6 -11 29.5 -51.5t34 -60.5t25 -53.5t21.5 -61.5q25 79 58 147q10 22 33 76.5t36 84.5t34 74t40 78q6 11 19 7.5t12 -15.5q-7 -72 -38 -157.5t-65 -151.5t-63.5 -151.5t-34.5 -159.5q-6 -80 0 -160h4q134 -5 182 2q9 1 27 4.5t23.5 3.5t16.5 -3.5t23 -12.5q10 -10 7 -19
q-7 -15 -20.5 -25.5t-33 -16t-37 -8.5t-44 -3t-41 1t-40.5 3t-32 2h-31q2 -47 10 -141q90 2 269 2z" />
    <glyph glyph-name="brokenbar" unicode="&#xa6;" horiz-adv-x="157" 
d="M23 592q1 56 2 165t2 165q0 6 -2 59.5t3.5 88.5t22.5 50q6 3 12 0q8 -7 12.5 -17.5t5 -18.5t1 -23t0.5 -21q2 -22 3 -46t1.5 -52.5t1.5 -44.5q1 -51 2 -152.5t2 -152.5q1 -21 -16.5 -30t-35.5 0t-17 30zM113 -397q5 -23 -12 -38.5t-38 -11.5t-26 27q-26 125 -33 274.5
t-1.5 268.5t20.5 276q1 14 12 19.5t22.5 0t12.5 -19.5q9 -100 8.5 -254.5t5 -291t29.5 -250.5z" />
    <glyph glyph-name="section" unicode="&#xa7;" horiz-adv-x="411" 
d="M358 -51q9 -58 -9 -115.5t-64.5 -97t-108.5 -37.5q-47 1 -81 25t-49 59t-12.5 77.5t25.5 80.5q4 4 8 1q2 -1 1 -3q-13 -38 -5.5 -80t30.5 -71t59 -39t81 18q57 34 73.5 94t-5.5 121q-15 49 -48 95t-65.5 77t-74.5 74.5t-68 80.5q-86 126 -36 205q31 50 94 56q60 6 88 -33
q26 -35 4 -93h-2q-2 49 -32.5 74.5t-70.5 5.5q-20 -9 -29 -30t-7.5 -40.5t9.5 -31.5q28 -42 74 -31t68 53q41 76 35 144q-3 32 -19 65.5t-29 50.5t-42 54q-27 35 -45 64t-35.5 69t-15 78t25.5 71q42 57 95 54.5t95 -58.5q4 -4 0 -8t-8 0q-27 28 -62 38t-64 -7.5t-36 -61.5
q-8 -73 45 -147q15 -20 46 -56t53 -66.5t35 -61.5q33 -72 13.5 -164.5t-83.5 -143.5q-61 -49 -127 -10q26 -34 82 -86q81 -78 129.5 -150.5t64.5 -162.5z" />
    <glyph glyph-name="dieresis" unicode="&#xa8;" horiz-adv-x="419" 
d="M92 1421q29 -16 35 -49q6 -39 -14.5 -70t-55.5 -34q-32 -3 -47.5 27.5t-7.5 66.5q9 36 34 59t52 6q4 -4 4 -6zM346 1372q6 -39 -14.5 -70t-55.5 -34q-32 -3 -47.5 27.5t-7.5 66.5q9 36 34 59t52 6q4 -4 4 -6q29 -16 35 -49z" />
    <glyph glyph-name="copyright" unicode="&#xa9;" horiz-adv-x="876" 
d="M659 322q1 0 1 -1.5t-1 -1.5t-1 1.5t1 1.5zM246 682q117 131 263 89q114 -33 200 -156q92 -130 95 -277q3 -174 -128 -275q-64 -49 -159.5 -72.5t-191.5 -17t-180.5 55t-121.5 133.5q-32 69 -24.5 148.5t39.5 152.5t87.5 132.5t120.5 86.5zM678 139q57 61 73 146.5
t-6 167.5t-73 149q-69 89 -155 113.5t-171 -15.5q30 0 57 -8q6 -2 5 -9t-7 -7q-53 7 -111 -18.5t-106 -70.5t-83.5 -106.5t-50 -123.5t1.5 -124t65 -106q68 -63 175 -85.5t214.5 3t171.5 94.5zM496 293q6 3 9.5 -3t-1.5 -11q-40 -34 -41 -35q-41 -33 -86 -38.5t-88 25.5
q-26 22 -35.5 61t-1.5 77q21 91 92 114q37 15 78 2q30 -11 45 -22q9 -6 21 -23.5t14 -19.5q3 -5 0.5 -9t-8.5 -1q-7 4 -24.5 8t-25.5 8q-26 9 -34 10q-34 3 -54 -8q-14 -12 -18 -16q-8 -10 -14 -19l-11 -22q-1 -3 -2 -8.5t-2 -8.5q0 -8 -2 -10v-25q2 0 2 -10l3 -8l-1 2
q3 -6 11 -18q3 -2 6.5 -6t9.5 -7q-2 2 1 1q1 0 4 -1q4 -2 5 -2q8 -2 10 -2q25 0 37 2q42 5 101 23z" />
    <glyph glyph-name="logicalnot" unicode="&#xac;" horiz-adv-x="1011" 
d="M930 422q12 -62 -21.5 -121.5t-90 -85.5t-103.5 0t-48 64.5t31 66t72 27.5q7 0 7.5 -8t-5.5 -11q-1 -1 -11 -5t-18 -8t-20 -11t-17 -13.5t-9.5 -16t3.5 -17.5q8 -16 26 -24.5t34 -6.5q30 4 69 35.5t56 71.5t-17 77q-20 19 -42.5 30t-49.5 10.5t-47.5 -2.5t-52 -15
t-47.5 -20t-49.5 -24t-42.5 -22q-151 -77 -224 -98q-199 -60 -313 65q-3 3 2 7q1 1 2 0q41 -26 83.5 -39.5t87.5 -11t81.5 8.5t86.5 27t80 35t84.5 42t78.5 40q99 48 144 56q38 7 71 1q112 -24 129 -104z" />
    <glyph glyph-name="uni00AD" unicode="&#xad;" horiz-adv-x="733" 
d="M629 383q23 -6 26.5 -22t-18.5 -25q-47 -16 -104.5 -25t-132 -9.5t-119 0.5t-132 6.5t-104.5 6.5q-28 2 -39.5 17t0 30t39.5 17q35 2 132.5 9t162 11t149 1t140.5 -17z" />
    <glyph glyph-name="registered" unicode="&#xae;" horiz-adv-x="794" 
d="M358 348q13 -17 54 -58t57 -69q3 -6 -2 -11.5t-12 -4.5q-76 12 -140 129q-6 -24 -6 -49v-70q0 -14 -11 -19.5t-22 0t-12 19.5q-3 40 0 80q-2 58 7.5 141t25.5 127q11 46 17 -15q5 -49 3 -73q32 49 91 92q17 10 28 -8q33 -71 11 -123t-89 -88zM412 518q-64 -55 -86 -137
q51 23 77 58t9 79zM500 754q90 -30 151 -104t85 -165t14 -186q-17 -157 -135.5 -254t-276.5 -76q-153 19 -249.5 138t-88.5 274q6 125 77 218.5t181 121.5q0 6 4 6q120 67 238 27zM477 27q68 19 119.5 64.5t77 105t33.5 129.5t-11 137q-37 154 -139 217q-70 45 -164 45
q4 -8 -4 -8q-204 -35 -280 -144q-80 -119 -58 -258q27 -156 150.5 -243t275.5 -45z" />
    <glyph glyph-name="degree" unicode="&#xb0;" horiz-adv-x="376" 
d="M311 1348q25 -84 -17 -160t-126 -96q-132 -32 -161 51q-23 64 21 153q40 80 97 105q8 4 16 6q30 23 64.5 25.5t64 -19t41.5 -65.5zM150 1151q55 15 85 62t17 102q-7 28 -19.5 40.5t-32.5 9t-35.5 -10t-40.5 -19.5q-7 -4 -11 -6q-5 -2 -13 2q-29 -36 -41 -84
q-14 -57 9.5 -84t81.5 -12z" />
    <glyph glyph-name="plusminus" unicode="&#xb1;" horiz-adv-x="628" 
d="M231 328q-98 -4 -149 -6q-5 0 -18.5 -2t-21.5 -2.5t-19 1t-19 7.5q-4 2 -4 8q0 2 1 5.5t1 4.5q3 13 16 16q97 32 248 39q2 85 -14 260q-1 13 14 17.5t21 -6.5q19 -36 28.5 -86.5t11 -84t1.5 -93.5v-5q76 2 213 -6q21 -2 30 -19.5t0 -34t-30 -15.5q-88 8 -215 4
q-1 -43 -5.5 -129.5t-5.5 -130.5q-1 -18 -16.5 -26t-31 0t-15.5 26q0 39 2 82t5.5 95t4.5 81h-33zM557 -8q12 -5 15 -18t-9 -19q-23 -12 -52 -18.5t-55.5 -7.5t-57 -1h-56.5q-138 -3 -279 6q-25 2 -25 26t25 26q54 3 151 6t128 4q18 1 67.5 5.5t83.5 3t64 -12.5z" />
    <glyph glyph-name="acute" unicode="&#xb4;" horiz-adv-x="221" 
d="M104 1415q8 18 28 19t34.5 -14t7.5 -34q-31 -85 -68 -137q-7 -10 -19 -28.5t-19.5 -30t-19.5 -25.5t-25 -24q-6 -3 -12.5 0t-8.5 8q-7 41 9 86.5t50 102.5t43 77z" />
    <glyph glyph-name="mu" unicode="&#xb5;" horiz-adv-x="411" 
d="M336 610q2 -23 7.5 -68t8 -67.5t6 -67.5t3.5 -67.5t-1 -67.5q-1 -13 -12.5 -18t-22.5 0t-10 18q8 74 2 158q-44 -164 -155 -154q-40 3 -70 33q0 -223 -29 -383q-3 -17 -19 -21t-30.5 5.5t-13.5 26.5q38 560 45 798q0 12 9.5 16.5t19 0t10.5 -16.5q1 -46 4 -145t4 -150
q14 -119 84 -116q35 2 60.5 35t37.5 83t17 90.5t6 77.5q1 12 10 16.5t18.5 0t10.5 -16.5z" />
    <glyph glyph-name="paragraph" unicode="&#xb6;" horiz-adv-x="602" 
d="M463 672q36 -32 54 -89t20 -96t2 -108v-19q0 -138 -11 -292q-1 -21 -2 -66.5t-3.5 -81t-8.5 -65.5q-5 -22 -18 -32.5t-26 -3t-17 30.5q-7 57 -3.5 170.5t12 225.5t0.5 218.5t-38 149.5q-41 58 -214 -68q-5 -3 -7 -5q-1 0 -17 -11q6 -19 9.5 -41t5.5 -38.5t3 -43.5t1 -39
v-43.5v-39.5q0 -149 -8 -361q0 -23 -19.5 -30.5t-38.5 4t-18 34.5q0 4 6.5 137.5t7.5 190.5q1 26 -0.5 119t2.5 119q-66 -45 -114 -68q-12 -5 -19.5 8.5t2.5 20.5q18 12 56.5 44.5t75 63.5t84 63t88 51t82 18.5t71.5 -27.5z" />
    <glyph glyph-name="periodcentered" unicode="&#xb7;" horiz-adv-x="165" 
d="M127 371q6 -39 -14.5 -70.5t-55.5 -34.5q-32 -3 -47.5 27.5t-7.5 66.5q9 36 34 59.5t52 6.5q4 -4 4 -6q29 -16 35 -49z" />
    <glyph glyph-name="questiondown" unicode="&#xbf;" horiz-adv-x="368" 
d="M283 156q27 -23 40 -58t11 -71t-13.5 -74t-34 -67t-50.5 -49.5t-62.5 -21.5t-69.5 17q-47 26 -74.5 78.5t-29.5 107.5t12 109q11 35 25 69t38 85.5t31 66.5q42 96 48 129q15 63 -7.5 87t-85.5 -11q-6 0 -2 4q27 36 59 50t70 -1q34 -18 36.5 -74t-19.5 -127t-48.5 -140
t-49.5 -126.5t-23 -72.5q-2 -44 14 -91t48 -69t79 24q88 85 35 211q-4 10 6.5 15.5t16.5 -0.5z" />
    <glyph glyph-name="Agrave" unicode="&#xc0;" horiz-adv-x="1089" 
d="M1092 600q7 -2 5 -13.5t-10 -11.5q-57 -4 -115.5 -3.5t-137.5 -0.5q0 -195 -16.5 -604t-16.5 -629q0 -26 -28 -31q-32 -5 -53 22q-13 18 -13 42q0 234 24 679.5t27 524.5q-45 3 -141 8.5t-144 8.5q-85 -221 -172 -389q-285 -550 -641 -697q-66 -27 -130.5 -36t-133.5 5.5
t-123 57.5q-62 49 -97.5 124.5t-39 153.5t15.5 158q30 109 92.5 207t146 173.5t183.5 134.5t208.5 95.5t219.5 51.5q181 22 399 12q43 111 66 178q93 261 208 591.5t116 346.5q1 23 38 35q27 8 29 -2q0 -129 -10.5 -591.5t-11.5 -573.5q176 -16 256 -27zM-8 -113
q217 257 391 709q-162 6 -305 -8q-387 -40 -617 -248q-59 -53 -109 -117t-92 -144t-52 -158t12 -161q42 -128 147.5 -177t233.5 -3q195 71 391 307zM760 633q22 529 31 878q-20 -74 -66.5 -212.5t-89.5 -255.5t-90.5 -247t-55.5 -151q46 -2 135.5 -6t135.5 -6zM727 2136
q9 -22 42 -77.5t50 -101.5t10 -87q-2 -5 -9 -8t-11 0q-13 10 -25.5 24.5t-20 25t-20 30t-18.5 28.5q-43 61 -68 137q-7 19 7.5 34t34.5 14t28 -19z" />
    <glyph glyph-name="Aacute" unicode="&#xc1;" horiz-adv-x="1089" 
d="M1092 600q7 -2 5 -13.5t-10 -11.5q-57 -4 -115.5 -3.5t-137.5 -0.5q0 -195 -16.5 -604t-16.5 -629q0 -26 -28 -31q-32 -5 -53 22q-13 18 -13 42q0 234 24 679.5t27 524.5q-45 3 -141 8.5t-144 8.5q-85 -221 -172 -389q-285 -550 -641 -697q-66 -27 -130.5 -36t-133.5 5.5
t-123 57.5q-62 49 -97.5 124.5t-39 153.5t15.5 158q30 109 92.5 207t146 173.5t183.5 134.5t208.5 95.5t219.5 51.5q181 22 399 12q43 111 66 178q93 261 208 591.5t116 346.5q1 23 38 35q27 8 29 -2q0 -129 -10.5 -591.5t-11.5 -573.5q176 -16 256 -27zM-8 -113
q217 257 391 709q-162 6 -305 -8q-387 -40 -617 -248q-59 -53 -109 -117t-92 -144t-52 -158t12 -161q42 -128 147.5 -177t233.5 -3q195 71 391 307zM760 633q22 529 31 878q-20 -74 -66.5 -212.5t-89.5 -255.5t-90.5 -247t-55.5 -151q46 -2 135.5 -6t135.5 -6zM926 2116
q8 18 27.5 19t34 -14t7.5 -34q-32 -88 -67 -137q-7 -10 -19 -29t-19.5 -30t-20 -25.5t-25.5 -24.5q-6 -3 -12.5 0t-8.5 8q-7 41 9.5 86.5t50.5 103t43 77.5z" />
    <glyph glyph-name="Acircumflex" unicode="&#xc2;" horiz-adv-x="1089" 
d="M1092 600q7 -2 5 -13.5t-10 -11.5q-57 -4 -115.5 -3.5t-137.5 -0.5q0 -195 -16.5 -604t-16.5 -629q0 -26 -28 -31q-32 -5 -53 22q-13 18 -13 42q0 234 24 679.5t27 524.5q-45 3 -141 8.5t-144 8.5q-85 -221 -172 -389q-285 -550 -641 -697q-66 -27 -130.5 -36t-133.5 5.5
t-123 57.5q-62 49 -97.5 124.5t-39 153.5t15.5 158q30 109 92.5 207t146 173.5t183.5 134.5t208.5 95.5t219.5 51.5q181 22 399 12q43 111 66 178q93 261 208 591.5t116 346.5q1 23 38 35q27 8 29 -2q0 -129 -10.5 -591.5t-11.5 -573.5q176 -16 256 -27zM-8 -113
q217 257 391 709q-162 6 -305 -8q-387 -40 -617 -248q-59 -53 -109 -117t-92 -144t-52 -158t12 -161q42 -128 147.5 -177t233.5 -3q195 71 391 307zM760 633q22 529 31 878q-20 -74 -66.5 -212.5t-89.5 -255.5t-90.5 -247t-55.5 -151q46 -2 135.5 -6t135.5 -6zM954 1860
q6 -19 -11 -20q-17 -2 -30 13q-16 18 -30.5 32t-20.5 21t-20 27t-41 62q-24 -50 -69.5 -98t-80.5 -64q-11 -5 -19 0.5t-8.5 14t1.5 12.5q16 23 48 66.5t46 65t32.5 60t30.5 80.5q3 12 19.5 10.5t19.5 -12.5q17 -55 66.5 -134.5t66.5 -135.5z" />
    <glyph glyph-name="Atilde" unicode="&#xc3;" horiz-adv-x="1089" 
d="M1092 600q7 -2 5 -13.5t-10 -11.5q-57 -4 -115.5 -3.5t-137.5 -0.5q0 -195 -16.5 -604t-16.5 -629q0 -26 -28 -31q-32 -5 -53 22q-13 18 -13 42q0 234 24 679.5t27 524.5q-45 3 -141 8.5t-144 8.5q-85 -221 -172 -389q-285 -550 -641 -697q-66 -27 -130.5 -36t-133.5 5.5
t-123 57.5q-62 49 -97.5 124.5t-39 153.5t15.5 158q30 109 92.5 207t146 173.5t183.5 134.5t208.5 95.5t219.5 51.5q181 22 399 12q43 111 66 178q93 261 208 591.5t116 346.5q1 23 38 35q27 8 29 -2q0 -129 -10.5 -591.5t-11.5 -573.5q176 -16 256 -27zM-8 -113
q217 257 391 709q-162 6 -305 -8q-387 -40 -617 -248q-59 -53 -109 -117t-92 -144t-52 -158t12 -161q42 -128 147.5 -177t233.5 -3q195 71 391 307zM760 633q22 529 31 878q-20 -74 -66.5 -212.5t-89.5 -255.5t-90.5 -247t-55.5 -151q46 -2 135.5 -6t135.5 -6zM944 1982
q60 25 88 -18q24 -36 5 -81q-24 -53 -89 -58q-43 -3 -89.5 10t-80 31t-74.5 38.5t-67 28.5q-25 7 -56.5 -6.5t-27.5 -42.5q2 -15 13.5 -25t20.5 -13t29 -7q4 0 3.5 -4t-3.5 -4q-36 -10 -64.5 7.5t-27.5 55.5t39.5 57.5t77.5 16.5q21 -2 60 -18.5t75.5 -34.5t80.5 -33.5
t74 -15.5t56 20q13 11 22 33.5t-1 36.5q-13 20 -52 16q-15 -2 -15 5q0 3 3 5z" />
    <glyph glyph-name="Adieresis" unicode="&#xc4;" horiz-adv-x="1089" 
d="M1092 600q7 -2 5 -13.5t-10 -11.5q-57 -4 -115.5 -3.5t-137.5 -0.5q0 -195 -16.5 -604t-16.5 -629q0 -26 -28 -31q-32 -5 -53 22q-13 18 -13 42q0 234 24 679.5t27 524.5q-45 3 -141 8.5t-144 8.5q-85 -221 -172 -389q-285 -550 -641 -697q-66 -27 -130.5 -36t-133.5 5.5
t-123 57.5q-62 49 -97.5 124.5t-39 153.5t15.5 158q30 109 92.5 207t146 173.5t183.5 134.5t208.5 95.5t219.5 51.5q181 22 399 12q43 111 66 178q93 261 208 591.5t116 346.5q1 23 38 35q27 8 29 -2q0 -129 -10.5 -591.5t-11.5 -573.5q176 -16 256 -27zM-8 -113
q217 257 391 709q-162 6 -305 -8q-387 -40 -617 -248q-59 -53 -109 -117t-92 -144t-52 -158t12 -161q42 -128 147.5 -177t233.5 -3q195 71 391 307zM760 633q22 529 31 878q-20 -74 -66.5 -212.5t-89.5 -255.5t-90.5 -247t-55.5 -151q46 -2 135.5 -6t135.5 -6zM735 1978
q29 -16 35 -49q6 -39 -14.5 -70t-55.5 -34q-32 -3 -47.5 27.5t-7.5 66.5q9 36 34 59.5t52 6.5q4 -4 4 -7zM989 1929q6 -39 -14 -70t-55 -34q-32 -3 -48 27.5t-8 66.5q9 36 34 59.5t52 6.5q4 -4 4 -7q29 -16 35 -49z" />
    <glyph glyph-name="Egrave" unicode="&#xc8;" horiz-adv-x="1536" 
d="M1597 346q24 39 38 23q9 -11 3 -23q-96 -177 -208 -321t-223 -241t-227 -162.5t-222 -94.5t-207 -29q-136 0 -257.5 41.5t-195.5 134.5q-67 84 -88 176.5t-0.5 177.5t70 170t120 157.5t152.5 137t165.5 112t162.5 77.5q226 86 407 104q-65 9 -151.5 43t-173 86
t-154.5 117t-95.5 136t3.5 143q37 81 148.5 111t236 13t239.5 -59t165 -94q8 -9 -1.5 -17t-19.5 -1q-29 19 -88.5 42t-135.5 45t-156.5 32.5t-149.5 7t-117.5 -33.5t-56.5 -87q-8 -51 14.5 -100.5t64.5 -89.5t102 -78.5t121.5 -67t128.5 -55.5t117 -43.5t94 -31t54 -18.5
q21 -9 15.5 -34.5t-31.5 -24.5q-206 5 -459 -80q-79 -27 -171.5 -76t-189 -118t-174.5 -150t-128.5 -172t-51.5 -185t57 -188q65 -99 185 -140t256 -34q111 5 241 58.5t263 148t266.5 238.5t242.5 317zM719 1790q9 -22 42 -77.5t50 -101.5t10 -87q-2 -5 -9 -8t-11 0
q-13 10 -25.5 24.5t-20 25t-20 30t-18.5 28.5q-43 61 -68 137q-7 19 7.5 34t34.5 14t28 -19z" />
    <glyph glyph-name="Eacute" unicode="&#xc9;" horiz-adv-x="1536" 
d="M1597 346q24 39 38 23q9 -11 3 -23q-96 -177 -208 -321t-223 -241t-227 -162.5t-222 -94.5t-207 -29q-136 0 -257.5 41.5t-195.5 134.5q-67 84 -88 176.5t-0.5 177.5t70 170t120 157.5t152.5 137t165.5 112t162.5 77.5q226 86 407 104q-65 9 -151.5 43t-173 86
t-154.5 117t-95.5 136t3.5 143q37 81 148.5 111t236 13t239.5 -59t165 -94q8 -9 -1.5 -17t-19.5 -1q-29 19 -88.5 42t-135.5 45t-156.5 32.5t-149.5 7t-117.5 -33.5t-56.5 -87q-8 -51 14.5 -100.5t64.5 -89.5t102 -78.5t121.5 -67t128.5 -55.5t117 -43.5t94 -31t54 -18.5
q21 -9 15.5 -34.5t-31.5 -24.5q-206 5 -459 -80q-79 -27 -171.5 -76t-189 -118t-174.5 -150t-128.5 -172t-51.5 -185t57 -188q65 -99 185 -140t256 -34q111 5 241 58.5t263 148t266.5 238.5t242.5 317zM944 1825q8 18 28 19t34.5 -14t7.5 -34q-31 -85 -68 -137
q-7 -10 -19 -29t-19.5 -30t-20 -25.5t-25.5 -24.5q-6 -3 -12 0.5t-8 8.5q-7 41 9 86.5t50 102.5t43 77z" />
    <glyph glyph-name="Ecircumflex" unicode="&#xca;" horiz-adv-x="1536" 
d="M1597 346q24 39 38 23q9 -11 3 -23q-96 -177 -208 -321t-223 -241t-227 -162.5t-222 -94.5t-207 -29q-136 0 -257.5 41.5t-195.5 134.5q-67 84 -88 176.5t-0.5 177.5t70 170t120 157.5t152.5 137t165.5 112t162.5 77.5q226 86 407 104q-65 9 -151.5 43t-173 86
t-154.5 117t-95.5 136t3.5 143q37 81 148.5 111t236 13t239.5 -59t165 -94q8 -9 -1.5 -17t-19.5 -1q-29 19 -88.5 42t-135.5 45t-156.5 32.5t-149.5 7t-117.5 -33.5t-56.5 -87q-8 -51 14.5 -100.5t64.5 -89.5t102 -78.5t121.5 -67t128.5 -55.5t117 -43.5t94 -31t54 -18.5
q21 -9 15.5 -34.5t-31.5 -24.5q-206 5 -459 -80q-79 -27 -171.5 -76t-189 -118t-174.5 -150t-128.5 -172t-51.5 -185t57 -188q65 -99 185 -140t256 -34q111 5 241 58.5t263 148t266.5 238.5t242.5 317zM1016 1573q6 -19 -11 -20t-30 14q-17 19 -36 36.5t-31 34.5t-46 70
q-24 -50 -69.5 -98t-79.5 -64q-11 -5 -19.5 0.5t-9 14t1.5 12.5q17 24 48.5 67t46 65t33 60t30.5 80q3 12 19.5 10.5t19.5 -12.5q17 -55 66.5 -134.5t66.5 -135.5z" />
    <glyph glyph-name="Edieresis" unicode="&#xcb;" horiz-adv-x="1536" 
d="M1597 346q24 39 38 23q9 -11 3 -23q-96 -177 -208 -321t-223 -241t-227 -162.5t-222 -94.5t-207 -29q-136 0 -257.5 41.5t-195.5 134.5q-67 84 -88 176.5t-0.5 177.5t70 170t120 157.5t152.5 137t165.5 112t162.5 77.5q226 86 407 104q-65 9 -151.5 43t-173 86
t-154.5 117t-95.5 136t3.5 143q37 81 148.5 111t236 13t239.5 -59t165 -94q8 -9 -1.5 -17t-19.5 -1q-29 19 -88.5 42t-135.5 45t-156.5 32.5t-149.5 7t-117.5 -33.5t-56.5 -87q-8 -51 14.5 -100.5t64.5 -89.5t102 -78.5t121.5 -67t128.5 -55.5t117 -43.5t94 -31t54 -18.5
q21 -9 15.5 -34.5t-31.5 -24.5q-206 5 -459 -80q-79 -27 -171.5 -76t-189 -118t-174.5 -150t-128.5 -172t-51.5 -185t57 -188q65 -99 185 -140t256 -34q111 5 241 58.5t263 148t266.5 238.5t242.5 317zM786 1696q29 -16 35 -49q6 -39 -14 -70.5t-55 -34.5q-32 -3 -48 27.5
t-8 66.5q9 36 34 59.5t52 6.5q4 -4 4 -6zM1040 1647q6 -39 -14 -70.5t-55 -34.5q-32 -3 -48 27.5t-8 66.5q9 36 34 59.5t52 6.5q5 -5 5 -6q28 -16 34 -49z" />
    <glyph glyph-name="Igrave" unicode="&#xcc;" horiz-adv-x="591" 
d="M698 1544q6 -2 6.5 -9t-6.5 -9q-75 -13 -204.5 -11.5t-153.5 -1.5q0 -22 -27 -741t-26 -1057q101 3 88 6q16 -4 114 -12q13 -1 13 -17t-13 -18q-292 -50 -512 -43q-33 2 -35 25q-2 24 26 36q9 4 20 5q35 3 109.5 7t109.5 7q0 850 74 1798q-181 -5 -252 -6q-30 0 -18 20
q12 19 36 26q2 1 4 1q90 18 333.5 18t313.5 -24zM229 1923q10 -23 43 -78t50 -101t10 -87q-2 -5 -9.5 -8t-11.5 0q-13 10 -25.5 24.5t-20 25t-20 30t-18.5 28.5q-41 58 -67 137q-7 19 7.5 34t34 14t27.5 -19z" />
    <glyph glyph-name="Iacute" unicode="&#xcd;" horiz-adv-x="591" 
d="M698 1544q6 -2 6.5 -9t-6.5 -9q-75 -13 -204.5 -11.5t-153.5 -1.5q0 -22 -27 -741t-26 -1057q101 3 88 6q16 -4 114 -12q13 -1 13 -17t-13 -18q-292 -50 -512 -43q-33 2 -35 25q-2 24 26 36q9 4 20 5q35 3 109.5 7t109.5 7q0 850 74 1798q-181 -5 -252 -6q-30 0 -18 20
q12 19 36 26q2 1 4 1q90 18 333.5 18t313.5 -24zM395 1948q8 18 28 19t34.5 -14t7.5 -34q-31 -85 -68 -137q-7 -10 -19 -29t-19.5 -30t-20 -25.5t-25.5 -24.5q-6 -3 -12 0t-8 8q-7 41 9 86.5t50 103t43 77.5z" />
    <glyph glyph-name="Icircumflex" unicode="&#xce;" horiz-adv-x="591" 
d="M698 1544q6 -2 6.5 -9t-6.5 -9q-75 -13 -204.5 -11.5t-153.5 -1.5q0 -22 -27 -741t-26 -1057q101 3 88 6q16 -4 114 -12q13 -1 13 -17t-13 -18q-292 -50 -512 -43q-33 2 -35 25q-2 24 26 36q9 4 20 5q35 3 109.5 7t109.5 7q0 850 74 1798q-181 -5 -252 -6q-30 0 -18 20
q12 19 36 26q2 1 4 1q90 18 333.5 18t313.5 -24zM459 1688q6 -19 -11 -20q-17 -2 -30 13q-16 18 -35.5 36.5t-31.5 35.5t-46 70q-24 -50 -69.5 -98t-79.5 -64q-11 -5 -19.5 0.5t-9 14t1.5 12.5q17 24 48.5 67t46 65t33 60t30.5 80q3 12 19.5 10.5t19.5 -12.5
q17 -55 66.5 -134.5t66.5 -135.5z" />
    <glyph glyph-name="Idieresis" unicode="&#xcf;" horiz-adv-x="591" 
d="M698 1544q6 -2 6.5 -9t-6.5 -9q-75 -13 -204.5 -11.5t-153.5 -1.5q0 -22 -27 -741t-26 -1057q101 3 88 6q16 -4 114 -12q13 -1 13 -17t-13 -18q-292 -50 -512 -43q-33 2 -35 25q-2 24 26 36q9 4 20 5q35 3 109.5 7t109.5 7q0 850 74 1798q-181 -5 -252 -6q-30 0 -18 20
q12 19 36 26q2 1 4 1q90 18 333.5 18t313.5 -24zM215 1827q29 -16 35 -49q6 -39 -14.5 -70.5t-55.5 -34.5q-32 -3 -47.5 27.5t-7.5 66.5q9 36 34 59.5t52 6.5q4 -4 4 -6zM469 1778q6 -39 -14.5 -70.5t-55.5 -34.5q-32 -3 -47.5 27.5t-7.5 66.5q9 36 34 59.5t52 6.5
q4 -4 4 -6q29 -16 35 -49z" />
    <glyph glyph-name="Eth" unicode="&#xd0;" horiz-adv-x="1320" 
d="M926 1352q244 -183 235 -723q-8 -534 -264 -811q-87 -95 -198.5 -152.5t-237 -62.5t-236.5 75q-83 61 -123 144q0 -183 2 -273q0 -24 -20 -34t-39.5 0t-19.5 34q-1 121 -14 402.5t-11 433.5q4 222 37 377q1 70 3 211.5t3 212.5q1 51 1.5 156t3 187.5t9.5 156.5
q2 13 11.5 18t19 0t10.5 -18q6 -61 8.5 -136.5t3 -119t0 -143.5t-0.5 -124q1 -27 1 -57.5t-0.5 -66.5t-0.5 -56q6 11 17 33.5t17 34.5q45 77 110 148t147.5 126.5t168.5 84t180.5 16t176.5 -73.5zM1028 184q71 227 68 463q0 280 -66 447q-82 207 -233 252q-143 44 -299 -35
q-297 -157 -389 -514q0 -29 -1.5 -87t-1.5 -87q0 -95 -1 -287t-1 -289q43 105 162 205q15 13 29 -1.5t2 -29.5q-9 -12 -35 -43.5t-38 -47.5t-32.5 -46t-28.5 -51.5t-15.5 -50.5t-5 -57.5t13.5 -57.5q28 -82 104 -134t166 -61q109 -10 209.5 31t175.5 117.5t130 169t87 194.5
zM344 449q11 -5 13 -18t-9 -19q-19 -10 -39.5 -16t-47.5 -8.5t-41.5 -3t-49 0t-43.5 0.5q-210 -5 -358 8q-16 1 -24.5 16.5t-4.5 31t20 16.5q52 3 187.5 5.5t171.5 4.5q47 4 114 1t111 -19z" />
    <glyph glyph-name="Ntilde" unicode="&#xd1;" horiz-adv-x="1259" 
d="M1317 -823q20 -9 11 -29.5t-30 -15.5q-77 21 -139 78t-101 129.5t-65.5 160t-37 165.5t-11.5 151q-3 156 9.5 443.5t13.5 381.5q7 237 -56 430q-13 40 -27.5 72.5t-39.5 71t-60 55.5t-75 6q-36 -10 -72 -34t-63.5 -52t-55.5 -66.5t-46.5 -69.5t-39.5 -69
q-106 -192 -172 -463q-99 -404 -123 -973q-1 -24 -19.5 -36.5t-39.5 -5.5t-29 30q-1 5 -4 15.5t-4 15.5q-7 34 -13 68t-9.5 74.5t-6 66.5t-4.5 75.5t-2.5 66.5t-2 75.5t-1.5 68.5q-6 335 4 719q6 340 23 627q4 74 8 109q4 24 6 38l6 25q6 58 21 64q12 4 17.5 -9.5
t-5.5 -19.5q6 3 7 1.5t-1 -8.5q-1 -3 -1.5 -6.5t-0.5 -7.5q0 -10 2 -28.5t2 -28.5q1 -40 -0.5 -114t-1.5 -97q-6 -323 -6 -647q0 -333 8 -598q9 76 31 201q75 446 217 712q21 39 44 77t57 85t69 84.5t78 69t85 45.5t89.5 7t91.5 -40q116 -85 164 -324q38 -176 35 -403
q-1 -82 -6.5 -205t-11 -219t-6.5 -215.5t4.5 -211.5t24 -189.5t50 -167.5t85 -126.5t126.5 -84.5zM768 1692q59 25 88 -18q24 -36 5 -82q-25 -53 -89 -58q-43 -3 -89.5 10t-80 31t-74.5 38.5t-67 28.5q-25 7 -56.5 -6.5t-27.5 -42.5q2 -15 13.5 -25t20.5 -13t29 -7
q4 0 3.5 -4t-3.5 -4q-36 -10 -64.5 8t-27.5 56t39.5 57.5t77.5 15.5q21 -2 60 -18.5t75.5 -34.5t80.5 -33.5t74 -15.5t56 20q13 11 20.5 32t-0.5 38q-13 20 -51 16q-15 -2 -15 6z" />
    <glyph glyph-name="Ograve" unicode="&#xd2;" 
d="M1665 387q9 7 19 -3.5t2 -18.5q-124 -131 -258 -186t-332 -46q-43 -86 -100 -162t-129 -140t-162 -102.5t-185 -39.5q-173 -1 -299.5 115t-175.5 292q-66 239 -37 494q15 136 96 356q3 4 12 4.5t18.5 -3.5t8.5 -9q-33 -104 -55 -225q-49 -276 0 -502q52 -238 207 -356
q61 -47 127 -65t124.5 -11t119 33t108 58.5t94.5 74.5q66 60 138 198q-99 16 -198 63t-184 117t-161 159.5t-129.5 191t-89.5 211.5t-40.5 220t17.5 218q14 64 35 119.5t58 111.5t85 95t120 63t159 23q101 -1 187 -52t147 -136t107.5 -198t71.5 -237t34 -254.5t0.5 -249.5
t-32.5 -223t-63 -174q286 -34 535 176zM1038 219q36 66 60 171t33 228t0 256.5t-33.5 259.5t-73 234.5t-113.5 184t-160 106.5t-208 2q-115 -29 -180.5 -122t-76 -218t13 -262.5t80.5 -266.5t132 -221q114 -141 242 -232t284 -120zM612 2097q10 -23 43 -78t50 -101t10 -87
q-2 -5 -9.5 -8t-11.5 0q-13 10 -25.5 24.5t-20 25t-20 30t-18.5 28.5q-41 58 -67 137q-7 19 7.5 34t34 14t27.5 -19z" />
    <glyph glyph-name="Oacute" unicode="&#xd3;" 
d="M1665 387q9 7 19 -3.5t2 -18.5q-124 -131 -258 -186t-332 -46q-43 -86 -100 -162t-129 -140t-162 -102.5t-185 -39.5q-173 -1 -299.5 115t-175.5 292q-66 239 -37 494q15 136 96 356q3 4 12 4.5t18.5 -3.5t8.5 -9q-33 -104 -55 -225q-49 -276 0 -502q52 -238 207 -356
q61 -47 127 -65t124.5 -11t119 33t108 58.5t94.5 74.5q66 60 138 198q-99 16 -198 63t-184 117t-161 159.5t-129.5 191t-89.5 211.5t-40.5 220t17.5 218q14 64 35 119.5t58 111.5t85 95t120 63t159 23q101 -1 187 -52t147 -136t107.5 -198t71.5 -237t34 -254.5t0.5 -249.5
t-32.5 -223t-63 -174q286 -34 535 176zM1038 219q36 66 60 171t33 228t0 256.5t-33.5 259.5t-73 234.5t-113.5 184t-160 106.5t-208 2q-115 -29 -180.5 -122t-76 -218t13 -262.5t80.5 -266.5t132 -221q114 -141 242 -232t284 -120zM791 2097q8 18 27.5 19t34 -14t7.5 -34
q-32 -88 -67 -137q-6 -9 -18.5 -28.5t-20 -30t-20 -25t-25.5 -24.5q-6 -3 -12.5 0t-8.5 8q-7 41 9.5 86.5t50.5 102.5t43 77z" />
    <glyph glyph-name="Ocircumflex" unicode="&#xd4;" 
d="M1665 387q9 7 19 -3.5t2 -18.5q-124 -131 -258 -186t-332 -46q-43 -86 -100 -162t-129 -140t-162 -102.5t-185 -39.5q-173 -1 -299.5 115t-175.5 292q-66 239 -37 494q15 136 96 356q3 4 12 4.5t18.5 -3.5t8.5 -9q-33 -104 -55 -225q-49 -276 0 -502q52 -238 207 -356
q61 -47 127 -65t124.5 -11t119 33t108 58.5t94.5 74.5q66 60 138 198q-99 16 -198 63t-184 117t-161 159.5t-129.5 191t-89.5 211.5t-40.5 220t17.5 218q14 64 35 119.5t58 111.5t85 95t120 63t159 23q101 -1 187 -52t147 -136t107.5 -198t71.5 -237t34 -254.5t0.5 -249.5
t-32.5 -223t-63 -174q286 -34 535 176zM1038 219q36 66 60 171t33 228t0 256.5t-33.5 259.5t-73 234.5t-113.5 184t-160 106.5t-208 2q-115 -29 -180.5 -122t-76 -218t13 -262.5t80.5 -266.5t132 -221q114 -141 242 -232t284 -120zM938 1853q6 -19 -11 -20t-30 14
q-16 18 -35.5 36.5t-31.5 35.5t-46 70q-24 -50 -69.5 -98t-79.5 -64q-11 -5 -19.5 0.5t-9 13.5t1.5 12q16 24 48 67t46.5 65t33 60.5t30.5 80.5q3 12 19.5 10.5t19.5 -12.5q17 -55 66.5 -135t66.5 -136z" />
    <glyph glyph-name="Otilde" unicode="&#xd5;" 
d="M1665 387q9 7 19 -3.5t2 -18.5q-124 -131 -258 -186t-332 -46q-43 -86 -100 -162t-129 -140t-162 -102.5t-185 -39.5q-173 -1 -299.5 115t-175.5 292q-66 239 -37 494q15 136 96 356q3 4 12 4.5t18.5 -3.5t8.5 -9q-33 -104 -55 -225q-49 -276 0 -502q52 -238 207 -356
q61 -47 127 -65t124.5 -11t119 33t108 58.5t94.5 74.5q66 60 138 198q-99 16 -198 63t-184 117t-161 159.5t-129.5 191t-89.5 211.5t-40.5 220t17.5 218q14 64 35 119.5t58 111.5t85 95t120 63t159 23q101 -1 187 -52t147 -136t107.5 -198t71.5 -237t34 -254.5t0.5 -249.5
t-32.5 -223t-63 -174q286 -34 535 176zM1038 219q36 66 60 171t33 228t0 256.5t-33.5 259.5t-73 234.5t-113.5 184t-160 106.5t-208 2q-115 -29 -180.5 -122t-76 -218t13 -262.5t80.5 -266.5t132 -221q114 -141 242 -232t284 -120zM840 1968q59 25 88 -18q24 -36 5 -82
q-25 -53 -89 -58q-55 -4 -112 17.5t-113.5 52t-86.5 39.5q-25 7 -56 -6.5t-27 -42.5q2 -15 13.5 -25t20.5 -13t29 -7q4 0 3.5 -4t-3.5 -4q-36 -10 -64.5 7.5t-27.5 55.5t39.5 57.5t77.5 16.5q21 -2 60 -18.5t75.5 -34.5t80.5 -33.5t74 -15.5t56 20q13 11 20.5 32t-0.5 38
q-13 20 -51 16q-15 -2 -15 5q0 3 3 5z" />
    <glyph glyph-name="Odieresis" unicode="&#xd6;" 
d="M1665 387q9 7 19 -3.5t2 -18.5q-124 -131 -258 -186t-332 -46q-43 -86 -100 -162t-129 -140t-162 -102.5t-185 -39.5q-173 -1 -299.5 115t-175.5 292q-66 239 -37 494q15 136 96 356q3 4 12 4.5t18.5 -3.5t8.5 -9q-33 -104 -55 -225q-49 -276 0 -502q52 -238 207 -356
q61 -47 127 -65t124.5 -11t119 33t108 58.5t94.5 74.5q66 60 138 198q-99 16 -198 63t-184 117t-161 159.5t-129.5 191t-89.5 211.5t-40.5 220t17.5 218q14 64 35 119.5t58 111.5t85 95t120 63t159 23q101 -1 187 -52t147 -136t107.5 -198t71.5 -237t34 -254.5t0.5 -249.5
t-32.5 -223t-63 -174q286 -34 535 176zM1038 219q36 66 60 171t33 228t0 256.5t-33.5 259.5t-73 234.5t-113.5 184t-160 106.5t-208 2q-115 -29 -180.5 -122t-76 -218t13 -262.5t80.5 -266.5t132 -221q114 -141 242 -232t284 -120zM580 1989q28 -16 34 -50q6 -39 -14 -70
t-55 -34q-32 -3 -48 27.5t-8 66.5q9 36 34 59.5t52 6.5q5 -5 5 -6zM834 1939q6 -39 -14.5 -70t-55.5 -34q-32 -3 -47.5 27.5t-7.5 66.5q9 36 34 59.5t52 6.5q4 -4 4 -6q29 -16 35 -50z" />
    <glyph glyph-name="multiply" unicode="&#xd7;" horiz-adv-x="536" 
d="M451 539q-68 -56 -160 -181q91 -106 155 -206q9 -15 0.5 -28.5t-23.5 -14t-26 13.5q-80 122 -137 196q-28 -27 -99.5 -111.5t-140.5 -135.5q-3 -2 -6 1.5t-4.5 8.5t0.5 8q17 27 45.5 65t49.5 64.5t57.5 72t46.5 58.5q10 15 12 17l-12 18q-38 43 -112 116.5t-97 98.5
q-2 0 -0.5 2t4.5 2q63 -25 116.5 -70.5t119.5 -117.5q2 -2 6 -6.5t6 -6.5q95 118 162 172q13 10 27.5 5t17.5 -17t-8 -24z" />
    <glyph glyph-name="Ugrave" unicode="&#xd9;" horiz-adv-x="1241" 
d="M1352 -627q14 16 27 12q7 -2 1 -12q-74 -140 -178 -125q-94 13 -172 121q-36 50 -61 109.5t-38 110t-19.5 123.5t-7.5 119t-1 126q0 118 4 184.5t16 170t19 182.5q4 41 14 100.5t13 105.5q-33 -178 -99 -366q-30 -88 -47 -135t-48.5 -122t-61.5 -124t-74.5 -105.5
t-97.5 -101.5q-52 -44 -118 -72t-133.5 -35t-129.5 23.5t-97 99.5q-20 39 -33 80.5t-19 93.5t-9.5 85.5t0 98t5 87t8.5 97t8 85.5q13 129 38 406q12 119 17 189.5t4.5 175t-14.5 188.5q-43 258 -201 198q-82 -32 -129 -107.5t-41 -162.5q0 -5 -4.5 -5.5t-5.5 3.5
q-9 76 19 148.5t87 117.5q34 27 72 43.5t82 15.5t78 -26q32 -24 55 -62.5t34.5 -70.5t19 -88t9 -81t4.5 -83q9 -182 -21 -548q-2 -25 -3 -38q-3 -38 -15 -158t-16 -180t-3 -154.5t13 -170.5q8 -49 18 -85.5t38.5 -75.5t70.5 -48q71 -14 145 11t132 77q116 104 191.5 254.5
t138.5 349.5q154 504 157 887q0 11 15 13t30.5 -5t16.5 -19q10 -142 4.5 -311.5t-14.5 -273.5t-21.5 -265.5t-17.5 -287.5q-3 -148 -4.5 -255t8.5 -192t20 -141.5t31 -102t41.5 -74t50.5 -57.5q31 -32 68.5 -35t70 16t60.5 54zM602 1821q9 -22 42.5 -77.5t50.5 -102
t10 -87.5q-2 -5 -9.5 -8t-11.5 0q-17 13 -30 29t-31 44.5t-23 35.5q-43 61 -68 137q-7 19 7.5 34t34.5 14t28 -19z" />
    <glyph glyph-name="Uacute" unicode="&#xda;" horiz-adv-x="1241" 
d="M1352 -627q14 16 27 12q7 -2 1 -12q-74 -140 -178 -125q-94 13 -172 121q-36 50 -61 109.5t-38 110t-19.5 123.5t-7.5 119t-1 126q0 118 4 184.5t16 170t19 182.5q4 41 14 100.5t13 105.5q-33 -178 -99 -366q-30 -88 -47 -135t-48.5 -122t-61.5 -124t-74.5 -105.5
t-97.5 -101.5q-52 -44 -118 -72t-133.5 -35t-129.5 23.5t-97 99.5q-20 39 -33 80.5t-19 93.5t-9.5 85.5t0 98t5 87t8.5 97t8 85.5q13 129 38 406q12 119 17 189.5t4.5 175t-14.5 188.5q-43 258 -201 198q-82 -32 -129 -107.5t-41 -162.5q0 -5 -4.5 -5.5t-5.5 3.5
q-9 76 19 148.5t87 117.5q34 27 72 43.5t82 15.5t78 -26q32 -24 55 -62.5t34.5 -70.5t19 -88t9 -81t4.5 -83q9 -182 -21 -548q-2 -25 -3 -38q-3 -38 -15 -158t-16 -180t-3 -154.5t13 -170.5q8 -49 18 -85.5t38.5 -75.5t70.5 -48q71 -14 145 11t132 77q116 104 191.5 254.5
t138.5 349.5q154 504 157 887q0 11 15 13t30.5 -5t16.5 -19q10 -142 4.5 -311.5t-14.5 -273.5t-21.5 -265.5t-17.5 -287.5q-3 -148 -4.5 -255t8.5 -192t20 -141.5t31 -102t41.5 -74t50.5 -57.5q31 -32 68.5 -35t70 16t60.5 54zM637 1821q8 18 28 19t34.5 -14t7.5 -34
q-31 -85 -68 -137q-7 -10 -19 -29t-19.5 -30t-20 -25.5t-25.5 -24.5q-6 -3 -12 0t-8 8q-7 41 9 86.5t50 103t43 77.5z" />
    <glyph glyph-name="Ucircumflex" unicode="&#xdb;" horiz-adv-x="1241" 
d="M1352 -627q14 16 27 12q7 -2 1 -12q-74 -140 -178 -125q-94 13 -172 121q-36 50 -61 109.5t-38 110t-19.5 123.5t-7.5 119t-1 126q0 118 4 184.5t16 170t19 182.5q4 41 14 100.5t13 105.5q-33 -178 -99 -366q-30 -88 -47 -135t-48.5 -122t-61.5 -124t-74.5 -105.5
t-97.5 -101.5q-52 -44 -118 -72t-133.5 -35t-129.5 23.5t-97 99.5q-20 39 -33 80.5t-19 93.5t-9.5 85.5t0 98t5 87t8.5 97t8 85.5q13 129 38 406q12 119 17 189.5t4.5 175t-14.5 188.5q-43 258 -201 198q-82 -32 -129 -107.5t-41 -162.5q0 -5 -4.5 -5.5t-5.5 3.5
q-9 76 19 148.5t87 117.5q34 27 72 43.5t82 15.5t78 -26q32 -24 55 -62.5t34.5 -70.5t19 -88t9 -81t4.5 -83q9 -182 -21 -548q-2 -25 -3 -38q-3 -38 -15 -158t-16 -180t-3 -154.5t13 -170.5q8 -49 18 -85.5t38.5 -75.5t70.5 -48q71 -14 145 11t132 77q116 104 191.5 254.5
t138.5 349.5q154 504 157 887q0 11 15 13t30.5 -5t16.5 -19q10 -142 4.5 -311.5t-14.5 -273.5t-21.5 -265.5t-17.5 -287.5q-3 -148 -4.5 -255t8.5 -192t20 -141.5t31 -102t41.5 -74t50.5 -57.5q31 -32 68.5 -35t70 16t60.5 54zM784 1554q6 -19 -11 -20t-30 14
q-16 18 -30.5 32t-20.5 21t-20 27t-41 62q-24 -50 -69.5 -98t-80.5 -64q-7 -3 -12.5 -2.5t-9 4.5t-5 8.5t-1.5 9t2 6.5q16 23 48 67t46 65.5t32.5 60t30.5 80.5q3 12 19.5 10.5t19.5 -12.5q17 -55 66.5 -135t66.5 -136z" />
    <glyph glyph-name="Udieresis" unicode="&#xdc;" horiz-adv-x="1241" 
d="M1352 -627q14 16 27 12q7 -2 1 -12q-74 -140 -178 -125q-94 13 -172 121q-36 50 -61 109.5t-38 110t-19.5 123.5t-7.5 119t-1 126q0 118 4 184.5t16 170t19 182.5q4 41 14 100.5t13 105.5q-33 -178 -99 -366q-30 -88 -47 -135t-48.5 -122t-61.5 -124t-74.5 -105.5
t-97.5 -101.5q-52 -44 -118 -72t-133.5 -35t-129.5 23.5t-97 99.5q-20 39 -33 80.5t-19 93.5t-9.5 85.5t0 98t5 87t8.5 97t8 85.5q13 129 38 406q12 119 17 189.5t4.5 175t-14.5 188.5q-43 258 -201 198q-82 -32 -129 -107.5t-41 -162.5q0 -5 -4.5 -5.5t-5.5 3.5
q-9 76 19 148.5t87 117.5q34 27 72 43.5t82 15.5t78 -26q32 -24 55 -62.5t34.5 -70.5t19 -88t9 -81t4.5 -83q9 -182 -21 -548q-2 -25 -3 -38q-3 -38 -15 -158t-16 -180t-3 -154.5t13 -170.5q8 -49 18 -85.5t38.5 -75.5t70.5 -48q71 -14 145 11t132 77q116 104 191.5 254.5
t138.5 349.5q154 504 157 887q0 11 15 13t30.5 -5t16.5 -19q10 -142 4.5 -311.5t-14.5 -273.5t-21.5 -265.5t-17.5 -287.5q-3 -148 -4.5 -255t8.5 -192t20 -141.5t31 -102t41.5 -74t50.5 -57.5q31 -32 68.5 -35t70 16t60.5 54zM539 1683q28 -16 34 -49q6 -39 -14 -70
t-55 -34q-32 -3 -47.5 27.5t-7.5 66.5q9 36 34 59.5t52 6.5q4 -4 4 -7zM793 1634q6 -39 -14.5 -70t-55.5 -34q-32 -3 -47.5 27.5t-7.5 66.5q9 36 34 59.5t52 6.5q4 -4 4 -7q29 -16 35 -49z" />
    <glyph glyph-name="Yacute" unicode="&#xdd;" horiz-adv-x="1212" 
d="M1110 332q5 4 9.5 1.5t5 -7.5t-2.5 -9q-7 -6 -66.5 -52t-66.5 -52q0 -1 3 -41t6.5 -86.5t5.5 -118t1 -141t-7 -150t-18 -150.5t-33.5 -137t-51.5 -114q-86 -135 -208 -210t-269 -66q-176 11 -250 133q-74 128 -27 252q36 92 84 175.5t117 162.5t117.5 131t141 126
t127 100t133.5 97q32 24 48 35q0 4 -1 8t-1 8q-29 441 -6 719q-16 -41 -53 -117q-154 -338 -334 -501q-60 -54 -121 -85t-134 -30.5t-134 49.5q-27 22 -48.5 50t-35 64t-23 66.5t-13 76t-5.5 73.5t0 78t3.5 70t4.5 69q7 94 37 344q1 6 5 36t5.5 39.5t4.5 35.5t4 40t2.5 35.5
t1 39.5t-1.5 36q0 9 10 10t12 -8q13 -55 14 -128t-4 -130q-2 -58 -15 -211t-12.5 -263.5t21.5 -209.5q32 -149 127 -182q87 -26 187 45q107 77 191.5 196t162.5 273q49 96 76.5 155t56.5 153t31 169q1 18 16 26t30 0t15 -26q0 -7 -1 -22.5t-1 -22.5q-24 -490 0 -979
q5 3 63 35.5t64 36.5zM827 -653q52 118 76.5 258.5t22.5 269.5t-11 272q-124 -68 -305 -236q-249 -231 -360 -433q-151 -274 35 -380q12 -7 26 -13q98 -39 200.5 -8t189 106t126.5 164zM686 1694q8 18 28 19t34.5 -14t7.5 -34q-31 -85 -68 -137q-7 -10 -19 -29t-19.5 -30
t-20 -25.5t-25.5 -24.5q-6 -3 -12 0t-8 8q-7 41 9 86.5t50 103t43 77.5z" />
    <glyph glyph-name="agrave" unicode="&#xe0;" horiz-adv-x="970" 
d="M1085 375q13 19 20 12q6 -7 -5 -25q-133 -220 -256 -350q-65 -68 -144.5 -109.5t-158.5 -27.5q-51 9 -86.5 43t-53.5 84.5t-24.5 105.5t-3.5 117q-91 -101 -134 -140q-130 -115 -194 -75q-41 24 -48 91t8.5 129.5t37.5 99.5q59 96 156.5 113t193.5 -46q3 5 9.5 15.5
t9.5 15.5q11 20 34 20.5t38.5 -16.5t7.5 -39q-13 -38 -22 -110.5t-8.5 -155.5t34 -139.5t98.5 -48.5q49 6 100 32t89.5 56.5t88 83.5t76.5 87t74 95.5t63 81.5zM96 100q50 1 145 97t134 174q-130 69 -221 -23q-60 -61 -75 -153q-11 -74 17 -95zM199 840q9 -22 42 -78
t50 -102t10 -87q-2 -5 -9 -8t-11 0q-17 13 -30 29t-31 44.5t-23 35.5q-43 61 -68 137q-7 19 7.5 34t34.5 14t28 -19z" />
    <glyph glyph-name="aacute" unicode="&#xe1;" horiz-adv-x="970" 
d="M1085 375q13 19 20 12q6 -7 -5 -25q-133 -220 -256 -350q-65 -68 -144.5 -109.5t-158.5 -27.5q-51 9 -86.5 43t-53.5 84.5t-24.5 105.5t-3.5 117q-91 -101 -134 -140q-130 -115 -194 -75q-41 24 -48 91t8.5 129.5t37.5 99.5q59 96 156.5 113t193.5 -46q3 5 9.5 15.5
t9.5 15.5q11 20 34 20.5t38.5 -16.5t7.5 -39q-13 -38 -22 -110.5t-8.5 -155.5t34 -139.5t98.5 -48.5q49 6 100 32t89.5 56.5t88 83.5t76.5 87t74 95.5t63 81.5zM96 100q50 1 145 97t134 174q-130 69 -221 -23q-60 -61 -75 -153q-11 -74 17 -95zM373 840q8 18 27.5 19t34 -14
t7.5 -34q-32 -88 -67 -137q-7 -10 -19 -29t-19.5 -30t-20 -25.5t-25.5 -24.5q-6 -3 -12.5 0t-8.5 8q-7 41 9.5 86.5t50.5 103t43 77.5z" />
    <glyph glyph-name="acircumflex" unicode="&#xe2;" horiz-adv-x="970" 
d="M1085 375q13 19 20 12q6 -7 -5 -25q-133 -220 -256 -350q-65 -68 -144.5 -109.5t-158.5 -27.5q-51 9 -86.5 43t-53.5 84.5t-24.5 105.5t-3.5 117q-91 -101 -134 -140q-130 -115 -194 -75q-41 24 -48 91t8.5 129.5t37.5 99.5q59 96 156.5 113t193.5 -46q3 5 9.5 15.5
t9.5 15.5q11 20 34 20.5t38.5 -16.5t7.5 -39q-13 -38 -22 -110.5t-8.5 -155.5t34 -139.5t98.5 -48.5q49 6 100 32t89.5 56.5t88 83.5t76.5 87t74 95.5t63 81.5zM96 100q50 1 145 97t134 174q-130 69 -221 -23q-60 -61 -75 -153q-11 -74 17 -95zM451 602q6 -19 -11 -20
t-30 14q-17 19 -36 36.5t-31 34.5t-46 70q-24 -50 -69.5 -98t-80.5 -64q-11 -5 -19 0.5t-8.5 14t1.5 12.5q17 24 48.5 67t46 65t33 60t30.5 80q3 12 19 10.5t19 -12.5q17 -55 67 -134.5t67 -135.5z" />
    <glyph glyph-name="atilde" unicode="&#xe3;" horiz-adv-x="970" 
d="M1085 375q13 19 20 12q6 -7 -5 -25q-133 -220 -256 -350q-65 -68 -144.5 -109.5t-158.5 -27.5q-51 9 -86.5 43t-53.5 84.5t-24.5 105.5t-3.5 117q-91 -101 -134 -140q-130 -115 -194 -75q-41 24 -48 91t8.5 129.5t37.5 99.5q59 96 156.5 113t193.5 -46q3 5 9.5 15.5
t9.5 15.5q11 20 34 20.5t38.5 -16.5t7.5 -39q-13 -38 -22 -110.5t-8.5 -155.5t34 -139.5t98.5 -48.5q49 6 100 32t89.5 56.5t88 83.5t76.5 87t74 95.5t63 81.5zM96 100q50 1 145 97t134 174q-130 69 -221 -23q-60 -61 -75 -153q-11 -74 17 -95zM451 717q59 25 88 -18
q24 -36 5 -82q-23 -53 -89 -58q-55 -4 -112 17.5t-113.5 52t-86.5 39.5q-25 7 -56.5 -7t-27.5 -43q1 -12 7 -20t17.5 -13t18 -7t21.5 -5q4 0 3.5 -4t-3.5 -4q-36 -10 -64.5 8t-27.5 56t39 57t77 16q21 -2 60 -18.5t76 -34.5t81 -33t74 -15t56 20q13 11 20.5 31.5t-0.5 37.5
q-14 21 -51 17q-15 -2 -15 5q0 3 3 5z" />
    <glyph glyph-name="adieresis" unicode="&#xe4;" horiz-adv-x="970" 
d="M1085 375q13 19 20 12q6 -7 -5 -25q-133 -220 -256 -350q-65 -68 -144.5 -109.5t-158.5 -27.5q-51 9 -86.5 43t-53.5 84.5t-24.5 105.5t-3.5 117q-91 -101 -134 -140q-130 -115 -194 -75q-41 24 -48 91t8.5 129.5t37.5 99.5q59 96 156.5 113t193.5 -46q3 5 9.5 15.5
t9.5 15.5q11 20 34 20.5t38.5 -16.5t7.5 -39q-13 -38 -22 -110.5t-8.5 -155.5t34 -139.5t98.5 -48.5q49 6 100 32t89.5 56.5t88 83.5t76.5 87t74 95.5t63 81.5zM96 100q50 1 145 97t134 174q-130 69 -221 -23q-60 -61 -75 -153q-11 -74 17 -95zM231 709q29 -16 35 -50
q6 -39 -14 -70t-55 -34q-32 -3 -48 27.5t-8 66.5q9 36 34 59.5t52 6.5q4 -4 4 -6zM485 659q6 -39 -14 -70t-55 -34q-32 -3 -48 27.5t-8 66.5q9 36 34 59.5t52 6.5q5 -5 5 -6q28 -16 34 -50z" />
    <glyph glyph-name="ae" unicode="&#xe6;" horiz-adv-x="1726" 
d="M1085 375q13 19 20 12q6 -7 -5 -25q-133 -220 -256 -350q-65 -68 -144.5 -109.5t-158.5 -27.5q-51 9 -86.5 43t-53.5 84.5t-24.5 105.5t-3.5 117q-91 -101 -134 -140q-130 -115 -194 -75q-41 24 -48 91t8.5 129.5t37.5 99.5q59 96 156.5 113t193.5 -46q3 5 9.5 15.5
t9.5 15.5q11 20 34 20.5t38.5 -16.5t7.5 -39q-13 -38 -22 -110.5t-8.5 -155.5t34 -139.5t98.5 -48.5q49 6 100 32t89.5 56.5t88 83.5t76.5 87t74 95.5t63 81.5zM96 100q50 1 145 97t134 174q-130 69 -221 -23q-60 -61 -75 -153q-11 -74 17 -95zM1815 358q7 11 21 11
q6 -1 3 -7q-107 -192 -210 -313t-228 -174q-66 -28 -128 -32t-110.5 13t-88 51.5t-63.5 80t-34 100.5t-3.5 111.5t33.5 115.5t72 109q27 29 61.5 45.5t74 13.5t69.5 -32q31 -29 34.5 -73.5t-15 -85.5t-48.5 -67q-101 -89 -213 -84q-1 -43 14 -87.5t36 -63.5
q54 -54 119 -67.5t124 3t125.5 61.5t115.5 90.5t104 109t80.5 97.5t54.5 74zM1159 395q-42 -29 -72.5 -88.5t-39.5 -126.5q106 31 174 105q30 37 22 84q-7 40 -38 43q-20 1 -46 -17z" />
    <glyph glyph-name="egrave" unicode="&#xe8;" horiz-adv-x="755" 
d="M844 358q7 11 21 11q6 -1 3 -7q-107 -192 -210 -313t-228 -174q-75 -32 -144.5 -33t-121 25.5t-91 71t-56.5 104.5t-16 124t28.5 132t79.5 125q27 29 61.5 45.5t73.5 13.5t69 -32q31 -29 35 -73.5t-14.5 -85.5t-48.5 -67q-101 -89 -213 -84q-1 -43 13.5 -87.5t35.5 -63.5
q54 -54 119 -67.5t124 3t125.5 61.5t115.5 90.5t104 109t80.5 97.5t54.5 74zM188 395q-42 -29 -72.5 -88.5t-39.5 -126.5q106 31 174 105q30 37 22 84q-7 40 -38 43q-21 0 -46 -17zM152 852q9 -22 42 -77.5t50 -101.5t10 -87q-2 -5 -9.5 -8t-11.5 0q-13 10 -25 24
t-19.5 25.5t-19.5 30t-19 28.5q-43 61 -68 137q-7 19 7.5 34t34.5 14t28 -19z" />
    <glyph glyph-name="eacute" unicode="&#xe9;" horiz-adv-x="755" 
d="M844 358q7 11 21 11q6 -1 3 -7q-107 -192 -210 -313t-228 -174q-75 -32 -144.5 -33t-121 25.5t-91 71t-56.5 104.5t-16 124t28.5 132t79.5 125q27 29 61.5 45.5t73.5 13.5t69 -32q31 -29 35 -73.5t-14.5 -85.5t-48.5 -67q-101 -89 -213 -84q-1 -43 13.5 -87.5t35.5 -63.5
q54 -54 119 -67.5t124 3t125.5 61.5t115.5 90.5t104 109t80.5 97.5t54.5 74zM188 395q-42 -29 -72.5 -88.5t-39.5 -126.5q106 31 174 105q30 37 22 84q-7 40 -38 43q-21 0 -46 -17zM303 852q8 18 28 19t34.5 -14t7.5 -34q-31 -85 -68 -137q-6 -9 -18.5 -28.5t-20 -30
t-20 -25t-25.5 -24.5q-6 -3 -12 0t-8 8q-7 41 9 86.5t50 102.5t43 77z" />
    <glyph glyph-name="ecircumflex" unicode="&#xea;" horiz-adv-x="755" 
d="M844 358q7 11 21 11q6 -1 3 -7q-107 -192 -210 -313t-228 -174q-75 -32 -144.5 -33t-121 25.5t-91 71t-56.5 104.5t-16 124t28.5 132t79.5 125q27 29 61.5 45.5t73.5 13.5t69 -32q31 -29 35 -73.5t-14.5 -85.5t-48.5 -67q-101 -89 -213 -84q-1 -43 13.5 -87.5t35.5 -63.5
q54 -54 119 -67.5t124 3t125.5 61.5t115.5 90.5t104 109t80.5 97.5t54.5 74zM188 395q-42 -29 -72.5 -88.5t-39.5 -126.5q106 31 174 105q30 37 22 84q-7 40 -38 43q-21 0 -46 -17zM367 606q6 -19 -11 -20t-30 14q-17 19 -36 36.5t-31 34.5t-46 70q-23 -50 -69 -97.5
t-81 -63.5q-11 -5 -19 0.5t-8.5 13.5t1.5 12q16 24 48 67t46.5 65t33 60.5t30.5 80.5q3 12 19 10.5t19 -12.5q17 -55 67 -135t67 -136z" />
    <glyph glyph-name="edieresis" unicode="&#xeb;" horiz-adv-x="755" 
d="M844 348q7 11 21 11q6 -1 3 -7q-107 -192 -210 -313t-228 -174q-75 -32 -144.5 -33t-121 25.5t-91 71t-56.5 104.5t-16 124t28.5 132t79.5 125q27 29 61.5 45t73.5 13t69 -32q31 -29 35 -73.5t-14.5 -85t-48.5 -66.5q-101 -89 -213 -84q-1 -43 13.5 -87.5t35.5 -63.5
q54 -54 119 -67.5t124 3t125.5 61.5t115.5 90.5t104 109t80.5 97.5t54.5 74zM188 385q-42 -29 -72.5 -88.5t-39.5 -126.5q107 32 174 104q31 37 22 85q-8 41 -40 43q-19 0 -44 -17zM141 737q29 -16 35 -49q6 -39 -14.5 -70t-55.5 -34q-32 -3 -47.5 27.5t-7.5 66.5
q9 36 34 59t52 6q4 -4 4 -6zM395 688q6 -39 -14 -70t-55 -34q-32 -3 -48 27.5t-8 66.5q9 36 34 59t52 6q4 -4 4 -6q29 -16 35 -49z" />
    <glyph glyph-name="igrave" unicode="&#xec;" horiz-adv-x="446" 
d="M575 367q5 8 14 3.5t5 -14.5q-13 -40 -43.5 -100t-77 -130.5t-100 -123t-111.5 -78t-112 5.5q-37 19 -59.5 59t-28.5 84t-8.5 91.5t1.5 83.5q4 139 21 190q6 17 20.5 21.5t27.5 -4t15 -25.5q5 -51 -2.5 -154t0 -172t45.5 -102q19 -16 42.5 -17t49.5 14.5t51 35t54 54
t50.5 61.5t49 67.5t41 61t34 53.5t21.5 35zM147 645q-3 -24 -28 -22t-33 22q-17 45 -8.5 111.5t33.5 107.5q5 6 13 6.5t11 -6.5q19 -33 19 -102q0 -74 -7 -117zM35 1262q9 -22 42 -78t50 -102t10 -87q-2 -5 -9 -8t-11 0q-17 13 -30 29t-31 44.5t-23 35.5q-43 61 -68 137
q-7 19 7.5 34t34.5 14t28 -19z" />
    <glyph glyph-name="iacute" unicode="&#xed;" horiz-adv-x="446" 
d="M575 367q5 8 14 3.5t5 -14.5q-13 -40 -43.5 -100t-77 -130.5t-100 -123t-111.5 -78t-112 5.5q-37 19 -59.5 59t-28.5 84t-8.5 91.5t1.5 83.5q4 139 21 190q6 17 20.5 21.5t27.5 -4t15 -25.5q5 -51 -2.5 -154t0 -172t45.5 -102q19 -16 42.5 -17t49.5 14.5t51 35t54 54
t50.5 61.5t49 67.5t41 61t34 53.5t21.5 35zM147 645q-3 -24 -28 -22t-33 22q-17 45 -8.5 111.5t33.5 107.5q5 6 13 6.5t11 -6.5q19 -33 19 -102q0 -74 -7 -117zM219 1270q8 18 28 19t34.5 -14t7.5 -34q-31 -85 -68 -137q-7 -10 -19 -29t-19.5 -30t-20 -25.5t-25.5 -24.5
q-6 -3 -12 0.5t-8 8.5q-7 41 9 86.5t50 102.5t43 77z" />
    <glyph glyph-name="icircumflex" unicode="&#xee;" horiz-adv-x="446" 
d="M575 367q5 8 14 3.5t5 -14.5q-13 -40 -43.5 -100t-77 -130.5t-100 -123t-111.5 -78t-112 5.5q-37 19 -59.5 59t-28.5 84t-8.5 91.5t1.5 83.5q4 139 21 190q6 17 20.5 21.5t27.5 -4t15 -25.5q5 -51 -2.5 -154t0 -172t45.5 -102q19 -16 42.5 -17t49.5 14.5t51 35t54 54
t50.5 61.5t49 67.5t41 61t34 53.5t21.5 35zM147 645q-3 -24 -28 -22t-33 22q-17 45 -8.5 111.5t33.5 107.5q5 6 13 6.5t11 -6.5q19 -33 19 -102q0 -74 -7 -117zM291 1026q6 -19 -11 -20t-30 14q-17 19 -36 36.5t-31 34.5t-46 70q-24 -50 -69.5 -98t-79.5 -64
q-11 -5 -19.5 0.5t-9 14t1.5 12.5q17 24 48.5 67t46 65t33 60t30.5 80q3 12 19.5 10.5t19.5 -12.5q17 -55 66.5 -134.5t66.5 -135.5z" />
    <glyph glyph-name="idieresis" unicode="&#xef;" horiz-adv-x="446" 
d="M575 367q5 8 14 3.5t5 -14.5q-13 -40 -43.5 -100t-77 -130.5t-100 -123t-111.5 -78t-112 5.5q-37 19 -59.5 59t-28.5 84t-8.5 91.5t1.5 83.5q4 139 21 190q6 17 20.5 21.5t27.5 -4t15 -25.5q5 -51 -2.5 -154t0 -172t45.5 -102q19 -16 42.5 -17t49.5 14.5t51 35t54 54
t50.5 61.5t49 67.5t41 61t34 53.5t21.5 35zM147 645q-3 -24 -28 -22t-33 22q-17 45 -8.5 111.5t33.5 107.5q5 6 13 6.5t11 -6.5q19 -33 19 -102q0 -74 -7 -117zM37 1157q29 -16 35 -49q6 -39 -14.5 -70t-55.5 -34q-32 -3 -47.5 27.5t-7.5 66.5q9 36 34 59t52 6q4 -4 4 -6z
M291 1108q6 -39 -14.5 -70t-55.5 -34q-32 -3 -47.5 27.5t-7.5 66.5q9 36 34 59t52 6q4 -4 4 -6q29 -16 35 -49z" />
    <glyph glyph-name="ntilde" unicode="&#xf1;" horiz-adv-x="815" 
d="M915 350q9 14 21 14q9 -1 4 -12q-32 -69 -71 -130.5t-79.5 -109t-83 -83.5t-82.5 -52t-76.5 -16t-66.5 25.5t-51.5 71.5t-33 123t-9.5 179q0 3 1.5 37.5t1 62.5t-4 62t-15.5 54.5t-32 21.5q-48 3 -89 -37.5t-68 -108.5t-47.5 -146t-31.5 -158.5t-16 -136.5t-6 -89
q-1 -24 -21 -34t-39.5 0t-19.5 34q0 44 2 64q2 90 5 170.5t9 174t9.5 145.5t12.5 173.5t13 169.5q0 9 8 13.5t16 2t9 -11.5q15 -91 16 -210.5t-6 -213.5q11 65 50.5 132t90 111t109.5 40t102 -74q27 -47 32.5 -121t-1.5 -127q-16 -297 90 -321q89 -20 237 158q55 66 111 153
zM420 1063q59 25 88 -18q24 -36 5 -82q-23 -53 -89 -58q-55 -4 -112 17.5t-113 52t-86 39.5q-25 7 -56.5 -6.5t-27.5 -42.5q2 -15 13.5 -25t20.5 -13t29 -7q4 0 3.5 -4.5t-3.5 -4.5q-36 -10 -64.5 8t-27.5 56t39.5 57.5t77.5 16.5q21 -2 60 -18.5t75.5 -34.5t80.5 -33.5
t74 -15.5t56 20q13 11 20.5 31.5t-0.5 37.5q-14 21 -51 17q-15 -2 -15 5q0 3 3 5z" />
    <glyph glyph-name="ograve" unicode="&#xf2;" horiz-adv-x="833" 
d="M956 395q4 3 9 0.5t6 -7t-2 -7.5q-72 -87 -188.5 -134t-235.5 -36q0 -6 -4 -10q-31 -79 -97.5 -142.5t-144.5 -74.5q-81 -12 -144.5 27t-84.5 118q-33 133 12 238q42 89 108 149q2 48 27.5 89t69.5 61q64 26 120.5 2t92.5 -82q97 -148 67 -303q125 -14 209.5 10
t179.5 102zM299 72q112 39 160 155q-88 29 -160 86.5t-98 135.5q-29 -49 -35 -62q-54 -103 -29 -197q17 -69 57.5 -105t104.5 -13zM477 305q21 121 -43 227q-25 40 -61 61t-72 -1q-52 -35 -49 -78t43.5 -86t90.5 -76t91 -47zM260 1065q9 -22 42 -77.5t50 -101.5t10 -87
q-2 -5 -9 -8t-11 0q-13 10 -25.5 24.5t-20 25t-20 30t-18.5 28.5q-43 61 -68 137q-7 19 7.5 34t34.5 14t28 -19z" />
    <glyph glyph-name="oacute" unicode="&#xf3;" horiz-adv-x="833" 
d="M956 395q4 3 9 0.5t6 -7t-2 -7.5q-72 -87 -188.5 -134t-235.5 -36q0 -6 -4 -10q-31 -79 -97.5 -142.5t-144.5 -74.5q-81 -12 -144.5 27t-84.5 118q-33 133 12 238q42 89 108 149q2 48 27.5 89t69.5 61q64 26 120.5 2t92.5 -82q97 -148 67 -303q125 -14 209.5 10
t179.5 102zM299 72q112 39 160 155q-88 29 -160 86.5t-98 135.5q-29 -49 -35 -62q-54 -103 -29 -197q17 -69 57.5 -105t104.5 -13zM477 305q21 121 -43 227q-25 40 -61 61t-72 -1q-52 -35 -49 -78t43.5 -86t90.5 -76t91 -47zM438 1075q12 29 46 16t24 -44q-32 -87 -68 -138
q-6 -9 -18.5 -28.5t-20 -30t-20 -25t-25.5 -24.5q-6 -3 -12 0t-8 8q-7 41 9 86.5t50 102.5t43 77z" />
    <glyph glyph-name="ocircumflex" unicode="&#xf4;" horiz-adv-x="833" 
d="M956 395q4 3 9 0.5t6 -7t-2 -7.5q-72 -87 -188.5 -134t-235.5 -36q0 -6 -4 -10q-31 -79 -97.5 -142.5t-144.5 -74.5q-81 -12 -144.5 27t-84.5 118q-33 133 12 238q42 89 108 149q2 48 27.5 89t69.5 61q64 26 120.5 2t92.5 -82q97 -148 67 -303q125 -14 209.5 10
t179.5 102zM299 72q112 39 160 155q-88 29 -160 86.5t-98 135.5q-29 -49 -35 -62q-54 -103 -29 -197q17 -69 57.5 -105t104.5 -13zM477 305q21 121 -43 227q-25 40 -61 61t-72 -1q-52 -35 -49 -78t43.5 -86t90.5 -76t91 -47zM500 809q6 -19 -11 -20t-30 14q-17 19 -36 36.5
t-31 34.5t-46 70q-24 -50 -69.5 -98t-79.5 -64q-11 -5 -19.5 0.5t-9 14t1.5 12.5q17 24 48.5 67t46 65t33 60t30.5 80q3 12 19.5 10.5t19.5 -12.5q17 -55 66.5 -134.5t66.5 -135.5z" />
    <glyph glyph-name="otilde" unicode="&#xf5;" horiz-adv-x="833" 
d="M956 395q4 3 9 0.5t6 -7t-2 -7.5q-72 -87 -188.5 -134t-235.5 -36q0 -6 -4 -10q-31 -79 -97.5 -142.5t-144.5 -74.5q-81 -12 -144.5 27t-84.5 118q-33 133 12 238q42 89 108 149q2 48 27.5 89t69.5 61q64 26 120.5 2t92.5 -82q97 -148 67 -303q125 -14 209.5 10
t179.5 102zM299 72q112 39 160 155q-88 29 -160 86.5t-98 135.5q-29 -49 -35 -62q-54 -103 -29 -197q17 -69 57.5 -105t104.5 -13zM477 305q21 121 -43 227q-25 40 -61 61t-72 -1q-52 -35 -49 -78t43.5 -86t90.5 -76t91 -47zM485 946q59 25 88 -18q24 -36 5 -82
q-23 -53 -89 -58q-55 -4 -112 17.5t-113 52t-86 39.5q-25 7 -56.5 -6.5t-27.5 -42.5q1 -12 7 -20t17.5 -13t18 -7t21.5 -5q4 0 3.5 -4t-3.5 -4q-36 -10 -64.5 7.5t-27.5 55.5t39 57.5t77 16.5q21 -2 60 -18.5t75.5 -34.5t80.5 -33.5t74 -15.5t56 20q13 11 21.5 33.5
t-0.5 36.5q-13 20 -51 16q-16 -2 -16 6q0 2 3 4z" />
    <glyph glyph-name="odieresis" unicode="&#xf6;" horiz-adv-x="833" 
d="M956 395q4 3 9 0.5t6 -7t-2 -7.5q-72 -87 -188.5 -134t-235.5 -36q0 -6 -4 -10q-31 -79 -97.5 -142.5t-144.5 -74.5q-81 -12 -144.5 27t-84.5 118q-33 133 12 238q42 89 108 149q2 48 27.5 89t69.5 61q64 26 120.5 2t92.5 -82q97 -148 67 -303q125 -14 209.5 10
t179.5 102zM299 72q112 39 160 155q-88 29 -160 86.5t-98 135.5q-29 -49 -35 -62q-54 -103 -29 -197q17 -69 57.5 -105t104.5 -13zM477 305q21 121 -43 227q-25 40 -61 61t-72 -1q-52 -35 -49 -78t43.5 -86t90.5 -76t91 -47zM258 956q29 -16 35 -49q6 -39 -14.5 -70
t-55.5 -34q-32 -3 -47.5 27.5t-7.5 66.5q9 36 34 59.5t52 6.5q4 -4 4 -7zM512 907q6 -39 -14.5 -70t-55.5 -34q-32 -3 -47.5 27.5t-7.5 66.5q9 36 34 59.5t52 6.5q4 -4 4 -7q29 -16 35 -49z" />
    <glyph glyph-name="divide" unicode="&#xf7;" horiz-adv-x="731" 
d="M303 506q-40 -9 -55.5 18.5t-7 65t29.5 57.5q9 9 15 -4q22 19 52 5.5t38 -42.5q9 -34 -14 -63t-58 -37zM631 424q20 0 22.5 -20.5t-16.5 -26.5q-146 -39 -309 -42.5t-310 27.5q-16 3 -18.5 16t7 24.5t24.5 9.5q70 -11 152 -11.5t147 5t151.5 12t149.5 6.5zM254 223
q23 26 66 20t53 -42q9 -27 -3 -56t-36 -49q-26 -22 -67.5 -15.5t-49.5 42.5q-11 38 19 72q2 3 16 14q-4 8 2 14z" />
    <glyph glyph-name="ugrave" unicode="&#xf9;" horiz-adv-x="899" 
d="M1012 348q7 12 14 14t9 -5.5t-3 -20.5q-7 -13 -21.5 -44.5t-28 -60t-33.5 -67t-39 -71t-44 -67t-48.5 -59.5t-52.5 -44t-57 -25.5t-59.5 1t-62.5 31.5q-86 69 -99 275q-2 12 -2 37q-20 -62 -47 -109q-112 -223 -250 -174q-32 12 -54.5 38t-33.5 55t-17 69.5t-7 68.5t0 64
q7 216 45 358q3 11 11.5 13.5t16.5 -2.5t9 -15q2 -56 -7 -158.5t-10 -140.5v-27v-37.5t1 -40.5t3.5 -44.5t7.5 -40.5t12.5 -37.5t18.5 -27t25 -17.5q31 -10 61.5 5.5t56 51.5t48 79t42 96.5t33.5 95.5t26.5 84t17.5 55q4 15 17.5 23t27.5 7t24.5 -11t9.5 -27
q-10 -115 -8 -220q0 -60 1.5 -94t12.5 -86t33 -86q84 -129 264 119q60 81 136 219zM270 1010q9 -22 42.5 -77.5t50.5 -102t10 -87.5q-2 -5 -9.5 -8t-11.5 0q-17 13 -30 29t-31 44.5t-23 35.5q-41 58 -67 137q-7 19 7.5 34t34 14t27.5 -19z" />
    <glyph glyph-name="uacute" unicode="&#xfa;" horiz-adv-x="899" 
d="M1012 348q7 12 14 14t9 -5.5t-3 -20.5q-7 -13 -21.5 -44.5t-28 -60t-33.5 -67t-39 -71t-44 -67t-48.5 -59.5t-52.5 -44t-57 -25.5t-59.5 1t-62.5 31.5q-86 69 -99 275q-2 12 -2 37q-20 -62 -47 -109q-112 -223 -250 -174q-32 12 -54.5 38t-33.5 55t-17 69.5t-7 68.5t0 64
q7 216 45 358q3 11 11.5 13.5t16.5 -2.5t9 -15q2 -56 -7 -158.5t-10 -140.5v-27v-37.5t1 -40.5t3.5 -44.5t7.5 -40.5t12.5 -37.5t18.5 -27t25 -17.5q31 -10 61.5 5.5t56 51.5t48 79t42 96.5t33.5 95.5t26.5 84t17.5 55q4 15 17.5 23t27.5 7t24.5 -11t9.5 -27
q-10 -115 -8 -220q0 -60 1.5 -94t12.5 -86t33 -86q84 -129 264 119q60 81 136 219zM403 1012q8 18 28 19t34.5 -14t7.5 -34q-32 -88 -67 -137q-7 -10 -19 -29t-19.5 -30t-20 -25.5t-25.5 -24.5q-6 -3 -12.5 0t-8.5 8q-7 41 9 86.5t50 103t43 77.5z" />
    <glyph glyph-name="ucircumflex" unicode="&#xfb;" horiz-adv-x="899" 
d="M1012 348q7 12 14 14t9 -5.5t-3 -20.5q-7 -13 -21.5 -44.5t-28 -60t-33.5 -67t-39 -71t-44 -67t-48.5 -59.5t-52.5 -44t-57 -25.5t-59.5 1t-62.5 31.5q-86 69 -99 275q-2 12 -2 37q-20 -62 -47 -109q-112 -223 -250 -174q-32 12 -54.5 38t-33.5 55t-17 69.5t-7 68.5t0 64
q7 216 45 358q3 11 11.5 13.5t16.5 -2.5t9 -15q2 -56 -7 -158.5t-10 -140.5v-27v-37.5t1 -40.5t3.5 -44.5t7.5 -40.5t12.5 -37.5t18.5 -27t25 -17.5q31 -10 61.5 5.5t56 51.5t48 79t42 96.5t33.5 95.5t26.5 84t17.5 55q4 15 17.5 23t27.5 7t24.5 -11t9.5 -27
q-10 -115 -8 -220q0 -60 1.5 -94t12.5 -86t33 -86q84 -129 264 119q60 81 136 219zM522 760q6 -19 -11 -20t-30 14q-16 18 -30.5 32t-20.5 20.5t-20.5 27t-40.5 61.5q-24 -50 -69.5 -98t-80.5 -64q-11 -5 -19 0.5t-8.5 14t1.5 12.5q16 23 48 66.5t46 65t32.5 60t30.5 80.5
q3 12 19.5 10.5t19.5 -12.5q17 -55 66.5 -134.5t66.5 -135.5z" />
    <glyph glyph-name="udieresis" unicode="&#xfc;" horiz-adv-x="899" 
d="M1012 348q7 12 14 14t9 -5.5t-3 -20.5q-7 -13 -21.5 -44.5t-28 -60t-33.5 -67t-39 -71t-44 -67t-48.5 -59.5t-52.5 -44t-57 -25.5t-59.5 1t-62.5 31.5q-86 69 -99 275q-2 12 -2 37q-20 -62 -47 -109q-112 -223 -250 -174q-32 12 -54.5 38t-33.5 55t-17 69.5t-7 68.5t0 64
q7 216 45 358q3 11 11.5 13.5t16.5 -2.5t9 -15q2 -56 -7 -158.5t-10 -140.5v-27v-37.5t1 -40.5t3.5 -44.5t7.5 -40.5t12.5 -37.5t18.5 -27t25 -17.5q31 -10 61.5 5.5t56 51.5t48 79t42 96.5t33.5 95.5t26.5 84t17.5 55q4 15 17.5 23t27.5 7t24.5 -11t9.5 -27
q-10 -115 -8 -220q0 -60 1.5 -94t12.5 -86t33 -86q84 -129 264 119q60 81 136 219zM287 879q29 -16 35 -50q6 -39 -14.5 -70t-55.5 -34q-32 -3 -47.5 27.5t-7.5 66.5q9 36 34 59.5t52 6.5q4 -4 4 -6zM541 829q6 -39 -14.5 -70t-55.5 -34q-32 -3 -47.5 27.5t-7.5 66.5
q9 36 34 59.5t52 6.5q4 -4 4 -6q29 -16 35 -50z" />
    <glyph glyph-name="yacute" unicode="&#xfd;" horiz-adv-x="702" 
d="M788 360q20 19 29 2q6 -12 -2 -20q-197 -197 -328 -348q0 -21 -2 -35q0 -8 -2.5 -73.5t-3 -81t-3.5 -74.5t-6.5 -82.5t-9.5 -74.5t-13.5 -81l-18 -72t-24.5 -77t-31 -68q-27 -52 -61.5 -93.5t-70 -65.5t-73 -38t-71 -11t-63 15.5t-50.5 41t-32.5 66t-9 90.5t20.5 114
q19 67 59 139.5t97.5 145t102.5 124.5t110.5 122t85.5 93q2 70 2 213q-29 -66 -72 -120q-22 -28 -48.5 -47.5t-61.5 -27.5t-66 15q-36 23 -59.5 55t-32.5 69.5t-11.5 74.5t3.5 82.5t12.5 80t16.5 80t14 70.5q3 20 23 17t20 -21q2 -36 -5 -106t-11.5 -123t10 -112t55.5 -93
q32 -26 75.5 34t81 158.5t62 172t31.5 102.5q6 20 25 24.5t33.5 -8.5t8.5 -33q-17 -71 -25.5 -166t-9 -147t-0.5 -172q170 163 299 270zM276 -727q72 127 102.5 287.5t37.5 353.5q-3 -4 -47.5 -52t-52.5 -56.5t-46 -52t-49.5 -59t-42.5 -54t-45 -62t-36 -58.5t-36.5 -67
t-27.5 -65q-25 -66 -30 -119t7.5 -83.5t39 -42.5t61.5 -2.5t78.5 43.5t86.5 89zM426 1008q8 18 28 19t34.5 -14t7.5 -34q-31 -85 -68 -137q-7 -10 -19 -29t-19.5 -30t-20 -25.5t-25.5 -24.5q-6 -3 -12 0t-8 8q-7 41 9 86.5t50 103t43 77.5z" />
    <glyph glyph-name="ydieresis" unicode="&#xff;" horiz-adv-x="702" 
d="M788 360q20 19 29 2q6 -12 -2 -20q-197 -197 -328 -348q0 -21 -2 -35q0 -8 -2.5 -73.5t-3 -81t-3.5 -74.5t-6.5 -82.5t-9.5 -74.5t-13.5 -81l-18 -72t-24.5 -77t-31 -68q-27 -52 -61.5 -93.5t-70 -65.5t-73 -38t-71 -11t-63 15.5t-50.5 41t-32.5 66t-9 90.5t20.5 114
q19 67 59 139.5t97.5 145t102.5 124.5t110.5 122t85.5 93q2 70 2 213q-29 -66 -72 -120q-22 -28 -48.5 -47.5t-61.5 -27.5t-66 15q-36 23 -59.5 55t-32.5 69.5t-11.5 74.5t3.5 82.5t12.5 80t16.5 80t14 70.5q3 20 23 17t20 -21q2 -36 -5 -106t-11.5 -123t10 -112t55.5 -93
q32 -26 75.5 34t81 158.5t62 172t31.5 102.5q6 20 25 24.5t33.5 -8.5t8.5 -33q-17 -71 -25.5 -166t-9 -147t-0.5 -172q170 163 299 270zM276 -727q72 127 102.5 287.5t37.5 353.5q-3 -4 -47.5 -52t-52.5 -56.5t-46 -52t-49.5 -59t-42.5 -54t-45 -62t-36 -58.5t-36.5 -67
t-27.5 -65q-25 -66 -30 -119t7.5 -83.5t39 -42.5t61.5 -2.5t78.5 43.5t86.5 89zM248 883q29 -16 35 -49q6 -39 -14.5 -70.5t-55.5 -34.5q-32 -3 -47.5 27.5t-7.5 66.5q9 36 34 59.5t52 6.5q4 -4 4 -6zM502 834q6 -39 -14.5 -70.5t-55.5 -34.5q-32 -3 -47.5 27.5t-7.5 66.5
q9 36 34 59.5t52 6.5q4 -4 4 -6q29 -16 35 -49z" />
    <glyph glyph-name="circumflex" unicode="&#x2c6;" horiz-adv-x="372" 
d="M332 1149q6 -19 -11 -20t-30 14q-17 19 -36 36.5t-31 34.5t-46 70q-24 -50 -69.5 -98t-79.5 -64q-11 -5 -19.5 0.5t-9 14t1.5 12.5q17 24 48.5 67t46 65t33 60t30.5 80q3 12 19.5 10.5t19.5 -12.5q17 -55 66.5 -134.5t66.5 -135.5z" />
    <glyph glyph-name="tilde" unicode="&#x2dc;" horiz-adv-x="563" 
d="M420 1425q60 25 88 -18q24 -36 5 -81q-24 -53 -89 -58q-43 -3 -89.5 10t-80 31t-74.5 38.5t-67 28.5q-25 7 -56.5 -6.5t-27.5 -42.5q2 -15 13.5 -25t20.5 -13t29 -7q4 0 3.5 -4t-3.5 -4q-36 -10 -64.5 7.5t-27.5 55.5t39.5 57.5t77.5 16.5q21 -2 60 -18.5t75.5 -34.5
t80.5 -33.5t74 -15.5t56 20q13 11 20.5 32t-0.5 38q-13 20 -51 16q-15 -2 -15 5q0 3 3 5z" />
    <glyph glyph-name="endash" unicode="&#x2013;" horiz-adv-x="780" 
d="M705 387q23 -6 26.5 -22t-18.5 -25q-40 -14 -94 -21.5t-90.5 -8.5t-107.5 -1h-95q-126 -2 -281 6q-28 2 -39.5 17t0 30t39.5 17q205 10 281 12q33 1 118.5 6.5t146.5 4t114 -14.5z" />
    <glyph glyph-name="emdash" unicode="&#x2014;" horiz-adv-x="1026" 
d="M911 387q23 -6 27 -22t-18 -25q-40 -14 -94.5 -21.5t-91 -8.5t-107.5 -1h-95q-291 -4 -487 6q-28 2 -39.5 17t0 30t39.5 17q72 4 153.5 6t180.5 3.5t153 2.5q33 1 118.5 6.5t146.5 4t114 -14.5z" />
    <glyph glyph-name="quoteleft" unicode="&#x2018;" horiz-adv-x="206" 
d="M156 1436q7 4 12.5 -0.5t6 -10.5t-4.5 -10q-31 -22 -50 -49t-36 -68q18 0 29 -14q45 -42 22 -98q-14 -36 -33 -52.5t-36.5 -13.5t-33 14t-24.5 29t-8 33q4 81 56 149.5t100 90.5z" />
    <glyph glyph-name="quoteright" unicode="&#x2019;" horiz-adv-x="192" 
d="M8 1372q19 43 44.5 56t45.5 1t33.5 -33.5t11.5 -41.5q-8 -80 -64 -146.5t-104 -85.5q-7 -3 -12 2t-5 11t5 10q32 18 50.5 42.5t41.5 67.5q-17 3 -28 17q-44 47 -19 100z" />
    <glyph glyph-name="quotesinglbase" unicode="&#x201a;" horiz-adv-x="260" 
d="M78 119q19 43 44.5 55.5t45.5 0.5t33.5 -33.5t11.5 -41.5q-8 -80 -64 -146t-104 -85q-7 -3 -12 1.5t-5 10.5t5 10q32 18 50.5 42.5t41.5 68.5q-19 4 -29 16q-43 46 -18 101z" />
    <glyph glyph-name="quotedblleft" unicode="&#x201c;" horiz-adv-x="450" 
d="M383 1430q7 3 12 -2t5 -11t-5 -10q-32 -17 -50.5 -41t-41.5 -68q19 -4 29 -16q40 -47 16 -100q-16 -35 -36 -50t-37.5 -11t-32 16t-22.5 30t-7 33q9 80 66 146.5t104 83.5zM170 1434q7 3 12 -2t5 -11t-5 -10q-32 -18 -50.5 -42.5t-41.5 -68.5q19 -4 29 -16
q40 -47 16 -100q-20 -43 -45.5 -55.5t-45 0t-33 34t-11.5 41.5q9 80 65.5 145.5t104.5 84.5z" />
    <glyph glyph-name="quotedblright" unicode="&#x201d;" horiz-adv-x="407" 
d="M8 1372q19 43 44.5 56t45.5 1t33.5 -33.5t11.5 -41.5q-8 -80 -64 -146.5t-104 -85.5q-7 -3 -12 2t-5 11t5 10q32 18 50.5 42.5t41.5 67.5q-17 3 -28 17q-44 47 -19 100zM221 1372q19 43 44.5 56t45.5 1t33.5 -33.5t11.5 -41.5q-8 -80 -64 -146.5t-104 -85.5q-7 -3 -12 2
t-5 11t5 10q32 18 50.5 42.5t41.5 67.5q-17 3 -28 17q-44 47 -19 100z" />
    <glyph glyph-name="quotedblbase" unicode="&#x201e;" horiz-adv-x="483" 
d="M78 119q19 43 44.5 55.5t45.5 0.5t33.5 -33.5t11.5 -41.5q-8 -80 -64 -146t-104 -85q-7 -3 -12 1.5t-5 10.5t5 10q32 18 50.5 42.5t41.5 68.5q-19 4 -29 16q-43 46 -18 101zM291 119q19 43 44.5 55.5t45.5 0.5t33.5 -33.5t11.5 -41.5q-8 -80 -64 -146t-104 -85
q-7 -3 -12 1.5t-5 10.5t5 10q32 18 50.5 42.5t41.5 68.5q-19 4 -29 16q-43 46 -18 101z" />
    <glyph glyph-name="dagger" unicode="&#x2020;" horiz-adv-x="307" 
d="M168 1114q14 -174 21 -374t7 -329.5t-1.5 -370.5t-1.5 -343q0 -42 -32 -55q-25 -9 -36 9q-4 7 -4 17q9 207 0.5 717.5t11.5 730.5q1 7 9 13t16.5 3t9.5 -18zM408 389q11 -5 13 -18t-9 -19q-19 -10 -40 -16t-47 -8t-42.5 -2.5t-49 0t-43.5 0.5q-165 -4 -278 6
q-16 1 -22 13.5t0 24.5t22 13q54 3 150.5 6t127.5 4q18 0 68 5t84.5 3.5t65.5 -12.5z" />
    <glyph glyph-name="daggerdbl" unicode="&#x2021;" horiz-adv-x="307" 
d="M168 1114q14 -174 21 -374t7 -329.5t-1.5 -370.5t-1.5 -343q0 -42 -32 -55q-25 -9 -36 9q-4 7 -4 17q9 207 0.5 717.5t11.5 730.5q1 7 9 13t16.5 3t9.5 -18zM-115 467q-11 6 -8 18q4 9 11 16.5t18 12.5t21 9.5t25.5 7t25 4.5t27.5 3t25 1.5t24.5 1t19.5 0.5
q45 3 147.5 2.5t147.5 3.5q21 1 30 -16.5t0 -36t-30 -19.5q-66 -1 -90.5 -1t-91 2t-91.5 3q-109 0 -147 -8q-5 -1 -13.5 -3.5t-13 -3.5t-11 -1.5t-13 0.5t-13.5 4zM401 307q19 2 27 -13t0 -31.5t-27 -18.5q-182 -19 -290 -19q-16 0 -57.5 0.5t-64 1t-55.5 5t-59 12.5
q-7 2 -7 10.5t7 11.5q37 10 78 14t105 5t81 2q148 7 262 20z" />
    <glyph glyph-name="bullet" unicode="&#x2022;" horiz-adv-x="221" 
d="M121 477q33 -12 53 -49.5t8 -71.5q-15 -42 -66 -59.5t-87 12.5q-28 24 -29 63t23 66q12 27 40.5 39t57.5 0z" />
    <glyph glyph-name="ellipsis" unicode="&#x2026;" horiz-adv-x="772" 
d="M225 102q6 -39 -14 -70t-55 -34q-32 -3 -48 27.5t-8 66.5q9 36 34 59.5t52 6.5q4 -4 4 -6q29 -16 35 -50zM471 102q6 -39 -14.5 -70t-55.5 -34q-32 -3 -47.5 27.5t-7.5 66.5q9 36 34 59.5t52 6.5q4 -4 4 -6q29 -16 35 -50zM698 102q6 -39 -14 -70t-55 -34
q-32 -3 -48 27.5t-8 66.5q9 36 34 59.5t52 6.5q5 -5 5 -6q28 -16 34 -50z" />
    <glyph glyph-name="guilsinglleft" unicode="&#x2039;" horiz-adv-x="702" 
d="M606 109q21 -13 25 -36q3 -17 -10 -17q-2 0 -5 1q-35 10 -263 129t-296 140q-19 6 -22 38.5t18 38.5q49 13 120 56.5t135 91t156 99.5t177 79q6 2 9 -2t2.5 -9.5t-5.5 -8.5q-79 -32 -166.5 -98t-177.5 -139t-160 -110q73 -45 217.5 -118.5t245.5 -134.5z" />
    <glyph glyph-name="guilsinglright" unicode="&#x203a;" horiz-adv-x="718" 
d="M588 426q17 -14 15 -34t-21 -25q-63 -61 -266.5 -162t-278.5 -123q-17 -3 -16 12q2 22 23 37q1 1 3 2q100 61 252.5 143t226.5 127q-71 37 -244.5 163t-275.5 167q-5 3 -5.5 9t2.5 10t9 2q269 -68 576 -328z" />
    <glyph glyph-name="trademark" unicode="&#x2122;" horiz-adv-x="1034" 
d="M440 1427q20 -5 24 -21t-8.5 -29.5t-31.5 -10.5q-55 8 -162 12q1 -34 4.5 -177.5t3.5 -213.5q-1 -18 -15.5 -26t-29 0t-14.5 26q-2 135 2 391h-61q-4 0 -36 -1t-46.5 0t-36.5 7.5t-33 20.5q0 4 2 4q20 14 58 19t70.5 3t62.5 1q1 0 26 2t29 2t26.5 1.5t29.5 1.5t26.5 0.5
t29.5 -0.5t26 -2.5t28.5 -4t25.5 -5.5zM971 1407q15 -126 10 -426q0 -22 -22.5 -25t-28.5 19q-13 41 -15 105t1 142.5t2 110.5q-7 -10 -29 -44t-33 -49t-31.5 -38.5t-40 -34.5t-41.5 -14q-14 -2 -27.5 0t-26 9.5t-23 14t-22.5 21t-20 23.5t-19.5 28t-17 27.5t-17.5 28.5
t-15 26q0 -66 10 -151q1 -12 6.5 -43.5t8 -52t0.5 -46.5t-11 -43q-6 -11 -19.5 -11t-19.5 11q-8 14 -11 29.5t-3 41.5v32q-1 21 -4 63t-4 62q-4 40 -3 95.5t17 92.5q6 11 17.5 7.5t13.5 -13.5v-2l2 -2q4 -4 49 -63.5t84.5 -96t56.5 -20.5q31 29 85 102.5t90 103.5
q15 13 31.5 6.5t19.5 -26.5z" />
  </font>
</defs>
</svg>
