<?xml version="1.0" encoding="UTF-8"?>
<svg id="Layer_2" data-name="Layer 2" xmlns="http://www.w3.org/2000/svg" viewBox="0 0 612 612">
  <defs>
    <style>
      .cls-1 {
        fill: #ec2839;
      }

      .cls-2 {
        fill: #fff;
      }

      .cls-3 {
        fill: #fcd7d7;
      }
    </style>
  </defs>
  <g id="Layer_1-2" data-name="Layer 1">
    <rect class="cls-2" width="612" height="612"/>
    <path class="cls-1" d="m365.57,272.76c18.98,14.12,40.52,30.97,55.79,49.3,41.09,49.31,53.41,108.09,26.69,163.24-26.3,54.3-79.02,81.41-142.86,85.79-43.4,2.98-101.31-16.54-127.51-47.55-10.43-12.34-10.99-23.73-15.2-39.33-13-48.12,2.74-93.55,42.97-121.7,24-16.79,53.94-34.59,90.23-23.53,47.65,14.52,101.78,66.98,61.79,116.17-32.67,40.19-105.47,21.04-109.28,16.79s-4.78-6.86-1.91-11.71c2.64-4.46,8.41-5.69,13.51-6.56,12.96-2.22,32.05.23,42.62-7.59,10.22-7.57,16.15-20.58,14.38-33.28-2.06-14.81-10.61-16.06-21.15-25.75-7.75-7.12-26.09-9.17-35.69-7.82-41.86,5.88-75.99,44.07-68.3,88.02,11.28,64.46,96.24,79.73,144.53,65.17,25.37-7.65,75.87-45.76,55.36-111.26-10.04-32.05-34.88-57.76-63.26-74.19-.28-.16-82.09-46.75-114.48-79.42-37.16-37.5-51.37-90.13-32.64-140.73,2.59-6.99,5.79-13.76,9.59-20.18,26.18-44.22,73.12-69.01,123.06-68.3,35.59.5,85.45,22.36,97.82,60.74,2.96,9.18,4.26,18.53,1.46,28.4-8.37,29.49-34.92,38.43-54.46,35.19-25.86-4.29-39.55-20.74-39.55-46.95,0-12.69,3.99-22.23,12.99-31.2,2.79-2.78,3.6-8.06,6.29-10.71-18.35-14.8-57.68-5.85-71.53,1.08-39.61,19.81-52.65,58.65-32.26,94.99,18.9,33.67,127.5,100.26,131.01,102.87Z"/>
    <path class="cls-3" d="m356.4,264.46c18.98,14.12,38.5,27.88,54.76,45.33,45.1,48.42,51.38,122.96,17.97,176.42-37.44,59.9-92.37,80.5-144.72,80.5-43.51,0-85.83-16.76-112.03-47.77-10.43-12.34-17.55-27.28-21.77-42.88-13-48.12,2.74-93.55,42.97-121.7,24-16.79,64.22-28.61,100.52-17.55,47.65,14.52,90.35,74.36,44.26,116.62-19.28,17.68-48.55,23.8-74.08,22.8-5.63-.22-11.54-.97-16.09-4.29-4.55-3.32-7.12-9.96-4.25-14.81,2.64-4.46,8.41-5.69,13.51-6.56,12.96-2.22,22.52-4.82,33.09-12.65,10.22-7.57,16.15-20.58,14.38-33.28-2.06-14.81-14.31-24.01-28.27-27.19-9.46-2.15-21.86-2.87-31.46-1.52-41.86,5.88-71.6,38.97-65.41,83.16,9.19,65.59,90.51,85.48,144.53,65.17,24.8-9.32,75.87-45.76,55.36-111.26-10.04-32.05-36.72-55.33-65.1-71.76-.28-.16-80.25-49.18-112.63-81.86-37.16-37.5-51.37-90.13-32.64-140.73,2.59-6.99,5.79-13.76,9.59-20.18,26.18-44.22,75.28-65.5,125.22-64.8,35.59.5,82.82,20.92,94.56,57.24,2.97,9.18,3.31,18.96,1.46,28.4-4.29,21.88-24.01,38.18-46.31,38.18-26.21,0-47.53-21.32-47.53-47.53,0-12.69,4.93-24.63,13.93-33.6,2.79-2.78,6.22-5.01,8.92-7.66-18.35-14.8-52.28-12.57-72.6-4.07-40.86,17.08-60.34,58.36-33.81,97.09,21.81,31.85,130.2,100.11,133.71,102.71Z"/>
  </g>
</svg>